%TF.GenerationSoftware,KiCad,Pcbnew,9.0.7*%
%TF.CreationDate,2026-08-24T13:22:56+05:30*%
%TF.ProjectId,dev-real-production,6465762d-7265-4616-9c2d-70726f647563,rev?*%
%TF.SameCoordinates,Original*%
%TF.FileFunction,Legend,Top*%
%TF.FilePolarity,Positive*%
%FSLAX46Y46*%
G04 Gerber Fmt 4.6, Leading zero omitted, Abs format (unit mm)*
G04 Created by KiCad (PCBNEW 9.0.7) date 2026-08-24 13:22:56*
%MOMM*%
%LPD*%
G01*
G04 APERTURE LIST*
%ADD10C,0.150000*%
%ADD11C,0.100000*%
%ADD12C,0.090000*%
%ADD13C,0.120000*%
%ADD14C,0.200000*%
%ADD15C,0.300000*%
%ADD16C,0.400000*%
%ADD17C,0.152400*%
G04 APERTURE END LIST*
D10*
X71833333Y-61054819D02*
X71357143Y-61054819D01*
X71357143Y-61054819D02*
X71357143Y-60054819D01*
X72690476Y-61054819D02*
X72119048Y-61054819D01*
X72404762Y-61054819D02*
X72404762Y-60054819D01*
X72404762Y-60054819D02*
X72309524Y-60197676D01*
X72309524Y-60197676D02*
X72214286Y-60292914D01*
X72214286Y-60292914D02*
X72119048Y-60340533D01*
D11*
X15080002Y-16820238D02*
X15080002Y-16448809D01*
X15730002Y-16634523D02*
X15080002Y-16634523D01*
X15730002Y-15860714D02*
X15420478Y-16077381D01*
X15730002Y-16232143D02*
X15080002Y-16232143D01*
X15080002Y-16232143D02*
X15080002Y-15984524D01*
X15080002Y-15984524D02*
X15110954Y-15922619D01*
X15110954Y-15922619D02*
X15141907Y-15891666D01*
X15141907Y-15891666D02*
X15203811Y-15860714D01*
X15203811Y-15860714D02*
X15296669Y-15860714D01*
X15296669Y-15860714D02*
X15358573Y-15891666D01*
X15358573Y-15891666D02*
X15389526Y-15922619D01*
X15389526Y-15922619D02*
X15420478Y-15984524D01*
X15420478Y-15984524D02*
X15420478Y-16232143D01*
X15730002Y-15241666D02*
X15730002Y-15613095D01*
X15730002Y-15427381D02*
X15080002Y-15427381D01*
X15080002Y-15427381D02*
X15172859Y-15489285D01*
X15172859Y-15489285D02*
X15234764Y-15551190D01*
X15234764Y-15551190D02*
X15265716Y-15613095D01*
D10*
X62238095Y-60454819D02*
X62238095Y-61264342D01*
X62238095Y-61264342D02*
X62285714Y-61359580D01*
X62285714Y-61359580D02*
X62333333Y-61407200D01*
X62333333Y-61407200D02*
X62428571Y-61454819D01*
X62428571Y-61454819D02*
X62619047Y-61454819D01*
X62619047Y-61454819D02*
X62714285Y-61407200D01*
X62714285Y-61407200D02*
X62761904Y-61359580D01*
X62761904Y-61359580D02*
X62809523Y-61264342D01*
X62809523Y-61264342D02*
X62809523Y-60454819D01*
X63190476Y-60454819D02*
X63809523Y-60454819D01*
X63809523Y-60454819D02*
X63476190Y-60835771D01*
X63476190Y-60835771D02*
X63619047Y-60835771D01*
X63619047Y-60835771D02*
X63714285Y-60883390D01*
X63714285Y-60883390D02*
X63761904Y-60931009D01*
X63761904Y-60931009D02*
X63809523Y-61026247D01*
X63809523Y-61026247D02*
X63809523Y-61264342D01*
X63809523Y-61264342D02*
X63761904Y-61359580D01*
X63761904Y-61359580D02*
X63714285Y-61407200D01*
X63714285Y-61407200D02*
X63619047Y-61454819D01*
X63619047Y-61454819D02*
X63333333Y-61454819D01*
X63333333Y-61454819D02*
X63238095Y-61407200D01*
X63238095Y-61407200D02*
X63190476Y-61359580D01*
D12*
X9204260Y-16419047D02*
X9649498Y-16419047D01*
X9649498Y-16419047D02*
X9701879Y-16392857D01*
X9701879Y-16392857D02*
X9728070Y-16366666D01*
X9728070Y-16366666D02*
X9754260Y-16314285D01*
X9754260Y-16314285D02*
X9754260Y-16209523D01*
X9754260Y-16209523D02*
X9728070Y-16157142D01*
X9728070Y-16157142D02*
X9701879Y-16130952D01*
X9701879Y-16130952D02*
X9649498Y-16104761D01*
X9649498Y-16104761D02*
X9204260Y-16104761D01*
X9204260Y-15607143D02*
X9204260Y-15711905D01*
X9204260Y-15711905D02*
X9230450Y-15764286D01*
X9230450Y-15764286D02*
X9256641Y-15790476D01*
X9256641Y-15790476D02*
X9335212Y-15842857D01*
X9335212Y-15842857D02*
X9439974Y-15869048D01*
X9439974Y-15869048D02*
X9649498Y-15869048D01*
X9649498Y-15869048D02*
X9701879Y-15842857D01*
X9701879Y-15842857D02*
X9728070Y-15816667D01*
X9728070Y-15816667D02*
X9754260Y-15764286D01*
X9754260Y-15764286D02*
X9754260Y-15659524D01*
X9754260Y-15659524D02*
X9728070Y-15607143D01*
X9728070Y-15607143D02*
X9701879Y-15580952D01*
X9701879Y-15580952D02*
X9649498Y-15554762D01*
X9649498Y-15554762D02*
X9518546Y-15554762D01*
X9518546Y-15554762D02*
X9466165Y-15580952D01*
X9466165Y-15580952D02*
X9439974Y-15607143D01*
X9439974Y-15607143D02*
X9413784Y-15659524D01*
X9413784Y-15659524D02*
X9413784Y-15764286D01*
X9413784Y-15764286D02*
X9439974Y-15816667D01*
X9439974Y-15816667D02*
X9466165Y-15842857D01*
X9466165Y-15842857D02*
X9518546Y-15869048D01*
D13*
%TO.C,R56*%
X4662742Y-36377500D02*
X5137258Y-36377500D01*
X4662742Y-37422500D02*
X5137258Y-37422500D01*
%TO.C,R17*%
X52002259Y-16003800D02*
X52309541Y-16003800D01*
X52002259Y-16763800D02*
X52309541Y-16763800D01*
%TO.C,J7*%
X2000000Y-14000000D02*
X9600000Y-14000000D01*
X2000000Y-22000000D02*
X2000000Y-14000000D01*
X9600000Y-14000000D02*
X9600000Y-22000000D01*
X9600000Y-22000000D02*
X2000000Y-22000000D01*
%TO.C,C107*%
X26358920Y-46308800D02*
X26640080Y-46308800D01*
X26358920Y-47328800D02*
X26640080Y-47328800D01*
%TO.C,C_IOVDD1*%
X67892164Y-85640000D02*
X68107836Y-85640000D01*
X67892164Y-86360000D02*
X68107836Y-86360000D01*
%TO.C,J19*%
X4320000Y-52190000D02*
X5500000Y-52190000D01*
X4320000Y-53000000D02*
X4320000Y-52190000D01*
X4320000Y-53810000D02*
X4320000Y-58825000D01*
X4320000Y-53810000D02*
X4833292Y-53810000D01*
X4320000Y-58825000D02*
X5182077Y-58825000D01*
X5817923Y-58825000D02*
X6452077Y-58825000D01*
X7087923Y-52255000D02*
X7950000Y-52255000D01*
X7087923Y-58825000D02*
X7950000Y-58825000D01*
X7950000Y-52255000D02*
X7950000Y-58825000D01*
%TO.C,C126*%
X20424620Y-45042800D02*
X20705780Y-45042800D01*
X20424620Y-46062800D02*
X20705780Y-46062800D01*
%TO.C,C82*%
X95059420Y-12490000D02*
X95340580Y-12490000D01*
X95059420Y-13510000D02*
X95340580Y-13510000D01*
%TO.C,C117*%
X39406720Y-74579500D02*
X39687880Y-74579500D01*
X39406720Y-75599500D02*
X39687880Y-75599500D01*
%TO.C,C57*%
X80264500Y-20892164D02*
X80264500Y-21107836D01*
X80984500Y-20892164D02*
X80984500Y-21107836D01*
D10*
%TO.C,U12*%
X53600000Y-8300000D02*
X57600000Y-8300000D01*
X53600000Y-13700000D02*
X57600000Y-13700000D01*
D13*
X53250000Y-8300000D02*
X53010000Y-7970000D01*
X53490000Y-7970000D01*
X53250000Y-8300000D01*
G36*
X53250000Y-8300000D02*
G01*
X53010000Y-7970000D01*
X53490000Y-7970000D01*
X53250000Y-8300000D01*
G37*
%TO.C,C114*%
X14077320Y-54367100D02*
X14358480Y-54367100D01*
X14077320Y-55387100D02*
X14358480Y-55387100D01*
%TO.C,C_DVDD3*%
X63524064Y-78511900D02*
X63739736Y-78511900D01*
X63524064Y-79231900D02*
X63739736Y-79231900D01*
%TO.C,R68*%
X8262742Y-39077500D02*
X8737258Y-39077500D01*
X8262742Y-40122500D02*
X8737258Y-40122500D01*
%TO.C,R64*%
X33462742Y-36377500D02*
X33937258Y-36377500D01*
X33462742Y-37422500D02*
X33937258Y-37422500D01*
%TO.C,C90*%
X60359420Y-19490000D02*
X60640580Y-19490000D01*
X60359420Y-20510000D02*
X60640580Y-20510000D01*
%TO.C,J12*%
X42620000Y-5580000D02*
X42620000Y-4200000D01*
X44000000Y-5580000D02*
X42620000Y-5580000D01*
X45270000Y-2820000D02*
X50460000Y-2820000D01*
X45270000Y-5580000D02*
X45270000Y-2820000D01*
X45270000Y-5580000D02*
X50460000Y-5580000D01*
X50460000Y-5580000D02*
X50460000Y-2820000D01*
%TO.C,R8*%
X48646359Y-83620000D02*
X48953641Y-83620000D01*
X48646359Y-84380000D02*
X48953641Y-84380000D01*
%TO.C,C61*%
X81248764Y-17999000D02*
X81464436Y-17999000D01*
X81248764Y-18719000D02*
X81464436Y-18719000D01*
%TO.C,C16*%
X24892164Y-12140000D02*
X25107836Y-12140000D01*
X24892164Y-12860000D02*
X25107836Y-12860000D01*
%TO.C,U2*%
X89490000Y-60610000D02*
X89490000Y-60185000D01*
X89507739Y-58390000D02*
X89665000Y-58390000D01*
X89665000Y-60610000D02*
X89490000Y-60610000D01*
X91535000Y-58390000D02*
X91710000Y-58390000D01*
X91710000Y-58390000D02*
X91710000Y-58815000D01*
X91710000Y-60185000D02*
X91710000Y-60610000D01*
X91710000Y-60610000D02*
X91535000Y-60610000D01*
X89460000Y-58910000D02*
X89180000Y-58910000D01*
X89460000Y-58630000D01*
X89460000Y-58910000D01*
G36*
X89460000Y-58910000D02*
G01*
X89180000Y-58910000D01*
X89460000Y-58630000D01*
X89460000Y-58910000D01*
G37*
%TO.C,C97*%
X43040620Y-62990500D02*
X43321780Y-62990500D01*
X43040620Y-64010500D02*
X43321780Y-64010500D01*
%TO.C,C125*%
X17333920Y-47188800D02*
X17615080Y-47188800D01*
X17333920Y-48208800D02*
X17615080Y-48208800D01*
%TO.C,C_USB1*%
X53103964Y-92428200D02*
X53319636Y-92428200D01*
X53103964Y-93148200D02*
X53319636Y-93148200D01*
%TO.C,C55*%
X87077964Y-32071900D02*
X87293636Y-32071900D01*
X87077964Y-32791900D02*
X87293636Y-32791900D01*
%TO.C,J10*%
X73330000Y-99640000D02*
X73330000Y-97940000D01*
X82670000Y-99640000D02*
X82670000Y-97940000D01*
%TO.C,FB5*%
X96837221Y-31390000D02*
X97162779Y-31390000D01*
X96837221Y-32410000D02*
X97162779Y-32410000D01*
%TO.C,R62*%
X26262742Y-36377500D02*
X26737258Y-36377500D01*
X26262742Y-37422500D02*
X26737258Y-37422500D01*
%TO.C,RTOP1*%
X57105842Y-58820600D02*
X57580358Y-58820600D01*
X57105842Y-59865600D02*
X57580358Y-59865600D01*
%TO.C,U19*%
X89790000Y-3340000D02*
X91610000Y-3340000D01*
X89790000Y-3390000D02*
X89790000Y-3340000D01*
X89790000Y-6460000D02*
X89790000Y-6410000D01*
X91610000Y-3340000D02*
X91610000Y-3390000D01*
X91610000Y-4510000D02*
X91610000Y-5290000D01*
X91610000Y-6410000D02*
X91610000Y-6460000D01*
X91610000Y-6460000D02*
X89790000Y-6460000D01*
X89250000Y-3390000D02*
X89010000Y-3060000D01*
X89490000Y-3060000D01*
X89250000Y-3390000D01*
G36*
X89250000Y-3390000D02*
G01*
X89010000Y-3060000D01*
X89490000Y-3060000D01*
X89250000Y-3390000D01*
G37*
%TO.C,R29*%
X15557759Y-91653900D02*
X15865041Y-91653900D01*
X15557759Y-92413900D02*
X15865041Y-92413900D01*
%TO.C,R69*%
X11862742Y-39077500D02*
X12337258Y-39077500D01*
X11862742Y-40122500D02*
X12337258Y-40122500D01*
%TO.C,L1*%
X68350000Y-61700000D02*
X70525000Y-61700000D01*
X68350000Y-68300000D02*
X70525000Y-68300000D01*
X73475000Y-61700000D02*
X75650000Y-61700000D01*
X73475000Y-68300000D02*
X75650000Y-68300000D01*
%TO.C,REXTVDD1*%
X60162742Y-52377500D02*
X60637258Y-52377500D01*
X60162742Y-53422500D02*
X60637258Y-53422500D01*
%TO.C,U9*%
X49780800Y-26683800D02*
X48730800Y-26683800D01*
X49780800Y-28663800D02*
X48480800Y-28663800D01*
X48360800Y-26683800D02*
X48080800Y-26683800D01*
X48360800Y-26403800D01*
X48360800Y-26683800D01*
G36*
X48360800Y-26683800D02*
G01*
X48080800Y-26683800D01*
X48360800Y-26403800D01*
X48360800Y-26683800D01*
G37*
%TO.C,C46*%
X52235264Y-29296900D02*
X52450936Y-29296900D01*
X52235264Y-30016900D02*
X52450936Y-30016900D01*
%TO.C,R41*%
X65620000Y-21453641D02*
X65620000Y-21146359D01*
X66380000Y-21453641D02*
X66380000Y-21146359D01*
%TO.C,TR1*%
X12724500Y-14660000D02*
G75*
G02*
X12584500Y-14660000I-70000J0D01*
G01*
X12584500Y-14660000D02*
G75*
G02*
X12724500Y-14660000I70000J0D01*
G01*
%TO.C,C105*%
X14950120Y-56763000D02*
X15231280Y-56763000D01*
X14950120Y-57783000D02*
X15231280Y-57783000D01*
%TO.C,C12*%
X25804964Y-20089200D02*
X26020636Y-20089200D01*
X25804964Y-20809200D02*
X26020636Y-20809200D01*
%TO.C,C116*%
X43665520Y-70005300D02*
X43946680Y-70005300D01*
X43665520Y-71025300D02*
X43946680Y-71025300D01*
%TO.C,C88*%
X96859420Y-17890000D02*
X97140580Y-17890000D01*
X96859420Y-18910000D02*
X97140580Y-18910000D01*
%TO.C,C98*%
X34945120Y-73540800D02*
X35226280Y-73540800D01*
X34945120Y-74560800D02*
X35226280Y-74560800D01*
%TO.C,C127*%
X25118320Y-43292200D02*
X25399480Y-43292200D01*
X25118320Y-44312200D02*
X25399480Y-44312200D01*
%TO.C,J1*%
X93680000Y-62380000D02*
X103720000Y-62380000D01*
X93680000Y-72620000D02*
X93680000Y-62380000D01*
X96700000Y-72620000D02*
X96700000Y-62380000D01*
X101600000Y-72620000D02*
X101600000Y-62380000D01*
X103100000Y-72620000D02*
X103100000Y-62380000D01*
X103720000Y-62380000D02*
X103720000Y-69700000D01*
X103720000Y-70300000D02*
X103720000Y-72620000D01*
X103720000Y-72620000D02*
X93680000Y-72620000D01*
X104330000Y-70440000D02*
X103720000Y-70000000D01*
X104330000Y-69560000D01*
X104330000Y-70440000D01*
G36*
X104330000Y-70440000D02*
G01*
X103720000Y-70000000D01*
X104330000Y-69560000D01*
X104330000Y-70440000D01*
G37*
%TO.C,Y6*%
X47773300Y-67500800D02*
X49123300Y-67500800D01*
X47773300Y-69250800D02*
X49123300Y-69250800D01*
%TO.C,C62*%
X87520664Y-34255000D02*
X87736336Y-34255000D01*
X87520664Y-34975000D02*
X87736336Y-34975000D01*
%TO.C,U8*%
X64073100Y-31196500D02*
X65893100Y-31196500D01*
X64073100Y-31246500D02*
X64073100Y-31196500D01*
X64073100Y-34316500D02*
X64073100Y-34266500D01*
X65893100Y-31196500D02*
X65893100Y-31246500D01*
X65893100Y-32366500D02*
X65893100Y-33146500D01*
X65893100Y-34266500D02*
X65893100Y-34316500D01*
X65893100Y-34316500D02*
X64073100Y-34316500D01*
X63533100Y-31246500D02*
X63293100Y-30916500D01*
X63773100Y-30916500D01*
X63533100Y-31246500D01*
G36*
X63533100Y-31246500D02*
G01*
X63293100Y-30916500D01*
X63773100Y-30916500D01*
X63533100Y-31246500D01*
G37*
%TO.C,R31*%
X12853442Y-89204500D02*
X13327958Y-89204500D01*
X12853442Y-90249500D02*
X13327958Y-90249500D01*
%TO.C,C122*%
X19344120Y-75296100D02*
X19625280Y-75296100D01*
X19344120Y-76316100D02*
X19625280Y-76316100D01*
%TO.C,R55*%
X46563042Y-49716900D02*
X47037558Y-49716900D01*
X46563042Y-50761900D02*
X47037558Y-50761900D01*
%TO.C,C123*%
X13412220Y-52055200D02*
X13693380Y-52055200D01*
X13412220Y-53075200D02*
X13693380Y-53075200D01*
%TO.C,RCC1*%
X69329659Y-79661200D02*
X69636941Y-79661200D01*
X69329659Y-80421200D02*
X69636941Y-80421200D01*
%TO.C,C45*%
X55420064Y-31248500D02*
X55635736Y-31248500D01*
X55420064Y-31968500D02*
X55635736Y-31968500D01*
%TO.C,R70*%
X78746359Y-59120000D02*
X79053641Y-59120000D01*
X78746359Y-59880000D02*
X79053641Y-59880000D01*
%TO.C,U24*%
X42890000Y-75890000D02*
X43365000Y-75890000D01*
X42890000Y-76365000D02*
X42890000Y-75890000D01*
X42890000Y-80110000D02*
X42890000Y-79635000D01*
X43365000Y-80110000D02*
X42890000Y-80110000D01*
X46635000Y-75890000D02*
X47110000Y-75890000D01*
X47110000Y-75890000D02*
X47110000Y-76365000D01*
X47110000Y-79635000D02*
X47110000Y-80110000D01*
X47110000Y-80110000D02*
X46635000Y-80110000D01*
X42390000Y-76750000D02*
X42060000Y-76990000D01*
X42060000Y-76510000D01*
X42390000Y-76750000D01*
G36*
X42390000Y-76750000D02*
G01*
X42060000Y-76990000D01*
X42060000Y-76510000D01*
X42390000Y-76750000D01*
G37*
%TO.C,U21*%
X65781500Y-23862100D02*
X66256500Y-23862100D01*
X65781500Y-24337100D02*
X65781500Y-23862100D01*
X65781500Y-29082100D02*
X65781500Y-28607100D01*
X66256500Y-29082100D02*
X65781500Y-29082100D01*
X70526500Y-23862100D02*
X71001500Y-23862100D01*
X71001500Y-23862100D02*
X71001500Y-24337100D01*
X71001500Y-28607100D02*
X71001500Y-29082100D01*
X71001500Y-29082100D02*
X70526500Y-29082100D01*
X65251500Y-24722100D02*
X64921500Y-24962100D01*
X64921500Y-24482100D01*
X65251500Y-24722100D01*
G36*
X65251500Y-24722100D02*
G01*
X64921500Y-24962100D01*
X64921500Y-24482100D01*
X65251500Y-24722100D01*
G37*
%TO.C,C68*%
X24387320Y-93098500D02*
X24668480Y-93098500D01*
X24387320Y-94118500D02*
X24668480Y-94118500D01*
%TO.C,C40*%
X57892164Y-17240000D02*
X58107836Y-17240000D01*
X57892164Y-17960000D02*
X58107836Y-17960000D01*
%TO.C,R53*%
X41590542Y-44104100D02*
X42065058Y-44104100D01*
X41590542Y-45149100D02*
X42065058Y-45149100D01*
%TO.C,COUT1*%
X69904748Y-69484000D02*
X71327252Y-69484000D01*
X69904748Y-72204000D02*
X71327252Y-72204000D01*
%TO.C,R43*%
X99462742Y-43077500D02*
X99937258Y-43077500D01*
X99462742Y-44122500D02*
X99937258Y-44122500D01*
%TO.C,C110*%
X42768720Y-56763000D02*
X43049880Y-56763000D01*
X42768720Y-57783000D02*
X43049880Y-57783000D01*
%TO.C,R37*%
X70732500Y-15703641D02*
X70732500Y-15396359D01*
X71492500Y-15703641D02*
X71492500Y-15396359D01*
%TO.C,C66*%
X35607948Y-88938800D02*
X36130452Y-88938800D01*
X35607948Y-90408800D02*
X36130452Y-90408800D01*
%TO.C,C_IOVDD7*%
X52764064Y-89271900D02*
X52979736Y-89271900D01*
X52764064Y-89991900D02*
X52979736Y-89991900D01*
%TO.C,C6*%
X70811364Y-88132200D02*
X71027036Y-88132200D01*
X70811364Y-88852200D02*
X71027036Y-88852200D01*
%TO.C,C103*%
X14514220Y-61745000D02*
X14795380Y-61745000D01*
X14514220Y-62765000D02*
X14795380Y-62765000D01*
%TO.C,C50*%
X79982820Y-35023400D02*
X80263980Y-35023400D01*
X79982820Y-36043400D02*
X80263980Y-36043400D01*
%TO.C,C33*%
X63213564Y-27195600D02*
X63429236Y-27195600D01*
X63213564Y-27915600D02*
X63429236Y-27915600D01*
%TO.C,C135*%
X47895120Y-62996100D02*
X48176280Y-62996100D01*
X47895120Y-64016100D02*
X48176280Y-64016100D01*
%TO.C,C99*%
X31359920Y-74671200D02*
X31641080Y-74671200D01*
X31359920Y-75691200D02*
X31641080Y-75691200D01*
%TO.C,J14*%
X101620000Y-2820000D02*
X103000000Y-2820000D01*
X101620000Y-4200000D02*
X101620000Y-2820000D01*
X101620000Y-5470000D02*
X101620000Y-10660000D01*
X101620000Y-5470000D02*
X104380000Y-5470000D01*
X101620000Y-10660000D02*
X104380000Y-10660000D01*
X104380000Y-5470000D02*
X104380000Y-10660000D01*
%TO.C,C64*%
X36338748Y-85265000D02*
X36861252Y-85265000D01*
X36338748Y-86735000D02*
X36861252Y-86735000D01*
%TO.C,R44*%
X21415242Y-42739000D02*
X21889758Y-42739000D01*
X21415242Y-43784000D02*
X21889758Y-43784000D01*
%TO.C,C34*%
X60341364Y-29552800D02*
X60557036Y-29552800D01*
X60341364Y-30272800D02*
X60557036Y-30272800D01*
D14*
%TO.C,U3*%
X59950000Y-61950000D02*
X59950000Y-62850000D01*
X59950000Y-61950000D02*
X60850000Y-61950000D01*
X59950000Y-67150000D02*
X59950000Y-68050000D01*
X59950000Y-68050000D02*
X60850000Y-68050000D01*
X65150000Y-61950000D02*
X66050000Y-61950000D01*
X65150000Y-68050000D02*
X66050000Y-68050000D01*
X66050000Y-61950000D02*
X66050000Y-62850000D01*
X66050000Y-67150000D02*
X66050000Y-68050000D01*
D15*
X59700000Y-62250000D02*
G75*
G02*
X59400000Y-62250000I-150000J0D01*
G01*
X59400000Y-62250000D02*
G75*
G02*
X59700000Y-62250000I150000J0D01*
G01*
D13*
%TO.C,L2*%
X49746321Y-90349500D02*
X50071879Y-90349500D01*
X49746321Y-91369500D02*
X50071879Y-91369500D01*
%TO.C,R25*%
X81135242Y-41290700D02*
X81609758Y-41290700D01*
X81135242Y-42335700D02*
X81609758Y-42335700D01*
%TO.C,C47*%
X49990664Y-24891500D02*
X50206336Y-24891500D01*
X49990664Y-25611500D02*
X50206336Y-25611500D01*
%TO.C,R51*%
X33740542Y-40281900D02*
X34215058Y-40281900D01*
X33740542Y-41326900D02*
X34215058Y-41326900D01*
%TO.C,RANT1*%
X6953641Y-17620000D02*
X6646359Y-17620000D01*
X6953641Y-18380000D02*
X6646359Y-18380000D01*
%TO.C,FB4*%
X102237221Y-28690000D02*
X102562779Y-28690000D01*
X102237221Y-29710000D02*
X102562779Y-29710000D01*
%TO.C,Y5*%
X7904300Y-61796100D02*
X7904300Y-65216100D01*
X7904300Y-65216100D02*
X12024300Y-65216100D01*
%TO.C,C17*%
X21140764Y-11363000D02*
X21356436Y-11363000D01*
X21140764Y-12083000D02*
X21356436Y-12083000D01*
%TO.C,TP5*%
X73700000Y-34400000D02*
G75*
G02*
X72300000Y-34400000I-700000J0D01*
G01*
X72300000Y-34400000D02*
G75*
G02*
X73700000Y-34400000I700000J0D01*
G01*
%TO.C,CSS1*%
X63859420Y-52390000D02*
X64140580Y-52390000D01*
X63859420Y-53410000D02*
X64140580Y-53410000D01*
%TO.C,J3*%
X93680000Y-86380000D02*
X103720000Y-86380000D01*
X93680000Y-96620000D02*
X93680000Y-86380000D01*
X96700000Y-96620000D02*
X96700000Y-86380000D01*
X101600000Y-96620000D02*
X101600000Y-86380000D01*
X103100000Y-96620000D02*
X103100000Y-86380000D01*
X103720000Y-86380000D02*
X103720000Y-93700000D01*
X103720000Y-94300000D02*
X103720000Y-96620000D01*
X103720000Y-96620000D02*
X93680000Y-96620000D01*
X104330000Y-94440000D02*
X103720000Y-94000000D01*
X104330000Y-93560000D01*
X104330000Y-94440000D01*
G36*
X104330000Y-94440000D02*
G01*
X103720000Y-94000000D01*
X104330000Y-93560000D01*
X104330000Y-94440000D01*
G37*
%TO.C,C63*%
X83623564Y-37362800D02*
X83839236Y-37362800D01*
X83623564Y-38082800D02*
X83839236Y-38082800D01*
%TO.C,C124*%
X14769920Y-49942700D02*
X15051080Y-49942700D01*
X14769920Y-50962700D02*
X15051080Y-50962700D01*
%TO.C,C24*%
X62692164Y-23640000D02*
X62907836Y-23640000D01*
X62692164Y-24360000D02*
X62907836Y-24360000D01*
%TO.C,R28*%
X18089859Y-92603100D02*
X18397141Y-92603100D01*
X18089859Y-93363100D02*
X18397141Y-93363100D01*
%TO.C,C83*%
X88759420Y-13390000D02*
X89040580Y-13390000D01*
X88759420Y-14410000D02*
X89040580Y-14410000D01*
%TO.C,C20*%
X21143664Y-25541500D02*
X21359336Y-25541500D01*
X21143664Y-26261500D02*
X21359336Y-26261500D01*
%TO.C,C14*%
X18643564Y-23917000D02*
X18859236Y-23917000D01*
X18643564Y-24637000D02*
X18859236Y-24637000D01*
%TO.C,C48*%
X49990664Y-22388500D02*
X50206336Y-22388500D01*
X49990664Y-23108500D02*
X50206336Y-23108500D01*
%TO.C,R52*%
X37299342Y-41510000D02*
X37773858Y-41510000D01*
X37299342Y-42555000D02*
X37773858Y-42555000D01*
%TO.C,C101*%
X23934320Y-74021600D02*
X24215480Y-74021600D01*
X23934320Y-75041600D02*
X24215480Y-75041600D01*
%TO.C,J6*%
X30820000Y-4390000D02*
X32000000Y-4390000D01*
X30820000Y-5200000D02*
X30820000Y-4390000D01*
X30820000Y-6010000D02*
X30820000Y-11025000D01*
X30820000Y-6010000D02*
X31333292Y-6010000D01*
X30820000Y-11025000D02*
X31682077Y-11025000D01*
X32317923Y-11025000D02*
X32952077Y-11025000D01*
X33587923Y-4455000D02*
X34450000Y-4455000D01*
X33587923Y-11025000D02*
X34450000Y-11025000D01*
X34450000Y-4455000D02*
X34450000Y-11025000D01*
%TO.C,C27*%
X55492164Y-27796900D02*
X55707836Y-27796900D01*
X55492164Y-28516900D02*
X55707836Y-28516900D01*
%TO.C,R50*%
X30018642Y-39715400D02*
X30493158Y-39715400D01*
X30018642Y-40760400D02*
X30493158Y-40760400D01*
%TO.C,R67*%
X4662742Y-39077500D02*
X5137258Y-39077500D01*
X4662742Y-40122500D02*
X5137258Y-40122500D01*
%TO.C,C36*%
X55442964Y-29552800D02*
X55658636Y-29552800D01*
X55442964Y-30272800D02*
X55658636Y-30272800D01*
%TO.C,U6*%
X10054500Y-16520000D02*
G75*
G02*
X9914500Y-16520000I-70000J0D01*
G01*
X9914500Y-16520000D02*
G75*
G02*
X10054500Y-16520000I70000J0D01*
G01*
%TO.C,C85*%
X93259420Y-15190000D02*
X93540580Y-15190000D01*
X93259420Y-16210000D02*
X93540580Y-16210000D01*
%TO.C,C87*%
X93259420Y-17890000D02*
X93540580Y-17890000D01*
X93259420Y-18910000D02*
X93540580Y-18910000D01*
%TO.C,C67*%
X17869548Y-88938800D02*
X18392052Y-88938800D01*
X17869548Y-90408800D02*
X18392052Y-90408800D01*
%TO.C,C3*%
X56946420Y-66939000D02*
X57227580Y-66939000D01*
X56946420Y-67959000D02*
X57227580Y-67959000D01*
%TO.C,R4*%
X55662742Y-55077500D02*
X56137258Y-55077500D01*
X55662742Y-56122500D02*
X56137258Y-56122500D01*
%TO.C,R11*%
X55374259Y-16011500D02*
X55681541Y-16011500D01*
X55374259Y-16771500D02*
X55681541Y-16771500D01*
%TO.C,R71*%
X81446359Y-59120000D02*
X81753641Y-59120000D01*
X81446359Y-59880000D02*
X81753641Y-59880000D01*
%TO.C,Y1*%
X71200000Y-84650000D02*
X74800000Y-84650000D01*
X71200000Y-87350000D02*
X71200000Y-84650000D01*
X74800000Y-84650000D02*
X74800000Y-87350000D01*
X74800000Y-87350000D02*
X71200000Y-87350000D01*
%TO.C,C69*%
X17341520Y-86743100D02*
X17622680Y-86743100D01*
X17341520Y-87763100D02*
X17622680Y-87763100D01*
%TO.C,R60*%
X19062742Y-36377500D02*
X19537258Y-36377500D01*
X19062742Y-37422500D02*
X19537258Y-37422500D01*
%TO.C,C_DVDD1*%
X52764064Y-82008100D02*
X52979736Y-82008100D01*
X52764064Y-82728100D02*
X52979736Y-82728100D01*
%TO.C,C32*%
X89892164Y-43640000D02*
X90107836Y-43640000D01*
X89892164Y-44360000D02*
X90107836Y-44360000D01*
%TO.C,C_DVDD2*%
X56260264Y-78511900D02*
X56475936Y-78511900D01*
X56260264Y-79231900D02*
X56475936Y-79231900D01*
%TO.C,C96*%
X43259420Y-60490000D02*
X43540580Y-60490000D01*
X43259420Y-61510000D02*
X43540580Y-61510000D01*
%TO.C,R66*%
X40662742Y-36377500D02*
X41137258Y-36377500D01*
X40662742Y-37422500D02*
X41137258Y-37422500D01*
%TO.C,C65*%
X29331520Y-93098500D02*
X29612680Y-93098500D01*
X29331520Y-94118500D02*
X29612680Y-94118500D01*
%TO.C,R59*%
X15462742Y-36377500D02*
X15937258Y-36377500D01*
X15462742Y-37422500D02*
X15937258Y-37422500D01*
%TO.C,C_USB2*%
X32736264Y-93256200D02*
X32951936Y-93256200D01*
X32736264Y-93976200D02*
X32951936Y-93976200D01*
%TO.C,C131*%
X40384920Y-47188800D02*
X40666080Y-47188800D01*
X40384920Y-48208800D02*
X40666080Y-48208800D01*
%TO.C,J18*%
X65420000Y-2820000D02*
X66800000Y-2820000D01*
X65420000Y-4200000D02*
X65420000Y-2820000D01*
X65420000Y-5470000D02*
X65420000Y-10660000D01*
X65420000Y-5470000D02*
X68180000Y-5470000D01*
X65420000Y-10660000D02*
X68180000Y-10660000D01*
X68180000Y-5470000D02*
X68180000Y-10660000D01*
%TO.C,CANT1*%
X8907836Y-18840000D02*
X8692164Y-18840000D01*
X8907836Y-19560000D02*
X8692164Y-19560000D01*
%TO.C,REN1*%
X62862742Y-55077500D02*
X63337258Y-55077500D01*
X62862742Y-56122500D02*
X63337258Y-56122500D01*
%TO.C,C49*%
X52235264Y-17983100D02*
X52450936Y-17983100D01*
X52235264Y-18703100D02*
X52450936Y-18703100D01*
%TO.C,C129*%
X32600520Y-43292200D02*
X32881680Y-43292200D01*
X32600520Y-44312200D02*
X32881680Y-44312200D01*
%TO.C,C_ADC1*%
X67020264Y-82008100D02*
X67235936Y-82008100D01*
X67020264Y-82728100D02*
X67235936Y-82728100D01*
%TO.C,C43*%
X60364264Y-31248500D02*
X60579936Y-31248500D01*
X60364264Y-31968500D02*
X60579936Y-31968500D01*
%TO.C,C112*%
X43115520Y-67753800D02*
X43396680Y-67753800D01*
X43115520Y-68773800D02*
X43396680Y-68773800D01*
%TO.C,R33*%
X13120542Y-93837500D02*
X13595058Y-93837500D01*
X13120542Y-94882500D02*
X13595058Y-94882500D01*
%TO.C,R57*%
X8262742Y-36377500D02*
X8737258Y-36377500D01*
X8262742Y-37422500D02*
X8737258Y-37422500D01*
%TO.C,CIN1*%
X63537747Y-69917000D02*
X64960251Y-69917000D01*
X63537747Y-72637000D02*
X64960251Y-72637000D01*
%TO.C,C8*%
X52275964Y-79795900D02*
X52491636Y-79795900D01*
X52275964Y-80515900D02*
X52491636Y-80515900D01*
%TO.C,C56*%
X83140000Y-18392164D02*
X83140000Y-18607836D01*
X83860000Y-18392164D02*
X83860000Y-18607836D01*
%TO.C,C102*%
X14950120Y-64217000D02*
X15231280Y-64217000D01*
X14950120Y-65237000D02*
X15231280Y-65237000D01*
%TO.C,R12*%
X57846359Y-15620000D02*
X58153641Y-15620000D01*
X57846359Y-16380000D02*
X58153641Y-16380000D01*
%TO.C,C15*%
X17410220Y-11577200D02*
X17691380Y-11577200D01*
X17410220Y-12597200D02*
X17691380Y-12597200D01*
%TO.C,C75*%
X91459420Y-7990000D02*
X91740580Y-7990000D01*
X91459420Y-9010000D02*
X91740580Y-9010000D01*
%TO.C,J17*%
X25330000Y-99640000D02*
X25330000Y-97940000D01*
X34670000Y-99640000D02*
X34670000Y-97940000D01*
%TO.C,C_IOBULK1*%
X51990664Y-84388500D02*
X52206336Y-84388500D01*
X51990664Y-85108500D02*
X52206336Y-85108500D01*
%TO.C,FB8*%
X20345321Y-77710000D02*
X20670879Y-77710000D01*
X20345321Y-78730000D02*
X20670879Y-78730000D01*
%TO.C,C104*%
X14514220Y-59235000D02*
X14795380Y-59235000D01*
X14514220Y-60255000D02*
X14795380Y-60255000D01*
%TO.C,R32*%
X12417542Y-86732500D02*
X12892058Y-86732500D01*
X12417542Y-87777500D02*
X12892058Y-87777500D01*
%TO.C,C60*%
X89931320Y-27121900D02*
X90212480Y-27121900D01*
X89931320Y-28141900D02*
X90212480Y-28141900D01*
%TO.C,C42*%
X97607836Y-38640000D02*
X97392164Y-38640000D01*
X97607836Y-39360000D02*
X97392164Y-39360000D01*
%TO.C,C10*%
X66680364Y-78851800D02*
X66896036Y-78851800D01*
X66680364Y-79571800D02*
X66896036Y-79571800D01*
%TO.C,C18*%
X26059420Y-22290000D02*
X26340580Y-22290000D01*
X26059420Y-23310000D02*
X26340580Y-23310000D01*
%TO.C,C121*%
X23900920Y-77377100D02*
X24182080Y-77377100D01*
X23900920Y-78397100D02*
X24182080Y-78397100D01*
%TO.C,Y4*%
X48956900Y-31046500D02*
X48956900Y-34466500D01*
X48956900Y-34466500D02*
X53076900Y-34466500D01*
%TO.C,C29*%
X59740000Y-16107836D02*
X59740000Y-15892164D01*
X60460000Y-16107836D02*
X60460000Y-15892164D01*
%TO.C,CSVIN1*%
X55638748Y-52165000D02*
X56161252Y-52165000D01*
X55638748Y-53635000D02*
X56161252Y-53635000D01*
%TO.C,R35*%
X90462742Y-34077500D02*
X90937258Y-34077500D01*
X90462742Y-35122500D02*
X90937258Y-35122500D01*
%TO.C,C71*%
X77859420Y-7390000D02*
X78140580Y-7390000D01*
X77859420Y-8410000D02*
X78140580Y-8410000D01*
%TO.C,R54*%
X44331742Y-46684500D02*
X44806258Y-46684500D01*
X44331742Y-47729500D02*
X44806258Y-47729500D01*
%TO.C,C94*%
X62892164Y-21640000D02*
X63107836Y-21640000D01*
X62892164Y-22360000D02*
X63107836Y-22360000D01*
%TO.C,C_IOVDD8*%
X51990664Y-86891500D02*
X52206336Y-86891500D01*
X51990664Y-87611500D02*
X52206336Y-87611500D01*
%TO.C,C133*%
X46280320Y-57985300D02*
X46561480Y-57985300D01*
X46280320Y-59005300D02*
X46561480Y-59005300D01*
%TO.C,TP4*%
X96700000Y-37000000D02*
G75*
G02*
X95300000Y-37000000I-700000J0D01*
G01*
X95300000Y-37000000D02*
G75*
G02*
X96700000Y-37000000I700000J0D01*
G01*
%TO.C,C9*%
X49292164Y-78540000D02*
X49507836Y-78540000D01*
X49292164Y-79260000D02*
X49507836Y-79260000D01*
%TO.C,C28*%
X53255764Y-24882300D02*
X53471436Y-24882300D01*
X53255764Y-25602300D02*
X53471436Y-25602300D01*
D16*
%TO.C,U18*%
X20800000Y-81500000D02*
X20800000Y-81500000D01*
X21200000Y-81500000D02*
X21200000Y-81500000D01*
D11*
X21500000Y-81000000D02*
X32500000Y-81000000D01*
X21500000Y-91000000D02*
X21500000Y-81000000D01*
X32500000Y-81000000D02*
X32500000Y-91000000D01*
X32500000Y-91000000D02*
X21500000Y-91000000D01*
D16*
X20800000Y-81500000D02*
G75*
G02*
X21200000Y-81500000I200000J0D01*
G01*
X21200000Y-81500000D02*
G75*
G02*
X20800000Y-81500000I-200000J0D01*
G01*
D13*
%TO.C,R10*%
X18594859Y-9718500D02*
X18902141Y-9718500D01*
X18594859Y-10478500D02*
X18902141Y-10478500D01*
%TO.C,C78*%
X84259420Y-11590000D02*
X84540580Y-11590000D01*
X84259420Y-12610000D02*
X84540580Y-12610000D01*
%TO.C,C106*%
X22773720Y-47439200D02*
X23054880Y-47439200D01*
X22773720Y-48459200D02*
X23054880Y-48459200D01*
%TO.C,R42*%
X68620000Y-21453641D02*
X68620000Y-21146359D01*
X69380000Y-21453641D02*
X69380000Y-21146359D01*
%TO.C,R1*%
X67362742Y-52377500D02*
X67837258Y-52377500D01*
X67362742Y-53422500D02*
X67837258Y-53422500D01*
%TO.C,J15*%
X54620000Y-5580000D02*
X54620000Y-4200000D01*
X56000000Y-5580000D02*
X54620000Y-5580000D01*
X57270000Y-2820000D02*
X62460000Y-2820000D01*
X57270000Y-5580000D02*
X57270000Y-2820000D01*
X57270000Y-5580000D02*
X62460000Y-5580000D01*
X62460000Y-5580000D02*
X62460000Y-2820000D01*
%TO.C,C5*%
X67559420Y-57240000D02*
X67840580Y-57240000D01*
X67559420Y-58260000D02*
X67840580Y-58260000D01*
%TO.C,C_IOVDD6*%
X56260264Y-92768100D02*
X56475936Y-92768100D01*
X56260264Y-93488100D02*
X56475936Y-93488100D01*
%TO.C,C_IOVDD2*%
X67500664Y-88112100D02*
X67716336Y-88112100D01*
X67500664Y-88832100D02*
X67716336Y-88832100D01*
%TO.C,J16*%
X16820000Y-95190000D02*
X18000000Y-95190000D01*
X16820000Y-96000000D02*
X16820000Y-95190000D01*
X16820000Y-96810000D02*
X16820000Y-101825000D01*
X16820000Y-96810000D02*
X17333292Y-96810000D01*
X16820000Y-101825000D02*
X17682077Y-101825000D01*
X18317923Y-101825000D02*
X18952077Y-101825000D01*
X19587923Y-95255000D02*
X20450000Y-95255000D01*
X19587923Y-101825000D02*
X20450000Y-101825000D01*
X20450000Y-95255000D02*
X20450000Y-101825000D01*
D17*
%TO.C,U17*%
X72598100Y-29409900D02*
X73614100Y-29409900D01*
X75265100Y-24025100D02*
X75265100Y-24406100D01*
X75265100Y-30857700D02*
X75265100Y-31238700D01*
X75265100Y-31238700D02*
X75646100Y-31238700D01*
X75646100Y-24025100D02*
X75265100Y-24025100D01*
X75722300Y-24863300D02*
X76103300Y-24482300D01*
X79633900Y-32915100D02*
X79633900Y-33956500D01*
X80141900Y-22348700D02*
X80141900Y-21332700D01*
X82097700Y-31238700D02*
X82478700Y-31238700D01*
X82478700Y-24025100D02*
X82097700Y-24025100D01*
X82478700Y-24406100D02*
X82478700Y-24025100D01*
X82478700Y-31238700D02*
X82478700Y-30857700D01*
X84129700Y-27885900D02*
X85145700Y-27885900D01*
D13*
%TO.C,C4*%
X56946620Y-62040800D02*
X57227780Y-62040800D01*
X56946620Y-63060800D02*
X57227780Y-63060800D01*
%TO.C,C58*%
X77740000Y-19892164D02*
X77740000Y-20107836D01*
X78460000Y-19892164D02*
X78460000Y-20107836D01*
%TO.C,U20*%
X65390000Y-11290000D02*
X68610000Y-11290000D01*
X65390000Y-11490000D02*
X65390000Y-11290000D01*
X65390000Y-14510000D02*
X65390000Y-14310000D01*
X68610000Y-11290000D02*
X68610000Y-11490000D01*
X68610000Y-14310000D02*
X68610000Y-14510000D01*
X68610000Y-14510000D02*
X65390000Y-14510000D01*
X64800000Y-11490000D02*
X64560000Y-11160000D01*
X65040000Y-11160000D01*
X64800000Y-11490000D01*
G36*
X64800000Y-11490000D02*
G01*
X64560000Y-11160000D01*
X65040000Y-11160000D01*
X64800000Y-11490000D01*
G37*
%TO.C,C_USBOTP1*%
X66680364Y-92428200D02*
X66896036Y-92428200D01*
X66680364Y-93148200D02*
X66896036Y-93148200D01*
%TO.C,U23*%
X18890000Y-50890000D02*
X19840000Y-50890000D01*
X18890000Y-51840000D02*
X18890000Y-50890000D01*
X18890000Y-71110000D02*
X18890000Y-70160000D01*
X19840000Y-71110000D02*
X18890000Y-71110000D01*
X38160000Y-50890000D02*
X39110000Y-50890000D01*
X39110000Y-50890000D02*
X39110000Y-51840000D01*
X39110000Y-70160000D02*
X39110000Y-71110000D01*
X39110000Y-71110000D02*
X38160000Y-71110000D01*
X18250000Y-51840000D02*
X17910000Y-51370000D01*
X18590000Y-51370000D01*
X18250000Y-51840000D01*
G36*
X18250000Y-51840000D02*
G01*
X17910000Y-51370000D01*
X18590000Y-51370000D01*
X18250000Y-51840000D01*
G37*
%TO.C,R3*%
X74562742Y-52377500D02*
X75037258Y-52377500D01*
X74562742Y-53422500D02*
X75037258Y-53422500D01*
%TO.C,R27*%
X94634642Y-27109400D02*
X95109158Y-27109400D01*
X94634642Y-28154400D02*
X95109158Y-28154400D01*
%TO.C,TP6*%
X66950000Y-37650000D02*
G75*
G02*
X65550000Y-37650000I-700000J0D01*
G01*
X65550000Y-37650000D02*
G75*
G02*
X66950000Y-37650000I700000J0D01*
G01*
%TO.C,R65*%
X37062742Y-36377500D02*
X37537258Y-36377500D01*
X37062742Y-37422500D02*
X37537258Y-37422500D01*
D10*
%TO.C,U11*%
X45000000Y-8300000D02*
X49000000Y-8300000D01*
X45000000Y-13700000D02*
X49000000Y-13700000D01*
D13*
X44650000Y-8300000D02*
X44410000Y-7970000D01*
X44890000Y-7970000D01*
X44650000Y-8300000D01*
G36*
X44650000Y-8300000D02*
G01*
X44410000Y-7970000D01*
X44890000Y-7970000D01*
X44650000Y-8300000D01*
G37*
%TO.C,R30*%
X37793742Y-94733600D02*
X38268258Y-94733600D01*
X37793742Y-95778600D02*
X38268258Y-95778600D01*
%TO.C,J13*%
X78620000Y-5580000D02*
X78620000Y-4200000D01*
X80000000Y-5580000D02*
X78620000Y-5580000D01*
X81270000Y-2820000D02*
X86460000Y-2820000D01*
X81270000Y-5580000D02*
X81270000Y-2820000D01*
X81270000Y-5580000D02*
X86460000Y-5580000D01*
X86460000Y-5580000D02*
X86460000Y-2820000D01*
%TO.C,RCL1*%
X61509742Y-73995500D02*
X61984258Y-73995500D01*
X61509742Y-75040500D02*
X61984258Y-75040500D01*
%TO.C,CANT2*%
X5440000Y-19492164D02*
X5440000Y-19707836D01*
X6160000Y-19492164D02*
X6160000Y-19707836D01*
%TO.C,R48*%
X22574642Y-40619300D02*
X23049158Y-40619300D01*
X22574642Y-41664300D02*
X23049158Y-41664300D01*
%TO.C,C_IOVDD4*%
X61143664Y-93541500D02*
X61359336Y-93541500D01*
X61143664Y-94261500D02*
X61359336Y-94261500D01*
%TO.C,R61*%
X22662742Y-36377500D02*
X23137258Y-36377500D01*
X22662742Y-37422500D02*
X23137258Y-37422500D01*
%TO.C,C31*%
X89392164Y-41090000D02*
X89607836Y-41090000D01*
X89392164Y-41810000D02*
X89607836Y-41810000D01*
%TO.C,FB1*%
X79963121Y-38251500D02*
X80288679Y-38251500D01*
X79963121Y-39271500D02*
X80288679Y-39271500D01*
%TO.C,C11*%
X26292164Y-17640000D02*
X26507836Y-17640000D01*
X26292164Y-18360000D02*
X26507836Y-18360000D01*
%TO.C,R39*%
X64120000Y-19653641D02*
X64120000Y-19346359D01*
X64880000Y-19653641D02*
X64880000Y-19346359D01*
%TO.C,J2*%
X93680000Y-74380000D02*
X103720000Y-74380000D01*
X93680000Y-84620000D02*
X93680000Y-74380000D01*
X96700000Y-84620000D02*
X96700000Y-74380000D01*
X101600000Y-84620000D02*
X101600000Y-74380000D01*
X103100000Y-84620000D02*
X103100000Y-74380000D01*
X103720000Y-74380000D02*
X103720000Y-81700000D01*
X103720000Y-82300000D02*
X103720000Y-84620000D01*
X103720000Y-84620000D02*
X93680000Y-84620000D01*
X104330000Y-82440000D02*
X103720000Y-82000000D01*
X104330000Y-81560000D01*
X104330000Y-82440000D01*
G36*
X104330000Y-82440000D02*
G01*
X103720000Y-82000000D01*
X104330000Y-81560000D01*
X104330000Y-82440000D01*
G37*
%TO.C,C37*%
X52570764Y-27195600D02*
X52786436Y-27195600D01*
X52570764Y-27915600D02*
X52786436Y-27915600D01*
%TO.C,C80*%
X102259420Y-11590000D02*
X102540580Y-11590000D01*
X102259420Y-12610000D02*
X102540580Y-12610000D01*
%TO.C,C134*%
X48059420Y-60490000D02*
X48340580Y-60490000D01*
X48059420Y-61510000D02*
X48340580Y-61510000D01*
%TO.C,R46*%
X10962442Y-49716900D02*
X11436958Y-49716900D01*
X10962442Y-50761900D02*
X11436958Y-50761900D01*
%TO.C,C130*%
X36170720Y-44480500D02*
X36451880Y-44480500D01*
X36170720Y-45500500D02*
X36451880Y-45500500D01*
%TO.C,C109*%
X33784520Y-46958400D02*
X34065680Y-46958400D01*
X33784520Y-47978400D02*
X34065680Y-47978400D01*
%TO.C,R16*%
X55361659Y-32892900D02*
X55668941Y-32892900D01*
X55361659Y-33652900D02*
X55668941Y-33652900D01*
%TO.C,C76*%
X95059420Y-9790000D02*
X95340580Y-9790000D01*
X95059420Y-10810000D02*
X95340580Y-10810000D01*
%TO.C,R45*%
X39523342Y-78277700D02*
X39997858Y-78277700D01*
X39523342Y-79322700D02*
X39997858Y-79322700D01*
%TO.C,C53*%
X83531320Y-35435800D02*
X83812480Y-35435800D01*
X83531320Y-36455800D02*
X83812480Y-36455800D01*
%TO.C,C120*%
X27603820Y-78045200D02*
X27884980Y-78045200D01*
X27603820Y-79065200D02*
X27884980Y-79065200D01*
D11*
%TO.C,IC2*%
X77700000Y-54850000D02*
X77700000Y-54850000D01*
X77800000Y-54850000D02*
X77800000Y-54850000D01*
X77700000Y-54850000D02*
G75*
G02*
X77800000Y-54850000I50000J0D01*
G01*
X77800000Y-54850000D02*
G75*
G02*
X77700000Y-54850000I-50000J0D01*
G01*
D13*
%TO.C,C119*%
X31364120Y-77910900D02*
X31645280Y-77910900D01*
X31364120Y-78930900D02*
X31645280Y-78930900D01*
%TO.C,J11*%
X86820000Y-17190000D02*
X88000000Y-17190000D01*
X86820000Y-18000000D02*
X86820000Y-17190000D01*
X86820000Y-18810000D02*
X86820000Y-23825000D01*
X86820000Y-18810000D02*
X87333292Y-18810000D01*
X86820000Y-23825000D02*
X87682077Y-23825000D01*
X88317923Y-23825000D02*
X88952077Y-23825000D01*
X89587923Y-17255000D02*
X90450000Y-17255000D01*
X89587923Y-23825000D02*
X90450000Y-23825000D01*
X90450000Y-17255000D02*
X90450000Y-23825000D01*
%TO.C,C74*%
X70638748Y-9565000D02*
X71161252Y-9565000D01*
X70638748Y-11035000D02*
X71161252Y-11035000D01*
%TO.C,RCC2*%
X70417859Y-81920900D02*
X70725141Y-81920900D01*
X70417859Y-82680900D02*
X70725141Y-82680900D01*
%TO.C,R34*%
X11980642Y-91600400D02*
X12455158Y-91600400D01*
X11980642Y-92645400D02*
X12455158Y-92645400D01*
%TO.C,FB2*%
X72750421Y-36605200D02*
X73075979Y-36605200D01*
X72750421Y-37625200D02*
X73075979Y-37625200D01*
%TO.C,U16*%
X75766900Y-9876700D02*
X79526900Y-9876700D01*
X75766900Y-16696700D02*
X79526900Y-16696700D01*
X79526900Y-9876700D02*
X79526900Y-11136700D01*
X79526900Y-16696700D02*
X79526900Y-15436700D01*
X74486900Y-9976700D02*
X74246900Y-9646700D01*
X74726900Y-9646700D01*
X74486900Y-9976700D01*
G36*
X74486900Y-9976700D02*
G01*
X74246900Y-9646700D01*
X74726900Y-9646700D01*
X74486900Y-9976700D01*
G37*
%TO.C,R40*%
X73846359Y-17920000D02*
X74153641Y-17920000D01*
X73846359Y-18680000D02*
X74153641Y-18680000D01*
%TO.C,C13*%
X22308620Y-23402800D02*
X22589780Y-23402800D01*
X22308620Y-24422800D02*
X22589780Y-24422800D01*
%TO.C,FB7*%
X44069621Y-72178200D02*
X44395179Y-72178200D01*
X44069621Y-73198200D02*
X44395179Y-73198200D01*
%TO.C,R6*%
X48927159Y-88112200D02*
X49234441Y-88112200D01*
X48927159Y-88872200D02*
X49234441Y-88872200D01*
%TO.C,RBOT1*%
X65247442Y-73750400D02*
X65721958Y-73750400D01*
X65247442Y-74795400D02*
X65721958Y-74795400D01*
%TO.C,C_IOVDD3*%
X63524064Y-92768100D02*
X63739736Y-92768100D01*
X63524064Y-93488100D02*
X63739736Y-93488100D01*
%TO.C,COUT2*%
X68772420Y-60190000D02*
X69053580Y-60190000D01*
X68772420Y-61210000D02*
X69053580Y-61210000D01*
%TO.C,R63*%
X29862742Y-36377500D02*
X30337258Y-36377500D01*
X29862742Y-37422500D02*
X30337258Y-37422500D01*
%TO.C,C70*%
X36132320Y-83005300D02*
X36413480Y-83005300D01*
X36132320Y-84025300D02*
X36413480Y-84025300D01*
%TO.C,C113*%
X14603320Y-67753800D02*
X14884480Y-67753800D01*
X14603320Y-68773800D02*
X14884480Y-68773800D01*
%TO.C,C72*%
X74439020Y-45820300D02*
X74720180Y-45820300D01*
X74439020Y-46840300D02*
X74720180Y-46840300D01*
%TO.C,R36*%
X62620000Y-15703641D02*
X62620000Y-15396359D01*
X63380000Y-15703641D02*
X63380000Y-15396359D01*
%TO.C,C79*%
X98659420Y-11590000D02*
X98940580Y-11590000D01*
X98659420Y-12610000D02*
X98940580Y-12610000D01*
%TO.C,C51*%
X86764064Y-27271900D02*
X86979736Y-27271900D01*
X86764064Y-27991900D02*
X86979736Y-27991900D01*
%TO.C,C7*%
X55032664Y-95730900D02*
X55248336Y-95730900D01*
X55032664Y-96450900D02*
X55248336Y-96450900D01*
%TO.C,R47*%
X12389342Y-47649700D02*
X12863858Y-47649700D01*
X12389342Y-48694700D02*
X12863858Y-48694700D01*
%TO.C,R24*%
X86894142Y-38905200D02*
X87368658Y-38905200D01*
X86894142Y-39950200D02*
X87368658Y-39950200D01*
%TO.C,FB6*%
X100437221Y-31390000D02*
X100762779Y-31390000D01*
X100437221Y-32410000D02*
X100762779Y-32410000D01*
%TO.C,C100*%
X27604420Y-74835200D02*
X27885580Y-74835200D01*
X27604420Y-75855200D02*
X27885580Y-75855200D01*
%TO.C,C59*%
X85607836Y-22440000D02*
X85392164Y-22440000D01*
X85607836Y-23160000D02*
X85392164Y-23160000D01*
%TO.C,C128*%
X28859420Y-42890000D02*
X29140580Y-42890000D01*
X28859420Y-43910000D02*
X29140580Y-43910000D01*
%TO.C,C115*%
X43115520Y-53226200D02*
X43396680Y-53226200D01*
X43115520Y-54246200D02*
X43396680Y-54246200D01*
%TO.C,Y7*%
X14112200Y-42916600D02*
X14112200Y-46336600D01*
X14112200Y-46336600D02*
X18232200Y-46336600D01*
%TO.C,R23*%
X92815942Y-29610000D02*
X93290458Y-29610000D01*
X92815942Y-30655000D02*
X93290458Y-30655000D01*
%TO.C,C44*%
X57892164Y-31640000D02*
X58107836Y-31640000D01*
X57892164Y-32360000D02*
X58107836Y-32360000D01*
%TO.C,C41*%
X60341364Y-17727200D02*
X60557036Y-17727200D01*
X60341364Y-18447200D02*
X60557036Y-18447200D01*
%TO.C,U1*%
X90060000Y-55680000D02*
X90060000Y-56440000D01*
X90060000Y-56440000D02*
X91140000Y-56440000D01*
X90380000Y-55360000D02*
X91140000Y-55360000D01*
X91140000Y-56440000D02*
X91140000Y-55360000D01*
X90060000Y-55360000D02*
X89560000Y-55360000D01*
X90060000Y-54860000D01*
X90060000Y-55360000D01*
G36*
X90060000Y-55360000D02*
G01*
X89560000Y-55360000D01*
X90060000Y-54860000D01*
X90060000Y-55360000D01*
G37*
%TO.C,C86*%
X96859420Y-15190000D02*
X97140580Y-15190000D01*
X96859420Y-16210000D02*
X97140580Y-16210000D01*
%TO.C,R5*%
X59262742Y-55077500D02*
X59737258Y-55077500D01*
X59262742Y-56122500D02*
X59737258Y-56122500D01*
%TO.C,R15*%
X57846359Y-33220000D02*
X58153641Y-33220000D01*
X57846359Y-33980000D02*
X58153641Y-33980000D01*
D11*
%TO.C,IC1*%
X84200000Y-55100000D02*
X84200000Y-55100000D01*
X84200000Y-55200000D02*
X84200000Y-55200000D01*
X84600000Y-54650000D02*
X85300000Y-54650000D01*
X84600000Y-54900000D02*
X84600000Y-54650000D01*
X84600000Y-57000000D02*
X84600000Y-57150000D01*
X84600000Y-57150000D02*
X85300000Y-57150000D01*
X86900000Y-54650000D02*
X87600000Y-54650000D01*
X86900000Y-57150000D02*
X87600000Y-57150000D01*
X87600000Y-54650000D02*
X87600000Y-54900000D01*
X87600000Y-57150000D02*
X87600000Y-56900000D01*
X84200000Y-55100000D02*
G75*
G02*
X84200000Y-55200000I0J-50000D01*
G01*
X84200000Y-55200000D02*
G75*
G02*
X84200000Y-55100000I0J50000D01*
G01*
D13*
%TO.C,C1*%
X59182748Y-69586000D02*
X59705252Y-69586000D01*
X59182748Y-71056000D02*
X59705252Y-71056000D01*
%TO.C,C77*%
X91459420Y-10690000D02*
X91740580Y-10690000D01*
X91459420Y-11710000D02*
X91740580Y-11710000D01*
%TO.C,C54*%
X76291964Y-34880400D02*
X76507636Y-34880400D01*
X76291964Y-35600400D02*
X76507636Y-35600400D01*
%TO.C,C118*%
X35010020Y-76980300D02*
X35291180Y-76980300D01*
X35010020Y-78000300D02*
X35291180Y-78000300D01*
%TO.C,U14*%
X43890000Y-35390000D02*
X50110000Y-35390000D01*
X43890000Y-35585000D02*
X43890000Y-35390000D01*
X43890000Y-40610000D02*
X43890000Y-40415000D01*
X50110000Y-35390000D02*
X50110000Y-35585000D01*
X50110000Y-40415000D02*
X50110000Y-40610000D01*
X50110000Y-40610000D02*
X43890000Y-40610000D01*
X43680000Y-36090000D02*
X43350000Y-36330000D01*
X43350000Y-35850000D01*
X43680000Y-36090000D01*
G36*
X43680000Y-36090000D02*
G01*
X43350000Y-36330000D01*
X43350000Y-35850000D01*
X43680000Y-36090000D01*
G37*
%TO.C,U5*%
X16390000Y-14390000D02*
X16865000Y-14390000D01*
X16390000Y-14865000D02*
X16390000Y-14390000D01*
X16390000Y-21610000D02*
X16390000Y-21135000D01*
X16865000Y-21610000D02*
X16390000Y-21610000D01*
X23135000Y-14390000D02*
X23610000Y-14390000D01*
X23610000Y-14390000D02*
X23610000Y-14865000D01*
X23610000Y-21135000D02*
X23610000Y-21610000D01*
X23610000Y-21610000D02*
X23135000Y-21610000D01*
X15860000Y-15250000D02*
X15530000Y-15490000D01*
X15530000Y-15010000D01*
X15860000Y-15250000D01*
G36*
X15860000Y-15250000D02*
G01*
X15530000Y-15490000D01*
X15530000Y-15010000D01*
X15860000Y-15250000D01*
G37*
%TO.C,C35*%
X57892164Y-30040000D02*
X58107836Y-30040000D01*
X57892164Y-30760000D02*
X58107836Y-30760000D01*
%TO.C,R49*%
X26255542Y-39829200D02*
X26730058Y-39829200D01*
X26255542Y-40874200D02*
X26730058Y-40874200D01*
%TO.C,C38*%
X52570764Y-20084300D02*
X52786436Y-20084300D01*
X52570764Y-20804300D02*
X52786436Y-20804300D01*
%TO.C,C2*%
X64490000Y-59640580D02*
X64490000Y-59359420D01*
X65510000Y-59640580D02*
X65510000Y-59359420D01*
%TO.C,U22*%
X67390000Y-16690000D02*
X70610000Y-16690000D01*
X67390000Y-16865000D02*
X67390000Y-16690000D01*
X67390000Y-19910000D02*
X67390000Y-19735000D01*
X70610000Y-16690000D02*
X70610000Y-16865000D01*
X70610000Y-19735000D02*
X70610000Y-19910000D01*
X70610000Y-19910000D02*
X67390000Y-19910000D01*
X66840000Y-16860000D02*
X66600000Y-16530000D01*
X67080000Y-16530000D01*
X66840000Y-16860000D01*
G36*
X66840000Y-16860000D02*
G01*
X66600000Y-16530000D01*
X67080000Y-16530000D01*
X66840000Y-16860000D01*
G37*
%TO.C,Y2*%
X11708800Y-11280900D02*
X13058800Y-11280900D01*
X11708800Y-13030900D02*
X13058800Y-13030900D01*
%TO.C,U7*%
X93090000Y-38940000D02*
X94910000Y-38940000D01*
X93090000Y-38990000D02*
X93090000Y-38940000D01*
X93090000Y-42060000D02*
X93090000Y-42010000D01*
X94910000Y-38940000D02*
X94910000Y-38990000D01*
X94910000Y-40110000D02*
X94910000Y-40890000D01*
X94910000Y-42010000D02*
X94910000Y-42060000D01*
X94910000Y-42060000D02*
X93090000Y-42060000D01*
X92550000Y-38990000D02*
X92310000Y-38660000D01*
X92790000Y-38660000D01*
X92550000Y-38990000D01*
G36*
X92550000Y-38990000D02*
G01*
X92310000Y-38660000D01*
X92790000Y-38660000D01*
X92550000Y-38990000D01*
G37*
%TO.C,Y3*%
X37325000Y-7125000D02*
X38675000Y-7125000D01*
X37325000Y-8875000D02*
X38675000Y-8875000D01*
%TO.C,FB9*%
X10656121Y-66661600D02*
X10981679Y-66661600D01*
X10656121Y-67681600D02*
X10981679Y-67681600D01*
%TO.C,J4*%
X57330000Y-99640000D02*
X57330000Y-97940000D01*
X66670000Y-99640000D02*
X66670000Y-97940000D01*
%TO.C,J20*%
X41330000Y-99640000D02*
X41330000Y-97940000D01*
X50670000Y-99640000D02*
X50670000Y-97940000D01*
%TO.C,J8*%
X94620000Y-2820000D02*
X96000000Y-2820000D01*
X94620000Y-4200000D02*
X94620000Y-2820000D01*
X94620000Y-5470000D02*
X94620000Y-8120000D01*
X94620000Y-5470000D02*
X97380000Y-5470000D01*
X94620000Y-8120000D02*
X97380000Y-8120000D01*
X97380000Y-5470000D02*
X97380000Y-8120000D01*
%TO.C,U10*%
X49780800Y-19336200D02*
X48730800Y-19336200D01*
X49780800Y-21316200D02*
X48480800Y-21316200D01*
X48360800Y-19336200D02*
X48080800Y-19336200D01*
X48360800Y-19056200D01*
X48360800Y-19336200D01*
G36*
X48360800Y-19336200D02*
G01*
X48080800Y-19336200D01*
X48360800Y-19056200D01*
X48360800Y-19336200D01*
G37*
%TO.C,RCC3*%
X18246359Y-82520000D02*
X18553641Y-82520000D01*
X18246359Y-83280000D02*
X18553641Y-83280000D01*
%TO.C,C25*%
X60292164Y-27796900D02*
X60507836Y-27796900D01*
X60292164Y-28516900D02*
X60507836Y-28516900D01*
%TO.C,R2*%
X70962742Y-52377500D02*
X71437258Y-52377500D01*
X70962742Y-53422500D02*
X71437258Y-53422500D01*
%TO.C,C_IOVDD5*%
X58640664Y-93541500D02*
X58856336Y-93541500D01*
X58640664Y-94261500D02*
X58856336Y-94261500D01*
%TO.C,R19*%
X60338559Y-34539200D02*
X60645841Y-34539200D01*
X60338559Y-35299200D02*
X60645841Y-35299200D01*
%TO.C,R58*%
X11862742Y-36377500D02*
X12337258Y-36377500D01*
X11862742Y-37422500D02*
X12337258Y-37422500D01*
%TO.C,R18*%
X97146359Y-41120000D02*
X97453641Y-41120000D01*
X97146359Y-41880000D02*
X97453641Y-41880000D01*
%TO.C,C52*%
X88004220Y-29606600D02*
X88285380Y-29606600D01*
X88004220Y-30626600D02*
X88285380Y-30626600D01*
%TO.C,C26*%
X57892164Y-28440000D02*
X58107836Y-28440000D01*
X57892164Y-29160000D02*
X58107836Y-29160000D01*
%TO.C,FB3*%
X37243178Y-92551300D02*
X38042422Y-92551300D01*
X37243178Y-93671300D02*
X38042422Y-93671300D01*
%TO.C,R9*%
X49755459Y-80760500D02*
X50062741Y-80760500D01*
X49755459Y-81520500D02*
X50062741Y-81520500D01*
%TO.C,TP7*%
X92700000Y-37000000D02*
G75*
G02*
X91300000Y-37000000I-700000J0D01*
G01*
X91300000Y-37000000D02*
G75*
G02*
X92700000Y-37000000I700000J0D01*
G01*
%TO.C,C73*%
X60859420Y-12290000D02*
X61140580Y-12290000D01*
X60859420Y-13310000D02*
X61140580Y-13310000D01*
%TO.C,CIN2*%
X61039748Y-57363000D02*
X62462252Y-57363000D01*
X61039748Y-60083000D02*
X62462252Y-60083000D01*
%TO.C,R38*%
X101262742Y-34077500D02*
X101737258Y-34077500D01*
X101262742Y-35122500D02*
X101737258Y-35122500D01*
%TO.C,RPG1*%
X66462742Y-55077500D02*
X66937258Y-55077500D01*
X66462742Y-56122500D02*
X66937258Y-56122500D01*
%TO.C,C39*%
X55442964Y-17727200D02*
X55658636Y-17727200D01*
X55442964Y-18447200D02*
X55658636Y-18447200D01*
%TO.C,R7*%
X48646359Y-85620000D02*
X48953641Y-85620000D01*
X48646359Y-86380000D02*
X48953641Y-86380000D01*
%TO.C,C108*%
X30114420Y-46144800D02*
X30395580Y-46144800D01*
X30114420Y-47164800D02*
X30395580Y-47164800D01*
%TO.C,C95*%
X67607836Y-22340000D02*
X67392164Y-22340000D01*
X67607836Y-23060000D02*
X67392164Y-23060000D01*
%TO.C,U25*%
X49090000Y-53440000D02*
X50910000Y-53440000D01*
X49090000Y-53490000D02*
X49090000Y-53440000D01*
X49090000Y-56560000D02*
X49090000Y-56510000D01*
X50910000Y-53440000D02*
X50910000Y-53490000D01*
X50910000Y-56510000D02*
X50910000Y-56560000D01*
X50910000Y-56560000D02*
X49090000Y-56560000D01*
X48550000Y-53490000D02*
X48310000Y-53160000D01*
X48790000Y-53160000D01*
X48550000Y-53490000D01*
G36*
X48550000Y-53490000D02*
G01*
X48310000Y-53160000D01*
X48790000Y-53160000D01*
X48550000Y-53490000D01*
G37*
%TO.C,C_QSPI1*%
X68205964Y-90440000D02*
X68421636Y-90440000D01*
X68205964Y-91160000D02*
X68421636Y-91160000D01*
%TO.C,C19*%
X25804964Y-15190800D02*
X26020636Y-15190800D01*
X25804964Y-15910800D02*
X26020636Y-15910800D01*
%TO.C,C132*%
X42948920Y-49942700D02*
X43230080Y-49942700D01*
X42948920Y-50962700D02*
X43230080Y-50962700D01*
%TO.C,J21*%
X500000Y-70500000D02*
X16500000Y-70500000D01*
X500000Y-85500000D02*
X500000Y-70500000D01*
X16500000Y-70500000D02*
X16500000Y-85500000D01*
X16500000Y-85500000D02*
X500000Y-85500000D01*
%TO.C,C30*%
X49240000Y-16907836D02*
X49240000Y-16692164D01*
X49960000Y-16907836D02*
X49960000Y-16692164D01*
%TO.C,RCC4*%
X18246359Y-84320000D02*
X18553641Y-84320000D01*
X18246359Y-85080000D02*
X18553641Y-85080000D01*
%TO.C,J5*%
X95870000Y-50055600D02*
X97200000Y-50055600D01*
X95870000Y-51385600D02*
X95870000Y-50055600D01*
X98470000Y-50055600D02*
X103610000Y-50055600D01*
X98470000Y-52715600D02*
X98470000Y-50055600D01*
X98470000Y-52715600D02*
X103610000Y-52715600D01*
X103610000Y-52715600D02*
X103610000Y-50055600D01*
%TO.C,C111*%
X44076320Y-65434300D02*
X44357480Y-65434300D01*
X44076320Y-66454300D02*
X44357480Y-66454300D01*
%TD*%
M02*
