%TF.GenerationSoftware,KiCad,Pcbnew,9.0.7*%
%TF.CreationDate,2026-08-24T00:05:36+05:30*%
%TF.ProjectId,dev-real-production,6465762d-7265-4616-9c2d-70726f647563,rev?*%
%TF.SameCoordinates,Original*%
%TF.FileFunction,Paste,Top*%
%TF.FilePolarity,Positive*%
%FSLAX46Y46*%
G04 Gerber Fmt 4.6, Leading zero omitted, Abs format (unit mm)*
G04 Created by KiCad (PCBNEW 9.0.7) date 2026-08-24 00:05:36*
%MOMM*%
%LPD*%
G01*
G04 APERTURE LIST*
G04 Aperture macros list*
%AMRoundRect*
0 Rectangle with rounded corners*
0 $1 Rounding radius*
0 $2 $3 $4 $5 $6 $7 $8 $9 X,Y pos of 4 corners*
0 Add a 4 corners polygon primitive as box body*
4,1,4,$2,$3,$4,$5,$6,$7,$8,$9,$2,$3,0*
0 Add four circle primitives for the rounded corners*
1,1,$1+$1,$2,$3*
1,1,$1+$1,$4,$5*
1,1,$1+$1,$6,$7*
1,1,$1+$1,$8,$9*
0 Add four rect primitives between the rounded corners*
20,1,$1+$1,$2,$3,$4,$5,0*
20,1,$1+$1,$4,$5,$6,$7,0*
20,1,$1+$1,$6,$7,$8,$9,0*
20,1,$1+$1,$8,$9,$2,$3,0*%
G04 Aperture macros list end*
%ADD10RoundRect,0.200000X-0.200000X-0.275000X0.200000X-0.275000X0.200000X0.275000X-0.200000X0.275000X0*%
%ADD11RoundRect,0.135000X-0.135000X-0.185000X0.135000X-0.185000X0.135000X0.185000X-0.135000X0.185000X0*%
%ADD12RoundRect,0.225000X-0.225000X-0.250000X0.225000X-0.250000X0.225000X0.250000X-0.225000X0.250000X0*%
%ADD13RoundRect,0.140000X-0.140000X-0.170000X0.140000X-0.170000X0.140000X0.170000X-0.140000X0.170000X0*%
%ADD14RoundRect,0.140000X-0.170000X0.140000X-0.170000X-0.140000X0.170000X-0.140000X0.170000X0.140000X0*%
%ADD15R,1.200000X0.400000*%
%ADD16RoundRect,0.087500X-0.125000X-0.087500X0.125000X-0.087500X0.125000X0.087500X-0.125000X0.087500X0*%
%ADD17RoundRect,0.087500X-0.087500X-0.125000X0.087500X-0.125000X0.087500X0.125000X-0.087500X0.125000X0*%
%ADD18RoundRect,0.150000X-0.150000X-0.425000X0.150000X-0.425000X0.150000X0.425000X-0.150000X0.425000X0*%
%ADD19RoundRect,0.075000X-0.075000X-0.500000X0.075000X-0.500000X0.075000X0.500000X-0.075000X0.500000X0*%
%ADD20O,1.000000X2.100000*%
%ADD21O,1.000000X1.800000*%
%ADD22RoundRect,0.218750X-0.218750X-0.256250X0.218750X-0.256250X0.218750X0.256250X-0.218750X0.256250X0*%
%ADD23RoundRect,0.150000X-0.512500X-0.150000X0.512500X-0.150000X0.512500X0.150000X-0.512500X0.150000X0*%
%ADD24RoundRect,0.295000X-1.180000X-1.455000X1.180000X-1.455000X1.180000X1.455000X-1.180000X1.455000X0*%
%ADD25RoundRect,0.093750X-0.156250X-0.093750X0.156250X-0.093750X0.156250X0.093750X-0.156250X0.093750X0*%
%ADD26RoundRect,0.075000X-0.250000X-0.075000X0.250000X-0.075000X0.250000X0.075000X-0.250000X0.075000X0*%
%ADD27RoundRect,0.135000X0.185000X-0.135000X0.185000X0.135000X-0.185000X0.135000X-0.185000X-0.135000X0*%
%ADD28RoundRect,0.100000X-0.300000X0.025000X-0.300000X-0.025000X0.300000X-0.025000X0.300000X0.025000X0*%
%ADD29RoundRect,0.140000X-0.035000X0.260000X-0.035000X-0.260000X0.035000X-0.260000X0.035000X0.260000X0*%
%ADD30R,1.000000X1.800000*%
%ADD31RoundRect,0.250000X-0.275000X-0.275000X0.275000X-0.275000X0.275000X0.275000X-0.275000X0.275000X0*%
%ADD32RoundRect,0.062500X-0.350000X-0.062500X0.350000X-0.062500X0.350000X0.062500X-0.350000X0.062500X0*%
%ADD33RoundRect,0.062500X-0.062500X-0.350000X0.062500X-0.350000X0.062500X0.350000X-0.062500X0.350000X0*%
%ADD34RoundRect,0.232500X-0.232500X-0.232500X0.232500X-0.232500X0.232500X0.232500X-0.232500X0.232500X0*%
%ADD35RoundRect,0.062500X-0.375000X-0.062500X0.375000X-0.062500X0.375000X0.062500X-0.375000X0.062500X0*%
%ADD36RoundRect,0.062500X-0.062500X-0.375000X0.062500X-0.375000X0.062500X0.375000X-0.062500X0.375000X0*%
%ADD37RoundRect,0.250000X-0.325000X-1.100000X0.325000X-1.100000X0.325000X1.100000X-0.325000X1.100000X0*%
%ADD38RoundRect,0.250000X-0.250000X-0.475000X0.250000X-0.475000X0.250000X0.475000X-0.250000X0.475000X0*%
%ADD39RoundRect,0.079500X0.079500X0.100500X-0.079500X0.100500X-0.079500X-0.100500X0.079500X-0.100500X0*%
%ADD40R,0.820000X0.920000*%
%ADD41R,1.100000X0.700000*%
%ADD42R,0.920000X0.920000*%
%ADD43R,0.420000X1.350000*%
%ADD44RoundRect,0.175000X-0.135000X-0.000010X0.135000X-0.000010X0.135000X0.000010X-0.135000X0.000010X0*%
%ADD45RoundRect,0.175000X-0.000010X-0.135000X0.000010X-0.135000X0.000010X0.135000X-0.000010X0.135000X0*%
%ADD46RoundRect,0.135000X0.135000X0.185000X-0.135000X0.185000X-0.135000X-0.185000X0.135000X-0.185000X0*%
%ADD47RoundRect,0.250000X-0.450000X-0.350000X0.450000X-0.350000X0.450000X0.350000X-0.450000X0.350000X0*%
%ADD48RoundRect,0.070000X0.030000X-0.080000X0.030000X0.080000X-0.030000X0.080000X-0.030000X-0.080000X0*%
%ADD49R,0.950000X0.800000*%
%ADD50RoundRect,0.140000X0.140000X0.170000X-0.140000X0.170000X-0.140000X-0.170000X0.140000X-0.170000X0*%
%ADD51RoundRect,0.140000X0.170000X-0.140000X0.170000X0.140000X-0.170000X0.140000X-0.170000X-0.140000X0*%
%ADD52R,0.600000X0.600000*%
%ADD53R,1.473200X0.279400*%
%ADD54R,0.279400X1.473200*%
%ADD55R,4.597400X4.597400*%
%ADD56RoundRect,0.075000X-0.650000X-0.075000X0.650000X-0.075000X0.650000X0.075000X-0.650000X0.075000X0*%
%ADD57RoundRect,0.075000X-0.662500X-0.075000X0.662500X-0.075000X0.662500X0.075000X-0.662500X0.075000X0*%
%ADD58RoundRect,0.075000X-0.075000X-0.662500X0.075000X-0.662500X0.075000X0.662500X-0.075000X0.662500X0*%
%ADD59RoundRect,0.079500X-0.100500X0.079500X-0.100500X-0.079500X0.100500X-0.079500X0.100500X0.079500X0*%
%ADD60R,0.850000X0.850000*%
%ADD61RoundRect,0.375000X-0.625000X-0.375000X0.625000X-0.375000X0.625000X0.375000X-0.625000X0.375000X0*%
%ADD62RoundRect,0.500000X-0.500000X-1.400000X0.500000X-1.400000X0.500000X1.400000X-0.500000X1.400000X0*%
%ADD63C,0.250000*%
%ADD64R,0.700000X0.180000*%
%ADD65R,0.180000X0.700000*%
%ADD66R,6.600000X6.600000*%
%ADD67R,0.600000X0.300000*%
%ADD68R,0.300000X0.600000*%
%ADD69RoundRect,0.250000X-0.435000X-0.555000X0.435000X-0.555000X0.435000X0.555000X-0.435000X0.555000X0*%
%ADD70RoundRect,0.125000X-0.262500X-0.125000X0.262500X-0.125000X0.262500X0.125000X-0.262500X0.125000X0*%
%ADD71RoundRect,0.249999X-0.790001X-0.790001X0.790001X-0.790001X0.790001X0.790001X-0.790001X0.790001X0*%
%ADD72RoundRect,0.225000X0.250000X-0.225000X0.250000X0.225000X-0.250000X0.225000X-0.250000X-0.225000X0*%
%ADD73RoundRect,0.100000X-0.712500X-0.100000X0.712500X-0.100000X0.712500X0.100000X-0.712500X0.100000X0*%
%ADD74RoundRect,0.218750X-0.218750X-0.381250X0.218750X-0.381250X0.218750X0.381250X-0.218750X0.381250X0*%
G04 APERTURE END LIST*
D10*
%TO.C,R56*%
X4075000Y-36900000D03*
X5725000Y-36900000D03*
%TD*%
D11*
%TO.C,R17*%
X51645900Y-16383800D03*
X52665900Y-16383800D03*
%TD*%
D12*
%TO.C,C107*%
X25724500Y-46818800D03*
X27274500Y-46818800D03*
%TD*%
D13*
%TO.C,C_IOVDD1*%
X67520000Y-86000000D03*
X68480000Y-86000000D03*
%TD*%
D12*
%TO.C,C126*%
X19790200Y-45552800D03*
X21340200Y-45552800D03*
%TD*%
%TO.C,C82*%
X94425000Y-13000000D03*
X95975000Y-13000000D03*
%TD*%
%TO.C,C117*%
X38772300Y-75089500D03*
X40322300Y-75089500D03*
%TD*%
D14*
%TO.C,C57*%
X80624500Y-20520000D03*
X80624500Y-21480000D03*
%TD*%
D15*
%TO.C,U12*%
X53000000Y-8777500D03*
X53000000Y-9412500D03*
X53000000Y-10047500D03*
X53000000Y-10682500D03*
X53000000Y-11317500D03*
X53000000Y-11952500D03*
X53000000Y-12587500D03*
X53000000Y-13222500D03*
X58200000Y-13222500D03*
X58200000Y-12587500D03*
X58200000Y-11952500D03*
X58200000Y-11317500D03*
X58200000Y-10682500D03*
X58200000Y-10047500D03*
X58200000Y-9412500D03*
X58200000Y-8777500D03*
%TD*%
D12*
%TO.C,C114*%
X13442900Y-54877100D03*
X14992900Y-54877100D03*
%TD*%
D13*
%TO.C,C_DVDD3*%
X63151900Y-78871900D03*
X64111900Y-78871900D03*
%TD*%
D10*
%TO.C,R68*%
X7675000Y-39600000D03*
X9325000Y-39600000D03*
%TD*%
%TO.C,R64*%
X32875000Y-36900000D03*
X34525000Y-36900000D03*
%TD*%
D12*
%TO.C,C90*%
X59725000Y-20000000D03*
X61275000Y-20000000D03*
%TD*%
D11*
%TO.C,R8*%
X48290000Y-84000000D03*
X49310000Y-84000000D03*
%TD*%
D13*
%TO.C,C61*%
X80876600Y-18359000D03*
X81836600Y-18359000D03*
%TD*%
%TO.C,C16*%
X24520000Y-12500000D03*
X25480000Y-12500000D03*
%TD*%
D16*
%TO.C,U2*%
X89837500Y-59250000D03*
X89837500Y-59750000D03*
D17*
X90100000Y-60262500D03*
X90600000Y-60262500D03*
X91100000Y-60262500D03*
D16*
X91362500Y-59750000D03*
X91362500Y-59250000D03*
D17*
X91100000Y-58737500D03*
X90600000Y-58737500D03*
X90100000Y-58737500D03*
%TD*%
D12*
%TO.C,C97*%
X42406200Y-63500500D03*
X43956200Y-63500500D03*
%TD*%
%TO.C,C125*%
X16699500Y-47698800D03*
X18249500Y-47698800D03*
%TD*%
D13*
%TO.C,C_USB1*%
X52731800Y-92788200D03*
X53691800Y-92788200D03*
%TD*%
%TO.C,C55*%
X86705800Y-32431900D03*
X87665800Y-32431900D03*
%TD*%
D18*
%TO.C,J10*%
X74800000Y-96060000D03*
X75600000Y-96060000D03*
D19*
X76750000Y-96060000D03*
X77750000Y-96060000D03*
X78250000Y-96060000D03*
X79250000Y-96060000D03*
D18*
X80400000Y-96060000D03*
X81200000Y-96060000D03*
X81200000Y-96060000D03*
X80400000Y-96060000D03*
D19*
X79750000Y-96060000D03*
X78750000Y-96060000D03*
X77250000Y-96060000D03*
X76250000Y-96060000D03*
D18*
X75600000Y-96060000D03*
X74800000Y-96060000D03*
D20*
X73680000Y-96635000D03*
D21*
X73680000Y-100815000D03*
D20*
X82320000Y-96635000D03*
D21*
X82320000Y-100815000D03*
%TD*%
D22*
%TO.C,FB5*%
X96212500Y-31900000D03*
X97787500Y-31900000D03*
%TD*%
D10*
%TO.C,R62*%
X25675000Y-36900000D03*
X27325000Y-36900000D03*
%TD*%
%TO.C,RTOP1*%
X56518100Y-59343100D03*
X58168100Y-59343100D03*
%TD*%
D23*
%TO.C,U19*%
X89562500Y-3950000D03*
X89562500Y-4900000D03*
X89562500Y-5850000D03*
X91837500Y-5850000D03*
X91837500Y-3950000D03*
%TD*%
D11*
%TO.C,R29*%
X15201400Y-92033900D03*
X16221400Y-92033900D03*
%TD*%
D10*
%TO.C,R69*%
X11275000Y-39600000D03*
X12925000Y-39600000D03*
%TD*%
D24*
%TO.C,L1*%
X69275000Y-65000000D03*
X74725000Y-65000000D03*
%TD*%
D10*
%TO.C,REXTVDD1*%
X59575000Y-52900000D03*
X61225000Y-52900000D03*
%TD*%
D25*
%TO.C,U9*%
X48280800Y-27136300D03*
D26*
X48205800Y-27673800D03*
D25*
X48280800Y-28211300D03*
X49980800Y-28211300D03*
D26*
X50055800Y-27673800D03*
D25*
X49980800Y-27136300D03*
%TD*%
D13*
%TO.C,C46*%
X51863100Y-29656900D03*
X52823100Y-29656900D03*
%TD*%
D27*
%TO.C,R41*%
X66000000Y-21810000D03*
X66000000Y-20790000D03*
%TD*%
D28*
%TO.C,TR1*%
X12904500Y-15250000D03*
X12904500Y-15750000D03*
X12904500Y-16250000D03*
X12904500Y-16750000D03*
D29*
X13684500Y-17155000D03*
D28*
X14464500Y-16750000D03*
X14464500Y-16250000D03*
X14464500Y-15750000D03*
X14464500Y-15250000D03*
D29*
X13684500Y-14845000D03*
%TD*%
D12*
%TO.C,C105*%
X14315700Y-57273000D03*
X15865700Y-57273000D03*
%TD*%
D13*
%TO.C,C12*%
X25432800Y-20449200D03*
X26392800Y-20449200D03*
%TD*%
D12*
%TO.C,C116*%
X43031100Y-70515300D03*
X44581100Y-70515300D03*
%TD*%
%TO.C,C88*%
X96225000Y-18400000D03*
X97775000Y-18400000D03*
%TD*%
%TO.C,C98*%
X34310700Y-74050800D03*
X35860700Y-74050800D03*
%TD*%
%TO.C,C127*%
X24483900Y-43802200D03*
X26033900Y-43802200D03*
%TD*%
D30*
%TO.C,Y6*%
X49698300Y-68375800D03*
X47198300Y-68375800D03*
%TD*%
D13*
%TO.C,C62*%
X87148500Y-34615000D03*
X88108500Y-34615000D03*
%TD*%
D23*
%TO.C,U8*%
X63845600Y-31806500D03*
X63845600Y-32756500D03*
X63845600Y-33706500D03*
X66120600Y-33706500D03*
X66120600Y-31806500D03*
%TD*%
D10*
%TO.C,R31*%
X12265700Y-89727000D03*
X13915700Y-89727000D03*
%TD*%
D12*
%TO.C,C122*%
X18709700Y-75806100D03*
X20259700Y-75806100D03*
%TD*%
D10*
%TO.C,R55*%
X45975300Y-50239400D03*
X47625300Y-50239400D03*
%TD*%
D12*
%TO.C,C123*%
X12777800Y-52565200D03*
X14327800Y-52565200D03*
%TD*%
D11*
%TO.C,RCC1*%
X68973300Y-80041200D03*
X69993300Y-80041200D03*
%TD*%
D13*
%TO.C,C45*%
X55047900Y-31608500D03*
X56007900Y-31608500D03*
%TD*%
D11*
%TO.C,R70*%
X78390000Y-59500000D03*
X79410000Y-59500000D03*
%TD*%
D31*
%TO.C,U24*%
X44350000Y-77350000D03*
X44350000Y-78650000D03*
X45650000Y-77350000D03*
X45650000Y-78650000D03*
D32*
X43062500Y-76750000D03*
X43062500Y-77250000D03*
X43062500Y-77750000D03*
X43062500Y-78250000D03*
X43062500Y-78750000D03*
X43062500Y-79250000D03*
D33*
X43750000Y-79937500D03*
X44250000Y-79937500D03*
X44750000Y-79937500D03*
X45250000Y-79937500D03*
X45750000Y-79937500D03*
X46250000Y-79937500D03*
D32*
X46937500Y-79250000D03*
X46937500Y-78750000D03*
X46937500Y-78250000D03*
X46937500Y-77750000D03*
X46937500Y-77250000D03*
X46937500Y-76750000D03*
D33*
X46250000Y-76062500D03*
X45750000Y-76062500D03*
X45250000Y-76062500D03*
X44750000Y-76062500D03*
X44250000Y-76062500D03*
X43750000Y-76062500D03*
%TD*%
D34*
%TO.C,U21*%
X67241500Y-25322100D03*
X67241500Y-26472100D03*
X67241500Y-27622100D03*
X68391500Y-25322100D03*
X68391500Y-26472100D03*
X68391500Y-27622100D03*
X69541500Y-25322100D03*
X69541500Y-26472100D03*
X69541500Y-27622100D03*
D35*
X65954000Y-24722100D03*
X65954000Y-25222100D03*
X65954000Y-25722100D03*
X65954000Y-26222100D03*
X65954000Y-26722100D03*
X65954000Y-27222100D03*
X65954000Y-27722100D03*
X65954000Y-28222100D03*
D36*
X66641500Y-28909600D03*
X67141500Y-28909600D03*
X67641500Y-28909600D03*
X68141500Y-28909600D03*
X68641500Y-28909600D03*
X69141500Y-28909600D03*
X69641500Y-28909600D03*
X70141500Y-28909600D03*
D35*
X70829000Y-28222100D03*
X70829000Y-27722100D03*
X70829000Y-27222100D03*
X70829000Y-26722100D03*
X70829000Y-26222100D03*
X70829000Y-25722100D03*
X70829000Y-25222100D03*
X70829000Y-24722100D03*
D36*
X70141500Y-24034600D03*
X69641500Y-24034600D03*
X69141500Y-24034600D03*
X68641500Y-24034600D03*
X68141500Y-24034600D03*
X67641500Y-24034600D03*
X67141500Y-24034600D03*
X66641500Y-24034600D03*
%TD*%
D12*
%TO.C,C68*%
X23752900Y-93608500D03*
X25302900Y-93608500D03*
%TD*%
D13*
%TO.C,C40*%
X57520000Y-17600000D03*
X58480000Y-17600000D03*
%TD*%
D10*
%TO.C,R53*%
X41002800Y-44626600D03*
X42652800Y-44626600D03*
%TD*%
D37*
%TO.C,COUT1*%
X69141000Y-70844000D03*
X72091000Y-70844000D03*
%TD*%
D10*
%TO.C,R43*%
X98875000Y-43600000D03*
X100525000Y-43600000D03*
%TD*%
D12*
%TO.C,C110*%
X42134300Y-57273000D03*
X43684300Y-57273000D03*
%TD*%
D27*
%TO.C,R37*%
X71112500Y-16060000D03*
X71112500Y-15040000D03*
%TD*%
D38*
%TO.C,C66*%
X34919200Y-89673800D03*
X36819200Y-89673800D03*
%TD*%
D39*
%TO.C,C21*%
X11145000Y-18300000D03*
X10455000Y-18300000D03*
%TD*%
D13*
%TO.C,C_IOVDD7*%
X52391900Y-89631900D03*
X53351900Y-89631900D03*
%TD*%
%TO.C,C6*%
X70439200Y-88492200D03*
X71399200Y-88492200D03*
%TD*%
D12*
%TO.C,C103*%
X13879800Y-62255000D03*
X15429800Y-62255000D03*
%TD*%
%TO.C,C50*%
X79348400Y-35533400D03*
X80898400Y-35533400D03*
%TD*%
D13*
%TO.C,C33*%
X62841400Y-27555600D03*
X63801400Y-27555600D03*
%TD*%
D12*
%TO.C,C135*%
X47260700Y-63506100D03*
X48810700Y-63506100D03*
%TD*%
%TO.C,C99*%
X30725500Y-75181200D03*
X32275500Y-75181200D03*
%TD*%
D38*
%TO.C,C64*%
X35650000Y-86000000D03*
X37550000Y-86000000D03*
%TD*%
D10*
%TO.C,R44*%
X20827500Y-43261500D03*
X22477500Y-43261500D03*
%TD*%
D13*
%TO.C,C34*%
X59969200Y-29912800D03*
X60929200Y-29912800D03*
%TD*%
D40*
%TO.C,U3*%
X61220000Y-65850000D03*
X61220000Y-67120000D03*
D41*
X61600000Y-63350000D03*
X61600000Y-64400000D03*
X63000000Y-63350000D03*
X63000000Y-64400000D03*
D42*
X63100000Y-65850000D03*
X63100000Y-67120000D03*
X64280000Y-65850000D03*
X64280000Y-67120000D03*
D41*
X64400000Y-63350000D03*
X64400000Y-64400000D03*
D43*
X65475000Y-66820000D03*
D44*
X60260000Y-62725000D03*
X60260000Y-63375000D03*
X60260000Y-64025000D03*
X60260000Y-64675000D03*
X60260000Y-65325000D03*
X60260000Y-65975000D03*
X60260000Y-66625000D03*
X60260000Y-67275000D03*
D45*
X60725000Y-67740000D03*
X61375000Y-67740000D03*
X62025000Y-67740000D03*
X62675000Y-67740000D03*
X63325000Y-67740000D03*
X63975000Y-67740000D03*
X64625000Y-67740000D03*
X65275000Y-67740000D03*
D44*
X65740000Y-67275000D03*
X65740000Y-66625000D03*
X65740000Y-65975000D03*
X65740000Y-65325000D03*
X65740000Y-64675000D03*
X65740000Y-64025000D03*
X65740000Y-63375000D03*
X65740000Y-62725000D03*
D45*
X65275000Y-62260000D03*
X64625000Y-62260000D03*
X63975000Y-62260000D03*
X63325000Y-62260000D03*
X62675000Y-62260000D03*
X62025000Y-62260000D03*
X61375000Y-62260000D03*
X60725000Y-62260000D03*
%TD*%
D22*
%TO.C,L2*%
X49121600Y-90859500D03*
X50696600Y-90859500D03*
%TD*%
D10*
%TO.C,R25*%
X80547500Y-41813200D03*
X82197500Y-41813200D03*
%TD*%
D13*
%TO.C,C47*%
X49618500Y-25251500D03*
X50578500Y-25251500D03*
%TD*%
D10*
%TO.C,R51*%
X33152800Y-40804400D03*
X34802800Y-40804400D03*
%TD*%
D46*
%TO.C,RANT1*%
X7310000Y-18000000D03*
X6290000Y-18000000D03*
%TD*%
D22*
%TO.C,FB4*%
X101612500Y-29200000D03*
X103187500Y-29200000D03*
%TD*%
D47*
%TO.C,Y5*%
X8864300Y-64356100D03*
X11064300Y-64356100D03*
X11064300Y-62656100D03*
X8864300Y-62656100D03*
%TD*%
D13*
%TO.C,C17*%
X20768600Y-11723000D03*
X21728600Y-11723000D03*
%TD*%
D12*
%TO.C,CSS1*%
X63225000Y-52900000D03*
X64775000Y-52900000D03*
%TD*%
D13*
%TO.C,C63*%
X83251400Y-37722800D03*
X84211400Y-37722800D03*
%TD*%
D12*
%TO.C,C124*%
X14135500Y-50452700D03*
X15685500Y-50452700D03*
%TD*%
D13*
%TO.C,C24*%
X62320000Y-24000000D03*
X63280000Y-24000000D03*
%TD*%
D11*
%TO.C,R28*%
X17733500Y-92983100D03*
X18753500Y-92983100D03*
%TD*%
D12*
%TO.C,C83*%
X88125000Y-13900000D03*
X89675000Y-13900000D03*
%TD*%
D13*
%TO.C,C20*%
X20771500Y-25901500D03*
X21731500Y-25901500D03*
%TD*%
%TO.C,C14*%
X18271400Y-24277000D03*
X19231400Y-24277000D03*
%TD*%
%TO.C,C48*%
X49618500Y-22748500D03*
X50578500Y-22748500D03*
%TD*%
D10*
%TO.C,R52*%
X36711600Y-42032500D03*
X38361600Y-42032500D03*
%TD*%
D12*
%TO.C,C101*%
X23299900Y-74531600D03*
X24849900Y-74531600D03*
%TD*%
D13*
%TO.C,C27*%
X55120000Y-28156900D03*
X56080000Y-28156900D03*
%TD*%
D10*
%TO.C,R50*%
X29430900Y-40237900D03*
X31080900Y-40237900D03*
%TD*%
%TO.C,R67*%
X4075000Y-39600000D03*
X5725000Y-39600000D03*
%TD*%
D13*
%TO.C,C36*%
X55070800Y-29912800D03*
X56030800Y-29912800D03*
%TD*%
D48*
%TO.C,U6*%
X10204500Y-16275000D03*
X10604500Y-16275000D03*
X11004500Y-16275000D03*
X11004500Y-15725000D03*
X10604500Y-15725000D03*
X10204500Y-15725000D03*
%TD*%
D12*
%TO.C,C85*%
X92625000Y-15700000D03*
X94175000Y-15700000D03*
%TD*%
%TO.C,C87*%
X92625000Y-18400000D03*
X94175000Y-18400000D03*
%TD*%
D38*
%TO.C,C67*%
X17180800Y-89673800D03*
X19080800Y-89673800D03*
%TD*%
D12*
%TO.C,C3*%
X56312000Y-67449000D03*
X57862000Y-67449000D03*
%TD*%
D10*
%TO.C,R4*%
X55075000Y-55600000D03*
X56725000Y-55600000D03*
%TD*%
D11*
%TO.C,R11*%
X55017900Y-16391500D03*
X56037900Y-16391500D03*
%TD*%
%TO.C,R71*%
X81090000Y-59500000D03*
X82110000Y-59500000D03*
%TD*%
D49*
%TO.C,Y1*%
X71950000Y-85250000D03*
X74050000Y-85250000D03*
X74050000Y-86750000D03*
X71950000Y-86750000D03*
%TD*%
D12*
%TO.C,C69*%
X16707100Y-87253100D03*
X18257100Y-87253100D03*
%TD*%
D10*
%TO.C,R60*%
X18475000Y-36900000D03*
X20125000Y-36900000D03*
%TD*%
D13*
%TO.C,C_DVDD1*%
X52391900Y-82368100D03*
X53351900Y-82368100D03*
%TD*%
%TO.C,C32*%
X89520000Y-44000000D03*
X90480000Y-44000000D03*
%TD*%
%TO.C,C_DVDD2*%
X55888100Y-78871900D03*
X56848100Y-78871900D03*
%TD*%
D12*
%TO.C,C96*%
X42625000Y-61000000D03*
X44175000Y-61000000D03*
%TD*%
D10*
%TO.C,R66*%
X40075000Y-36900000D03*
X41725000Y-36900000D03*
%TD*%
D12*
%TO.C,C65*%
X28697100Y-93608500D03*
X30247100Y-93608500D03*
%TD*%
D10*
%TO.C,R59*%
X14875000Y-36900000D03*
X16525000Y-36900000D03*
%TD*%
D13*
%TO.C,C_USB2*%
X32364100Y-93616200D03*
X33324100Y-93616200D03*
%TD*%
D12*
%TO.C,C131*%
X39750500Y-47698800D03*
X41300500Y-47698800D03*
%TD*%
D50*
%TO.C,CANT1*%
X9280000Y-19200000D03*
X8320000Y-19200000D03*
%TD*%
D10*
%TO.C,REN1*%
X62275000Y-55600000D03*
X63925000Y-55600000D03*
%TD*%
D13*
%TO.C,C49*%
X51863100Y-18343100D03*
X52823100Y-18343100D03*
%TD*%
D12*
%TO.C,C129*%
X31966100Y-43802200D03*
X33516100Y-43802200D03*
%TD*%
D13*
%TO.C,C_ADC1*%
X66648100Y-82368100D03*
X67608100Y-82368100D03*
%TD*%
%TO.C,C43*%
X59992100Y-31608500D03*
X60952100Y-31608500D03*
%TD*%
D12*
%TO.C,C112*%
X42481100Y-68263800D03*
X44031100Y-68263800D03*
%TD*%
D10*
%TO.C,R33*%
X12532800Y-94360000D03*
X14182800Y-94360000D03*
%TD*%
%TO.C,R57*%
X7675000Y-36900000D03*
X9325000Y-36900000D03*
%TD*%
D37*
%TO.C,CIN1*%
X62773999Y-71277000D03*
X65723999Y-71277000D03*
%TD*%
D13*
%TO.C,C8*%
X51903800Y-80155900D03*
X52863800Y-80155900D03*
%TD*%
D14*
%TO.C,C56*%
X83500000Y-18020000D03*
X83500000Y-18980000D03*
%TD*%
D12*
%TO.C,C102*%
X14315700Y-64727000D03*
X15865700Y-64727000D03*
%TD*%
D11*
%TO.C,R12*%
X57490000Y-16000000D03*
X58510000Y-16000000D03*
%TD*%
D12*
%TO.C,C15*%
X16775800Y-12087200D03*
X18325800Y-12087200D03*
%TD*%
%TO.C,C75*%
X90825000Y-8500000D03*
X92375000Y-8500000D03*
%TD*%
D18*
%TO.C,J17*%
X26800000Y-96060000D03*
X27600000Y-96060000D03*
D19*
X28750000Y-96060000D03*
X29750000Y-96060000D03*
X30250000Y-96060000D03*
X31250000Y-96060000D03*
D18*
X32400000Y-96060000D03*
X33200000Y-96060000D03*
X33200000Y-96060000D03*
X32400000Y-96060000D03*
D19*
X31750000Y-96060000D03*
X30750000Y-96060000D03*
X29250000Y-96060000D03*
X28250000Y-96060000D03*
D18*
X27600000Y-96060000D03*
X26800000Y-96060000D03*
D20*
X25680000Y-96635000D03*
D21*
X25680000Y-100815000D03*
D20*
X34320000Y-96635000D03*
D21*
X34320000Y-100815000D03*
%TD*%
D13*
%TO.C,C_IOBULK1*%
X51618500Y-84748500D03*
X52578500Y-84748500D03*
%TD*%
D22*
%TO.C,FB8*%
X19720600Y-78220000D03*
X21295600Y-78220000D03*
%TD*%
D12*
%TO.C,C104*%
X13879800Y-59745000D03*
X15429800Y-59745000D03*
%TD*%
D10*
%TO.C,R32*%
X11829800Y-87255000D03*
X13479800Y-87255000D03*
%TD*%
D12*
%TO.C,C60*%
X89296900Y-27631900D03*
X90846900Y-27631900D03*
%TD*%
D50*
%TO.C,C42*%
X97980000Y-39000000D03*
X97020000Y-39000000D03*
%TD*%
D13*
%TO.C,C10*%
X66308200Y-79211800D03*
X67268200Y-79211800D03*
%TD*%
D12*
%TO.C,C18*%
X25425000Y-22800000D03*
X26975000Y-22800000D03*
%TD*%
%TO.C,C121*%
X23266500Y-77887100D03*
X24816500Y-77887100D03*
%TD*%
D47*
%TO.C,Y4*%
X49916900Y-33606500D03*
X52116900Y-33606500D03*
X52116900Y-31906500D03*
X49916900Y-31906500D03*
%TD*%
D51*
%TO.C,C29*%
X60100000Y-16480000D03*
X60100000Y-15520000D03*
%TD*%
D38*
%TO.C,CSVIN1*%
X54950000Y-52900000D03*
X56850000Y-52900000D03*
%TD*%
D10*
%TO.C,R35*%
X89875000Y-34600000D03*
X91525000Y-34600000D03*
%TD*%
D12*
%TO.C,C71*%
X77225000Y-7900000D03*
X78775000Y-7900000D03*
%TD*%
D10*
%TO.C,R54*%
X43744000Y-47207000D03*
X45394000Y-47207000D03*
%TD*%
D13*
%TO.C,C94*%
X62520000Y-22000000D03*
X63480000Y-22000000D03*
%TD*%
%TO.C,C_IOVDD8*%
X51618500Y-87251500D03*
X52578500Y-87251500D03*
%TD*%
D12*
%TO.C,C133*%
X45645900Y-58495300D03*
X47195900Y-58495300D03*
%TD*%
D13*
%TO.C,C9*%
X48920000Y-78900000D03*
X49880000Y-78900000D03*
%TD*%
%TO.C,C28*%
X52883600Y-25242300D03*
X53843600Y-25242300D03*
%TD*%
D52*
%TO.C,U18*%
X22000000Y-81500000D03*
X23000000Y-81500000D03*
X24000000Y-81500000D03*
X25000000Y-81500000D03*
X26000000Y-81500000D03*
X27000000Y-81500000D03*
X28000000Y-81500000D03*
X29000000Y-81500000D03*
X30000000Y-81500000D03*
X31000000Y-81500000D03*
X32000000Y-81500000D03*
X32000000Y-82500000D03*
X32000000Y-83500000D03*
X32000000Y-84500000D03*
X32000000Y-85500000D03*
X32000000Y-86500000D03*
X32000000Y-87500000D03*
X32000000Y-88500000D03*
X32000000Y-89500000D03*
X32000000Y-90500000D03*
X31000000Y-90500000D03*
X30000000Y-90500000D03*
X29000000Y-90500000D03*
X28000000Y-90500000D03*
X27000000Y-90500000D03*
X26000000Y-90500000D03*
X25000000Y-90500000D03*
X24000000Y-90500000D03*
X23000000Y-90500000D03*
X22000000Y-90500000D03*
X22000000Y-89500000D03*
X22000000Y-88500000D03*
X22000000Y-87500000D03*
X22000000Y-86500000D03*
X22000000Y-85500000D03*
X22000000Y-84500000D03*
X22000000Y-83500000D03*
X22000000Y-82500000D03*
%TD*%
D11*
%TO.C,R10*%
X18238500Y-10098500D03*
X19258500Y-10098500D03*
%TD*%
D39*
%TO.C,C23*%
X9045000Y-18000000D03*
X8355000Y-18000000D03*
%TD*%
D12*
%TO.C,C78*%
X83625000Y-12100000D03*
X85175000Y-12100000D03*
%TD*%
%TO.C,C106*%
X22139300Y-47949200D03*
X23689300Y-47949200D03*
%TD*%
D27*
%TO.C,R42*%
X69000000Y-21810000D03*
X69000000Y-20790000D03*
%TD*%
D10*
%TO.C,R1*%
X66775000Y-52900000D03*
X68425000Y-52900000D03*
%TD*%
D12*
%TO.C,C5*%
X66925000Y-57750000D03*
X68475000Y-57750000D03*
%TD*%
D13*
%TO.C,C_IOVDD6*%
X55888100Y-93128100D03*
X56848100Y-93128100D03*
%TD*%
%TO.C,C_IOVDD2*%
X67128500Y-88472100D03*
X68088500Y-88472100D03*
%TD*%
D53*
%TO.C,U17*%
X74655500Y-24888700D03*
X74655500Y-25371300D03*
X74655500Y-25879300D03*
X74655500Y-26387300D03*
X74655500Y-26869900D03*
X74655500Y-27377900D03*
X74655500Y-27885900D03*
X74655500Y-28393900D03*
X74655500Y-28876500D03*
X74655500Y-29384500D03*
X74655500Y-29892500D03*
X74655500Y-30375100D03*
D54*
X76128700Y-31848300D03*
X76611300Y-31848300D03*
X77119300Y-31848300D03*
X77627300Y-31848300D03*
X78109900Y-31848300D03*
X78617900Y-31848300D03*
X79125900Y-31848300D03*
X79633900Y-31848300D03*
X80116500Y-31848300D03*
X80624500Y-31848300D03*
X81132500Y-31848300D03*
X81615100Y-31848300D03*
D53*
X83088300Y-30375100D03*
X83088300Y-29892500D03*
X83088300Y-29384500D03*
X83088300Y-28876500D03*
X83088300Y-28393900D03*
X83088300Y-27885900D03*
X83088300Y-27377900D03*
X83088300Y-26869900D03*
X83088300Y-26387300D03*
X83088300Y-25879300D03*
X83088300Y-25371300D03*
X83088300Y-24888700D03*
D54*
X81615100Y-23415500D03*
X81132500Y-23415500D03*
X80624500Y-23415500D03*
X80116500Y-23415500D03*
X79633900Y-23415500D03*
X79125900Y-23415500D03*
X78617900Y-23415500D03*
X78109900Y-23415500D03*
X77627300Y-23415500D03*
X77119300Y-23415500D03*
X76611300Y-23415500D03*
X76128700Y-23415500D03*
D55*
X78871900Y-27631900D03*
%TD*%
D12*
%TO.C,C4*%
X56312200Y-62550800D03*
X57862200Y-62550800D03*
%TD*%
D14*
%TO.C,C58*%
X78100000Y-19520000D03*
X78100000Y-20480000D03*
%TD*%
D56*
%TO.C,U20*%
X64800000Y-11900000D03*
X64800000Y-12400000D03*
X64800000Y-12900000D03*
X64800000Y-13400000D03*
X64800000Y-13900000D03*
X69200000Y-13900000D03*
X69200000Y-13400000D03*
X69200000Y-12900000D03*
X69200000Y-12400000D03*
X69200000Y-11900000D03*
%TD*%
D13*
%TO.C,C_USBOTP1*%
X66308200Y-92788200D03*
X67268200Y-92788200D03*
%TD*%
D57*
%TO.C,U23*%
X18337500Y-52250000D03*
X18337500Y-52750000D03*
X18337500Y-53250000D03*
X18337500Y-53750000D03*
X18337500Y-54250000D03*
X18337500Y-54750000D03*
X18337500Y-55250000D03*
X18337500Y-55750000D03*
X18337500Y-56250000D03*
X18337500Y-56750000D03*
X18337500Y-57250000D03*
X18337500Y-57750000D03*
X18337500Y-58250000D03*
X18337500Y-58750000D03*
X18337500Y-59250000D03*
X18337500Y-59750000D03*
X18337500Y-60250000D03*
X18337500Y-60750000D03*
X18337500Y-61250000D03*
X18337500Y-61750000D03*
X18337500Y-62250000D03*
X18337500Y-62750000D03*
X18337500Y-63250000D03*
X18337500Y-63750000D03*
X18337500Y-64250000D03*
X18337500Y-64750000D03*
X18337500Y-65250000D03*
X18337500Y-65750000D03*
X18337500Y-66250000D03*
X18337500Y-66750000D03*
X18337500Y-67250000D03*
X18337500Y-67750000D03*
X18337500Y-68250000D03*
X18337500Y-68750000D03*
X18337500Y-69250000D03*
X18337500Y-69750000D03*
D58*
X20250000Y-71662500D03*
X20750000Y-71662500D03*
X21250000Y-71662500D03*
X21750000Y-71662500D03*
X22250000Y-71662500D03*
X22750000Y-71662500D03*
X23250000Y-71662500D03*
X23750000Y-71662500D03*
X24250000Y-71662500D03*
X24750000Y-71662500D03*
X25250000Y-71662500D03*
X25750000Y-71662500D03*
X26250000Y-71662500D03*
X26750000Y-71662500D03*
X27250000Y-71662500D03*
X27750000Y-71662500D03*
X28250000Y-71662500D03*
X28750000Y-71662500D03*
X29250000Y-71662500D03*
X29750000Y-71662500D03*
X30250000Y-71662500D03*
X30750000Y-71662500D03*
X31250000Y-71662500D03*
X31750000Y-71662500D03*
X32250000Y-71662500D03*
X32750000Y-71662500D03*
X33250000Y-71662500D03*
X33750000Y-71662500D03*
X34250000Y-71662500D03*
X34750000Y-71662500D03*
X35250000Y-71662500D03*
X35750000Y-71662500D03*
X36250000Y-71662500D03*
X36750000Y-71662500D03*
X37250000Y-71662500D03*
X37750000Y-71662500D03*
D57*
X39662500Y-69750000D03*
X39662500Y-69250000D03*
X39662500Y-68750000D03*
X39662500Y-68250000D03*
X39662500Y-67750000D03*
X39662500Y-67250000D03*
X39662500Y-66750000D03*
X39662500Y-66250000D03*
X39662500Y-65750000D03*
X39662500Y-65250000D03*
X39662500Y-64750000D03*
X39662500Y-64250000D03*
X39662500Y-63750000D03*
X39662500Y-63250000D03*
X39662500Y-62750000D03*
X39662500Y-62250000D03*
X39662500Y-61750000D03*
X39662500Y-61250000D03*
X39662500Y-60750000D03*
X39662500Y-60250000D03*
X39662500Y-59750000D03*
X39662500Y-59250000D03*
X39662500Y-58750000D03*
X39662500Y-58250000D03*
X39662500Y-57750000D03*
X39662500Y-57250000D03*
X39662500Y-56750000D03*
X39662500Y-56250000D03*
X39662500Y-55750000D03*
X39662500Y-55250000D03*
X39662500Y-54750000D03*
X39662500Y-54250000D03*
X39662500Y-53750000D03*
X39662500Y-53250000D03*
X39662500Y-52750000D03*
X39662500Y-52250000D03*
D58*
X37750000Y-50337500D03*
X37250000Y-50337500D03*
X36750000Y-50337500D03*
X36250000Y-50337500D03*
X35750000Y-50337500D03*
X35250000Y-50337500D03*
X34750000Y-50337500D03*
X34250000Y-50337500D03*
X33750000Y-50337500D03*
X33250000Y-50337500D03*
X32750000Y-50337500D03*
X32250000Y-50337500D03*
X31750000Y-50337500D03*
X31250000Y-50337500D03*
X30750000Y-50337500D03*
X30250000Y-50337500D03*
X29750000Y-50337500D03*
X29250000Y-50337500D03*
X28750000Y-50337500D03*
X28250000Y-50337500D03*
X27750000Y-50337500D03*
X27250000Y-50337500D03*
X26750000Y-50337500D03*
X26250000Y-50337500D03*
X25750000Y-50337500D03*
X25250000Y-50337500D03*
X24750000Y-50337500D03*
X24250000Y-50337500D03*
X23750000Y-50337500D03*
X23250000Y-50337500D03*
X22750000Y-50337500D03*
X22250000Y-50337500D03*
X21750000Y-50337500D03*
X21250000Y-50337500D03*
X20750000Y-50337500D03*
X20250000Y-50337500D03*
%TD*%
D59*
%TO.C,C22*%
X13684500Y-17855000D03*
X13684500Y-18545000D03*
%TD*%
D10*
%TO.C,R3*%
X73975000Y-52900000D03*
X75625000Y-52900000D03*
%TD*%
%TO.C,R27*%
X94046900Y-27631900D03*
X95696900Y-27631900D03*
%TD*%
%TO.C,R65*%
X36475000Y-36900000D03*
X38125000Y-36900000D03*
%TD*%
D15*
%TO.C,U11*%
X44400000Y-8777500D03*
X44400000Y-9412500D03*
X44400000Y-10047500D03*
X44400000Y-10682500D03*
X44400000Y-11317500D03*
X44400000Y-11952500D03*
X44400000Y-12587500D03*
X44400000Y-13222500D03*
X49600000Y-13222500D03*
X49600000Y-12587500D03*
X49600000Y-11952500D03*
X49600000Y-11317500D03*
X49600000Y-10682500D03*
X49600000Y-10047500D03*
X49600000Y-9412500D03*
X49600000Y-8777500D03*
%TD*%
D10*
%TO.C,R30*%
X37206000Y-95256100D03*
X38856000Y-95256100D03*
%TD*%
%TO.C,RCL1*%
X60922000Y-74518000D03*
X62572000Y-74518000D03*
%TD*%
D14*
%TO.C,CANT2*%
X5800000Y-19120000D03*
X5800000Y-20080000D03*
%TD*%
D10*
%TO.C,R48*%
X21986900Y-41141800D03*
X23636900Y-41141800D03*
%TD*%
D13*
%TO.C,C_IOVDD4*%
X60771500Y-93901500D03*
X61731500Y-93901500D03*
%TD*%
D10*
%TO.C,R61*%
X22075000Y-36900000D03*
X23725000Y-36900000D03*
%TD*%
D13*
%TO.C,C31*%
X89020000Y-41450000D03*
X89980000Y-41450000D03*
%TD*%
D22*
%TO.C,FB1*%
X79338400Y-38761500D03*
X80913400Y-38761500D03*
%TD*%
D13*
%TO.C,C11*%
X25920000Y-18000000D03*
X26880000Y-18000000D03*
%TD*%
D27*
%TO.C,R39*%
X64500000Y-20010000D03*
X64500000Y-18990000D03*
%TD*%
D13*
%TO.C,C37*%
X52198600Y-27555600D03*
X53158600Y-27555600D03*
%TD*%
D12*
%TO.C,C80*%
X101625000Y-12100000D03*
X103175000Y-12100000D03*
%TD*%
%TO.C,C134*%
X47425000Y-61000000D03*
X48975000Y-61000000D03*
%TD*%
D10*
%TO.C,R46*%
X10374700Y-50239400D03*
X12024700Y-50239400D03*
%TD*%
D12*
%TO.C,C130*%
X35536300Y-44990500D03*
X37086300Y-44990500D03*
%TD*%
%TO.C,C109*%
X33150100Y-47468400D03*
X34700100Y-47468400D03*
%TD*%
D11*
%TO.C,R16*%
X55005300Y-33272900D03*
X56025300Y-33272900D03*
%TD*%
D12*
%TO.C,C76*%
X94425000Y-10300000D03*
X95975000Y-10300000D03*
%TD*%
D10*
%TO.C,R45*%
X38935600Y-78800200D03*
X40585600Y-78800200D03*
%TD*%
D12*
%TO.C,C53*%
X82896900Y-35945800D03*
X84446900Y-35945800D03*
%TD*%
%TO.C,C120*%
X26969400Y-78555200D03*
X28519400Y-78555200D03*
%TD*%
D60*
%TO.C,IC2*%
X78750000Y-54850000D03*
X78750000Y-55900000D03*
X78750000Y-56950000D03*
X79800000Y-56950000D03*
X80850000Y-56950000D03*
X80850000Y-55900000D03*
X80850000Y-54850000D03*
X79800000Y-54850000D03*
X79800000Y-55900000D03*
%TD*%
D12*
%TO.C,C119*%
X30729700Y-78420900D03*
X32279700Y-78420900D03*
%TD*%
D38*
%TO.C,C74*%
X69950000Y-10300000D03*
X71850000Y-10300000D03*
%TD*%
D11*
%TO.C,RCC2*%
X70061500Y-82300900D03*
X71081500Y-82300900D03*
%TD*%
D10*
%TO.C,R34*%
X11392900Y-92122900D03*
X13042900Y-92122900D03*
%TD*%
D22*
%TO.C,FB2*%
X72125700Y-37115200D03*
X73700700Y-37115200D03*
%TD*%
D61*
%TO.C,U16*%
X74466900Y-10986700D03*
X74466900Y-13286700D03*
D62*
X80766900Y-13286700D03*
D61*
X74466900Y-15586700D03*
%TD*%
D11*
%TO.C,R40*%
X73490000Y-18300000D03*
X74510000Y-18300000D03*
%TD*%
D63*
%TO.C,U13*%
X60750000Y-26750000D03*
X60250000Y-26750000D03*
X59750000Y-26750000D03*
X59250000Y-26750000D03*
X58750000Y-26750000D03*
X58250000Y-26750000D03*
X57750000Y-26750000D03*
X57250000Y-26750000D03*
X56250000Y-26750000D03*
X55750000Y-26750000D03*
X55250000Y-26750000D03*
X60750000Y-26250000D03*
X60250000Y-26250000D03*
X59750000Y-26250000D03*
X59250000Y-26250000D03*
X58750000Y-26250000D03*
X58250000Y-26250000D03*
X57750000Y-26250000D03*
X57250000Y-26250000D03*
X56750000Y-26250000D03*
X56250000Y-26250000D03*
X55750000Y-26250000D03*
X55250000Y-26250000D03*
X60750000Y-25750000D03*
X60250000Y-25750000D03*
X58250000Y-25750000D03*
X57250000Y-25750000D03*
X56750000Y-25750000D03*
X55750000Y-25750000D03*
X55250000Y-25750000D03*
X60750000Y-25250000D03*
X60250000Y-25250000D03*
X59750000Y-25250000D03*
X56250000Y-25250000D03*
X55750000Y-25250000D03*
X60750000Y-24750000D03*
X60250000Y-24750000D03*
X58750000Y-24750000D03*
X58250000Y-24750000D03*
X57750000Y-24750000D03*
X57250000Y-24750000D03*
X56750000Y-24750000D03*
X56250000Y-24750000D03*
X55750000Y-24750000D03*
X55250000Y-24750000D03*
X60750000Y-24250000D03*
X60250000Y-24250000D03*
X59750000Y-24250000D03*
X58750000Y-24250000D03*
X58250000Y-24250000D03*
X57750000Y-24250000D03*
X57250000Y-24250000D03*
X56750000Y-24250000D03*
X55750000Y-24250000D03*
X60750000Y-23750000D03*
X60250000Y-23750000D03*
X58750000Y-23750000D03*
X57750000Y-23750000D03*
X57250000Y-23750000D03*
X56750000Y-23750000D03*
X55750000Y-23750000D03*
X55250000Y-23750000D03*
X60750000Y-23250000D03*
X60250000Y-23250000D03*
X58750000Y-23250000D03*
X57250000Y-23250000D03*
X56250000Y-23250000D03*
X55750000Y-23250000D03*
X55250000Y-23250000D03*
X60750000Y-22750000D03*
X60250000Y-22750000D03*
X58750000Y-22750000D03*
X56250000Y-22750000D03*
X55750000Y-22750000D03*
X60750000Y-22250000D03*
X60250000Y-22250000D03*
X57750000Y-22250000D03*
X56750000Y-22250000D03*
X55750000Y-22250000D03*
X55250000Y-22250000D03*
X60750000Y-21750000D03*
X60250000Y-21750000D03*
X59750000Y-21750000D03*
X59250000Y-21750000D03*
X58750000Y-21750000D03*
X58250000Y-21750000D03*
X57250000Y-21750000D03*
X56750000Y-21750000D03*
X56250000Y-21750000D03*
X55750000Y-21750000D03*
X55250000Y-21750000D03*
X60750000Y-21250000D03*
X60250000Y-21250000D03*
X59750000Y-21250000D03*
X59250000Y-21250000D03*
X58750000Y-21250000D03*
X58250000Y-21250000D03*
X57750000Y-21250000D03*
X57250000Y-21250000D03*
X56250000Y-21250000D03*
X55750000Y-21250000D03*
X55250000Y-21250000D03*
%TD*%
D12*
%TO.C,C13*%
X21674200Y-23912800D03*
X23224200Y-23912800D03*
%TD*%
D22*
%TO.C,FB7*%
X43444900Y-72688200D03*
X45019900Y-72688200D03*
%TD*%
D11*
%TO.C,R6*%
X48570800Y-88492200D03*
X49590800Y-88492200D03*
%TD*%
D10*
%TO.C,RBOT1*%
X64659700Y-74272900D03*
X66309700Y-74272900D03*
%TD*%
D13*
%TO.C,C_IOVDD3*%
X63151900Y-93128100D03*
X64111900Y-93128100D03*
%TD*%
D12*
%TO.C,COUT2*%
X68138000Y-60700000D03*
X69688000Y-60700000D03*
%TD*%
D10*
%TO.C,R63*%
X29275000Y-36900000D03*
X30925000Y-36900000D03*
%TD*%
D12*
%TO.C,C70*%
X35497900Y-83515300D03*
X37047900Y-83515300D03*
%TD*%
%TO.C,C113*%
X13968900Y-68263800D03*
X15518900Y-68263800D03*
%TD*%
%TO.C,C72*%
X73804600Y-46330300D03*
X75354600Y-46330300D03*
%TD*%
D27*
%TO.C,R36*%
X63000000Y-16060000D03*
X63000000Y-15040000D03*
%TD*%
D12*
%TO.C,C79*%
X98025000Y-12100000D03*
X99575000Y-12100000D03*
%TD*%
D13*
%TO.C,C51*%
X86391900Y-27631900D03*
X87351900Y-27631900D03*
%TD*%
%TO.C,C7*%
X54660500Y-96090900D03*
X55620500Y-96090900D03*
%TD*%
D10*
%TO.C,R47*%
X11801600Y-48172200D03*
X13451600Y-48172200D03*
%TD*%
%TO.C,R24*%
X86306400Y-39427700D03*
X87956400Y-39427700D03*
%TD*%
D22*
%TO.C,FB6*%
X99812500Y-31900000D03*
X101387500Y-31900000D03*
%TD*%
D12*
%TO.C,C100*%
X26970000Y-75345200D03*
X28520000Y-75345200D03*
%TD*%
D64*
%TO.C,U4*%
X54750000Y-82200000D03*
X54750000Y-82600000D03*
X54750000Y-83000000D03*
X54750000Y-83400000D03*
X54750000Y-83800000D03*
X54750000Y-84200000D03*
X54750000Y-84600000D03*
X54750000Y-85000000D03*
X54750000Y-85400000D03*
X54750000Y-85800000D03*
X54750000Y-86200000D03*
X54750000Y-86600000D03*
X54750000Y-87000000D03*
X54750000Y-87400000D03*
X54750000Y-87800000D03*
X54750000Y-88200000D03*
X54750000Y-88600000D03*
X54750000Y-89000000D03*
X54750000Y-89400000D03*
X54750000Y-89800000D03*
D65*
X56200000Y-91250000D03*
X56600000Y-91250000D03*
X57000000Y-91250000D03*
X57400000Y-91250000D03*
X57800000Y-91250000D03*
X58200000Y-91250000D03*
X58600000Y-91250000D03*
X59000000Y-91250000D03*
X59400000Y-91250000D03*
X59800000Y-91250000D03*
X60200000Y-91250000D03*
X60600000Y-91250000D03*
X61000000Y-91250000D03*
X61400000Y-91250000D03*
X61800000Y-91250000D03*
X62200000Y-91250000D03*
X62600000Y-91250000D03*
X63000000Y-91250000D03*
X63400000Y-91250000D03*
X63800000Y-91250000D03*
D64*
X65250000Y-89800000D03*
X65250000Y-89400000D03*
X65250000Y-89000000D03*
X65250000Y-88600000D03*
X65250000Y-88200000D03*
X65250000Y-87800000D03*
X65250000Y-87400000D03*
X65250000Y-87000000D03*
X65250000Y-86600000D03*
X65250000Y-86200000D03*
X65250000Y-85800000D03*
X65250000Y-85400000D03*
X65250000Y-85000000D03*
X65250000Y-84600000D03*
X65250000Y-84200000D03*
X65250000Y-83800000D03*
X65250000Y-83400000D03*
X65250000Y-83000000D03*
X65250000Y-82600000D03*
X65250000Y-82200000D03*
D65*
X63800000Y-80750000D03*
X63400000Y-80750000D03*
X63000000Y-80750000D03*
X62600000Y-80750000D03*
X62200000Y-80750000D03*
X61800000Y-80750000D03*
X61400000Y-80750000D03*
X61000000Y-80750000D03*
X60600000Y-80750000D03*
X60200000Y-80750000D03*
X59800000Y-80750000D03*
X59400000Y-80750000D03*
X59000000Y-80750000D03*
X58600000Y-80750000D03*
X58200000Y-80750000D03*
X57800000Y-80750000D03*
X57400000Y-80750000D03*
X57000000Y-80750000D03*
X56600000Y-80750000D03*
X56200000Y-80750000D03*
D66*
X60000000Y-86000000D03*
%TD*%
D50*
%TO.C,C59*%
X85980000Y-22800000D03*
X85020000Y-22800000D03*
%TD*%
D12*
%TO.C,C128*%
X28225000Y-43400000D03*
X29775000Y-43400000D03*
%TD*%
%TO.C,C115*%
X42481100Y-53736200D03*
X44031100Y-53736200D03*
%TD*%
D47*
%TO.C,Y7*%
X15072200Y-45476600D03*
X17272200Y-45476600D03*
X17272200Y-43776600D03*
X15072200Y-43776600D03*
%TD*%
D10*
%TO.C,R23*%
X92228200Y-30132500D03*
X93878200Y-30132500D03*
%TD*%
D13*
%TO.C,C44*%
X57520000Y-32000000D03*
X58480000Y-32000000D03*
%TD*%
%TO.C,C41*%
X59969200Y-18087200D03*
X60929200Y-18087200D03*
%TD*%
D63*
%TO.C,U1*%
X90400000Y-55700000D03*
X90800000Y-55700000D03*
X90400000Y-56100000D03*
X90800000Y-56100000D03*
%TD*%
D12*
%TO.C,C86*%
X96225000Y-15700000D03*
X97775000Y-15700000D03*
%TD*%
D10*
%TO.C,R5*%
X58675000Y-55600000D03*
X60325000Y-55600000D03*
%TD*%
D11*
%TO.C,R15*%
X57490000Y-33600000D03*
X58510000Y-33600000D03*
%TD*%
D67*
%TO.C,IC1*%
X84950000Y-55150000D03*
X84950000Y-55650000D03*
X84950000Y-56150000D03*
X84950000Y-56650000D03*
D68*
X85600000Y-56800000D03*
X86100000Y-56800000D03*
X86600000Y-56800000D03*
D67*
X87250000Y-56650000D03*
X87250000Y-56150000D03*
X87250000Y-55650000D03*
X87250000Y-55150000D03*
D68*
X86600000Y-55000000D03*
X86100000Y-55000000D03*
X85600000Y-55000000D03*
%TD*%
D38*
%TO.C,C1*%
X58494000Y-70321000D03*
X60394000Y-70321000D03*
%TD*%
D12*
%TO.C,C77*%
X90825000Y-11200000D03*
X92375000Y-11200000D03*
%TD*%
D13*
%TO.C,C54*%
X75919800Y-35240400D03*
X76879800Y-35240400D03*
%TD*%
D12*
%TO.C,C118*%
X34375600Y-77490300D03*
X35925600Y-77490300D03*
%TD*%
D69*
%TO.C,U14*%
X46150000Y-37000000D03*
X46150000Y-39000000D03*
X47850000Y-37000000D03*
X47850000Y-39000000D03*
D70*
X44337500Y-36095000D03*
X44337500Y-37365000D03*
X44337500Y-38635000D03*
X44337500Y-39905000D03*
X49662500Y-39905000D03*
X49662500Y-38635000D03*
X49662500Y-37365000D03*
X49662500Y-36095000D03*
%TD*%
D71*
%TO.C,U5*%
X18710000Y-16710000D03*
X18710000Y-19290000D03*
X21290000Y-16710000D03*
X21290000Y-19290000D03*
D35*
X16562500Y-15250000D03*
X16562500Y-15750000D03*
X16562500Y-16250000D03*
X16562500Y-16750000D03*
X16562500Y-17250000D03*
X16562500Y-17750000D03*
X16562500Y-18250000D03*
X16562500Y-18750000D03*
X16562500Y-19250000D03*
X16562500Y-19750000D03*
X16562500Y-20250000D03*
X16562500Y-20750000D03*
D36*
X17250000Y-21437500D03*
X17750000Y-21437500D03*
X18250000Y-21437500D03*
X18750000Y-21437500D03*
X19250000Y-21437500D03*
X19750000Y-21437500D03*
X20250000Y-21437500D03*
X20750000Y-21437500D03*
X21250000Y-21437500D03*
X21750000Y-21437500D03*
X22250000Y-21437500D03*
X22750000Y-21437500D03*
D35*
X23437500Y-20750000D03*
X23437500Y-20250000D03*
X23437500Y-19750000D03*
X23437500Y-19250000D03*
X23437500Y-18750000D03*
X23437500Y-18250000D03*
X23437500Y-17750000D03*
X23437500Y-17250000D03*
X23437500Y-16750000D03*
X23437500Y-16250000D03*
X23437500Y-15750000D03*
X23437500Y-15250000D03*
D36*
X22750000Y-14562500D03*
X22250000Y-14562500D03*
X21750000Y-14562500D03*
X21250000Y-14562500D03*
X20750000Y-14562500D03*
X20250000Y-14562500D03*
X19750000Y-14562500D03*
X19250000Y-14562500D03*
X18750000Y-14562500D03*
X18250000Y-14562500D03*
X17750000Y-14562500D03*
X17250000Y-14562500D03*
%TD*%
D13*
%TO.C,C35*%
X57520000Y-30400000D03*
X58480000Y-30400000D03*
%TD*%
D10*
%TO.C,R49*%
X25667800Y-40351700D03*
X27317800Y-40351700D03*
%TD*%
D13*
%TO.C,C38*%
X52198600Y-20444300D03*
X53158600Y-20444300D03*
%TD*%
D72*
%TO.C,C2*%
X65000000Y-60275000D03*
X65000000Y-58725000D03*
%TD*%
D73*
%TO.C,U22*%
X66887500Y-17325000D03*
X66887500Y-17975000D03*
X66887500Y-18625000D03*
X66887500Y-19275000D03*
X71112500Y-19275000D03*
X71112500Y-18625000D03*
X71112500Y-17975000D03*
X71112500Y-17325000D03*
%TD*%
D30*
%TO.C,Y2*%
X13633800Y-12155900D03*
X11133800Y-12155900D03*
%TD*%
D23*
%TO.C,U7*%
X92862500Y-39550000D03*
X92862500Y-40500000D03*
X92862500Y-41450000D03*
X95137500Y-41450000D03*
X95137500Y-39550000D03*
%TD*%
D30*
%TO.C,Y3*%
X39250000Y-8000000D03*
X36750000Y-8000000D03*
%TD*%
D22*
%TO.C,FB9*%
X10031400Y-67171600D03*
X11606400Y-67171600D03*
%TD*%
D18*
%TO.C,J4*%
X58800000Y-96060000D03*
X59600000Y-96060000D03*
D19*
X60750000Y-96060000D03*
X61750000Y-96060000D03*
X62250000Y-96060000D03*
X63250000Y-96060000D03*
D18*
X64400000Y-96060000D03*
X65200000Y-96060000D03*
X65200000Y-96060000D03*
X64400000Y-96060000D03*
D19*
X63750000Y-96060000D03*
X62750000Y-96060000D03*
X61250000Y-96060000D03*
X60250000Y-96060000D03*
D18*
X59600000Y-96060000D03*
X58800000Y-96060000D03*
D20*
X57680000Y-96635000D03*
D21*
X57680000Y-100815000D03*
D20*
X66320000Y-96635000D03*
D21*
X66320000Y-100815000D03*
%TD*%
D18*
%TO.C,J20*%
X42800000Y-96060000D03*
X43600000Y-96060000D03*
D19*
X44750000Y-96060000D03*
X45750000Y-96060000D03*
X46250000Y-96060000D03*
X47250000Y-96060000D03*
D18*
X48400000Y-96060000D03*
X49200000Y-96060000D03*
X49200000Y-96060000D03*
X48400000Y-96060000D03*
D19*
X47750000Y-96060000D03*
X46750000Y-96060000D03*
X45250000Y-96060000D03*
X44250000Y-96060000D03*
D18*
X43600000Y-96060000D03*
X42800000Y-96060000D03*
D20*
X41680000Y-96635000D03*
D21*
X41680000Y-100815000D03*
D20*
X50320000Y-96635000D03*
D21*
X50320000Y-100815000D03*
%TD*%
D25*
%TO.C,U10*%
X48280800Y-19788700D03*
D26*
X48205800Y-20326200D03*
D25*
X48280800Y-20863700D03*
X49980800Y-20863700D03*
D26*
X50055800Y-20326200D03*
D25*
X49980800Y-19788700D03*
%TD*%
D11*
%TO.C,RCC3*%
X17890000Y-82900000D03*
X18910000Y-82900000D03*
%TD*%
D13*
%TO.C,C25*%
X59920000Y-28156900D03*
X60880000Y-28156900D03*
%TD*%
D10*
%TO.C,R2*%
X70375000Y-52900000D03*
X72025000Y-52900000D03*
%TD*%
D13*
%TO.C,C_IOVDD5*%
X58268500Y-93901500D03*
X59228500Y-93901500D03*
%TD*%
D11*
%TO.C,R19*%
X59982200Y-34919200D03*
X61002200Y-34919200D03*
%TD*%
D10*
%TO.C,R58*%
X11275000Y-36900000D03*
X12925000Y-36900000D03*
%TD*%
D11*
%TO.C,R18*%
X96790000Y-41500000D03*
X97810000Y-41500000D03*
%TD*%
D12*
%TO.C,C52*%
X87369800Y-30116600D03*
X88919800Y-30116600D03*
%TD*%
D13*
%TO.C,C26*%
X57520000Y-28800000D03*
X58480000Y-28800000D03*
%TD*%
D74*
%TO.C,FB3*%
X36580300Y-93111300D03*
X38705300Y-93111300D03*
%TD*%
D11*
%TO.C,R9*%
X49399100Y-81140500D03*
X50419100Y-81140500D03*
%TD*%
D12*
%TO.C,C73*%
X60225000Y-12800000D03*
X61775000Y-12800000D03*
%TD*%
D37*
%TO.C,CIN2*%
X60276000Y-58723000D03*
X63226000Y-58723000D03*
%TD*%
D10*
%TO.C,R38*%
X100675000Y-34600000D03*
X102325000Y-34600000D03*
%TD*%
%TO.C,RPG1*%
X65875000Y-55600000D03*
X67525000Y-55600000D03*
%TD*%
D13*
%TO.C,C39*%
X55070800Y-18087200D03*
X56030800Y-18087200D03*
%TD*%
D11*
%TO.C,R7*%
X48290000Y-86000000D03*
X49310000Y-86000000D03*
%TD*%
D12*
%TO.C,C108*%
X29480000Y-46654800D03*
X31030000Y-46654800D03*
%TD*%
D50*
%TO.C,C95*%
X67980000Y-22700000D03*
X67020000Y-22700000D03*
%TD*%
D23*
%TO.C,U25*%
X48862500Y-54050000D03*
X48862500Y-55000000D03*
X48862500Y-55950000D03*
X51137500Y-55950000D03*
X51137500Y-55000000D03*
X51137500Y-54050000D03*
%TD*%
D13*
%TO.C,C_QSPI1*%
X67833800Y-90800000D03*
X68793800Y-90800000D03*
%TD*%
%TO.C,C19*%
X25432800Y-15550800D03*
X26392800Y-15550800D03*
%TD*%
D12*
%TO.C,C132*%
X42314500Y-50452700D03*
X43864500Y-50452700D03*
%TD*%
D51*
%TO.C,C30*%
X49600000Y-17280000D03*
X49600000Y-16320000D03*
%TD*%
D11*
%TO.C,RCC4*%
X17890000Y-84700000D03*
X18910000Y-84700000D03*
%TD*%
D12*
%TO.C,C111*%
X43441900Y-65944300D03*
X44991900Y-65944300D03*
%TD*%
M02*
