%TF.GenerationSoftware,KiCad,Pcbnew,9.0.7*%
%TF.CreationDate,2026-08-24T00:05:37+05:30*%
%TF.ProjectId,dev-real-production,6465762d-7265-4616-9c2d-70726f647563,rev?*%
%TF.SameCoordinates,Original*%
%TF.FileFunction,Soldermask,Bot*%
%TF.FilePolarity,Negative*%
%FSLAX46Y46*%
G04 Gerber Fmt 4.6, Leading zero omitted, Abs format (unit mm)*
G04 Created by KiCad (PCBNEW 9.0.7) date 2026-08-24 00:05:37*
%MOMM*%
%LPD*%
G01*
G04 APERTURE LIST*
G04 APERTURE END LIST*
G36*
X25871342Y-99953060D02*
G01*
X25984381Y-100018323D01*
X26076677Y-100110619D01*
X26141940Y-100223658D01*
X26175722Y-100349737D01*
X26180000Y-100415000D01*
X26180000Y-101215000D01*
X26175722Y-101280263D01*
X26141940Y-101406342D01*
X26076677Y-101519381D01*
X25984381Y-101611677D01*
X25871342Y-101676940D01*
X25745263Y-101710722D01*
X25614737Y-101710722D01*
X25488658Y-101676940D01*
X25375619Y-101611677D01*
X25283323Y-101519381D01*
X25218060Y-101406342D01*
X25184278Y-101280263D01*
X25180000Y-101215000D01*
X25180000Y-100415000D01*
X25184278Y-100349737D01*
X25218060Y-100223658D01*
X25283323Y-100110619D01*
X25375619Y-100018323D01*
X25488658Y-99953060D01*
X25614737Y-99919278D01*
X25745263Y-99919278D01*
X25871342Y-99953060D01*
G37*
G36*
X34511342Y-99953060D02*
G01*
X34624381Y-100018323D01*
X34716677Y-100110619D01*
X34781940Y-100223658D01*
X34815722Y-100349737D01*
X34820000Y-100415000D01*
X34820000Y-101215000D01*
X34815722Y-101280263D01*
X34781940Y-101406342D01*
X34716677Y-101519381D01*
X34624381Y-101611677D01*
X34511342Y-101676940D01*
X34385263Y-101710722D01*
X34254737Y-101710722D01*
X34128658Y-101676940D01*
X34015619Y-101611677D01*
X33923323Y-101519381D01*
X33858060Y-101406342D01*
X33824278Y-101280263D01*
X33820000Y-101215000D01*
X33820000Y-100415000D01*
X33824278Y-100349737D01*
X33858060Y-100223658D01*
X33923323Y-100110619D01*
X34015619Y-100018323D01*
X34128658Y-99953060D01*
X34254737Y-99919278D01*
X34385263Y-99919278D01*
X34511342Y-99953060D01*
G37*
G36*
X41871342Y-99953060D02*
G01*
X41984381Y-100018323D01*
X42076677Y-100110619D01*
X42141940Y-100223658D01*
X42175722Y-100349737D01*
X42180000Y-100415000D01*
X42180000Y-101215000D01*
X42175722Y-101280263D01*
X42141940Y-101406342D01*
X42076677Y-101519381D01*
X41984381Y-101611677D01*
X41871342Y-101676940D01*
X41745263Y-101710722D01*
X41614737Y-101710722D01*
X41488658Y-101676940D01*
X41375619Y-101611677D01*
X41283323Y-101519381D01*
X41218060Y-101406342D01*
X41184278Y-101280263D01*
X41180000Y-101215000D01*
X41180000Y-100415000D01*
X41184278Y-100349737D01*
X41218060Y-100223658D01*
X41283323Y-100110619D01*
X41375619Y-100018323D01*
X41488658Y-99953060D01*
X41614737Y-99919278D01*
X41745263Y-99919278D01*
X41871342Y-99953060D01*
G37*
G36*
X50511342Y-99953060D02*
G01*
X50624381Y-100018323D01*
X50716677Y-100110619D01*
X50781940Y-100223658D01*
X50815722Y-100349737D01*
X50820000Y-100415000D01*
X50820000Y-101215000D01*
X50815722Y-101280263D01*
X50781940Y-101406342D01*
X50716677Y-101519381D01*
X50624381Y-101611677D01*
X50511342Y-101676940D01*
X50385263Y-101710722D01*
X50254737Y-101710722D01*
X50128658Y-101676940D01*
X50015619Y-101611677D01*
X49923323Y-101519381D01*
X49858060Y-101406342D01*
X49824278Y-101280263D01*
X49820000Y-101215000D01*
X49820000Y-100415000D01*
X49824278Y-100349737D01*
X49858060Y-100223658D01*
X49923323Y-100110619D01*
X50015619Y-100018323D01*
X50128658Y-99953060D01*
X50254737Y-99919278D01*
X50385263Y-99919278D01*
X50511342Y-99953060D01*
G37*
G36*
X57871342Y-99953060D02*
G01*
X57984381Y-100018323D01*
X58076677Y-100110619D01*
X58141940Y-100223658D01*
X58175722Y-100349737D01*
X58180000Y-100415000D01*
X58180000Y-101215000D01*
X58175722Y-101280263D01*
X58141940Y-101406342D01*
X58076677Y-101519381D01*
X57984381Y-101611677D01*
X57871342Y-101676940D01*
X57745263Y-101710722D01*
X57614737Y-101710722D01*
X57488658Y-101676940D01*
X57375619Y-101611677D01*
X57283323Y-101519381D01*
X57218060Y-101406342D01*
X57184278Y-101280263D01*
X57180000Y-101215000D01*
X57180000Y-100415000D01*
X57184278Y-100349737D01*
X57218060Y-100223658D01*
X57283323Y-100110619D01*
X57375619Y-100018323D01*
X57488658Y-99953060D01*
X57614737Y-99919278D01*
X57745263Y-99919278D01*
X57871342Y-99953060D01*
G37*
G36*
X66511342Y-99953060D02*
G01*
X66624381Y-100018323D01*
X66716677Y-100110619D01*
X66781940Y-100223658D01*
X66815722Y-100349737D01*
X66820000Y-100415000D01*
X66820000Y-101215000D01*
X66815722Y-101280263D01*
X66781940Y-101406342D01*
X66716677Y-101519381D01*
X66624381Y-101611677D01*
X66511342Y-101676940D01*
X66385263Y-101710722D01*
X66254737Y-101710722D01*
X66128658Y-101676940D01*
X66015619Y-101611677D01*
X65923323Y-101519381D01*
X65858060Y-101406342D01*
X65824278Y-101280263D01*
X65820000Y-101215000D01*
X65820000Y-100415000D01*
X65824278Y-100349737D01*
X65858060Y-100223658D01*
X65923323Y-100110619D01*
X66015619Y-100018323D01*
X66128658Y-99953060D01*
X66254737Y-99919278D01*
X66385263Y-99919278D01*
X66511342Y-99953060D01*
G37*
G36*
X73871342Y-99953060D02*
G01*
X73984381Y-100018323D01*
X74076677Y-100110619D01*
X74141940Y-100223658D01*
X74175722Y-100349737D01*
X74180000Y-100415000D01*
X74180000Y-101215000D01*
X74175722Y-101280263D01*
X74141940Y-101406342D01*
X74076677Y-101519381D01*
X73984381Y-101611677D01*
X73871342Y-101676940D01*
X73745263Y-101710722D01*
X73614737Y-101710722D01*
X73488658Y-101676940D01*
X73375619Y-101611677D01*
X73283323Y-101519381D01*
X73218060Y-101406342D01*
X73184278Y-101280263D01*
X73180000Y-101215000D01*
X73180000Y-100415000D01*
X73184278Y-100349737D01*
X73218060Y-100223658D01*
X73283323Y-100110619D01*
X73375619Y-100018323D01*
X73488658Y-99953060D01*
X73614737Y-99919278D01*
X73745263Y-99919278D01*
X73871342Y-99953060D01*
G37*
G36*
X82511342Y-99953060D02*
G01*
X82624381Y-100018323D01*
X82716677Y-100110619D01*
X82781940Y-100223658D01*
X82815722Y-100349737D01*
X82820000Y-100415000D01*
X82820000Y-101215000D01*
X82815722Y-101280263D01*
X82781940Y-101406342D01*
X82716677Y-101519381D01*
X82624381Y-101611677D01*
X82511342Y-101676940D01*
X82385263Y-101710722D01*
X82254737Y-101710722D01*
X82128658Y-101676940D01*
X82015619Y-101611677D01*
X81923323Y-101519381D01*
X81858060Y-101406342D01*
X81824278Y-101280263D01*
X81820000Y-101215000D01*
X81820000Y-100415000D01*
X81824278Y-100349737D01*
X81858060Y-100223658D01*
X81923323Y-100110619D01*
X82015619Y-100018323D01*
X82128658Y-99953060D01*
X82254737Y-99919278D01*
X82385263Y-99919278D01*
X82511342Y-99953060D01*
G37*
G36*
X18191342Y-100618060D02*
G01*
X18304381Y-100683323D01*
X18396677Y-100775619D01*
X18461940Y-100888658D01*
X18495722Y-101014737D01*
X18495722Y-101145263D01*
X18461940Y-101271342D01*
X18396677Y-101384381D01*
X18304381Y-101476677D01*
X18191342Y-101541940D01*
X18065263Y-101575722D01*
X17934737Y-101575722D01*
X17808658Y-101541940D01*
X17695619Y-101476677D01*
X17603323Y-101384381D01*
X17538060Y-101271342D01*
X17504278Y-101145263D01*
X17504278Y-101014737D01*
X17538060Y-100888658D01*
X17603323Y-100775619D01*
X17695619Y-100683323D01*
X17808658Y-100618060D01*
X17934737Y-100584278D01*
X18065263Y-100584278D01*
X18191342Y-100618060D01*
G37*
G36*
X19461342Y-100618060D02*
G01*
X19574381Y-100683323D01*
X19666677Y-100775619D01*
X19731940Y-100888658D01*
X19765722Y-101014737D01*
X19765722Y-101145263D01*
X19731940Y-101271342D01*
X19666677Y-101384381D01*
X19574381Y-101476677D01*
X19461342Y-101541940D01*
X19335263Y-101575722D01*
X19204737Y-101575722D01*
X19078658Y-101541940D01*
X18965619Y-101476677D01*
X18873323Y-101384381D01*
X18808060Y-101271342D01*
X18774278Y-101145263D01*
X18774278Y-101014737D01*
X18808060Y-100888658D01*
X18873323Y-100775619D01*
X18965619Y-100683323D01*
X19078658Y-100618060D01*
X19204737Y-100584278D01*
X19335263Y-100584278D01*
X19461342Y-100618060D01*
G37*
G36*
X18191342Y-99348060D02*
G01*
X18304381Y-99413323D01*
X18396677Y-99505619D01*
X18461940Y-99618658D01*
X18495722Y-99744737D01*
X18495722Y-99875263D01*
X18461940Y-100001342D01*
X18396677Y-100114381D01*
X18304381Y-100206677D01*
X18191342Y-100271940D01*
X18065263Y-100305722D01*
X17934737Y-100305722D01*
X17808658Y-100271940D01*
X17695619Y-100206677D01*
X17603323Y-100114381D01*
X17538060Y-100001342D01*
X17504278Y-99875263D01*
X17504278Y-99744737D01*
X17538060Y-99618658D01*
X17603323Y-99505619D01*
X17695619Y-99413323D01*
X17808658Y-99348060D01*
X17934737Y-99314278D01*
X18065263Y-99314278D01*
X18191342Y-99348060D01*
G37*
G36*
X19461342Y-99348060D02*
G01*
X19574381Y-99413323D01*
X19666677Y-99505619D01*
X19731940Y-99618658D01*
X19765722Y-99744737D01*
X19765722Y-99875263D01*
X19731940Y-100001342D01*
X19666677Y-100114381D01*
X19574381Y-100206677D01*
X19461342Y-100271940D01*
X19335263Y-100305722D01*
X19204737Y-100305722D01*
X19078658Y-100271940D01*
X18965619Y-100206677D01*
X18873323Y-100114381D01*
X18808060Y-100001342D01*
X18774278Y-99875263D01*
X18774278Y-99744737D01*
X18808060Y-99618658D01*
X18873323Y-99505619D01*
X18965619Y-99413323D01*
X19078658Y-99348060D01*
X19204737Y-99314278D01*
X19335263Y-99314278D01*
X19461342Y-99348060D01*
G37*
G36*
X18191342Y-98078060D02*
G01*
X18304381Y-98143323D01*
X18396677Y-98235619D01*
X18461940Y-98348658D01*
X18495722Y-98474737D01*
X18495722Y-98605263D01*
X18461940Y-98731342D01*
X18396677Y-98844381D01*
X18304381Y-98936677D01*
X18191342Y-99001940D01*
X18065263Y-99035722D01*
X17934737Y-99035722D01*
X17808658Y-99001940D01*
X17695619Y-98936677D01*
X17603323Y-98844381D01*
X17538060Y-98731342D01*
X17504278Y-98605263D01*
X17504278Y-98474737D01*
X17538060Y-98348658D01*
X17603323Y-98235619D01*
X17695619Y-98143323D01*
X17808658Y-98078060D01*
X17934737Y-98044278D01*
X18065263Y-98044278D01*
X18191342Y-98078060D01*
G37*
G36*
X19461342Y-98078060D02*
G01*
X19574381Y-98143323D01*
X19666677Y-98235619D01*
X19731940Y-98348658D01*
X19765722Y-98474737D01*
X19765722Y-98605263D01*
X19731940Y-98731342D01*
X19666677Y-98844381D01*
X19574381Y-98936677D01*
X19461342Y-99001940D01*
X19335263Y-99035722D01*
X19204737Y-99035722D01*
X19078658Y-99001940D01*
X18965619Y-98936677D01*
X18873323Y-98844381D01*
X18808060Y-98731342D01*
X18774278Y-98605263D01*
X18774278Y-98474737D01*
X18808060Y-98348658D01*
X18873323Y-98235619D01*
X18965619Y-98143323D01*
X19078658Y-98078060D01*
X19204737Y-98044278D01*
X19335263Y-98044278D01*
X19461342Y-98078060D01*
G37*
G36*
X18191342Y-96808060D02*
G01*
X18304381Y-96873323D01*
X18396677Y-96965619D01*
X18461940Y-97078658D01*
X18495722Y-97204737D01*
X18495722Y-97335263D01*
X18461940Y-97461342D01*
X18396677Y-97574381D01*
X18304381Y-97666677D01*
X18191342Y-97731940D01*
X18065263Y-97765722D01*
X17934737Y-97765722D01*
X17808658Y-97731940D01*
X17695619Y-97666677D01*
X17603323Y-97574381D01*
X17538060Y-97461342D01*
X17504278Y-97335263D01*
X17504278Y-97204737D01*
X17538060Y-97078658D01*
X17603323Y-96965619D01*
X17695619Y-96873323D01*
X17808658Y-96808060D01*
X17934737Y-96774278D01*
X18065263Y-96774278D01*
X18191342Y-96808060D01*
G37*
G36*
X19461342Y-96808060D02*
G01*
X19574381Y-96873323D01*
X19666677Y-96965619D01*
X19731940Y-97078658D01*
X19765722Y-97204737D01*
X19765722Y-97335263D01*
X19731940Y-97461342D01*
X19666677Y-97574381D01*
X19574381Y-97666677D01*
X19461342Y-97731940D01*
X19335263Y-97765722D01*
X19204737Y-97765722D01*
X19078658Y-97731940D01*
X18965619Y-97666677D01*
X18873323Y-97574381D01*
X18808060Y-97461342D01*
X18774278Y-97335263D01*
X18774278Y-97204737D01*
X18808060Y-97078658D01*
X18873323Y-96965619D01*
X18965619Y-96873323D01*
X19078658Y-96808060D01*
X19204737Y-96774278D01*
X19335263Y-96774278D01*
X19461342Y-96808060D01*
G37*
G36*
X25871342Y-95623060D02*
G01*
X25984381Y-95688323D01*
X26076677Y-95780619D01*
X26141940Y-95893658D01*
X26175722Y-96019737D01*
X26180000Y-96085000D01*
X26180000Y-97185000D01*
X26175722Y-97250263D01*
X26141940Y-97376342D01*
X26076677Y-97489381D01*
X25984381Y-97581677D01*
X25871342Y-97646940D01*
X25745263Y-97680722D01*
X25614737Y-97680722D01*
X25488658Y-97646940D01*
X25375619Y-97581677D01*
X25283323Y-97489381D01*
X25218060Y-97376342D01*
X25184278Y-97250263D01*
X25180000Y-97185000D01*
X25180000Y-96085000D01*
X25184278Y-96019737D01*
X25218060Y-95893658D01*
X25283323Y-95780619D01*
X25375619Y-95688323D01*
X25488658Y-95623060D01*
X25614737Y-95589278D01*
X25745263Y-95589278D01*
X25871342Y-95623060D01*
G37*
G36*
X34511342Y-95623060D02*
G01*
X34624381Y-95688323D01*
X34716677Y-95780619D01*
X34781940Y-95893658D01*
X34815722Y-96019737D01*
X34820000Y-96085000D01*
X34820000Y-97185000D01*
X34815722Y-97250263D01*
X34781940Y-97376342D01*
X34716677Y-97489381D01*
X34624381Y-97581677D01*
X34511342Y-97646940D01*
X34385263Y-97680722D01*
X34254737Y-97680722D01*
X34128658Y-97646940D01*
X34015619Y-97581677D01*
X33923323Y-97489381D01*
X33858060Y-97376342D01*
X33824278Y-97250263D01*
X33820000Y-97185000D01*
X33820000Y-96085000D01*
X33824278Y-96019737D01*
X33858060Y-95893658D01*
X33923323Y-95780619D01*
X34015619Y-95688323D01*
X34128658Y-95623060D01*
X34254737Y-95589278D01*
X34385263Y-95589278D01*
X34511342Y-95623060D01*
G37*
G36*
X41871342Y-95623060D02*
G01*
X41984381Y-95688323D01*
X42076677Y-95780619D01*
X42141940Y-95893658D01*
X42175722Y-96019737D01*
X42180000Y-96085000D01*
X42180000Y-97185000D01*
X42175722Y-97250263D01*
X42141940Y-97376342D01*
X42076677Y-97489381D01*
X41984381Y-97581677D01*
X41871342Y-97646940D01*
X41745263Y-97680722D01*
X41614737Y-97680722D01*
X41488658Y-97646940D01*
X41375619Y-97581677D01*
X41283323Y-97489381D01*
X41218060Y-97376342D01*
X41184278Y-97250263D01*
X41180000Y-97185000D01*
X41180000Y-96085000D01*
X41184278Y-96019737D01*
X41218060Y-95893658D01*
X41283323Y-95780619D01*
X41375619Y-95688323D01*
X41488658Y-95623060D01*
X41614737Y-95589278D01*
X41745263Y-95589278D01*
X41871342Y-95623060D01*
G37*
G36*
X50511342Y-95623060D02*
G01*
X50624381Y-95688323D01*
X50716677Y-95780619D01*
X50781940Y-95893658D01*
X50815722Y-96019737D01*
X50820000Y-96085000D01*
X50820000Y-97185000D01*
X50815722Y-97250263D01*
X50781940Y-97376342D01*
X50716677Y-97489381D01*
X50624381Y-97581677D01*
X50511342Y-97646940D01*
X50385263Y-97680722D01*
X50254737Y-97680722D01*
X50128658Y-97646940D01*
X50015619Y-97581677D01*
X49923323Y-97489381D01*
X49858060Y-97376342D01*
X49824278Y-97250263D01*
X49820000Y-97185000D01*
X49820000Y-96085000D01*
X49824278Y-96019737D01*
X49858060Y-95893658D01*
X49923323Y-95780619D01*
X50015619Y-95688323D01*
X50128658Y-95623060D01*
X50254737Y-95589278D01*
X50385263Y-95589278D01*
X50511342Y-95623060D01*
G37*
G36*
X57871342Y-95623060D02*
G01*
X57984381Y-95688323D01*
X58076677Y-95780619D01*
X58141940Y-95893658D01*
X58175722Y-96019737D01*
X58180000Y-96085000D01*
X58180000Y-97185000D01*
X58175722Y-97250263D01*
X58141940Y-97376342D01*
X58076677Y-97489381D01*
X57984381Y-97581677D01*
X57871342Y-97646940D01*
X57745263Y-97680722D01*
X57614737Y-97680722D01*
X57488658Y-97646940D01*
X57375619Y-97581677D01*
X57283323Y-97489381D01*
X57218060Y-97376342D01*
X57184278Y-97250263D01*
X57180000Y-97185000D01*
X57180000Y-96085000D01*
X57184278Y-96019737D01*
X57218060Y-95893658D01*
X57283323Y-95780619D01*
X57375619Y-95688323D01*
X57488658Y-95623060D01*
X57614737Y-95589278D01*
X57745263Y-95589278D01*
X57871342Y-95623060D01*
G37*
G36*
X66511342Y-95623060D02*
G01*
X66624381Y-95688323D01*
X66716677Y-95780619D01*
X66781940Y-95893658D01*
X66815722Y-96019737D01*
X66820000Y-96085000D01*
X66820000Y-97185000D01*
X66815722Y-97250263D01*
X66781940Y-97376342D01*
X66716677Y-97489381D01*
X66624381Y-97581677D01*
X66511342Y-97646940D01*
X66385263Y-97680722D01*
X66254737Y-97680722D01*
X66128658Y-97646940D01*
X66015619Y-97581677D01*
X65923323Y-97489381D01*
X65858060Y-97376342D01*
X65824278Y-97250263D01*
X65820000Y-97185000D01*
X65820000Y-96085000D01*
X65824278Y-96019737D01*
X65858060Y-95893658D01*
X65923323Y-95780619D01*
X66015619Y-95688323D01*
X66128658Y-95623060D01*
X66254737Y-95589278D01*
X66385263Y-95589278D01*
X66511342Y-95623060D01*
G37*
G36*
X73871342Y-95623060D02*
G01*
X73984381Y-95688323D01*
X74076677Y-95780619D01*
X74141940Y-95893658D01*
X74175722Y-96019737D01*
X74180000Y-96085000D01*
X74180000Y-97185000D01*
X74175722Y-97250263D01*
X74141940Y-97376342D01*
X74076677Y-97489381D01*
X73984381Y-97581677D01*
X73871342Y-97646940D01*
X73745263Y-97680722D01*
X73614737Y-97680722D01*
X73488658Y-97646940D01*
X73375619Y-97581677D01*
X73283323Y-97489381D01*
X73218060Y-97376342D01*
X73184278Y-97250263D01*
X73180000Y-97185000D01*
X73180000Y-96085000D01*
X73184278Y-96019737D01*
X73218060Y-95893658D01*
X73283323Y-95780619D01*
X73375619Y-95688323D01*
X73488658Y-95623060D01*
X73614737Y-95589278D01*
X73745263Y-95589278D01*
X73871342Y-95623060D01*
G37*
G36*
X82511342Y-95623060D02*
G01*
X82624381Y-95688323D01*
X82716677Y-95780619D01*
X82781940Y-95893658D01*
X82815722Y-96019737D01*
X82820000Y-96085000D01*
X82820000Y-97185000D01*
X82815722Y-97250263D01*
X82781940Y-97376342D01*
X82716677Y-97489381D01*
X82624381Y-97581677D01*
X82511342Y-97646940D01*
X82385263Y-97680722D01*
X82254737Y-97680722D01*
X82128658Y-97646940D01*
X82015619Y-97581677D01*
X81923323Y-97489381D01*
X81858060Y-97376342D01*
X81824278Y-97250263D01*
X81820000Y-97185000D01*
X81820000Y-96085000D01*
X81824278Y-96019737D01*
X81858060Y-95893658D01*
X81923323Y-95780619D01*
X82015619Y-95688323D01*
X82128658Y-95623060D01*
X82254737Y-95589278D01*
X82385263Y-95589278D01*
X82511342Y-95623060D01*
G37*
G36*
X27234372Y-96834739D02*
G01*
X27307847Y-96877160D01*
X27367840Y-96937153D01*
X27410261Y-97010628D01*
X27432220Y-97092579D01*
X27432220Y-97177421D01*
X27410261Y-97259372D01*
X27367840Y-97332847D01*
X27307847Y-97392840D01*
X27234372Y-97435261D01*
X27152421Y-97457220D01*
X27067579Y-97457220D01*
X26985628Y-97435261D01*
X26912153Y-97392840D01*
X26852160Y-97332847D01*
X26809739Y-97259372D01*
X26787780Y-97177421D01*
X26787780Y-97092579D01*
X26809739Y-97010628D01*
X26852160Y-96937153D01*
X26912153Y-96877160D01*
X26985628Y-96834739D01*
X27067579Y-96812780D01*
X27152421Y-96812780D01*
X27234372Y-96834739D01*
G37*
G36*
X33014372Y-96834739D02*
G01*
X33087847Y-96877160D01*
X33147840Y-96937153D01*
X33190261Y-97010628D01*
X33212220Y-97092579D01*
X33212220Y-97177421D01*
X33190261Y-97259372D01*
X33147840Y-97332847D01*
X33087847Y-97392840D01*
X33014372Y-97435261D01*
X32932421Y-97457220D01*
X32847579Y-97457220D01*
X32765628Y-97435261D01*
X32692153Y-97392840D01*
X32632160Y-97332847D01*
X32589739Y-97259372D01*
X32567780Y-97177421D01*
X32567780Y-97092579D01*
X32589739Y-97010628D01*
X32632160Y-96937153D01*
X32692153Y-96877160D01*
X32765628Y-96834739D01*
X32847579Y-96812780D01*
X32932421Y-96812780D01*
X33014372Y-96834739D01*
G37*
G36*
X43234372Y-96834739D02*
G01*
X43307847Y-96877160D01*
X43367840Y-96937153D01*
X43410261Y-97010628D01*
X43432220Y-97092579D01*
X43432220Y-97177421D01*
X43410261Y-97259372D01*
X43367840Y-97332847D01*
X43307847Y-97392840D01*
X43234372Y-97435261D01*
X43152421Y-97457220D01*
X43067579Y-97457220D01*
X42985628Y-97435261D01*
X42912153Y-97392840D01*
X42852160Y-97332847D01*
X42809739Y-97259372D01*
X42787780Y-97177421D01*
X42787780Y-97092579D01*
X42809739Y-97010628D01*
X42852160Y-96937153D01*
X42912153Y-96877160D01*
X42985628Y-96834739D01*
X43067579Y-96812780D01*
X43152421Y-96812780D01*
X43234372Y-96834739D01*
G37*
G36*
X49014372Y-96834739D02*
G01*
X49087847Y-96877160D01*
X49147840Y-96937153D01*
X49190261Y-97010628D01*
X49212220Y-97092579D01*
X49212220Y-97177421D01*
X49190261Y-97259372D01*
X49147840Y-97332847D01*
X49087847Y-97392840D01*
X49014372Y-97435261D01*
X48932421Y-97457220D01*
X48847579Y-97457220D01*
X48765628Y-97435261D01*
X48692153Y-97392840D01*
X48632160Y-97332847D01*
X48589739Y-97259372D01*
X48567780Y-97177421D01*
X48567780Y-97092579D01*
X48589739Y-97010628D01*
X48632160Y-96937153D01*
X48692153Y-96877160D01*
X48765628Y-96834739D01*
X48847579Y-96812780D01*
X48932421Y-96812780D01*
X49014372Y-96834739D01*
G37*
G36*
X59234372Y-96834739D02*
G01*
X59307847Y-96877160D01*
X59367840Y-96937153D01*
X59410261Y-97010628D01*
X59432220Y-97092579D01*
X59432220Y-97177421D01*
X59410261Y-97259372D01*
X59367840Y-97332847D01*
X59307847Y-97392840D01*
X59234372Y-97435261D01*
X59152421Y-97457220D01*
X59067579Y-97457220D01*
X58985628Y-97435261D01*
X58912153Y-97392840D01*
X58852160Y-97332847D01*
X58809739Y-97259372D01*
X58787780Y-97177421D01*
X58787780Y-97092579D01*
X58809739Y-97010628D01*
X58852160Y-96937153D01*
X58912153Y-96877160D01*
X58985628Y-96834739D01*
X59067579Y-96812780D01*
X59152421Y-96812780D01*
X59234372Y-96834739D01*
G37*
G36*
X65014372Y-96834739D02*
G01*
X65087847Y-96877160D01*
X65147840Y-96937153D01*
X65190261Y-97010628D01*
X65212220Y-97092579D01*
X65212220Y-97177421D01*
X65190261Y-97259372D01*
X65147840Y-97332847D01*
X65087847Y-97392840D01*
X65014372Y-97435261D01*
X64932421Y-97457220D01*
X64847579Y-97457220D01*
X64765628Y-97435261D01*
X64692153Y-97392840D01*
X64632160Y-97332847D01*
X64589739Y-97259372D01*
X64567780Y-97177421D01*
X64567780Y-97092579D01*
X64589739Y-97010628D01*
X64632160Y-96937153D01*
X64692153Y-96877160D01*
X64765628Y-96834739D01*
X64847579Y-96812780D01*
X64932421Y-96812780D01*
X65014372Y-96834739D01*
G37*
G36*
X75234372Y-96834739D02*
G01*
X75307847Y-96877160D01*
X75367840Y-96937153D01*
X75410261Y-97010628D01*
X75432220Y-97092579D01*
X75432220Y-97177421D01*
X75410261Y-97259372D01*
X75367840Y-97332847D01*
X75307847Y-97392840D01*
X75234372Y-97435261D01*
X75152421Y-97457220D01*
X75067579Y-97457220D01*
X74985628Y-97435261D01*
X74912153Y-97392840D01*
X74852160Y-97332847D01*
X74809739Y-97259372D01*
X74787780Y-97177421D01*
X74787780Y-97092579D01*
X74809739Y-97010628D01*
X74852160Y-96937153D01*
X74912153Y-96877160D01*
X74985628Y-96834739D01*
X75067579Y-96812780D01*
X75152421Y-96812780D01*
X75234372Y-96834739D01*
G37*
G36*
X81014372Y-96834739D02*
G01*
X81087847Y-96877160D01*
X81147840Y-96937153D01*
X81190261Y-97010628D01*
X81212220Y-97092579D01*
X81212220Y-97177421D01*
X81190261Y-97259372D01*
X81147840Y-97332847D01*
X81087847Y-97392840D01*
X81014372Y-97435261D01*
X80932421Y-97457220D01*
X80847579Y-97457220D01*
X80765628Y-97435261D01*
X80692153Y-97392840D01*
X80632160Y-97332847D01*
X80589739Y-97259372D01*
X80567780Y-97177421D01*
X80567780Y-97092579D01*
X80589739Y-97010628D01*
X80632160Y-96937153D01*
X80692153Y-96877160D01*
X80765628Y-96834739D01*
X80847579Y-96812780D01*
X80932421Y-96812780D01*
X81014372Y-96834739D01*
G37*
G36*
X87246742Y-95046601D02*
G01*
X87400687Y-95110367D01*
X87539234Y-95202941D01*
X87657059Y-95320766D01*
X87749633Y-95459313D01*
X87813399Y-95613258D01*
X87845907Y-95776685D01*
X87845907Y-95943315D01*
X87813399Y-96106742D01*
X87749633Y-96260687D01*
X87657059Y-96399234D01*
X87539234Y-96517059D01*
X87400687Y-96609633D01*
X87246742Y-96673399D01*
X87083315Y-96705907D01*
X86916685Y-96705907D01*
X86753258Y-96673399D01*
X86599313Y-96609633D01*
X86460766Y-96517059D01*
X86342941Y-96399234D01*
X86250367Y-96260687D01*
X86186601Y-96106742D01*
X86154093Y-95943315D01*
X86154093Y-95776685D01*
X86186601Y-95613258D01*
X86250367Y-95459313D01*
X86342941Y-95320766D01*
X86460766Y-95202941D01*
X86599313Y-95110367D01*
X86753258Y-95046601D01*
X86916685Y-95014093D01*
X87083315Y-95014093D01*
X87246742Y-95046601D01*
G37*
G36*
X89786742Y-95046601D02*
G01*
X89940687Y-95110367D01*
X90079234Y-95202941D01*
X90197059Y-95320766D01*
X90289633Y-95459313D01*
X90353399Y-95613258D01*
X90385907Y-95776685D01*
X90385907Y-95943315D01*
X90353399Y-96106742D01*
X90289633Y-96260687D01*
X90197059Y-96399234D01*
X90079234Y-96517059D01*
X89940687Y-96609633D01*
X89786742Y-96673399D01*
X89623315Y-96705907D01*
X89456685Y-96705907D01*
X89293258Y-96673399D01*
X89139313Y-96609633D01*
X89000766Y-96517059D01*
X88882941Y-96399234D01*
X88790367Y-96260687D01*
X88726601Y-96106742D01*
X88694093Y-95943315D01*
X88694093Y-95776685D01*
X88726601Y-95613258D01*
X88790367Y-95459313D01*
X88882941Y-95320766D01*
X89000766Y-95202941D01*
X89139313Y-95110367D01*
X89293258Y-95046601D01*
X89456685Y-95014093D01*
X89623315Y-95014093D01*
X89786742Y-95046601D01*
G37*
G36*
X18500000Y-96500000D02*
G01*
X17500000Y-96500000D01*
X17500000Y-95500000D01*
X18500000Y-95500000D01*
X18500000Y-96500000D01*
G37*
G36*
X19461342Y-95538060D02*
G01*
X19574381Y-95603323D01*
X19666677Y-95695619D01*
X19731940Y-95808658D01*
X19765722Y-95934737D01*
X19765722Y-96065263D01*
X19731940Y-96191342D01*
X19666677Y-96304381D01*
X19574381Y-96396677D01*
X19461342Y-96461940D01*
X19335263Y-96495722D01*
X19204737Y-96495722D01*
X19078658Y-96461940D01*
X18965619Y-96396677D01*
X18873323Y-96304381D01*
X18808060Y-96191342D01*
X18774278Y-96065263D01*
X18774278Y-95934737D01*
X18808060Y-95808658D01*
X18873323Y-95695619D01*
X18965619Y-95603323D01*
X19078658Y-95538060D01*
X19204737Y-95504278D01*
X19335263Y-95504278D01*
X19461342Y-95538060D01*
G37*
G36*
X100054047Y-92700805D02*
G01*
X100105408Y-92706764D01*
X100122954Y-92714511D01*
X100145671Y-92719030D01*
X100169991Y-92735280D01*
X100190793Y-92744465D01*
X100205000Y-92758672D01*
X100226777Y-92773223D01*
X100241327Y-92794999D01*
X100255534Y-92809206D01*
X100264718Y-92830006D01*
X100280970Y-92854329D01*
X100285489Y-92877048D01*
X100293235Y-92894591D01*
X100299192Y-92945940D01*
X100300000Y-92950000D01*
X100300000Y-95050000D01*
X100299192Y-95054059D01*
X100293235Y-95105408D01*
X100285489Y-95122950D01*
X100280970Y-95145671D01*
X100264716Y-95169995D01*
X100255534Y-95190793D01*
X100241329Y-95204997D01*
X100226777Y-95226777D01*
X100204997Y-95241329D01*
X100190793Y-95255534D01*
X100169995Y-95264716D01*
X100145671Y-95280970D01*
X100122950Y-95285489D01*
X100105408Y-95293235D01*
X100054061Y-95299192D01*
X100050000Y-95300000D01*
X97950000Y-95300000D01*
X97945941Y-95299192D01*
X97894591Y-95293235D01*
X97877048Y-95285489D01*
X97854329Y-95280970D01*
X97830006Y-95264718D01*
X97809206Y-95255534D01*
X97794999Y-95241327D01*
X97773223Y-95226777D01*
X97758672Y-95205000D01*
X97744465Y-95190793D01*
X97735280Y-95169991D01*
X97719030Y-95145671D01*
X97714511Y-95122954D01*
X97706764Y-95105408D01*
X97700805Y-95054049D01*
X97700000Y-95050000D01*
X97700000Y-92950000D01*
X97700804Y-92945953D01*
X97706764Y-92894591D01*
X97714511Y-92877043D01*
X97719030Y-92854329D01*
X97735278Y-92830010D01*
X97744465Y-92809206D01*
X97758674Y-92794996D01*
X97773223Y-92773223D01*
X97794996Y-92758674D01*
X97809206Y-92744465D01*
X97830010Y-92735278D01*
X97854329Y-92719030D01*
X97877043Y-92714511D01*
X97894591Y-92706764D01*
X97945952Y-92700805D01*
X97950000Y-92700000D01*
X100050000Y-92700000D01*
X100054047Y-92700805D01*
G37*
G36*
X87246742Y-92506601D02*
G01*
X87400687Y-92570367D01*
X87539234Y-92662941D01*
X87657059Y-92780766D01*
X87749633Y-92919313D01*
X87813399Y-93073258D01*
X87845907Y-93236685D01*
X87845907Y-93403315D01*
X87813399Y-93566742D01*
X87749633Y-93720687D01*
X87657059Y-93859234D01*
X87539234Y-93977059D01*
X87400687Y-94069633D01*
X87246742Y-94133399D01*
X87083315Y-94165907D01*
X86916685Y-94165907D01*
X86753258Y-94133399D01*
X86599313Y-94069633D01*
X86460766Y-93977059D01*
X86342941Y-93859234D01*
X86250367Y-93720687D01*
X86186601Y-93566742D01*
X86154093Y-93403315D01*
X86154093Y-93236685D01*
X86186601Y-93073258D01*
X86250367Y-92919313D01*
X86342941Y-92780766D01*
X86460766Y-92662941D01*
X86599313Y-92570367D01*
X86753258Y-92506601D01*
X86916685Y-92474093D01*
X87083315Y-92474093D01*
X87246742Y-92506601D01*
G37*
G36*
X89786742Y-92506601D02*
G01*
X89940687Y-92570367D01*
X90079234Y-92662941D01*
X90197059Y-92780766D01*
X90289633Y-92919313D01*
X90353399Y-93073258D01*
X90385907Y-93236685D01*
X90385907Y-93403315D01*
X90353399Y-93566742D01*
X90289633Y-93720687D01*
X90197059Y-93859234D01*
X90079234Y-93977059D01*
X89940687Y-94069633D01*
X89786742Y-94133399D01*
X89623315Y-94165907D01*
X89456685Y-94165907D01*
X89293258Y-94133399D01*
X89139313Y-94069633D01*
X89000766Y-93977059D01*
X88882941Y-93859234D01*
X88790367Y-93720687D01*
X88726601Y-93566742D01*
X88694093Y-93403315D01*
X88694093Y-93236685D01*
X88726601Y-93073258D01*
X88790367Y-92919313D01*
X88882941Y-92780766D01*
X89000766Y-92662941D01*
X89139313Y-92570367D01*
X89293258Y-92506601D01*
X89456685Y-92474093D01*
X89623315Y-92474093D01*
X89786742Y-92506601D01*
G37*
G36*
X87246742Y-89966601D02*
G01*
X87400687Y-90030367D01*
X87539234Y-90122941D01*
X87657059Y-90240766D01*
X87749633Y-90379313D01*
X87813399Y-90533258D01*
X87845907Y-90696685D01*
X87845907Y-90863315D01*
X87813399Y-91026742D01*
X87749633Y-91180687D01*
X87657059Y-91319234D01*
X87539234Y-91437059D01*
X87400687Y-91529633D01*
X87246742Y-91593399D01*
X87083315Y-91625907D01*
X86916685Y-91625907D01*
X86753258Y-91593399D01*
X86599313Y-91529633D01*
X86460766Y-91437059D01*
X86342941Y-91319234D01*
X86250367Y-91180687D01*
X86186601Y-91026742D01*
X86154093Y-90863315D01*
X86154093Y-90696685D01*
X86186601Y-90533258D01*
X86250367Y-90379313D01*
X86342941Y-90240766D01*
X86460766Y-90122941D01*
X86599313Y-90030367D01*
X86753258Y-89966601D01*
X86916685Y-89934093D01*
X87083315Y-89934093D01*
X87246742Y-89966601D01*
G37*
G36*
X89786742Y-89966601D02*
G01*
X89940687Y-90030367D01*
X90079234Y-90122941D01*
X90197059Y-90240766D01*
X90289633Y-90379313D01*
X90353399Y-90533258D01*
X90385907Y-90696685D01*
X90385907Y-90863315D01*
X90353399Y-91026742D01*
X90289633Y-91180687D01*
X90197059Y-91319234D01*
X90079234Y-91437059D01*
X89940687Y-91529633D01*
X89786742Y-91593399D01*
X89623315Y-91625907D01*
X89456685Y-91625907D01*
X89293258Y-91593399D01*
X89139313Y-91529633D01*
X89000766Y-91437059D01*
X88882941Y-91319234D01*
X88790367Y-91180687D01*
X88726601Y-91026742D01*
X88694093Y-90863315D01*
X88694093Y-90696685D01*
X88726601Y-90533258D01*
X88790367Y-90379313D01*
X88882941Y-90240766D01*
X89000766Y-90122941D01*
X89139313Y-90030367D01*
X89293258Y-89966601D01*
X89456685Y-89934093D01*
X89623315Y-89934093D01*
X89786742Y-89966601D01*
G37*
G36*
X99303479Y-87735919D02*
G01*
X99497488Y-87798957D01*
X99679248Y-87891568D01*
X99844282Y-88011472D01*
X99988528Y-88155718D01*
X100108432Y-88320752D01*
X100201043Y-88502512D01*
X100264081Y-88696521D01*
X100295993Y-88898003D01*
X100295993Y-89101997D01*
X100264081Y-89303479D01*
X100201043Y-89497488D01*
X100108432Y-89679248D01*
X99988528Y-89844282D01*
X99844282Y-89988528D01*
X99679248Y-90108432D01*
X99497488Y-90201043D01*
X99303479Y-90264081D01*
X99101997Y-90295993D01*
X98898003Y-90295993D01*
X98696521Y-90264081D01*
X98502512Y-90201043D01*
X98320752Y-90108432D01*
X98155718Y-89988528D01*
X98011472Y-89844282D01*
X97891568Y-89679248D01*
X97798957Y-89497488D01*
X97735919Y-89303479D01*
X97704007Y-89101997D01*
X97704007Y-88898003D01*
X97735919Y-88696521D01*
X97798957Y-88502512D01*
X97891568Y-88320752D01*
X98011472Y-88155718D01*
X98155718Y-88011472D01*
X98320752Y-87891568D01*
X98502512Y-87798957D01*
X98696521Y-87735919D01*
X98898003Y-87704007D01*
X99101997Y-87704007D01*
X99303479Y-87735919D01*
G37*
G36*
X87246742Y-87426601D02*
G01*
X87400687Y-87490367D01*
X87539234Y-87582941D01*
X87657059Y-87700766D01*
X87749633Y-87839313D01*
X87813399Y-87993258D01*
X87845907Y-88156685D01*
X87845907Y-88323315D01*
X87813399Y-88486742D01*
X87749633Y-88640687D01*
X87657059Y-88779234D01*
X87539234Y-88897059D01*
X87400687Y-88989633D01*
X87246742Y-89053399D01*
X87083315Y-89085907D01*
X86916685Y-89085907D01*
X86753258Y-89053399D01*
X86599313Y-88989633D01*
X86460766Y-88897059D01*
X86342941Y-88779234D01*
X86250367Y-88640687D01*
X86186601Y-88486742D01*
X86154093Y-88323315D01*
X86154093Y-88156685D01*
X86186601Y-87993258D01*
X86250367Y-87839313D01*
X86342941Y-87700766D01*
X86460766Y-87582941D01*
X86599313Y-87490367D01*
X86753258Y-87426601D01*
X86916685Y-87394093D01*
X87083315Y-87394093D01*
X87246742Y-87426601D01*
G37*
G36*
X89786742Y-87426601D02*
G01*
X89940687Y-87490367D01*
X90079234Y-87582941D01*
X90197059Y-87700766D01*
X90289633Y-87839313D01*
X90353399Y-87993258D01*
X90385907Y-88156685D01*
X90385907Y-88323315D01*
X90353399Y-88486742D01*
X90289633Y-88640687D01*
X90197059Y-88779234D01*
X90079234Y-88897059D01*
X89940687Y-88989633D01*
X89786742Y-89053399D01*
X89623315Y-89085907D01*
X89456685Y-89085907D01*
X89293258Y-89053399D01*
X89139313Y-88989633D01*
X89000766Y-88897059D01*
X88882941Y-88779234D01*
X88790367Y-88640687D01*
X88726601Y-88486742D01*
X88694093Y-88323315D01*
X88694093Y-88156685D01*
X88726601Y-87993258D01*
X88790367Y-87839313D01*
X88882941Y-87700766D01*
X89000766Y-87582941D01*
X89139313Y-87490367D01*
X89293258Y-87426601D01*
X89456685Y-87394093D01*
X89623315Y-87394093D01*
X89786742Y-87426601D01*
G37*
G36*
X87246742Y-84886601D02*
G01*
X87400687Y-84950367D01*
X87539234Y-85042941D01*
X87657059Y-85160766D01*
X87749633Y-85299313D01*
X87813399Y-85453258D01*
X87845907Y-85616685D01*
X87845907Y-85783315D01*
X87813399Y-85946742D01*
X87749633Y-86100687D01*
X87657059Y-86239234D01*
X87539234Y-86357059D01*
X87400687Y-86449633D01*
X87246742Y-86513399D01*
X87083315Y-86545907D01*
X86916685Y-86545907D01*
X86753258Y-86513399D01*
X86599313Y-86449633D01*
X86460766Y-86357059D01*
X86342941Y-86239234D01*
X86250367Y-86100687D01*
X86186601Y-85946742D01*
X86154093Y-85783315D01*
X86154093Y-85616685D01*
X86186601Y-85453258D01*
X86250367Y-85299313D01*
X86342941Y-85160766D01*
X86460766Y-85042941D01*
X86599313Y-84950367D01*
X86753258Y-84886601D01*
X86916685Y-84854093D01*
X87083315Y-84854093D01*
X87246742Y-84886601D01*
G37*
G36*
X89786742Y-84886601D02*
G01*
X89940687Y-84950367D01*
X90079234Y-85042941D01*
X90197059Y-85160766D01*
X90289633Y-85299313D01*
X90353399Y-85453258D01*
X90385907Y-85616685D01*
X90385907Y-85783315D01*
X90353399Y-85946742D01*
X90289633Y-86100687D01*
X90197059Y-86239234D01*
X90079234Y-86357059D01*
X89940687Y-86449633D01*
X89786742Y-86513399D01*
X89623315Y-86545907D01*
X89456685Y-86545907D01*
X89293258Y-86513399D01*
X89139313Y-86449633D01*
X89000766Y-86357059D01*
X88882941Y-86239234D01*
X88790367Y-86100687D01*
X88726601Y-85946742D01*
X88694093Y-85783315D01*
X88694093Y-85616685D01*
X88726601Y-85453258D01*
X88790367Y-85299313D01*
X88882941Y-85160766D01*
X89000766Y-85042941D01*
X89139313Y-84950367D01*
X89293258Y-84886601D01*
X89456685Y-84854093D01*
X89623315Y-84854093D01*
X89786742Y-84886601D01*
G37*
G36*
X87246742Y-82346601D02*
G01*
X87400687Y-82410367D01*
X87539234Y-82502941D01*
X87657059Y-82620766D01*
X87749633Y-82759313D01*
X87813399Y-82913258D01*
X87845907Y-83076685D01*
X87845907Y-83243315D01*
X87813399Y-83406742D01*
X87749633Y-83560687D01*
X87657059Y-83699234D01*
X87539234Y-83817059D01*
X87400687Y-83909633D01*
X87246742Y-83973399D01*
X87083315Y-84005907D01*
X86916685Y-84005907D01*
X86753258Y-83973399D01*
X86599313Y-83909633D01*
X86460766Y-83817059D01*
X86342941Y-83699234D01*
X86250367Y-83560687D01*
X86186601Y-83406742D01*
X86154093Y-83243315D01*
X86154093Y-83076685D01*
X86186601Y-82913258D01*
X86250367Y-82759313D01*
X86342941Y-82620766D01*
X86460766Y-82502941D01*
X86599313Y-82410367D01*
X86753258Y-82346601D01*
X86916685Y-82314093D01*
X87083315Y-82314093D01*
X87246742Y-82346601D01*
G37*
G36*
X89786742Y-82346601D02*
G01*
X89940687Y-82410367D01*
X90079234Y-82502941D01*
X90197059Y-82620766D01*
X90289633Y-82759313D01*
X90353399Y-82913258D01*
X90385907Y-83076685D01*
X90385907Y-83243315D01*
X90353399Y-83406742D01*
X90289633Y-83560687D01*
X90197059Y-83699234D01*
X90079234Y-83817059D01*
X89940687Y-83909633D01*
X89786742Y-83973399D01*
X89623315Y-84005907D01*
X89456685Y-84005907D01*
X89293258Y-83973399D01*
X89139313Y-83909633D01*
X89000766Y-83817059D01*
X88882941Y-83699234D01*
X88790367Y-83560687D01*
X88726601Y-83406742D01*
X88694093Y-83243315D01*
X88694093Y-83076685D01*
X88726601Y-82913258D01*
X88790367Y-82759313D01*
X88882941Y-82620766D01*
X89000766Y-82502941D01*
X89139313Y-82410367D01*
X89293258Y-82346601D01*
X89456685Y-82314093D01*
X89623315Y-82314093D01*
X89786742Y-82346601D01*
G37*
G36*
X100054047Y-80700805D02*
G01*
X100105408Y-80706764D01*
X100122954Y-80714511D01*
X100145671Y-80719030D01*
X100169991Y-80735280D01*
X100190793Y-80744465D01*
X100205000Y-80758672D01*
X100226777Y-80773223D01*
X100241327Y-80794999D01*
X100255534Y-80809206D01*
X100264718Y-80830006D01*
X100280970Y-80854329D01*
X100285489Y-80877048D01*
X100293235Y-80894591D01*
X100299192Y-80945940D01*
X100300000Y-80950000D01*
X100300000Y-83050000D01*
X100299192Y-83054059D01*
X100293235Y-83105408D01*
X100285489Y-83122950D01*
X100280970Y-83145671D01*
X100264716Y-83169995D01*
X100255534Y-83190793D01*
X100241329Y-83204997D01*
X100226777Y-83226777D01*
X100204997Y-83241329D01*
X100190793Y-83255534D01*
X100169995Y-83264716D01*
X100145671Y-83280970D01*
X100122950Y-83285489D01*
X100105408Y-83293235D01*
X100054061Y-83299192D01*
X100050000Y-83300000D01*
X97950000Y-83300000D01*
X97945941Y-83299192D01*
X97894591Y-83293235D01*
X97877048Y-83285489D01*
X97854329Y-83280970D01*
X97830006Y-83264718D01*
X97809206Y-83255534D01*
X97794999Y-83241327D01*
X97773223Y-83226777D01*
X97758672Y-83205000D01*
X97744465Y-83190793D01*
X97735280Y-83169991D01*
X97719030Y-83145671D01*
X97714511Y-83122954D01*
X97706764Y-83105408D01*
X97700805Y-83054049D01*
X97700000Y-83050000D01*
X97700000Y-80950000D01*
X97700804Y-80945953D01*
X97706764Y-80894591D01*
X97714511Y-80877043D01*
X97719030Y-80854329D01*
X97735278Y-80830010D01*
X97744465Y-80809206D01*
X97758674Y-80794996D01*
X97773223Y-80773223D01*
X97794996Y-80758674D01*
X97809206Y-80744465D01*
X97830010Y-80735278D01*
X97854329Y-80719030D01*
X97877043Y-80714511D01*
X97894591Y-80706764D01*
X97945952Y-80700805D01*
X97950000Y-80700000D01*
X100050000Y-80700000D01*
X100054047Y-80700805D01*
G37*
G36*
X87246742Y-79806601D02*
G01*
X87400687Y-79870367D01*
X87539234Y-79962941D01*
X87657059Y-80080766D01*
X87749633Y-80219313D01*
X87813399Y-80373258D01*
X87845907Y-80536685D01*
X87845907Y-80703315D01*
X87813399Y-80866742D01*
X87749633Y-81020687D01*
X87657059Y-81159234D01*
X87539234Y-81277059D01*
X87400687Y-81369633D01*
X87246742Y-81433399D01*
X87083315Y-81465907D01*
X86916685Y-81465907D01*
X86753258Y-81433399D01*
X86599313Y-81369633D01*
X86460766Y-81277059D01*
X86342941Y-81159234D01*
X86250367Y-81020687D01*
X86186601Y-80866742D01*
X86154093Y-80703315D01*
X86154093Y-80536685D01*
X86186601Y-80373258D01*
X86250367Y-80219313D01*
X86342941Y-80080766D01*
X86460766Y-79962941D01*
X86599313Y-79870367D01*
X86753258Y-79806601D01*
X86916685Y-79774093D01*
X87083315Y-79774093D01*
X87246742Y-79806601D01*
G37*
G36*
X89786742Y-79806601D02*
G01*
X89940687Y-79870367D01*
X90079234Y-79962941D01*
X90197059Y-80080766D01*
X90289633Y-80219313D01*
X90353399Y-80373258D01*
X90385907Y-80536685D01*
X90385907Y-80703315D01*
X90353399Y-80866742D01*
X90289633Y-81020687D01*
X90197059Y-81159234D01*
X90079234Y-81277059D01*
X89940687Y-81369633D01*
X89786742Y-81433399D01*
X89623315Y-81465907D01*
X89456685Y-81465907D01*
X89293258Y-81433399D01*
X89139313Y-81369633D01*
X89000766Y-81277059D01*
X88882941Y-81159234D01*
X88790367Y-81020687D01*
X88726601Y-80866742D01*
X88694093Y-80703315D01*
X88694093Y-80536685D01*
X88726601Y-80373258D01*
X88790367Y-80219313D01*
X88882941Y-80080766D01*
X89000766Y-79962941D01*
X89139313Y-79870367D01*
X89293258Y-79806601D01*
X89456685Y-79774093D01*
X89623315Y-79774093D01*
X89786742Y-79806601D01*
G37*
G36*
X3700909Y-80114963D02*
G01*
X3819600Y-80183489D01*
X3916511Y-80280400D01*
X3985037Y-80399091D01*
X4020509Y-80531474D01*
X4020509Y-80668526D01*
X3985037Y-80800909D01*
X3916511Y-80919600D01*
X3819600Y-81016511D01*
X3700909Y-81085037D01*
X3568526Y-81120509D01*
X3431474Y-81120509D01*
X3299091Y-81085037D01*
X3180400Y-81016511D01*
X3083489Y-80919600D01*
X3014963Y-80800909D01*
X2979491Y-80668526D01*
X2979491Y-80531474D01*
X3014963Y-80399091D01*
X3083489Y-80280400D01*
X3180400Y-80183489D01*
X3299091Y-80114963D01*
X3431474Y-80079491D01*
X3568526Y-80079491D01*
X3700909Y-80114963D01*
G37*
G36*
X5300909Y-80114963D02*
G01*
X5419600Y-80183489D01*
X5516511Y-80280400D01*
X5585037Y-80399091D01*
X5620509Y-80531474D01*
X5620509Y-80668526D01*
X5585037Y-80800909D01*
X5516511Y-80919600D01*
X5419600Y-81016511D01*
X5300909Y-81085037D01*
X5168526Y-81120509D01*
X5031474Y-81120509D01*
X4899091Y-81085037D01*
X4780400Y-81016511D01*
X4683489Y-80919600D01*
X4614963Y-80800909D01*
X4579491Y-80668526D01*
X4579491Y-80531474D01*
X4614963Y-80399091D01*
X4683489Y-80280400D01*
X4780400Y-80183489D01*
X4899091Y-80114963D01*
X5031474Y-80079491D01*
X5168526Y-80079491D01*
X5300909Y-80114963D01*
G37*
G36*
X12100909Y-80114963D02*
G01*
X12219600Y-80183489D01*
X12316511Y-80280400D01*
X12385037Y-80399091D01*
X12420509Y-80531474D01*
X12420509Y-80668526D01*
X12385037Y-80800909D01*
X12316511Y-80919600D01*
X12219600Y-81016511D01*
X12100909Y-81085037D01*
X11968526Y-81120509D01*
X11831474Y-81120509D01*
X11699091Y-81085037D01*
X11580400Y-81016511D01*
X11483489Y-80919600D01*
X11414963Y-80800909D01*
X11379491Y-80668526D01*
X11379491Y-80531474D01*
X11414963Y-80399091D01*
X11483489Y-80280400D01*
X11580400Y-80183489D01*
X11699091Y-80114963D01*
X11831474Y-80079491D01*
X11968526Y-80079491D01*
X12100909Y-80114963D01*
G37*
G36*
X13700909Y-80114963D02*
G01*
X13819600Y-80183489D01*
X13916511Y-80280400D01*
X13985037Y-80399091D01*
X14020509Y-80531474D01*
X14020509Y-80668526D01*
X13985037Y-80800909D01*
X13916511Y-80919600D01*
X13819600Y-81016511D01*
X13700909Y-81085037D01*
X13568526Y-81120509D01*
X13431474Y-81120509D01*
X13299091Y-81085037D01*
X13180400Y-81016511D01*
X13083489Y-80919600D01*
X13014963Y-80800909D01*
X12979491Y-80668526D01*
X12979491Y-80531474D01*
X13014963Y-80399091D01*
X13083489Y-80280400D01*
X13180400Y-80183489D01*
X13299091Y-80114963D01*
X13431474Y-80079491D01*
X13568526Y-80079491D01*
X13700909Y-80114963D01*
G37*
G36*
X87246742Y-77266601D02*
G01*
X87400687Y-77330367D01*
X87539234Y-77422941D01*
X87657059Y-77540766D01*
X87749633Y-77679313D01*
X87813399Y-77833258D01*
X87845907Y-77996685D01*
X87845907Y-78163315D01*
X87813399Y-78326742D01*
X87749633Y-78480687D01*
X87657059Y-78619234D01*
X87539234Y-78737059D01*
X87400687Y-78829633D01*
X87246742Y-78893399D01*
X87083315Y-78925907D01*
X86916685Y-78925907D01*
X86753258Y-78893399D01*
X86599313Y-78829633D01*
X86460766Y-78737059D01*
X86342941Y-78619234D01*
X86250367Y-78480687D01*
X86186601Y-78326742D01*
X86154093Y-78163315D01*
X86154093Y-77996685D01*
X86186601Y-77833258D01*
X86250367Y-77679313D01*
X86342941Y-77540766D01*
X86460766Y-77422941D01*
X86599313Y-77330367D01*
X86753258Y-77266601D01*
X86916685Y-77234093D01*
X87083315Y-77234093D01*
X87246742Y-77266601D01*
G37*
G36*
X89786742Y-77266601D02*
G01*
X89940687Y-77330367D01*
X90079234Y-77422941D01*
X90197059Y-77540766D01*
X90289633Y-77679313D01*
X90353399Y-77833258D01*
X90385907Y-77996685D01*
X90385907Y-78163315D01*
X90353399Y-78326742D01*
X90289633Y-78480687D01*
X90197059Y-78619234D01*
X90079234Y-78737059D01*
X89940687Y-78829633D01*
X89786742Y-78893399D01*
X89623315Y-78925907D01*
X89456685Y-78925907D01*
X89293258Y-78893399D01*
X89139313Y-78829633D01*
X89000766Y-78737059D01*
X88882941Y-78619234D01*
X88790367Y-78480687D01*
X88726601Y-78326742D01*
X88694093Y-78163315D01*
X88694093Y-77996685D01*
X88726601Y-77833258D01*
X88790367Y-77679313D01*
X88882941Y-77540766D01*
X89000766Y-77422941D01*
X89139313Y-77330367D01*
X89293258Y-77266601D01*
X89456685Y-77234093D01*
X89623315Y-77234093D01*
X89786742Y-77266601D01*
G37*
G36*
X99303479Y-75735919D02*
G01*
X99497488Y-75798957D01*
X99679248Y-75891568D01*
X99844282Y-76011472D01*
X99988528Y-76155718D01*
X100108432Y-76320752D01*
X100201043Y-76502512D01*
X100264081Y-76696521D01*
X100295993Y-76898003D01*
X100295993Y-77101997D01*
X100264081Y-77303479D01*
X100201043Y-77497488D01*
X100108432Y-77679248D01*
X99988528Y-77844282D01*
X99844282Y-77988528D01*
X99679248Y-78108432D01*
X99497488Y-78201043D01*
X99303479Y-78264081D01*
X99101997Y-78295993D01*
X98898003Y-78295993D01*
X98696521Y-78264081D01*
X98502512Y-78201043D01*
X98320752Y-78108432D01*
X98155718Y-77988528D01*
X98011472Y-77844282D01*
X97891568Y-77679248D01*
X97798957Y-77497488D01*
X97735919Y-77303479D01*
X97704007Y-77101997D01*
X97704007Y-76898003D01*
X97735919Y-76696521D01*
X97798957Y-76502512D01*
X97891568Y-76320752D01*
X98011472Y-76155718D01*
X98155718Y-76011472D01*
X98320752Y-75891568D01*
X98502512Y-75798957D01*
X98696521Y-75735919D01*
X98898003Y-75704007D01*
X99101997Y-75704007D01*
X99303479Y-75735919D01*
G37*
G36*
X53647835Y-76664515D02*
G01*
X53688388Y-76691612D01*
X53715485Y-76732165D01*
X53725000Y-76780000D01*
X53725000Y-77030000D01*
X53715485Y-77077835D01*
X53688388Y-77118388D01*
X53647835Y-77145485D01*
X53600000Y-77155000D01*
X53075000Y-77155000D01*
X53027165Y-77145485D01*
X52986612Y-77118388D01*
X52959515Y-77077835D01*
X52950000Y-77030000D01*
X52950000Y-76780000D01*
X52959515Y-76732165D01*
X52986612Y-76691612D01*
X53027165Y-76664515D01*
X53075000Y-76655000D01*
X53600000Y-76655000D01*
X53647835Y-76664515D01*
G37*
G36*
X58972835Y-76664515D02*
G01*
X59013388Y-76691612D01*
X59040485Y-76732165D01*
X59050000Y-76780000D01*
X59050000Y-77030000D01*
X59040485Y-77077835D01*
X59013388Y-77118388D01*
X58972835Y-77145485D01*
X58925000Y-77155000D01*
X58400000Y-77155000D01*
X58352165Y-77145485D01*
X58311612Y-77118388D01*
X58284515Y-77077835D01*
X58275000Y-77030000D01*
X58275000Y-76780000D01*
X58284515Y-76732165D01*
X58311612Y-76691612D01*
X58352165Y-76664515D01*
X58400000Y-76655000D01*
X58925000Y-76655000D01*
X58972835Y-76664515D01*
G37*
G36*
X57700000Y-77000000D02*
G01*
X54300000Y-77000000D01*
X54300000Y-73000000D01*
X57700000Y-73000000D01*
X57700000Y-77000000D01*
G37*
G36*
X87246742Y-74726601D02*
G01*
X87400687Y-74790367D01*
X87539234Y-74882941D01*
X87657059Y-75000766D01*
X87749633Y-75139313D01*
X87813399Y-75293258D01*
X87845907Y-75456685D01*
X87845907Y-75623315D01*
X87813399Y-75786742D01*
X87749633Y-75940687D01*
X87657059Y-76079234D01*
X87539234Y-76197059D01*
X87400687Y-76289633D01*
X87246742Y-76353399D01*
X87083315Y-76385907D01*
X86916685Y-76385907D01*
X86753258Y-76353399D01*
X86599313Y-76289633D01*
X86460766Y-76197059D01*
X86342941Y-76079234D01*
X86250367Y-75940687D01*
X86186601Y-75786742D01*
X86154093Y-75623315D01*
X86154093Y-75456685D01*
X86186601Y-75293258D01*
X86250367Y-75139313D01*
X86342941Y-75000766D01*
X86460766Y-74882941D01*
X86599313Y-74790367D01*
X86753258Y-74726601D01*
X86916685Y-74694093D01*
X87083315Y-74694093D01*
X87246742Y-74726601D01*
G37*
G36*
X89786742Y-74726601D02*
G01*
X89940687Y-74790367D01*
X90079234Y-74882941D01*
X90197059Y-75000766D01*
X90289633Y-75139313D01*
X90353399Y-75293258D01*
X90385907Y-75456685D01*
X90385907Y-75623315D01*
X90353399Y-75786742D01*
X90289633Y-75940687D01*
X90197059Y-76079234D01*
X90079234Y-76197059D01*
X89940687Y-76289633D01*
X89786742Y-76353399D01*
X89623315Y-76385907D01*
X89456685Y-76385907D01*
X89293258Y-76353399D01*
X89139313Y-76289633D01*
X89000766Y-76197059D01*
X88882941Y-76079234D01*
X88790367Y-75940687D01*
X88726601Y-75786742D01*
X88694093Y-75623315D01*
X88694093Y-75456685D01*
X88726601Y-75293258D01*
X88790367Y-75139313D01*
X88882941Y-75000766D01*
X89000766Y-74882941D01*
X89139313Y-74790367D01*
X89293258Y-74726601D01*
X89456685Y-74694093D01*
X89623315Y-74694093D01*
X89786742Y-74726601D01*
G37*
G36*
X53647835Y-75394515D02*
G01*
X53688388Y-75421612D01*
X53715485Y-75462165D01*
X53725000Y-75510000D01*
X53725000Y-75760000D01*
X53715485Y-75807835D01*
X53688388Y-75848388D01*
X53647835Y-75875485D01*
X53600000Y-75885000D01*
X53075000Y-75885000D01*
X53027165Y-75875485D01*
X52986612Y-75848388D01*
X52959515Y-75807835D01*
X52950000Y-75760000D01*
X52950000Y-75510000D01*
X52959515Y-75462165D01*
X52986612Y-75421612D01*
X53027165Y-75394515D01*
X53075000Y-75385000D01*
X53600000Y-75385000D01*
X53647835Y-75394515D01*
G37*
G36*
X58972835Y-75394515D02*
G01*
X59013388Y-75421612D01*
X59040485Y-75462165D01*
X59050000Y-75510000D01*
X59050000Y-75760000D01*
X59040485Y-75807835D01*
X59013388Y-75848388D01*
X58972835Y-75875485D01*
X58925000Y-75885000D01*
X58400000Y-75885000D01*
X58352165Y-75875485D01*
X58311612Y-75848388D01*
X58284515Y-75807835D01*
X58275000Y-75760000D01*
X58275000Y-75510000D01*
X58284515Y-75462165D01*
X58311612Y-75421612D01*
X58352165Y-75394515D01*
X58400000Y-75385000D01*
X58925000Y-75385000D01*
X58972835Y-75394515D01*
G37*
G36*
X4255909Y-74714963D02*
G01*
X4374600Y-74783489D01*
X4471511Y-74880400D01*
X4540037Y-74999091D01*
X4575509Y-75131474D01*
X4575509Y-75268526D01*
X4540037Y-75400909D01*
X4471511Y-75519600D01*
X4374600Y-75616511D01*
X4255909Y-75685037D01*
X4123526Y-75720509D01*
X3986474Y-75720509D01*
X3854091Y-75685037D01*
X3735400Y-75616511D01*
X3638489Y-75519600D01*
X3569963Y-75400909D01*
X3534491Y-75268526D01*
X3534491Y-75131474D01*
X3569963Y-74999091D01*
X3638489Y-74880400D01*
X3735400Y-74783489D01*
X3854091Y-74714963D01*
X3986474Y-74679491D01*
X4123526Y-74679491D01*
X4255909Y-74714963D01*
G37*
G36*
X5525909Y-74714963D02*
G01*
X5644600Y-74783489D01*
X5741511Y-74880400D01*
X5810037Y-74999091D01*
X5845509Y-75131474D01*
X5845509Y-75268526D01*
X5810037Y-75400909D01*
X5741511Y-75519600D01*
X5644600Y-75616511D01*
X5525909Y-75685037D01*
X5393526Y-75720509D01*
X5256474Y-75720509D01*
X5124091Y-75685037D01*
X5005400Y-75616511D01*
X4908489Y-75519600D01*
X4839963Y-75400909D01*
X4804491Y-75268526D01*
X4804491Y-75131474D01*
X4839963Y-74999091D01*
X4908489Y-74880400D01*
X5005400Y-74783489D01*
X5124091Y-74714963D01*
X5256474Y-74679491D01*
X5393526Y-74679491D01*
X5525909Y-74714963D01*
G37*
G36*
X6795909Y-74714963D02*
G01*
X6914600Y-74783489D01*
X7011511Y-74880400D01*
X7080037Y-74999091D01*
X7115509Y-75131474D01*
X7115509Y-75268526D01*
X7080037Y-75400909D01*
X7011511Y-75519600D01*
X6914600Y-75616511D01*
X6795909Y-75685037D01*
X6663526Y-75720509D01*
X6526474Y-75720509D01*
X6394091Y-75685037D01*
X6275400Y-75616511D01*
X6178489Y-75519600D01*
X6109963Y-75400909D01*
X6074491Y-75268526D01*
X6074491Y-75131474D01*
X6109963Y-74999091D01*
X6178489Y-74880400D01*
X6275400Y-74783489D01*
X6394091Y-74714963D01*
X6526474Y-74679491D01*
X6663526Y-74679491D01*
X6795909Y-74714963D01*
G37*
G36*
X8065909Y-74714963D02*
G01*
X8184600Y-74783489D01*
X8281511Y-74880400D01*
X8350037Y-74999091D01*
X8385509Y-75131474D01*
X8385509Y-75268526D01*
X8350037Y-75400909D01*
X8281511Y-75519600D01*
X8184600Y-75616511D01*
X8065909Y-75685037D01*
X7933526Y-75720509D01*
X7796474Y-75720509D01*
X7664091Y-75685037D01*
X7545400Y-75616511D01*
X7448489Y-75519600D01*
X7379963Y-75400909D01*
X7344491Y-75268526D01*
X7344491Y-75131474D01*
X7379963Y-74999091D01*
X7448489Y-74880400D01*
X7545400Y-74783489D01*
X7664091Y-74714963D01*
X7796474Y-74679491D01*
X7933526Y-74679491D01*
X8065909Y-74714963D01*
G37*
G36*
X9335909Y-74714963D02*
G01*
X9454600Y-74783489D01*
X9551511Y-74880400D01*
X9620037Y-74999091D01*
X9655509Y-75131474D01*
X9655509Y-75268526D01*
X9620037Y-75400909D01*
X9551511Y-75519600D01*
X9454600Y-75616511D01*
X9335909Y-75685037D01*
X9203526Y-75720509D01*
X9066474Y-75720509D01*
X8934091Y-75685037D01*
X8815400Y-75616511D01*
X8718489Y-75519600D01*
X8649963Y-75400909D01*
X8614491Y-75268526D01*
X8614491Y-75131474D01*
X8649963Y-74999091D01*
X8718489Y-74880400D01*
X8815400Y-74783489D01*
X8934091Y-74714963D01*
X9066474Y-74679491D01*
X9203526Y-74679491D01*
X9335909Y-74714963D01*
G37*
G36*
X10605909Y-74714963D02*
G01*
X10724600Y-74783489D01*
X10821511Y-74880400D01*
X10890037Y-74999091D01*
X10925509Y-75131474D01*
X10925509Y-75268526D01*
X10890037Y-75400909D01*
X10821511Y-75519600D01*
X10724600Y-75616511D01*
X10605909Y-75685037D01*
X10473526Y-75720509D01*
X10336474Y-75720509D01*
X10204091Y-75685037D01*
X10085400Y-75616511D01*
X9988489Y-75519600D01*
X9919963Y-75400909D01*
X9884491Y-75268526D01*
X9884491Y-75131474D01*
X9919963Y-74999091D01*
X9988489Y-74880400D01*
X10085400Y-74783489D01*
X10204091Y-74714963D01*
X10336474Y-74679491D01*
X10473526Y-74679491D01*
X10605909Y-74714963D01*
G37*
G36*
X11875909Y-74714963D02*
G01*
X11994600Y-74783489D01*
X12091511Y-74880400D01*
X12160037Y-74999091D01*
X12195509Y-75131474D01*
X12195509Y-75268526D01*
X12160037Y-75400909D01*
X12091511Y-75519600D01*
X11994600Y-75616511D01*
X11875909Y-75685037D01*
X11743526Y-75720509D01*
X11606474Y-75720509D01*
X11474091Y-75685037D01*
X11355400Y-75616511D01*
X11258489Y-75519600D01*
X11189963Y-75400909D01*
X11154491Y-75268526D01*
X11154491Y-75131474D01*
X11189963Y-74999091D01*
X11258489Y-74880400D01*
X11355400Y-74783489D01*
X11474091Y-74714963D01*
X11606474Y-74679491D01*
X11743526Y-74679491D01*
X11875909Y-74714963D01*
G37*
G36*
X13145909Y-74714963D02*
G01*
X13264600Y-74783489D01*
X13361511Y-74880400D01*
X13430037Y-74999091D01*
X13465509Y-75131474D01*
X13465509Y-75268526D01*
X13430037Y-75400909D01*
X13361511Y-75519600D01*
X13264600Y-75616511D01*
X13145909Y-75685037D01*
X13013526Y-75720509D01*
X12876474Y-75720509D01*
X12744091Y-75685037D01*
X12625400Y-75616511D01*
X12528489Y-75519600D01*
X12459963Y-75400909D01*
X12424491Y-75268526D01*
X12424491Y-75131474D01*
X12459963Y-74999091D01*
X12528489Y-74880400D01*
X12625400Y-74783489D01*
X12744091Y-74714963D01*
X12876474Y-74679491D01*
X13013526Y-74679491D01*
X13145909Y-74714963D01*
G37*
G36*
X53647835Y-74124515D02*
G01*
X53688388Y-74151612D01*
X53715485Y-74192165D01*
X53725000Y-74240000D01*
X53725000Y-74490000D01*
X53715485Y-74537835D01*
X53688388Y-74578388D01*
X53647835Y-74605485D01*
X53600000Y-74615000D01*
X53075000Y-74615000D01*
X53027165Y-74605485D01*
X52986612Y-74578388D01*
X52959515Y-74537835D01*
X52950000Y-74490000D01*
X52950000Y-74240000D01*
X52959515Y-74192165D01*
X52986612Y-74151612D01*
X53027165Y-74124515D01*
X53075000Y-74115000D01*
X53600000Y-74115000D01*
X53647835Y-74124515D01*
G37*
G36*
X58972835Y-74124515D02*
G01*
X59013388Y-74151612D01*
X59040485Y-74192165D01*
X59050000Y-74240000D01*
X59050000Y-74490000D01*
X59040485Y-74537835D01*
X59013388Y-74578388D01*
X58972835Y-74605485D01*
X58925000Y-74615000D01*
X58400000Y-74615000D01*
X58352165Y-74605485D01*
X58311612Y-74578388D01*
X58284515Y-74537835D01*
X58275000Y-74490000D01*
X58275000Y-74240000D01*
X58284515Y-74192165D01*
X58311612Y-74151612D01*
X58352165Y-74124515D01*
X58400000Y-74115000D01*
X58925000Y-74115000D01*
X58972835Y-74124515D01*
G37*
G36*
X87850000Y-73850000D02*
G01*
X86150000Y-73850000D01*
X86150000Y-72150000D01*
X87850000Y-72150000D01*
X87850000Y-73850000D01*
G37*
G36*
X89786742Y-72186601D02*
G01*
X89940687Y-72250367D01*
X90079234Y-72342941D01*
X90197059Y-72460766D01*
X90289633Y-72599313D01*
X90353399Y-72753258D01*
X90385907Y-72916685D01*
X90385907Y-73083315D01*
X90353399Y-73246742D01*
X90289633Y-73400687D01*
X90197059Y-73539234D01*
X90079234Y-73657059D01*
X89940687Y-73749633D01*
X89786742Y-73813399D01*
X89623315Y-73845907D01*
X89456685Y-73845907D01*
X89293258Y-73813399D01*
X89139313Y-73749633D01*
X89000766Y-73657059D01*
X88882941Y-73539234D01*
X88790367Y-73400687D01*
X88726601Y-73246742D01*
X88694093Y-73083315D01*
X88694093Y-72916685D01*
X88726601Y-72753258D01*
X88790367Y-72599313D01*
X88882941Y-72460766D01*
X89000766Y-72342941D01*
X89139313Y-72250367D01*
X89293258Y-72186601D01*
X89456685Y-72154093D01*
X89623315Y-72154093D01*
X89786742Y-72186601D01*
G37*
G36*
X53647835Y-72854515D02*
G01*
X53688388Y-72881612D01*
X53715485Y-72922165D01*
X53725000Y-72970000D01*
X53725000Y-73220000D01*
X53715485Y-73267835D01*
X53688388Y-73308388D01*
X53647835Y-73335485D01*
X53600000Y-73345000D01*
X53075000Y-73345000D01*
X53027165Y-73335485D01*
X52986612Y-73308388D01*
X52959515Y-73267835D01*
X52950000Y-73220000D01*
X52950000Y-72970000D01*
X52959515Y-72922165D01*
X52986612Y-72881612D01*
X53027165Y-72854515D01*
X53075000Y-72845000D01*
X53600000Y-72845000D01*
X53647835Y-72854515D01*
G37*
G36*
X58972835Y-72854515D02*
G01*
X59013388Y-72881612D01*
X59040485Y-72922165D01*
X59050000Y-72970000D01*
X59050000Y-73220000D01*
X59040485Y-73267835D01*
X59013388Y-73308388D01*
X58972835Y-73335485D01*
X58925000Y-73345000D01*
X58400000Y-73345000D01*
X58352165Y-73335485D01*
X58311612Y-73308388D01*
X58284515Y-73267835D01*
X58275000Y-73220000D01*
X58275000Y-72970000D01*
X58284515Y-72922165D01*
X58311612Y-72881612D01*
X58352165Y-72854515D01*
X58400000Y-72845000D01*
X58925000Y-72845000D01*
X58972835Y-72854515D01*
G37*
G36*
X100054047Y-68700805D02*
G01*
X100105408Y-68706764D01*
X100122954Y-68714511D01*
X100145671Y-68719030D01*
X100169991Y-68735280D01*
X100190793Y-68744465D01*
X100205000Y-68758672D01*
X100226777Y-68773223D01*
X100241327Y-68794999D01*
X100255534Y-68809206D01*
X100264718Y-68830006D01*
X100280970Y-68854329D01*
X100285489Y-68877048D01*
X100293235Y-68894591D01*
X100299192Y-68945940D01*
X100300000Y-68950000D01*
X100300000Y-71050000D01*
X100299192Y-71054059D01*
X100293235Y-71105408D01*
X100285489Y-71122950D01*
X100280970Y-71145671D01*
X100264716Y-71169995D01*
X100255534Y-71190793D01*
X100241329Y-71204997D01*
X100226777Y-71226777D01*
X100204997Y-71241329D01*
X100190793Y-71255534D01*
X100169995Y-71264716D01*
X100145671Y-71280970D01*
X100122950Y-71285489D01*
X100105408Y-71293235D01*
X100054061Y-71299192D01*
X100050000Y-71300000D01*
X97950000Y-71300000D01*
X97945941Y-71299192D01*
X97894591Y-71293235D01*
X97877048Y-71285489D01*
X97854329Y-71280970D01*
X97830006Y-71264718D01*
X97809206Y-71255534D01*
X97794999Y-71241327D01*
X97773223Y-71226777D01*
X97758672Y-71205000D01*
X97744465Y-71190793D01*
X97735280Y-71169991D01*
X97719030Y-71145671D01*
X97714511Y-71122954D01*
X97706764Y-71105408D01*
X97700805Y-71054049D01*
X97700000Y-71050000D01*
X97700000Y-68950000D01*
X97700804Y-68945953D01*
X97706764Y-68894591D01*
X97714511Y-68877043D01*
X97719030Y-68854329D01*
X97735278Y-68830010D01*
X97744465Y-68809206D01*
X97758674Y-68794996D01*
X97773223Y-68773223D01*
X97794996Y-68758674D01*
X97809206Y-68744465D01*
X97830010Y-68735278D01*
X97854329Y-68719030D01*
X97877043Y-68714511D01*
X97894591Y-68706764D01*
X97945952Y-68700805D01*
X97950000Y-68700000D01*
X100050000Y-68700000D01*
X100054047Y-68700805D01*
G37*
G36*
X99303479Y-63735919D02*
G01*
X99497488Y-63798957D01*
X99679248Y-63891568D01*
X99844282Y-64011472D01*
X99988528Y-64155718D01*
X100108432Y-64320752D01*
X100201043Y-64502512D01*
X100264081Y-64696521D01*
X100295993Y-64898003D01*
X100295993Y-65101997D01*
X100264081Y-65303479D01*
X100201043Y-65497488D01*
X100108432Y-65679248D01*
X99988528Y-65844282D01*
X99844282Y-65988528D01*
X99679248Y-66108432D01*
X99497488Y-66201043D01*
X99303479Y-66264081D01*
X99101997Y-66295993D01*
X98898003Y-66295993D01*
X98696521Y-66264081D01*
X98502512Y-66201043D01*
X98320752Y-66108432D01*
X98155718Y-65988528D01*
X98011472Y-65844282D01*
X97891568Y-65679248D01*
X97798957Y-65497488D01*
X97735919Y-65303479D01*
X97704007Y-65101997D01*
X97704007Y-64898003D01*
X97735919Y-64696521D01*
X97798957Y-64502512D01*
X97891568Y-64320752D01*
X98011472Y-64155718D01*
X98155718Y-64011472D01*
X98320752Y-63891568D01*
X98502512Y-63798957D01*
X98696521Y-63735919D01*
X98898003Y-63704007D01*
X99101997Y-63704007D01*
X99303479Y-63735919D01*
G37*
G36*
X96550000Y-60235600D02*
G01*
X94850000Y-60235600D01*
X94850000Y-58535600D01*
X96550000Y-58535600D01*
X96550000Y-60235600D01*
G37*
G36*
X98486742Y-58572201D02*
G01*
X98640687Y-58635967D01*
X98779234Y-58728541D01*
X98897059Y-58846366D01*
X98989633Y-58984913D01*
X99053399Y-59138858D01*
X99085907Y-59302285D01*
X99085907Y-59468915D01*
X99053399Y-59632342D01*
X98989633Y-59786287D01*
X98897059Y-59924834D01*
X98779234Y-60042659D01*
X98640687Y-60135233D01*
X98486742Y-60198999D01*
X98323315Y-60231507D01*
X98156685Y-60231507D01*
X97993258Y-60198999D01*
X97839313Y-60135233D01*
X97700766Y-60042659D01*
X97582941Y-59924834D01*
X97490367Y-59786287D01*
X97426601Y-59632342D01*
X97394093Y-59468915D01*
X97394093Y-59302285D01*
X97426601Y-59138858D01*
X97490367Y-58984913D01*
X97582941Y-58846366D01*
X97700766Y-58728541D01*
X97839313Y-58635967D01*
X97993258Y-58572201D01*
X98156685Y-58539693D01*
X98323315Y-58539693D01*
X98486742Y-58572201D01*
G37*
G36*
X101026742Y-58572201D02*
G01*
X101180687Y-58635967D01*
X101319234Y-58728541D01*
X101437059Y-58846366D01*
X101529633Y-58984913D01*
X101593399Y-59138858D01*
X101625907Y-59302285D01*
X101625907Y-59468915D01*
X101593399Y-59632342D01*
X101529633Y-59786287D01*
X101437059Y-59924834D01*
X101319234Y-60042659D01*
X101180687Y-60135233D01*
X101026742Y-60198999D01*
X100863315Y-60231507D01*
X100696685Y-60231507D01*
X100533258Y-60198999D01*
X100379313Y-60135233D01*
X100240766Y-60042659D01*
X100122941Y-59924834D01*
X100030367Y-59786287D01*
X99966601Y-59632342D01*
X99934093Y-59468915D01*
X99934093Y-59302285D01*
X99966601Y-59138858D01*
X100030367Y-58984913D01*
X100122941Y-58846366D01*
X100240766Y-58728541D01*
X100379313Y-58635967D01*
X100533258Y-58572201D01*
X100696685Y-58539693D01*
X100863315Y-58539693D01*
X101026742Y-58572201D01*
G37*
G36*
X103566742Y-58572201D02*
G01*
X103720687Y-58635967D01*
X103859234Y-58728541D01*
X103977059Y-58846366D01*
X104069633Y-58984913D01*
X104133399Y-59138858D01*
X104165907Y-59302285D01*
X104165907Y-59468915D01*
X104133399Y-59632342D01*
X104069633Y-59786287D01*
X103977059Y-59924834D01*
X103859234Y-60042659D01*
X103720687Y-60135233D01*
X103566742Y-60198999D01*
X103403315Y-60231507D01*
X103236685Y-60231507D01*
X103073258Y-60198999D01*
X102919313Y-60135233D01*
X102780766Y-60042659D01*
X102662941Y-59924834D01*
X102570367Y-59786287D01*
X102506601Y-59632342D01*
X102474093Y-59468915D01*
X102474093Y-59302285D01*
X102506601Y-59138858D01*
X102570367Y-58984913D01*
X102662941Y-58846366D01*
X102780766Y-58728541D01*
X102919313Y-58635967D01*
X103073258Y-58572201D01*
X103236685Y-58539693D01*
X103403315Y-58539693D01*
X103566742Y-58572201D01*
G37*
G36*
X5691342Y-57618060D02*
G01*
X5804381Y-57683323D01*
X5896677Y-57775619D01*
X5961940Y-57888658D01*
X5995722Y-58014737D01*
X5995722Y-58145263D01*
X5961940Y-58271342D01*
X5896677Y-58384381D01*
X5804381Y-58476677D01*
X5691342Y-58541940D01*
X5565263Y-58575722D01*
X5434737Y-58575722D01*
X5308658Y-58541940D01*
X5195619Y-58476677D01*
X5103323Y-58384381D01*
X5038060Y-58271342D01*
X5004278Y-58145263D01*
X5004278Y-58014737D01*
X5038060Y-57888658D01*
X5103323Y-57775619D01*
X5195619Y-57683323D01*
X5308658Y-57618060D01*
X5434737Y-57584278D01*
X5565263Y-57584278D01*
X5691342Y-57618060D01*
G37*
G36*
X6961342Y-57618060D02*
G01*
X7074381Y-57683323D01*
X7166677Y-57775619D01*
X7231940Y-57888658D01*
X7265722Y-58014737D01*
X7265722Y-58145263D01*
X7231940Y-58271342D01*
X7166677Y-58384381D01*
X7074381Y-58476677D01*
X6961342Y-58541940D01*
X6835263Y-58575722D01*
X6704737Y-58575722D01*
X6578658Y-58541940D01*
X6465619Y-58476677D01*
X6373323Y-58384381D01*
X6308060Y-58271342D01*
X6274278Y-58145263D01*
X6274278Y-58014737D01*
X6308060Y-57888658D01*
X6373323Y-57775619D01*
X6465619Y-57683323D01*
X6578658Y-57618060D01*
X6704737Y-57584278D01*
X6835263Y-57584278D01*
X6961342Y-57618060D01*
G37*
G36*
X95946742Y-56032201D02*
G01*
X96100687Y-56095967D01*
X96239234Y-56188541D01*
X96357059Y-56306366D01*
X96449633Y-56444913D01*
X96513399Y-56598858D01*
X96545907Y-56762285D01*
X96545907Y-56928915D01*
X96513399Y-57092342D01*
X96449633Y-57246287D01*
X96357059Y-57384834D01*
X96239234Y-57502659D01*
X96100687Y-57595233D01*
X95946742Y-57658999D01*
X95783315Y-57691507D01*
X95616685Y-57691507D01*
X95453258Y-57658999D01*
X95299313Y-57595233D01*
X95160766Y-57502659D01*
X95042941Y-57384834D01*
X94950367Y-57246287D01*
X94886601Y-57092342D01*
X94854093Y-56928915D01*
X94854093Y-56762285D01*
X94886601Y-56598858D01*
X94950367Y-56444913D01*
X95042941Y-56306366D01*
X95160766Y-56188541D01*
X95299313Y-56095967D01*
X95453258Y-56032201D01*
X95616685Y-55999693D01*
X95783315Y-55999693D01*
X95946742Y-56032201D01*
G37*
G36*
X98486742Y-56032201D02*
G01*
X98640687Y-56095967D01*
X98779234Y-56188541D01*
X98897059Y-56306366D01*
X98989633Y-56444913D01*
X99053399Y-56598858D01*
X99085907Y-56762285D01*
X99085907Y-56928915D01*
X99053399Y-57092342D01*
X98989633Y-57246287D01*
X98897059Y-57384834D01*
X98779234Y-57502659D01*
X98640687Y-57595233D01*
X98486742Y-57658999D01*
X98323315Y-57691507D01*
X98156685Y-57691507D01*
X97993258Y-57658999D01*
X97839313Y-57595233D01*
X97700766Y-57502659D01*
X97582941Y-57384834D01*
X97490367Y-57246287D01*
X97426601Y-57092342D01*
X97394093Y-56928915D01*
X97394093Y-56762285D01*
X97426601Y-56598858D01*
X97490367Y-56444913D01*
X97582941Y-56306366D01*
X97700766Y-56188541D01*
X97839313Y-56095967D01*
X97993258Y-56032201D01*
X98156685Y-55999693D01*
X98323315Y-55999693D01*
X98486742Y-56032201D01*
G37*
G36*
X101026742Y-56032201D02*
G01*
X101180687Y-56095967D01*
X101319234Y-56188541D01*
X101437059Y-56306366D01*
X101529633Y-56444913D01*
X101593399Y-56598858D01*
X101625907Y-56762285D01*
X101625907Y-56928915D01*
X101593399Y-57092342D01*
X101529633Y-57246287D01*
X101437059Y-57384834D01*
X101319234Y-57502659D01*
X101180687Y-57595233D01*
X101026742Y-57658999D01*
X100863315Y-57691507D01*
X100696685Y-57691507D01*
X100533258Y-57658999D01*
X100379313Y-57595233D01*
X100240766Y-57502659D01*
X100122941Y-57384834D01*
X100030367Y-57246287D01*
X99966601Y-57092342D01*
X99934093Y-56928915D01*
X99934093Y-56762285D01*
X99966601Y-56598858D01*
X100030367Y-56444913D01*
X100122941Y-56306366D01*
X100240766Y-56188541D01*
X100379313Y-56095967D01*
X100533258Y-56032201D01*
X100696685Y-55999693D01*
X100863315Y-55999693D01*
X101026742Y-56032201D01*
G37*
G36*
X103566742Y-56032201D02*
G01*
X103720687Y-56095967D01*
X103859234Y-56188541D01*
X103977059Y-56306366D01*
X104069633Y-56444913D01*
X104133399Y-56598858D01*
X104165907Y-56762285D01*
X104165907Y-56928915D01*
X104133399Y-57092342D01*
X104069633Y-57246287D01*
X103977059Y-57384834D01*
X103859234Y-57502659D01*
X103720687Y-57595233D01*
X103566742Y-57658999D01*
X103403315Y-57691507D01*
X103236685Y-57691507D01*
X103073258Y-57658999D01*
X102919313Y-57595233D01*
X102780766Y-57502659D01*
X102662941Y-57384834D01*
X102570367Y-57246287D01*
X102506601Y-57092342D01*
X102474093Y-56928915D01*
X102474093Y-56762285D01*
X102506601Y-56598858D01*
X102570367Y-56444913D01*
X102662941Y-56306366D01*
X102780766Y-56188541D01*
X102919313Y-56095967D01*
X103073258Y-56032201D01*
X103236685Y-55999693D01*
X103403315Y-55999693D01*
X103566742Y-56032201D01*
G37*
G36*
X5691342Y-56348060D02*
G01*
X5804381Y-56413323D01*
X5896677Y-56505619D01*
X5961940Y-56618658D01*
X5995722Y-56744737D01*
X5995722Y-56875263D01*
X5961940Y-57001342D01*
X5896677Y-57114381D01*
X5804381Y-57206677D01*
X5691342Y-57271940D01*
X5565263Y-57305722D01*
X5434737Y-57305722D01*
X5308658Y-57271940D01*
X5195619Y-57206677D01*
X5103323Y-57114381D01*
X5038060Y-57001342D01*
X5004278Y-56875263D01*
X5004278Y-56744737D01*
X5038060Y-56618658D01*
X5103323Y-56505619D01*
X5195619Y-56413323D01*
X5308658Y-56348060D01*
X5434737Y-56314278D01*
X5565263Y-56314278D01*
X5691342Y-56348060D01*
G37*
G36*
X6961342Y-56348060D02*
G01*
X7074381Y-56413323D01*
X7166677Y-56505619D01*
X7231940Y-56618658D01*
X7265722Y-56744737D01*
X7265722Y-56875263D01*
X7231940Y-57001342D01*
X7166677Y-57114381D01*
X7074381Y-57206677D01*
X6961342Y-57271940D01*
X6835263Y-57305722D01*
X6704737Y-57305722D01*
X6578658Y-57271940D01*
X6465619Y-57206677D01*
X6373323Y-57114381D01*
X6308060Y-57001342D01*
X6274278Y-56875263D01*
X6274278Y-56744737D01*
X6308060Y-56618658D01*
X6373323Y-56505619D01*
X6465619Y-56413323D01*
X6578658Y-56348060D01*
X6704737Y-56314278D01*
X6835263Y-56314278D01*
X6961342Y-56348060D01*
G37*
G36*
X5691342Y-55078060D02*
G01*
X5804381Y-55143323D01*
X5896677Y-55235619D01*
X5961940Y-55348658D01*
X5995722Y-55474737D01*
X5995722Y-55605263D01*
X5961940Y-55731342D01*
X5896677Y-55844381D01*
X5804381Y-55936677D01*
X5691342Y-56001940D01*
X5565263Y-56035722D01*
X5434737Y-56035722D01*
X5308658Y-56001940D01*
X5195619Y-55936677D01*
X5103323Y-55844381D01*
X5038060Y-55731342D01*
X5004278Y-55605263D01*
X5004278Y-55474737D01*
X5038060Y-55348658D01*
X5103323Y-55235619D01*
X5195619Y-55143323D01*
X5308658Y-55078060D01*
X5434737Y-55044278D01*
X5565263Y-55044278D01*
X5691342Y-55078060D01*
G37*
G36*
X6961342Y-55078060D02*
G01*
X7074381Y-55143323D01*
X7166677Y-55235619D01*
X7231940Y-55348658D01*
X7265722Y-55474737D01*
X7265722Y-55605263D01*
X7231940Y-55731342D01*
X7166677Y-55844381D01*
X7074381Y-55936677D01*
X6961342Y-56001940D01*
X6835263Y-56035722D01*
X6704737Y-56035722D01*
X6578658Y-56001940D01*
X6465619Y-55936677D01*
X6373323Y-55844381D01*
X6308060Y-55731342D01*
X6274278Y-55605263D01*
X6274278Y-55474737D01*
X6308060Y-55348658D01*
X6373323Y-55235619D01*
X6465619Y-55143323D01*
X6578658Y-55078060D01*
X6704737Y-55044278D01*
X6835263Y-55044278D01*
X6961342Y-55078060D01*
G37*
G36*
X5691342Y-53808060D02*
G01*
X5804381Y-53873323D01*
X5896677Y-53965619D01*
X5961940Y-54078658D01*
X5995722Y-54204737D01*
X5995722Y-54335263D01*
X5961940Y-54461342D01*
X5896677Y-54574381D01*
X5804381Y-54666677D01*
X5691342Y-54731940D01*
X5565263Y-54765722D01*
X5434737Y-54765722D01*
X5308658Y-54731940D01*
X5195619Y-54666677D01*
X5103323Y-54574381D01*
X5038060Y-54461342D01*
X5004278Y-54335263D01*
X5004278Y-54204737D01*
X5038060Y-54078658D01*
X5103323Y-53965619D01*
X5195619Y-53873323D01*
X5308658Y-53808060D01*
X5434737Y-53774278D01*
X5565263Y-53774278D01*
X5691342Y-53808060D01*
G37*
G36*
X6961342Y-53808060D02*
G01*
X7074381Y-53873323D01*
X7166677Y-53965619D01*
X7231940Y-54078658D01*
X7265722Y-54204737D01*
X7265722Y-54335263D01*
X7231940Y-54461342D01*
X7166677Y-54574381D01*
X7074381Y-54666677D01*
X6961342Y-54731940D01*
X6835263Y-54765722D01*
X6704737Y-54765722D01*
X6578658Y-54731940D01*
X6465619Y-54666677D01*
X6373323Y-54574381D01*
X6308060Y-54461342D01*
X6274278Y-54335263D01*
X6274278Y-54204737D01*
X6308060Y-54078658D01*
X6373323Y-53965619D01*
X6465619Y-53873323D01*
X6578658Y-53808060D01*
X6704737Y-53774278D01*
X6835263Y-53774278D01*
X6961342Y-53808060D01*
G37*
G36*
X6000000Y-53500000D02*
G01*
X5000000Y-53500000D01*
X5000000Y-52500000D01*
X6000000Y-52500000D01*
X6000000Y-53500000D01*
G37*
G36*
X6961342Y-52538060D02*
G01*
X7074381Y-52603323D01*
X7166677Y-52695619D01*
X7231940Y-52808658D01*
X7265722Y-52934737D01*
X7265722Y-53065263D01*
X7231940Y-53191342D01*
X7166677Y-53304381D01*
X7074381Y-53396677D01*
X6961342Y-53461940D01*
X6835263Y-53495722D01*
X6704737Y-53495722D01*
X6578658Y-53461940D01*
X6465619Y-53396677D01*
X6373323Y-53304381D01*
X6308060Y-53191342D01*
X6274278Y-53065263D01*
X6274278Y-52934737D01*
X6308060Y-52808658D01*
X6373323Y-52695619D01*
X6465619Y-52603323D01*
X6578658Y-52538060D01*
X6704737Y-52504278D01*
X6835263Y-52504278D01*
X6961342Y-52538060D01*
G37*
G36*
X98050000Y-52235600D02*
G01*
X96350000Y-52235600D01*
X96350000Y-50535600D01*
X98050000Y-50535600D01*
X98050000Y-52235600D01*
G37*
G36*
X99986742Y-50572201D02*
G01*
X100140687Y-50635967D01*
X100279234Y-50728541D01*
X100397059Y-50846366D01*
X100489633Y-50984913D01*
X100553399Y-51138858D01*
X100585907Y-51302285D01*
X100585907Y-51468915D01*
X100553399Y-51632342D01*
X100489633Y-51786287D01*
X100397059Y-51924834D01*
X100279234Y-52042659D01*
X100140687Y-52135233D01*
X99986742Y-52198999D01*
X99823315Y-52231507D01*
X99656685Y-52231507D01*
X99493258Y-52198999D01*
X99339313Y-52135233D01*
X99200766Y-52042659D01*
X99082941Y-51924834D01*
X98990367Y-51786287D01*
X98926601Y-51632342D01*
X98894093Y-51468915D01*
X98894093Y-51302285D01*
X98926601Y-51138858D01*
X98990367Y-50984913D01*
X99082941Y-50846366D01*
X99200766Y-50728541D01*
X99339313Y-50635967D01*
X99493258Y-50572201D01*
X99656685Y-50539693D01*
X99823315Y-50539693D01*
X99986742Y-50572201D01*
G37*
G36*
X102526742Y-50572201D02*
G01*
X102680687Y-50635967D01*
X102819234Y-50728541D01*
X102937059Y-50846366D01*
X103029633Y-50984913D01*
X103093399Y-51138858D01*
X103125907Y-51302285D01*
X103125907Y-51468915D01*
X103093399Y-51632342D01*
X103029633Y-51786287D01*
X102937059Y-51924834D01*
X102819234Y-52042659D01*
X102680687Y-52135233D01*
X102526742Y-52198999D01*
X102363315Y-52231507D01*
X102196685Y-52231507D01*
X102033258Y-52198999D01*
X101879313Y-52135233D01*
X101740766Y-52042659D01*
X101622941Y-51924834D01*
X101530367Y-51786287D01*
X101466601Y-51632342D01*
X101434093Y-51468915D01*
X101434093Y-51302285D01*
X101466601Y-51138858D01*
X101530367Y-50984913D01*
X101622941Y-50846366D01*
X101740766Y-50728541D01*
X101879313Y-50635967D01*
X102033258Y-50572201D01*
X102196685Y-50539693D01*
X102363315Y-50539693D01*
X102526742Y-50572201D01*
G37*
G36*
X63536104Y-25542127D02*
G01*
X63609099Y-25590901D01*
X63657873Y-25663896D01*
X63675000Y-25750000D01*
X63675000Y-26250000D01*
X63657873Y-26336104D01*
X63609099Y-26409099D01*
X63536104Y-26457873D01*
X63450000Y-26475000D01*
X63000000Y-26475000D01*
X62913896Y-26457873D01*
X62840901Y-26409099D01*
X62792127Y-26336104D01*
X62775000Y-26250000D01*
X62775000Y-25750000D01*
X62792127Y-25663896D01*
X62840901Y-25590901D01*
X62913896Y-25542127D01*
X63000000Y-25525000D01*
X63450000Y-25525000D01*
X63536104Y-25542127D01*
G37*
G36*
X65086104Y-25542127D02*
G01*
X65159099Y-25590901D01*
X65207873Y-25663896D01*
X65225000Y-25750000D01*
X65225000Y-26250000D01*
X65207873Y-26336104D01*
X65159099Y-26409099D01*
X65086104Y-26457873D01*
X65000000Y-26475000D01*
X64550000Y-26475000D01*
X64463896Y-26457873D01*
X64390901Y-26409099D01*
X64342127Y-26336104D01*
X64325000Y-26250000D01*
X64325000Y-25750000D01*
X64342127Y-25663896D01*
X64390901Y-25590901D01*
X64463896Y-25542127D01*
X64550000Y-25525000D01*
X65000000Y-25525000D01*
X65086104Y-25542127D01*
G37*
G36*
X72336104Y-23042127D02*
G01*
X72409099Y-23090901D01*
X72457873Y-23163896D01*
X72475000Y-23250000D01*
X72475000Y-23750000D01*
X72457873Y-23836104D01*
X72409099Y-23909099D01*
X72336104Y-23957873D01*
X72250000Y-23975000D01*
X71800000Y-23975000D01*
X71713896Y-23957873D01*
X71640901Y-23909099D01*
X71592127Y-23836104D01*
X71575000Y-23750000D01*
X71575000Y-23250000D01*
X71592127Y-23163896D01*
X71640901Y-23090901D01*
X71713896Y-23042127D01*
X71800000Y-23025000D01*
X72250000Y-23025000D01*
X72336104Y-23042127D01*
G37*
G36*
X73886104Y-23042127D02*
G01*
X73959099Y-23090901D01*
X74007873Y-23163896D01*
X74025000Y-23250000D01*
X74025000Y-23750000D01*
X74007873Y-23836104D01*
X73959099Y-23909099D01*
X73886104Y-23957873D01*
X73800000Y-23975000D01*
X73350000Y-23975000D01*
X73263896Y-23957873D01*
X73190901Y-23909099D01*
X73142127Y-23836104D01*
X73125000Y-23750000D01*
X73125000Y-23250000D01*
X73142127Y-23163896D01*
X73190901Y-23090901D01*
X73263896Y-23042127D01*
X73350000Y-23025000D01*
X73800000Y-23025000D01*
X73886104Y-23042127D01*
G37*
G36*
X63536104Y-22942127D02*
G01*
X63609099Y-22990901D01*
X63657873Y-23063896D01*
X63675000Y-23150000D01*
X63675000Y-23650000D01*
X63657873Y-23736104D01*
X63609099Y-23809099D01*
X63536104Y-23857873D01*
X63450000Y-23875000D01*
X63000000Y-23875000D01*
X62913896Y-23857873D01*
X62840901Y-23809099D01*
X62792127Y-23736104D01*
X62775000Y-23650000D01*
X62775000Y-23150000D01*
X62792127Y-23063896D01*
X62840901Y-22990901D01*
X62913896Y-22942127D01*
X63000000Y-22925000D01*
X63450000Y-22925000D01*
X63536104Y-22942127D01*
G37*
G36*
X65086104Y-22942127D02*
G01*
X65159099Y-22990901D01*
X65207873Y-23063896D01*
X65225000Y-23150000D01*
X65225000Y-23650000D01*
X65207873Y-23736104D01*
X65159099Y-23809099D01*
X65086104Y-23857873D01*
X65000000Y-23875000D01*
X64550000Y-23875000D01*
X64463896Y-23857873D01*
X64390901Y-23809099D01*
X64342127Y-23736104D01*
X64325000Y-23650000D01*
X64325000Y-23150000D01*
X64342127Y-23063896D01*
X64390901Y-22990901D01*
X64463896Y-22942127D01*
X64550000Y-22925000D01*
X65000000Y-22925000D01*
X65086104Y-22942127D01*
G37*
G36*
X88191342Y-22618060D02*
G01*
X88304381Y-22683323D01*
X88396677Y-22775619D01*
X88461940Y-22888658D01*
X88495722Y-23014737D01*
X88495722Y-23145263D01*
X88461940Y-23271342D01*
X88396677Y-23384381D01*
X88304381Y-23476677D01*
X88191342Y-23541940D01*
X88065263Y-23575722D01*
X87934737Y-23575722D01*
X87808658Y-23541940D01*
X87695619Y-23476677D01*
X87603323Y-23384381D01*
X87538060Y-23271342D01*
X87504278Y-23145263D01*
X87504278Y-23014737D01*
X87538060Y-22888658D01*
X87603323Y-22775619D01*
X87695619Y-22683323D01*
X87808658Y-22618060D01*
X87934737Y-22584278D01*
X88065263Y-22584278D01*
X88191342Y-22618060D01*
G37*
G36*
X89461342Y-22618060D02*
G01*
X89574381Y-22683323D01*
X89666677Y-22775619D01*
X89731940Y-22888658D01*
X89765722Y-23014737D01*
X89765722Y-23145263D01*
X89731940Y-23271342D01*
X89666677Y-23384381D01*
X89574381Y-23476677D01*
X89461342Y-23541940D01*
X89335263Y-23575722D01*
X89204737Y-23575722D01*
X89078658Y-23541940D01*
X88965619Y-23476677D01*
X88873323Y-23384381D01*
X88808060Y-23271342D01*
X88774278Y-23145263D01*
X88774278Y-23014737D01*
X88808060Y-22888658D01*
X88873323Y-22775619D01*
X88965619Y-22683323D01*
X89078658Y-22618060D01*
X89204737Y-22584278D01*
X89335263Y-22584278D01*
X89461342Y-22618060D01*
G37*
G36*
X67736104Y-22042127D02*
G01*
X67809099Y-22090901D01*
X67857873Y-22163896D01*
X67875000Y-22250000D01*
X67875000Y-22750000D01*
X67857873Y-22836104D01*
X67809099Y-22909099D01*
X67736104Y-22957873D01*
X67650000Y-22975000D01*
X67200000Y-22975000D01*
X67113896Y-22957873D01*
X67040901Y-22909099D01*
X66992127Y-22836104D01*
X66975000Y-22750000D01*
X66975000Y-22250000D01*
X66992127Y-22163896D01*
X67040901Y-22090901D01*
X67113896Y-22042127D01*
X67200000Y-22025000D01*
X67650000Y-22025000D01*
X67736104Y-22042127D01*
G37*
G36*
X69286104Y-22042127D02*
G01*
X69359099Y-22090901D01*
X69407873Y-22163896D01*
X69425000Y-22250000D01*
X69425000Y-22750000D01*
X69407873Y-22836104D01*
X69359099Y-22909099D01*
X69286104Y-22957873D01*
X69200000Y-22975000D01*
X68750000Y-22975000D01*
X68663896Y-22957873D01*
X68590901Y-22909099D01*
X68542127Y-22836104D01*
X68525000Y-22750000D01*
X68525000Y-22250000D01*
X68542127Y-22163896D01*
X68590901Y-22090901D01*
X68663896Y-22042127D01*
X68750000Y-22025000D01*
X69200000Y-22025000D01*
X69286104Y-22042127D01*
G37*
G36*
X88191342Y-21348060D02*
G01*
X88304381Y-21413323D01*
X88396677Y-21505619D01*
X88461940Y-21618658D01*
X88495722Y-21744737D01*
X88495722Y-21875263D01*
X88461940Y-22001342D01*
X88396677Y-22114381D01*
X88304381Y-22206677D01*
X88191342Y-22271940D01*
X88065263Y-22305722D01*
X87934737Y-22305722D01*
X87808658Y-22271940D01*
X87695619Y-22206677D01*
X87603323Y-22114381D01*
X87538060Y-22001342D01*
X87504278Y-21875263D01*
X87504278Y-21744737D01*
X87538060Y-21618658D01*
X87603323Y-21505619D01*
X87695619Y-21413323D01*
X87808658Y-21348060D01*
X87934737Y-21314278D01*
X88065263Y-21314278D01*
X88191342Y-21348060D01*
G37*
G36*
X89461342Y-21348060D02*
G01*
X89574381Y-21413323D01*
X89666677Y-21505619D01*
X89731940Y-21618658D01*
X89765722Y-21744737D01*
X89765722Y-21875263D01*
X89731940Y-22001342D01*
X89666677Y-22114381D01*
X89574381Y-22206677D01*
X89461342Y-22271940D01*
X89335263Y-22305722D01*
X89204737Y-22305722D01*
X89078658Y-22271940D01*
X88965619Y-22206677D01*
X88873323Y-22114381D01*
X88808060Y-22001342D01*
X88774278Y-21875263D01*
X88774278Y-21744737D01*
X88808060Y-21618658D01*
X88873323Y-21505619D01*
X88965619Y-21413323D01*
X89078658Y-21348060D01*
X89204737Y-21314278D01*
X89335263Y-21314278D01*
X89461342Y-21348060D01*
G37*
G36*
X82676662Y-21490276D02*
G01*
X82720459Y-21519541D01*
X82749724Y-21563338D01*
X82760000Y-21615000D01*
X82760000Y-21985000D01*
X82749724Y-22036662D01*
X82720459Y-22080459D01*
X82676662Y-22109724D01*
X82625000Y-22120000D01*
X82355000Y-22120000D01*
X82303338Y-22109724D01*
X82259541Y-22080459D01*
X82230276Y-22036662D01*
X82220000Y-21985000D01*
X82220000Y-21615000D01*
X82230276Y-21563338D01*
X82259541Y-21519541D01*
X82303338Y-21490276D01*
X82355000Y-21480000D01*
X82625000Y-21480000D01*
X82676662Y-21490276D01*
G37*
G36*
X83696662Y-21490276D02*
G01*
X83740459Y-21519541D01*
X83769724Y-21563338D01*
X83780000Y-21615000D01*
X83780000Y-21985000D01*
X83769724Y-22036662D01*
X83740459Y-22080459D01*
X83696662Y-22109724D01*
X83645000Y-22120000D01*
X83375000Y-22120000D01*
X83323338Y-22109724D01*
X83279541Y-22080459D01*
X83250276Y-22036662D01*
X83240000Y-21985000D01*
X83240000Y-21615000D01*
X83250276Y-21563338D01*
X83279541Y-21519541D01*
X83323338Y-21490276D01*
X83375000Y-21480000D01*
X83645000Y-21480000D01*
X83696662Y-21490276D01*
G37*
G36*
X3522626Y-19446084D02*
G01*
X3690519Y-19500636D01*
X3847811Y-19580780D01*
X3990629Y-19684543D01*
X4115457Y-19809371D01*
X4219220Y-19952189D01*
X4299364Y-20109481D01*
X4353916Y-20277374D01*
X4381532Y-20451734D01*
X4381532Y-20628266D01*
X4353916Y-20802626D01*
X4299364Y-20970519D01*
X4219220Y-21127811D01*
X4115457Y-21270629D01*
X3990629Y-21395457D01*
X3847811Y-21499220D01*
X3690519Y-21579364D01*
X3522626Y-21633916D01*
X3348266Y-21661532D01*
X3171734Y-21661532D01*
X2997374Y-21633916D01*
X2829481Y-21579364D01*
X2672189Y-21499220D01*
X2529371Y-21395457D01*
X2404543Y-21270629D01*
X2300780Y-21127811D01*
X2220636Y-20970519D01*
X2166084Y-20802626D01*
X2138468Y-20628266D01*
X2138468Y-20451734D01*
X2166084Y-20277374D01*
X2220636Y-20109481D01*
X2300780Y-19952189D01*
X2404543Y-19809371D01*
X2529371Y-19684543D01*
X2672189Y-19580780D01*
X2829481Y-19500636D01*
X2997374Y-19446084D01*
X3171734Y-19418468D01*
X3348266Y-19418468D01*
X3522626Y-19446084D01*
G37*
G36*
X8602626Y-19446084D02*
G01*
X8770519Y-19500636D01*
X8927811Y-19580780D01*
X9070629Y-19684543D01*
X9195457Y-19809371D01*
X9299220Y-19952189D01*
X9379364Y-20109481D01*
X9433916Y-20277374D01*
X9461532Y-20451734D01*
X9461532Y-20628266D01*
X9433916Y-20802626D01*
X9379364Y-20970519D01*
X9299220Y-21127811D01*
X9195457Y-21270629D01*
X9070629Y-21395457D01*
X8927811Y-21499220D01*
X8770519Y-21579364D01*
X8602626Y-21633916D01*
X8428266Y-21661532D01*
X8251734Y-21661532D01*
X8077374Y-21633916D01*
X7909481Y-21579364D01*
X7752189Y-21499220D01*
X7609371Y-21395457D01*
X7484543Y-21270629D01*
X7380780Y-21127811D01*
X7300636Y-20970519D01*
X7246084Y-20802626D01*
X7218468Y-20628266D01*
X7218468Y-20451734D01*
X7246084Y-20277374D01*
X7300636Y-20109481D01*
X7380780Y-19952189D01*
X7484543Y-19809371D01*
X7609371Y-19684543D01*
X7752189Y-19580780D01*
X7909481Y-19500636D01*
X8077374Y-19446084D01*
X8251734Y-19418468D01*
X8428266Y-19418468D01*
X8602626Y-19446084D01*
G37*
G36*
X75476662Y-20890276D02*
G01*
X75520459Y-20919541D01*
X75549724Y-20963338D01*
X75560000Y-21015000D01*
X75560000Y-21385000D01*
X75549724Y-21436662D01*
X75520459Y-21480459D01*
X75476662Y-21509724D01*
X75425000Y-21520000D01*
X75155000Y-21520000D01*
X75103338Y-21509724D01*
X75059541Y-21480459D01*
X75030276Y-21436662D01*
X75020000Y-21385000D01*
X75020000Y-21015000D01*
X75030276Y-20963338D01*
X75059541Y-20919541D01*
X75103338Y-20890276D01*
X75155000Y-20880000D01*
X75425000Y-20880000D01*
X75476662Y-20890276D01*
G37*
G36*
X76496662Y-20890276D02*
G01*
X76540459Y-20919541D01*
X76569724Y-20963338D01*
X76580000Y-21015000D01*
X76580000Y-21385000D01*
X76569724Y-21436662D01*
X76540459Y-21480459D01*
X76496662Y-21509724D01*
X76445000Y-21520000D01*
X76175000Y-21520000D01*
X76123338Y-21509724D01*
X76079541Y-21480459D01*
X76050276Y-21436662D01*
X76040000Y-21385000D01*
X76040000Y-21015000D01*
X76050276Y-20963338D01*
X76079541Y-20919541D01*
X76123338Y-20890276D01*
X76175000Y-20880000D01*
X76445000Y-20880000D01*
X76496662Y-20890276D01*
G37*
G36*
X80676662Y-20890276D02*
G01*
X80720459Y-20919541D01*
X80749724Y-20963338D01*
X80760000Y-21015000D01*
X80760000Y-21385000D01*
X80749724Y-21436662D01*
X80720459Y-21480459D01*
X80676662Y-21509724D01*
X80625000Y-21520000D01*
X80355000Y-21520000D01*
X80303338Y-21509724D01*
X80259541Y-21480459D01*
X80230276Y-21436662D01*
X80220000Y-21385000D01*
X80220000Y-21015000D01*
X80230276Y-20963338D01*
X80259541Y-20919541D01*
X80303338Y-20890276D01*
X80355000Y-20880000D01*
X80625000Y-20880000D01*
X80676662Y-20890276D01*
G37*
G36*
X81696662Y-20890276D02*
G01*
X81740459Y-20919541D01*
X81769724Y-20963338D01*
X81780000Y-21015000D01*
X81780000Y-21385000D01*
X81769724Y-21436662D01*
X81740459Y-21480459D01*
X81696662Y-21509724D01*
X81645000Y-21520000D01*
X81375000Y-21520000D01*
X81323338Y-21509724D01*
X81279541Y-21480459D01*
X81250276Y-21436662D01*
X81240000Y-21385000D01*
X81240000Y-21015000D01*
X81250276Y-20963338D01*
X81279541Y-20919541D01*
X81323338Y-20890276D01*
X81375000Y-20880000D01*
X81645000Y-20880000D01*
X81696662Y-20890276D01*
G37*
G36*
X70536104Y-20342127D02*
G01*
X70609099Y-20390901D01*
X70657873Y-20463896D01*
X70675000Y-20550000D01*
X70675000Y-21050000D01*
X70657873Y-21136104D01*
X70609099Y-21209099D01*
X70536104Y-21257873D01*
X70450000Y-21275000D01*
X70000000Y-21275000D01*
X69913896Y-21257873D01*
X69840901Y-21209099D01*
X69792127Y-21136104D01*
X69775000Y-21050000D01*
X69775000Y-20550000D01*
X69792127Y-20463896D01*
X69840901Y-20390901D01*
X69913896Y-20342127D01*
X70000000Y-20325000D01*
X70450000Y-20325000D01*
X70536104Y-20342127D01*
G37*
G36*
X72086104Y-20342127D02*
G01*
X72159099Y-20390901D01*
X72207873Y-20463896D01*
X72225000Y-20550000D01*
X72225000Y-21050000D01*
X72207873Y-21136104D01*
X72159099Y-21209099D01*
X72086104Y-21257873D01*
X72000000Y-21275000D01*
X71550000Y-21275000D01*
X71463896Y-21257873D01*
X71390901Y-21209099D01*
X71342127Y-21136104D01*
X71325000Y-21050000D01*
X71325000Y-20550000D01*
X71342127Y-20463896D01*
X71390901Y-20390901D01*
X71463896Y-20342127D01*
X71550000Y-20325000D01*
X72000000Y-20325000D01*
X72086104Y-20342127D01*
G37*
G36*
X78276662Y-20490276D02*
G01*
X78320459Y-20519541D01*
X78349724Y-20563338D01*
X78360000Y-20615000D01*
X78360000Y-20985000D01*
X78349724Y-21036662D01*
X78320459Y-21080459D01*
X78276662Y-21109724D01*
X78225000Y-21120000D01*
X77955000Y-21120000D01*
X77903338Y-21109724D01*
X77859541Y-21080459D01*
X77830276Y-21036662D01*
X77820000Y-20985000D01*
X77820000Y-20615000D01*
X77830276Y-20563338D01*
X77859541Y-20519541D01*
X77903338Y-20490276D01*
X77955000Y-20480000D01*
X78225000Y-20480000D01*
X78276662Y-20490276D01*
G37*
G36*
X79296662Y-20490276D02*
G01*
X79340459Y-20519541D01*
X79369724Y-20563338D01*
X79380000Y-20615000D01*
X79380000Y-20985000D01*
X79369724Y-21036662D01*
X79340459Y-21080459D01*
X79296662Y-21109724D01*
X79245000Y-21120000D01*
X78975000Y-21120000D01*
X78923338Y-21109724D01*
X78879541Y-21080459D01*
X78850276Y-21036662D01*
X78840000Y-20985000D01*
X78840000Y-20615000D01*
X78850276Y-20563338D01*
X78879541Y-20519541D01*
X78923338Y-20490276D01*
X78975000Y-20480000D01*
X79245000Y-20480000D01*
X79296662Y-20490276D01*
G37*
G36*
X88191342Y-20078060D02*
G01*
X88304381Y-20143323D01*
X88396677Y-20235619D01*
X88461940Y-20348658D01*
X88495722Y-20474737D01*
X88495722Y-20605263D01*
X88461940Y-20731342D01*
X88396677Y-20844381D01*
X88304381Y-20936677D01*
X88191342Y-21001940D01*
X88065263Y-21035722D01*
X87934737Y-21035722D01*
X87808658Y-21001940D01*
X87695619Y-20936677D01*
X87603323Y-20844381D01*
X87538060Y-20731342D01*
X87504278Y-20605263D01*
X87504278Y-20474737D01*
X87538060Y-20348658D01*
X87603323Y-20235619D01*
X87695619Y-20143323D01*
X87808658Y-20078060D01*
X87934737Y-20044278D01*
X88065263Y-20044278D01*
X88191342Y-20078060D01*
G37*
G36*
X89461342Y-20078060D02*
G01*
X89574381Y-20143323D01*
X89666677Y-20235619D01*
X89731940Y-20348658D01*
X89765722Y-20474737D01*
X89765722Y-20605263D01*
X89731940Y-20731342D01*
X89666677Y-20844381D01*
X89574381Y-20936677D01*
X89461342Y-21001940D01*
X89335263Y-21035722D01*
X89204737Y-21035722D01*
X89078658Y-21001940D01*
X88965619Y-20936677D01*
X88873323Y-20844381D01*
X88808060Y-20731342D01*
X88774278Y-20605263D01*
X88774278Y-20474737D01*
X88808060Y-20348658D01*
X88873323Y-20235619D01*
X88965619Y-20143323D01*
X89078658Y-20078060D01*
X89204737Y-20044278D01*
X89335263Y-20044278D01*
X89461342Y-20078060D01*
G37*
G36*
X88191342Y-18808060D02*
G01*
X88304381Y-18873323D01*
X88396677Y-18965619D01*
X88461940Y-19078658D01*
X88495722Y-19204737D01*
X88495722Y-19335263D01*
X88461940Y-19461342D01*
X88396677Y-19574381D01*
X88304381Y-19666677D01*
X88191342Y-19731940D01*
X88065263Y-19765722D01*
X87934737Y-19765722D01*
X87808658Y-19731940D01*
X87695619Y-19666677D01*
X87603323Y-19574381D01*
X87538060Y-19461342D01*
X87504278Y-19335263D01*
X87504278Y-19204737D01*
X87538060Y-19078658D01*
X87603323Y-18965619D01*
X87695619Y-18873323D01*
X87808658Y-18808060D01*
X87934737Y-18774278D01*
X88065263Y-18774278D01*
X88191342Y-18808060D01*
G37*
G36*
X89461342Y-18808060D02*
G01*
X89574381Y-18873323D01*
X89666677Y-18965619D01*
X89731940Y-19078658D01*
X89765722Y-19204737D01*
X89765722Y-19335263D01*
X89731940Y-19461342D01*
X89666677Y-19574381D01*
X89574381Y-19666677D01*
X89461342Y-19731940D01*
X89335263Y-19765722D01*
X89204737Y-19765722D01*
X89078658Y-19731940D01*
X88965619Y-19666677D01*
X88873323Y-19574381D01*
X88808060Y-19461342D01*
X88774278Y-19335263D01*
X88774278Y-19204737D01*
X88808060Y-19078658D01*
X88873323Y-18965619D01*
X88965619Y-18873323D01*
X89078658Y-18808060D01*
X89204737Y-18774278D01*
X89335263Y-18774278D01*
X89461342Y-18808060D01*
G37*
G36*
X5890652Y-16979936D02*
G01*
X5900468Y-16979936D01*
X5938820Y-16987564D01*
X6039241Y-17003469D01*
X6071541Y-17013964D01*
X6097542Y-17019136D01*
X6134234Y-17034334D01*
X6192194Y-17053167D01*
X6246493Y-17080834D01*
X6283182Y-17096031D01*
X6305222Y-17110758D01*
X6335480Y-17126175D01*
X6417730Y-17185933D01*
X6450253Y-17207664D01*
X6457193Y-17214604D01*
X6465579Y-17220697D01*
X6579302Y-17334420D01*
X6585394Y-17342805D01*
X6592336Y-17349747D01*
X6614069Y-17382273D01*
X6673824Y-17464519D01*
X6689239Y-17494774D01*
X6703969Y-17516818D01*
X6719168Y-17553511D01*
X6746832Y-17607805D01*
X6765662Y-17665757D01*
X6780864Y-17702458D01*
X6786036Y-17728463D01*
X6796530Y-17760758D01*
X6812434Y-17861173D01*
X6820064Y-17899532D01*
X6820064Y-17909347D01*
X6821686Y-17919588D01*
X6821686Y-18080411D01*
X6820064Y-18090651D01*
X6820064Y-18100468D01*
X6812433Y-18138829D01*
X6796530Y-18239241D01*
X6786037Y-18271533D01*
X6780864Y-18297542D01*
X6765660Y-18334245D01*
X6746832Y-18392194D01*
X6719170Y-18446483D01*
X6703969Y-18483182D01*
X6689237Y-18505229D01*
X6673824Y-18535480D01*
X6614078Y-18617713D01*
X6592336Y-18650253D01*
X6585391Y-18657197D01*
X6579302Y-18665579D01*
X6465579Y-18779302D01*
X6457197Y-18785391D01*
X6450253Y-18792336D01*
X6417713Y-18814078D01*
X6335480Y-18873824D01*
X6305229Y-18889237D01*
X6283182Y-18903969D01*
X6246483Y-18919170D01*
X6192194Y-18946832D01*
X6134245Y-18965660D01*
X6097542Y-18980864D01*
X6071533Y-18986037D01*
X6039241Y-18996530D01*
X5938829Y-19012433D01*
X5900468Y-19020064D01*
X5890652Y-19020064D01*
X5880411Y-19021686D01*
X5719589Y-19021686D01*
X5709348Y-19020064D01*
X5699532Y-19020064D01*
X5661171Y-19012433D01*
X5560758Y-18996530D01*
X5528463Y-18986036D01*
X5502458Y-18980864D01*
X5465757Y-18965662D01*
X5407805Y-18946832D01*
X5353511Y-18919168D01*
X5316818Y-18903969D01*
X5294774Y-18889239D01*
X5264519Y-18873824D01*
X5182273Y-18814069D01*
X5149747Y-18792336D01*
X5142805Y-18785394D01*
X5134420Y-18779302D01*
X5020697Y-18665579D01*
X5014604Y-18657193D01*
X5007664Y-18650253D01*
X4985933Y-18617730D01*
X4926175Y-18535480D01*
X4910758Y-18505222D01*
X4896031Y-18483182D01*
X4880834Y-18446493D01*
X4853167Y-18392194D01*
X4834334Y-18334234D01*
X4819136Y-18297542D01*
X4813964Y-18271541D01*
X4803469Y-18239241D01*
X4787564Y-18138820D01*
X4779936Y-18100468D01*
X4779936Y-18090652D01*
X4778314Y-18080411D01*
X4778314Y-17919588D01*
X4779936Y-17909346D01*
X4779936Y-17899532D01*
X4787564Y-17861182D01*
X4803469Y-17760758D01*
X4813964Y-17728455D01*
X4819136Y-17702458D01*
X4834333Y-17665769D01*
X4853167Y-17607805D01*
X4880836Y-17553500D01*
X4896031Y-17516818D01*
X4910756Y-17494780D01*
X4926175Y-17464519D01*
X4985941Y-17382256D01*
X5007664Y-17349747D01*
X5014602Y-17342808D01*
X5020697Y-17334420D01*
X5134420Y-17220697D01*
X5142808Y-17214602D01*
X5149747Y-17207664D01*
X5182256Y-17185941D01*
X5264519Y-17126175D01*
X5294780Y-17110756D01*
X5316818Y-17096031D01*
X5353500Y-17080836D01*
X5407805Y-17053167D01*
X5465769Y-17034333D01*
X5502458Y-17019136D01*
X5528455Y-17013964D01*
X5560758Y-17003469D01*
X5661180Y-16987564D01*
X5699532Y-16979936D01*
X5709348Y-16979936D01*
X5719589Y-16978314D01*
X5880411Y-16978314D01*
X5890652Y-16979936D01*
G37*
G36*
X88500000Y-18500000D02*
G01*
X87500000Y-18500000D01*
X87500000Y-17500000D01*
X88500000Y-17500000D01*
X88500000Y-18500000D01*
G37*
G36*
X89461342Y-17538060D02*
G01*
X89574381Y-17603323D01*
X89666677Y-17695619D01*
X89731940Y-17808658D01*
X89765722Y-17934737D01*
X89765722Y-18065263D01*
X89731940Y-18191342D01*
X89666677Y-18304381D01*
X89574381Y-18396677D01*
X89461342Y-18461940D01*
X89335263Y-18495722D01*
X89204737Y-18495722D01*
X89078658Y-18461940D01*
X88965619Y-18396677D01*
X88873323Y-18304381D01*
X88808060Y-18191342D01*
X88774278Y-18065263D01*
X88774278Y-17934737D01*
X88808060Y-17808658D01*
X88873323Y-17695619D01*
X88965619Y-17603323D01*
X89078658Y-17538060D01*
X89204737Y-17504278D01*
X89335263Y-17504278D01*
X89461342Y-17538060D01*
G37*
G36*
X61536104Y-17542127D02*
G01*
X61609099Y-17590901D01*
X61657873Y-17663896D01*
X61675000Y-17750000D01*
X61675000Y-18250000D01*
X61657873Y-18336104D01*
X61609099Y-18409099D01*
X61536104Y-18457873D01*
X61450000Y-18475000D01*
X61000000Y-18475000D01*
X60913896Y-18457873D01*
X60840901Y-18409099D01*
X60792127Y-18336104D01*
X60775000Y-18250000D01*
X60775000Y-17750000D01*
X60792127Y-17663896D01*
X60840901Y-17590901D01*
X60913896Y-17542127D01*
X61000000Y-17525000D01*
X61450000Y-17525000D01*
X61536104Y-17542127D01*
G37*
G36*
X63086104Y-17542127D02*
G01*
X63159099Y-17590901D01*
X63207873Y-17663896D01*
X63225000Y-17750000D01*
X63225000Y-18250000D01*
X63207873Y-18336104D01*
X63159099Y-18409099D01*
X63086104Y-18457873D01*
X63000000Y-18475000D01*
X62550000Y-18475000D01*
X62463896Y-18457873D01*
X62390901Y-18409099D01*
X62342127Y-18336104D01*
X62325000Y-18250000D01*
X62325000Y-17750000D01*
X62342127Y-17663896D01*
X62390901Y-17590901D01*
X62463896Y-17542127D01*
X62550000Y-17525000D01*
X63000000Y-17525000D01*
X63086104Y-17542127D01*
G37*
G36*
X3522626Y-14366084D02*
G01*
X3690519Y-14420636D01*
X3847811Y-14500780D01*
X3990629Y-14604543D01*
X4115457Y-14729371D01*
X4219220Y-14872189D01*
X4299364Y-15029481D01*
X4353916Y-15197374D01*
X4381532Y-15371734D01*
X4381532Y-15548266D01*
X4353916Y-15722626D01*
X4299364Y-15890519D01*
X4219220Y-16047811D01*
X4115457Y-16190629D01*
X3990629Y-16315457D01*
X3847811Y-16419220D01*
X3690519Y-16499364D01*
X3522626Y-16553916D01*
X3348266Y-16581532D01*
X3171734Y-16581532D01*
X2997374Y-16553916D01*
X2829481Y-16499364D01*
X2672189Y-16419220D01*
X2529371Y-16315457D01*
X2404543Y-16190629D01*
X2300780Y-16047811D01*
X2220636Y-15890519D01*
X2166084Y-15722626D01*
X2138468Y-15548266D01*
X2138468Y-15371734D01*
X2166084Y-15197374D01*
X2220636Y-15029481D01*
X2300780Y-14872189D01*
X2404543Y-14729371D01*
X2529371Y-14604543D01*
X2672189Y-14500780D01*
X2829481Y-14420636D01*
X2997374Y-14366084D01*
X3171734Y-14338468D01*
X3348266Y-14338468D01*
X3522626Y-14366084D01*
G37*
G36*
X8602626Y-14366084D02*
G01*
X8770519Y-14420636D01*
X8927811Y-14500780D01*
X9070629Y-14604543D01*
X9195457Y-14729371D01*
X9299220Y-14872189D01*
X9379364Y-15029481D01*
X9433916Y-15197374D01*
X9461532Y-15371734D01*
X9461532Y-15548266D01*
X9433916Y-15722626D01*
X9379364Y-15890519D01*
X9299220Y-16047811D01*
X9195457Y-16190629D01*
X9070629Y-16315457D01*
X8927811Y-16419220D01*
X8770519Y-16499364D01*
X8602626Y-16553916D01*
X8428266Y-16581532D01*
X8251734Y-16581532D01*
X8077374Y-16553916D01*
X7909481Y-16499364D01*
X7752189Y-16419220D01*
X7609371Y-16315457D01*
X7484543Y-16190629D01*
X7380780Y-16047811D01*
X7300636Y-15890519D01*
X7246084Y-15722626D01*
X7218468Y-15548266D01*
X7218468Y-15371734D01*
X7246084Y-15197374D01*
X7300636Y-15029481D01*
X7380780Y-14872189D01*
X7484543Y-14729371D01*
X7609371Y-14604543D01*
X7752189Y-14500780D01*
X7909481Y-14420636D01*
X8077374Y-14366084D01*
X8251734Y-14338468D01*
X8428266Y-14338468D01*
X8602626Y-14366084D01*
G37*
G36*
X55676662Y-13690276D02*
G01*
X55720459Y-13719541D01*
X55749724Y-13763338D01*
X55760000Y-13815000D01*
X55760000Y-14185000D01*
X55749724Y-14236662D01*
X55720459Y-14280459D01*
X55676662Y-14309724D01*
X55625000Y-14320000D01*
X55355000Y-14320000D01*
X55303338Y-14309724D01*
X55259541Y-14280459D01*
X55230276Y-14236662D01*
X55220000Y-14185000D01*
X55220000Y-13815000D01*
X55230276Y-13763338D01*
X55259541Y-13719541D01*
X55303338Y-13690276D01*
X55355000Y-13680000D01*
X55625000Y-13680000D01*
X55676662Y-13690276D01*
G37*
G36*
X56696662Y-13690276D02*
G01*
X56740459Y-13719541D01*
X56769724Y-13763338D01*
X56780000Y-13815000D01*
X56780000Y-14185000D01*
X56769724Y-14236662D01*
X56740459Y-14280459D01*
X56696662Y-14309724D01*
X56645000Y-14320000D01*
X56375000Y-14320000D01*
X56323338Y-14309724D01*
X56279541Y-14280459D01*
X56250276Y-14236662D01*
X56240000Y-14185000D01*
X56240000Y-13815000D01*
X56250276Y-13763338D01*
X56279541Y-13719541D01*
X56323338Y-13690276D01*
X56375000Y-13680000D01*
X56645000Y-13680000D01*
X56696662Y-13690276D01*
G37*
G36*
X53176662Y-11690276D02*
G01*
X53220459Y-11719541D01*
X53249724Y-11763338D01*
X53260000Y-11815000D01*
X53260000Y-12185000D01*
X53249724Y-12236662D01*
X53220459Y-12280459D01*
X53176662Y-12309724D01*
X53125000Y-12320000D01*
X52855000Y-12320000D01*
X52803338Y-12309724D01*
X52759541Y-12280459D01*
X52730276Y-12236662D01*
X52720000Y-12185000D01*
X52720000Y-11815000D01*
X52730276Y-11763338D01*
X52759541Y-11719541D01*
X52803338Y-11690276D01*
X52855000Y-11680000D01*
X53125000Y-11680000D01*
X53176662Y-11690276D01*
G37*
G36*
X54196662Y-11690276D02*
G01*
X54240459Y-11719541D01*
X54269724Y-11763338D01*
X54280000Y-11815000D01*
X54280000Y-12185000D01*
X54269724Y-12236662D01*
X54240459Y-12280459D01*
X54196662Y-12309724D01*
X54145000Y-12320000D01*
X53875000Y-12320000D01*
X53823338Y-12309724D01*
X53779541Y-12280459D01*
X53750276Y-12236662D01*
X53740000Y-12185000D01*
X53740000Y-11815000D01*
X53750276Y-11763338D01*
X53779541Y-11719541D01*
X53823338Y-11690276D01*
X53875000Y-11680000D01*
X54145000Y-11680000D01*
X54196662Y-11690276D01*
G37*
G36*
X79191342Y-10538060D02*
G01*
X79304381Y-10603323D01*
X79396677Y-10695619D01*
X79461940Y-10808658D01*
X79495722Y-10934737D01*
X79495722Y-11065263D01*
X79461940Y-11191342D01*
X79396677Y-11304381D01*
X79304381Y-11396677D01*
X79191342Y-11461940D01*
X79065263Y-11495722D01*
X78934737Y-11495722D01*
X78808658Y-11461940D01*
X78695619Y-11396677D01*
X78603323Y-11304381D01*
X78538060Y-11191342D01*
X78504278Y-11065263D01*
X78504278Y-10934737D01*
X78538060Y-10808658D01*
X78603323Y-10695619D01*
X78695619Y-10603323D01*
X78808658Y-10538060D01*
X78934737Y-10504278D01*
X79065263Y-10504278D01*
X79191342Y-10538060D01*
G37*
G36*
X81191342Y-10538060D02*
G01*
X81304381Y-10603323D01*
X81396677Y-10695619D01*
X81461940Y-10808658D01*
X81495722Y-10934737D01*
X81495722Y-11065263D01*
X81461940Y-11191342D01*
X81396677Y-11304381D01*
X81304381Y-11396677D01*
X81191342Y-11461940D01*
X81065263Y-11495722D01*
X80934737Y-11495722D01*
X80808658Y-11461940D01*
X80695619Y-11396677D01*
X80603323Y-11304381D01*
X80538060Y-11191342D01*
X80504278Y-11065263D01*
X80504278Y-10934737D01*
X80538060Y-10808658D01*
X80603323Y-10695619D01*
X80695619Y-10603323D01*
X80808658Y-10538060D01*
X80934737Y-10504278D01*
X81065263Y-10504278D01*
X81191342Y-10538060D01*
G37*
G36*
X83191342Y-10538060D02*
G01*
X83304381Y-10603323D01*
X83396677Y-10695619D01*
X83461940Y-10808658D01*
X83495722Y-10934737D01*
X83495722Y-11065263D01*
X83461940Y-11191342D01*
X83396677Y-11304381D01*
X83304381Y-11396677D01*
X83191342Y-11461940D01*
X83065263Y-11495722D01*
X82934737Y-11495722D01*
X82808658Y-11461940D01*
X82695619Y-11396677D01*
X82603323Y-11304381D01*
X82538060Y-11191342D01*
X82504278Y-11065263D01*
X82504278Y-10934737D01*
X82538060Y-10808658D01*
X82603323Y-10695619D01*
X82695619Y-10603323D01*
X82808658Y-10538060D01*
X82934737Y-10504278D01*
X83065263Y-10504278D01*
X83191342Y-10538060D01*
G37*
G36*
X85191342Y-10538060D02*
G01*
X85304381Y-10603323D01*
X85396677Y-10695619D01*
X85461940Y-10808658D01*
X85495722Y-10934737D01*
X85495722Y-11065263D01*
X85461940Y-11191342D01*
X85396677Y-11304381D01*
X85304381Y-11396677D01*
X85191342Y-11461940D01*
X85065263Y-11495722D01*
X84934737Y-11495722D01*
X84808658Y-11461940D01*
X84695619Y-11396677D01*
X84603323Y-11304381D01*
X84538060Y-11191342D01*
X84504278Y-11065263D01*
X84504278Y-10934737D01*
X84538060Y-10808658D01*
X84603323Y-10695619D01*
X84695619Y-10603323D01*
X84808658Y-10538060D01*
X84934737Y-10504278D01*
X85065263Y-10504278D01*
X85191342Y-10538060D01*
G37*
G36*
X87191342Y-10538060D02*
G01*
X87304381Y-10603323D01*
X87396677Y-10695619D01*
X87461940Y-10808658D01*
X87495722Y-10934737D01*
X87495722Y-11065263D01*
X87461940Y-11191342D01*
X87396677Y-11304381D01*
X87304381Y-11396677D01*
X87191342Y-11461940D01*
X87065263Y-11495722D01*
X86934737Y-11495722D01*
X86808658Y-11461940D01*
X86695619Y-11396677D01*
X86603323Y-11304381D01*
X86538060Y-11191342D01*
X86504278Y-11065263D01*
X86504278Y-10934737D01*
X86538060Y-10808658D01*
X86603323Y-10695619D01*
X86695619Y-10603323D01*
X86808658Y-10538060D01*
X86934737Y-10504278D01*
X87065263Y-10504278D01*
X87191342Y-10538060D01*
G37*
G36*
X32191342Y-9818060D02*
G01*
X32304381Y-9883323D01*
X32396677Y-9975619D01*
X32461940Y-10088658D01*
X32495722Y-10214737D01*
X32495722Y-10345263D01*
X32461940Y-10471342D01*
X32396677Y-10584381D01*
X32304381Y-10676677D01*
X32191342Y-10741940D01*
X32065263Y-10775722D01*
X31934737Y-10775722D01*
X31808658Y-10741940D01*
X31695619Y-10676677D01*
X31603323Y-10584381D01*
X31538060Y-10471342D01*
X31504278Y-10345263D01*
X31504278Y-10214737D01*
X31538060Y-10088658D01*
X31603323Y-9975619D01*
X31695619Y-9883323D01*
X31808658Y-9818060D01*
X31934737Y-9784278D01*
X32065263Y-9784278D01*
X32191342Y-9818060D01*
G37*
G36*
X33461342Y-9818060D02*
G01*
X33574381Y-9883323D01*
X33666677Y-9975619D01*
X33731940Y-10088658D01*
X33765722Y-10214737D01*
X33765722Y-10345263D01*
X33731940Y-10471342D01*
X33666677Y-10584381D01*
X33574381Y-10676677D01*
X33461342Y-10741940D01*
X33335263Y-10775722D01*
X33204737Y-10775722D01*
X33078658Y-10741940D01*
X32965619Y-10676677D01*
X32873323Y-10584381D01*
X32808060Y-10471342D01*
X32774278Y-10345263D01*
X32774278Y-10214737D01*
X32808060Y-10088658D01*
X32873323Y-9975619D01*
X32965619Y-9883323D01*
X33078658Y-9818060D01*
X33204737Y-9784278D01*
X33335263Y-9784278D01*
X33461342Y-9818060D01*
G37*
G36*
X67046742Y-8466601D02*
G01*
X67200687Y-8530367D01*
X67339234Y-8622941D01*
X67457059Y-8740766D01*
X67549633Y-8879313D01*
X67613399Y-9033258D01*
X67645907Y-9196685D01*
X67645907Y-9363315D01*
X67613399Y-9526742D01*
X67549633Y-9680687D01*
X67457059Y-9819234D01*
X67339234Y-9937059D01*
X67200687Y-10029633D01*
X67046742Y-10093399D01*
X66883315Y-10125907D01*
X66716685Y-10125907D01*
X66553258Y-10093399D01*
X66399313Y-10029633D01*
X66260766Y-9937059D01*
X66142941Y-9819234D01*
X66050367Y-9680687D01*
X65986601Y-9526742D01*
X65954093Y-9363315D01*
X65954093Y-9196685D01*
X65986601Y-9033258D01*
X66050367Y-8879313D01*
X66142941Y-8740766D01*
X66260766Y-8622941D01*
X66399313Y-8530367D01*
X66553258Y-8466601D01*
X66716685Y-8434093D01*
X66883315Y-8434093D01*
X67046742Y-8466601D01*
G37*
G36*
X103246742Y-8466601D02*
G01*
X103400687Y-8530367D01*
X103539234Y-8622941D01*
X103657059Y-8740766D01*
X103749633Y-8879313D01*
X103813399Y-9033258D01*
X103845907Y-9196685D01*
X103845907Y-9363315D01*
X103813399Y-9526742D01*
X103749633Y-9680687D01*
X103657059Y-9819234D01*
X103539234Y-9937059D01*
X103400687Y-10029633D01*
X103246742Y-10093399D01*
X103083315Y-10125907D01*
X102916685Y-10125907D01*
X102753258Y-10093399D01*
X102599313Y-10029633D01*
X102460766Y-9937059D01*
X102342941Y-9819234D01*
X102250367Y-9680687D01*
X102186601Y-9526742D01*
X102154093Y-9363315D01*
X102154093Y-9196685D01*
X102186601Y-9033258D01*
X102250367Y-8879313D01*
X102342941Y-8740766D01*
X102460766Y-8622941D01*
X102599313Y-8530367D01*
X102753258Y-8466601D01*
X102916685Y-8434093D01*
X103083315Y-8434093D01*
X103246742Y-8466601D01*
G37*
G36*
X32191342Y-8548060D02*
G01*
X32304381Y-8613323D01*
X32396677Y-8705619D01*
X32461940Y-8818658D01*
X32495722Y-8944737D01*
X32495722Y-9075263D01*
X32461940Y-9201342D01*
X32396677Y-9314381D01*
X32304381Y-9406677D01*
X32191342Y-9471940D01*
X32065263Y-9505722D01*
X31934737Y-9505722D01*
X31808658Y-9471940D01*
X31695619Y-9406677D01*
X31603323Y-9314381D01*
X31538060Y-9201342D01*
X31504278Y-9075263D01*
X31504278Y-8944737D01*
X31538060Y-8818658D01*
X31603323Y-8705619D01*
X31695619Y-8613323D01*
X31808658Y-8548060D01*
X31934737Y-8514278D01*
X32065263Y-8514278D01*
X32191342Y-8548060D01*
G37*
G36*
X33461342Y-8548060D02*
G01*
X33574381Y-8613323D01*
X33666677Y-8705619D01*
X33731940Y-8818658D01*
X33765722Y-8944737D01*
X33765722Y-9075263D01*
X33731940Y-9201342D01*
X33666677Y-9314381D01*
X33574381Y-9406677D01*
X33461342Y-9471940D01*
X33335263Y-9505722D01*
X33204737Y-9505722D01*
X33078658Y-9471940D01*
X32965619Y-9406677D01*
X32873323Y-9314381D01*
X32808060Y-9201342D01*
X32774278Y-9075263D01*
X32774278Y-8944737D01*
X32808060Y-8818658D01*
X32873323Y-8705619D01*
X32965619Y-8613323D01*
X33078658Y-8548060D01*
X33204737Y-8514278D01*
X33335263Y-8514278D01*
X33461342Y-8548060D01*
G37*
G36*
X32191342Y-7278060D02*
G01*
X32304381Y-7343323D01*
X32396677Y-7435619D01*
X32461940Y-7548658D01*
X32495722Y-7674737D01*
X32495722Y-7805263D01*
X32461940Y-7931342D01*
X32396677Y-8044381D01*
X32304381Y-8136677D01*
X32191342Y-8201940D01*
X32065263Y-8235722D01*
X31934737Y-8235722D01*
X31808658Y-8201940D01*
X31695619Y-8136677D01*
X31603323Y-8044381D01*
X31538060Y-7931342D01*
X31504278Y-7805263D01*
X31504278Y-7674737D01*
X31538060Y-7548658D01*
X31603323Y-7435619D01*
X31695619Y-7343323D01*
X31808658Y-7278060D01*
X31934737Y-7244278D01*
X32065263Y-7244278D01*
X32191342Y-7278060D01*
G37*
G36*
X33461342Y-7278060D02*
G01*
X33574381Y-7343323D01*
X33666677Y-7435619D01*
X33731940Y-7548658D01*
X33765722Y-7674737D01*
X33765722Y-7805263D01*
X33731940Y-7931342D01*
X33666677Y-8044381D01*
X33574381Y-8136677D01*
X33461342Y-8201940D01*
X33335263Y-8235722D01*
X33204737Y-8235722D01*
X33078658Y-8201940D01*
X32965619Y-8136677D01*
X32873323Y-8044381D01*
X32808060Y-7931342D01*
X32774278Y-7805263D01*
X32774278Y-7674737D01*
X32808060Y-7548658D01*
X32873323Y-7435619D01*
X32965619Y-7343323D01*
X33078658Y-7278060D01*
X33204737Y-7244278D01*
X33335263Y-7244278D01*
X33461342Y-7278060D01*
G37*
G36*
X67046742Y-5926601D02*
G01*
X67200687Y-5990367D01*
X67339234Y-6082941D01*
X67457059Y-6200766D01*
X67549633Y-6339313D01*
X67613399Y-6493258D01*
X67645907Y-6656685D01*
X67645907Y-6823315D01*
X67613399Y-6986742D01*
X67549633Y-7140687D01*
X67457059Y-7279234D01*
X67339234Y-7397059D01*
X67200687Y-7489633D01*
X67046742Y-7553399D01*
X66883315Y-7585907D01*
X66716685Y-7585907D01*
X66553258Y-7553399D01*
X66399313Y-7489633D01*
X66260766Y-7397059D01*
X66142941Y-7279234D01*
X66050367Y-7140687D01*
X65986601Y-6986742D01*
X65954093Y-6823315D01*
X65954093Y-6656685D01*
X65986601Y-6493258D01*
X66050367Y-6339313D01*
X66142941Y-6200766D01*
X66260766Y-6082941D01*
X66399313Y-5990367D01*
X66553258Y-5926601D01*
X66716685Y-5894093D01*
X66883315Y-5894093D01*
X67046742Y-5926601D01*
G37*
G36*
X96246742Y-5926601D02*
G01*
X96400687Y-5990367D01*
X96539234Y-6082941D01*
X96657059Y-6200766D01*
X96749633Y-6339313D01*
X96813399Y-6493258D01*
X96845907Y-6656685D01*
X96845907Y-6823315D01*
X96813399Y-6986742D01*
X96749633Y-7140687D01*
X96657059Y-7279234D01*
X96539234Y-7397059D01*
X96400687Y-7489633D01*
X96246742Y-7553399D01*
X96083315Y-7585907D01*
X95916685Y-7585907D01*
X95753258Y-7553399D01*
X95599313Y-7489633D01*
X95460766Y-7397059D01*
X95342941Y-7279234D01*
X95250367Y-7140687D01*
X95186601Y-6986742D01*
X95154093Y-6823315D01*
X95154093Y-6656685D01*
X95186601Y-6493258D01*
X95250367Y-6339313D01*
X95342941Y-6200766D01*
X95460766Y-6082941D01*
X95599313Y-5990367D01*
X95753258Y-5926601D01*
X95916685Y-5894093D01*
X96083315Y-5894093D01*
X96246742Y-5926601D01*
G37*
G36*
X103246742Y-5926601D02*
G01*
X103400687Y-5990367D01*
X103539234Y-6082941D01*
X103657059Y-6200766D01*
X103749633Y-6339313D01*
X103813399Y-6493258D01*
X103845907Y-6656685D01*
X103845907Y-6823315D01*
X103813399Y-6986742D01*
X103749633Y-7140687D01*
X103657059Y-7279234D01*
X103539234Y-7397059D01*
X103400687Y-7489633D01*
X103246742Y-7553399D01*
X103083315Y-7585907D01*
X102916685Y-7585907D01*
X102753258Y-7553399D01*
X102599313Y-7489633D01*
X102460766Y-7397059D01*
X102342941Y-7279234D01*
X102250367Y-7140687D01*
X102186601Y-6986742D01*
X102154093Y-6823315D01*
X102154093Y-6656685D01*
X102186601Y-6493258D01*
X102250367Y-6339313D01*
X102342941Y-6200766D01*
X102460766Y-6082941D01*
X102599313Y-5990367D01*
X102753258Y-5926601D01*
X102916685Y-5894093D01*
X103083315Y-5894093D01*
X103246742Y-5926601D01*
G37*
G36*
X32191342Y-6008060D02*
G01*
X32304381Y-6073323D01*
X32396677Y-6165619D01*
X32461940Y-6278658D01*
X32495722Y-6404737D01*
X32495722Y-6535263D01*
X32461940Y-6661342D01*
X32396677Y-6774381D01*
X32304381Y-6866677D01*
X32191342Y-6931940D01*
X32065263Y-6965722D01*
X31934737Y-6965722D01*
X31808658Y-6931940D01*
X31695619Y-6866677D01*
X31603323Y-6774381D01*
X31538060Y-6661342D01*
X31504278Y-6535263D01*
X31504278Y-6404737D01*
X31538060Y-6278658D01*
X31603323Y-6165619D01*
X31695619Y-6073323D01*
X31808658Y-6008060D01*
X31934737Y-5974278D01*
X32065263Y-5974278D01*
X32191342Y-6008060D01*
G37*
G36*
X33461342Y-6008060D02*
G01*
X33574381Y-6073323D01*
X33666677Y-6165619D01*
X33731940Y-6278658D01*
X33765722Y-6404737D01*
X33765722Y-6535263D01*
X33731940Y-6661342D01*
X33666677Y-6774381D01*
X33574381Y-6866677D01*
X33461342Y-6931940D01*
X33335263Y-6965722D01*
X33204737Y-6965722D01*
X33078658Y-6931940D01*
X32965619Y-6866677D01*
X32873323Y-6774381D01*
X32808060Y-6661342D01*
X32774278Y-6535263D01*
X32774278Y-6404737D01*
X32808060Y-6278658D01*
X32873323Y-6165619D01*
X32965619Y-6073323D01*
X33078658Y-6008060D01*
X33204737Y-5974278D01*
X33335263Y-5974278D01*
X33461342Y-6008060D01*
G37*
G36*
X32500000Y-5700000D02*
G01*
X31500000Y-5700000D01*
X31500000Y-4700000D01*
X32500000Y-4700000D01*
X32500000Y-5700000D01*
G37*
G36*
X33461342Y-4738060D02*
G01*
X33574381Y-4803323D01*
X33666677Y-4895619D01*
X33731940Y-5008658D01*
X33765722Y-5134737D01*
X33765722Y-5265263D01*
X33731940Y-5391342D01*
X33666677Y-5504381D01*
X33574381Y-5596677D01*
X33461342Y-5661940D01*
X33335263Y-5695722D01*
X33204737Y-5695722D01*
X33078658Y-5661940D01*
X32965619Y-5596677D01*
X32873323Y-5504381D01*
X32808060Y-5391342D01*
X32774278Y-5265263D01*
X32774278Y-5134737D01*
X32808060Y-5008658D01*
X32873323Y-4895619D01*
X32965619Y-4803323D01*
X33078658Y-4738060D01*
X33204737Y-4704278D01*
X33335263Y-4704278D01*
X33461342Y-4738060D01*
G37*
G36*
X44850000Y-5050000D02*
G01*
X43150000Y-5050000D01*
X43150000Y-3350000D01*
X44850000Y-3350000D01*
X44850000Y-5050000D01*
G37*
G36*
X56850000Y-5050000D02*
G01*
X55150000Y-5050000D01*
X55150000Y-3350000D01*
X56850000Y-3350000D01*
X56850000Y-5050000D01*
G37*
G36*
X67650000Y-5050000D02*
G01*
X65950000Y-5050000D01*
X65950000Y-3350000D01*
X67650000Y-3350000D01*
X67650000Y-5050000D01*
G37*
G36*
X80850000Y-5050000D02*
G01*
X79150000Y-5050000D01*
X79150000Y-3350000D01*
X80850000Y-3350000D01*
X80850000Y-5050000D01*
G37*
G36*
X96850000Y-5050000D02*
G01*
X95150000Y-5050000D01*
X95150000Y-3350000D01*
X96850000Y-3350000D01*
X96850000Y-5050000D01*
G37*
G36*
X103850000Y-5050000D02*
G01*
X102150000Y-5050000D01*
X102150000Y-3350000D01*
X103850000Y-3350000D01*
X103850000Y-5050000D01*
G37*
G36*
X46786742Y-3386601D02*
G01*
X46940687Y-3450367D01*
X47079234Y-3542941D01*
X47197059Y-3660766D01*
X47289633Y-3799313D01*
X47353399Y-3953258D01*
X47385907Y-4116685D01*
X47385907Y-4283315D01*
X47353399Y-4446742D01*
X47289633Y-4600687D01*
X47197059Y-4739234D01*
X47079234Y-4857059D01*
X46940687Y-4949633D01*
X46786742Y-5013399D01*
X46623315Y-5045907D01*
X46456685Y-5045907D01*
X46293258Y-5013399D01*
X46139313Y-4949633D01*
X46000766Y-4857059D01*
X45882941Y-4739234D01*
X45790367Y-4600687D01*
X45726601Y-4446742D01*
X45694093Y-4283315D01*
X45694093Y-4116685D01*
X45726601Y-3953258D01*
X45790367Y-3799313D01*
X45882941Y-3660766D01*
X46000766Y-3542941D01*
X46139313Y-3450367D01*
X46293258Y-3386601D01*
X46456685Y-3354093D01*
X46623315Y-3354093D01*
X46786742Y-3386601D01*
G37*
G36*
X49326742Y-3386601D02*
G01*
X49480687Y-3450367D01*
X49619234Y-3542941D01*
X49737059Y-3660766D01*
X49829633Y-3799313D01*
X49893399Y-3953258D01*
X49925907Y-4116685D01*
X49925907Y-4283315D01*
X49893399Y-4446742D01*
X49829633Y-4600687D01*
X49737059Y-4739234D01*
X49619234Y-4857059D01*
X49480687Y-4949633D01*
X49326742Y-5013399D01*
X49163315Y-5045907D01*
X48996685Y-5045907D01*
X48833258Y-5013399D01*
X48679313Y-4949633D01*
X48540766Y-4857059D01*
X48422941Y-4739234D01*
X48330367Y-4600687D01*
X48266601Y-4446742D01*
X48234093Y-4283315D01*
X48234093Y-4116685D01*
X48266601Y-3953258D01*
X48330367Y-3799313D01*
X48422941Y-3660766D01*
X48540766Y-3542941D01*
X48679313Y-3450367D01*
X48833258Y-3386601D01*
X48996685Y-3354093D01*
X49163315Y-3354093D01*
X49326742Y-3386601D01*
G37*
G36*
X58786742Y-3386601D02*
G01*
X58940687Y-3450367D01*
X59079234Y-3542941D01*
X59197059Y-3660766D01*
X59289633Y-3799313D01*
X59353399Y-3953258D01*
X59385907Y-4116685D01*
X59385907Y-4283315D01*
X59353399Y-4446742D01*
X59289633Y-4600687D01*
X59197059Y-4739234D01*
X59079234Y-4857059D01*
X58940687Y-4949633D01*
X58786742Y-5013399D01*
X58623315Y-5045907D01*
X58456685Y-5045907D01*
X58293258Y-5013399D01*
X58139313Y-4949633D01*
X58000766Y-4857059D01*
X57882941Y-4739234D01*
X57790367Y-4600687D01*
X57726601Y-4446742D01*
X57694093Y-4283315D01*
X57694093Y-4116685D01*
X57726601Y-3953258D01*
X57790367Y-3799313D01*
X57882941Y-3660766D01*
X58000766Y-3542941D01*
X58139313Y-3450367D01*
X58293258Y-3386601D01*
X58456685Y-3354093D01*
X58623315Y-3354093D01*
X58786742Y-3386601D01*
G37*
G36*
X61326742Y-3386601D02*
G01*
X61480687Y-3450367D01*
X61619234Y-3542941D01*
X61737059Y-3660766D01*
X61829633Y-3799313D01*
X61893399Y-3953258D01*
X61925907Y-4116685D01*
X61925907Y-4283315D01*
X61893399Y-4446742D01*
X61829633Y-4600687D01*
X61737059Y-4739234D01*
X61619234Y-4857059D01*
X61480687Y-4949633D01*
X61326742Y-5013399D01*
X61163315Y-5045907D01*
X60996685Y-5045907D01*
X60833258Y-5013399D01*
X60679313Y-4949633D01*
X60540766Y-4857059D01*
X60422941Y-4739234D01*
X60330367Y-4600687D01*
X60266601Y-4446742D01*
X60234093Y-4283315D01*
X60234093Y-4116685D01*
X60266601Y-3953258D01*
X60330367Y-3799313D01*
X60422941Y-3660766D01*
X60540766Y-3542941D01*
X60679313Y-3450367D01*
X60833258Y-3386601D01*
X60996685Y-3354093D01*
X61163315Y-3354093D01*
X61326742Y-3386601D01*
G37*
G36*
X82786742Y-3386601D02*
G01*
X82940687Y-3450367D01*
X83079234Y-3542941D01*
X83197059Y-3660766D01*
X83289633Y-3799313D01*
X83353399Y-3953258D01*
X83385907Y-4116685D01*
X83385907Y-4283315D01*
X83353399Y-4446742D01*
X83289633Y-4600687D01*
X83197059Y-4739234D01*
X83079234Y-4857059D01*
X82940687Y-4949633D01*
X82786742Y-5013399D01*
X82623315Y-5045907D01*
X82456685Y-5045907D01*
X82293258Y-5013399D01*
X82139313Y-4949633D01*
X82000766Y-4857059D01*
X81882941Y-4739234D01*
X81790367Y-4600687D01*
X81726601Y-4446742D01*
X81694093Y-4283315D01*
X81694093Y-4116685D01*
X81726601Y-3953258D01*
X81790367Y-3799313D01*
X81882941Y-3660766D01*
X82000766Y-3542941D01*
X82139313Y-3450367D01*
X82293258Y-3386601D01*
X82456685Y-3354093D01*
X82623315Y-3354093D01*
X82786742Y-3386601D01*
G37*
G36*
X85326742Y-3386601D02*
G01*
X85480687Y-3450367D01*
X85619234Y-3542941D01*
X85737059Y-3660766D01*
X85829633Y-3799313D01*
X85893399Y-3953258D01*
X85925907Y-4116685D01*
X85925907Y-4283315D01*
X85893399Y-4446742D01*
X85829633Y-4600687D01*
X85737059Y-4739234D01*
X85619234Y-4857059D01*
X85480687Y-4949633D01*
X85326742Y-5013399D01*
X85163315Y-5045907D01*
X84996685Y-5045907D01*
X84833258Y-5013399D01*
X84679313Y-4949633D01*
X84540766Y-4857059D01*
X84422941Y-4739234D01*
X84330367Y-4600687D01*
X84266601Y-4446742D01*
X84234093Y-4283315D01*
X84234093Y-4116685D01*
X84266601Y-3953258D01*
X84330367Y-3799313D01*
X84422941Y-3660766D01*
X84540766Y-3542941D01*
X84679313Y-3450367D01*
X84833258Y-3386601D01*
X84996685Y-3354093D01*
X85163315Y-3354093D01*
X85326742Y-3386601D01*
G37*
M02*
