M48
; DRILL file {KiCad 9.0.7} date 2026-08-24T00:05:45+0530
; FORMAT={-:-/ absolute / metric / decimal}
; #@! TF.CreationDate,2026-08-24T00:05:45+05:30
; #@! TF.GenerationSoftware,Kicad,Pcbnew,9.0.7
; #@! TF.FileFunction,MixedPlating,1,4
FMAT,2
METRIC
; #@! TA.AperFunction,Plated,PTH,ViaDrill
T1C0.127
; #@! TA.AperFunction,Plated,PTH,ViaDrill
T2C0.150
; #@! TA.AperFunction,Plated,PTH,ViaDrill
T3C0.150
; #@! TA.AperFunction,Plated,PTH,ViaDrill
T4C0.250
; #@! TA.AperFunction,Plated,PTH,ViaDrill
T5C0.300
; #@! TA.AperFunction,Plated,PTH,ComponentDrill
T6C0.300
; #@! TA.AperFunction,Plated,PTH,ComponentDrill
T7C0.600
; #@! TA.AperFunction,Plated,PTH,ComponentDrill
T8C0.650
; #@! TA.AperFunction,Plated,PTH,ComponentDrill
T9C1.000
; #@! TA.AperFunction,Plated,PTH,ComponentDrill
T10C1.300
; #@! TA.AperFunction,Plated,PTH,ComponentDrill
T11C1.500
; #@! TA.AperFunction,Plated,PTH,ComponentDrill
T12C1.700
; #@! TA.AperFunction,NonPlated,NPTH,ComponentDrill
T13C0.650
%
G90
G05
T1
X0.723Y-1.115
X1.0Y-1.3
X1.0Y-1.3
X1.075Y-1.575
X1.277Y-1.115
X1.277Y-1.115
X9.822Y-18.18
X11.909Y-37.289
X12.925Y-37.616
X14.222Y-36.913
X14.354Y-48.611
X14.704Y-56.261
X15.0Y-37.5
X15.578Y-91.577
X15.614Y-20.25
X16.12Y-21.964
X16.59Y-19.278
X16.716Y-55.869
X16.934Y-75.032
X16.972Y-19.82
X17.147Y-55.867
X17.251Y-39.084
X17.374Y-36.09
X17.65Y-22.086
X17.834Y-74.132
X18.057Y-22.089
X18.39Y-34.378
X18.637Y-73.428
X18.75Y-22.085
X18.863Y-73.7
X18.91Y-83.476
X19.122Y-31.713
X19.287Y-68.764
X19.395Y-81.823
X19.398Y-84.896
X19.411Y-67.75
X19.414Y-60.442
X19.433Y-66.25
X19.489Y-53.43
X19.525Y-62.087
X19.612Y-51.57
X19.682Y-82.917
X19.703Y-68.051
X19.723Y-14.58
X19.893Y-61.987
X20.366Y-55.881
X20.434Y-75.932
X20.534Y-78.632
X20.701Y-84.546
X20.722Y-22.86
X20.728Y-37.697
X21.051Y-48.181
X21.17Y-13.583
X21.624Y-13.913
X21.718Y-75.743
X21.75Y-49.39
X21.758Y-58.486
X21.871Y-51.293
X21.961Y-22.75
X21.962Y-67.651
X22.181Y-49.348
X22.35Y-51.337
X22.517Y-25.238
X22.604Y-58.061
X22.65Y-50.837
X22.786Y-25.0
X22.792Y-24.413
X23.088Y-33.135
X23.377Y-14.562
X23.377Y-33.486
X23.442Y-91.798
X23.546Y-73.065
X23.745Y-18.313
X23.783Y-21.099
X23.937Y-48.467
X23.987Y-64.75
X24.06Y-15.032
X24.086Y-20.25
X24.087Y-18.25
X24.088Y-18.75
X24.091Y-15.75
X24.103Y-19.25
X24.27Y-49.389
X24.334Y-77.132
X24.369Y-52.604
X24.434Y-81.332
X24.534Y-80.632
X24.726Y-72.051
X24.734Y-75.032
X24.922Y-15.413
X25.145Y-21.014
X25.266Y-18.542
X25.447Y-21.398
X25.525Y-45.064
X25.561Y-25.446
X25.65Y-68.862
X25.75Y-69.78
X25.759Y-14.723
X25.784Y-24.713
X25.885Y-45.425
X25.888Y-18.664
X25.905Y-21.0
X26.134Y-68.843
X26.175Y-13.542
X26.35Y-70.212
X26.5Y-51.487
X26.668Y-15.301
X26.693Y-18.634
X26.751Y-14.597
X26.884Y-43.437
X26.89Y-20.498
X26.896Y-21.413
X27.237Y-46.867
X27.306Y-38.317
X27.306Y-44.005
X27.393Y-15.551
X27.583Y-20.874
X27.679Y-36.01
X27.7Y-48.438
X27.75Y-69.369
X28.05Y-70.212
X28.42Y-85.364
X28.5Y-48.438
X28.521Y-75.04
X28.574Y-49.219
X28.661Y-96.859
X28.812Y-85.411
X29.09Y-37.648
X30.138Y-67.462
X30.424Y-39.543
X30.46Y-52.438
X30.51Y-51.652
X30.712Y-17.25
X30.75Y-48.537
X30.76Y-88.98
X30.9Y-66.312
X31.031Y-66.562
X31.246Y-36.086
X31.361Y-12.697
X31.476Y-66.093
X31.535Y-12.913
X31.74Y-30.61
X31.75Y-73.0
X31.75Y-94.238
X31.943Y-57.291
X31.978Y-48.557
X32.154Y-49.173
X32.196Y-27.913
X32.349Y-52.42
X32.45Y-74.912
X32.703Y-19.043
X32.75Y-71.662
X32.811Y-51.45
X33.011Y-51.65
X33.059Y-19.155
X33.124Y-51.289
X33.155Y-75.951
X33.25Y-72.062
X33.355Y-37.79
X33.487Y-32.221
X33.489Y-23.038
X33.726Y-70.251
X33.79Y-88.89
X33.806Y-48.862
X33.886Y-19.854
X33.983Y-37.71
X34.023Y-76.299
X34.062Y-52.021
X34.162Y-50.721
X34.33Y-48.824
X34.4Y-75.162
X34.488Y-34.643
X34.761Y-51.4
X34.762Y-52.021
X34.925Y-65.026
X34.974Y-51.683
X35.091Y-33.158
X35.253Y-48.554
X35.287Y-37.439
X35.3Y-74.263
X35.354Y-63.061
X35.559Y-37.167
X35.588Y-70.112
X35.673Y-74.249
X35.75Y-73.25
X36.032Y-35.827
X36.236Y-74.535
X36.331Y-87.04
X36.448Y-42.743
X36.802Y-49.239
X36.95Y-75.962
X37.322Y-33.575
X37.407Y-94.143
X37.845Y-53.971
X38.253Y-52.054
X38.268Y-35.85
X38.268Y-51.046
X38.352Y-52.339
X38.492Y-64.349
X38.51Y-60.189
X38.523Y-65.157
X38.654Y-66.311
X38.663Y-67.25
X39.142Y-73.757
X39.403Y-45.104
X39.403Y-46.104
X39.663Y-62.25
X39.81Y-50.749
X39.818Y-93.234
X39.826Y-35.566
X40.136Y-75.335
X40.193Y-51.069
X40.368Y-66.292
X40.615Y-67.954
X40.618Y-60.75
X40.737Y-65.574
X40.962Y-67.25
X41.05Y-74.662
X41.094Y-60.104
X41.162Y-55.821
X41.462Y-65.55
X41.502Y-46.439
X42.168Y-65.292
X42.334Y-59.25
X42.335Y-46.129
X42.361Y-30.086
X42.962Y-54.921
X42.979Y-59.602
X43.04Y-62.602
X43.13Y-35.966
X43.248Y-51.115
X43.484Y-46.017
X44.337Y-35.096
X44.352Y-48.239
X44.362Y-54.821
X44.473Y-38.169
X44.54Y-78.04
X44.896Y-92.594
X45.63Y-28.8
X46.152Y-32.213
X46.217Y-53.586
X46.35Y-95.222
X46.827Y-95.222
X47.427Y-31.766
X47.61Y-24.04
X47.622Y-28.81
X47.75Y-23.25
X47.75Y-92.826
X47.78Y-83.63
X48.106Y-32.269
X48.13Y-87.669
X48.156Y-34.869
X48.317Y-54.711
X48.75Y-16.032
X48.79Y-22.26
X49.011Y-29.448
X49.011Y-30.448
X49.088Y-43.064
X49.105Y-43.5
X49.106Y-36.769
X49.191Y-79.572
X49.321Y-14.49
X49.491Y-78.122
X49.668Y-90.85
X49.84Y-89.78
X49.855Y-53.954
X49.874Y-72.888
X50.012Y-16.725
X50.085Y-88.437
X50.128Y-53.651
X50.189Y-89.828
X50.19Y-30.7
X50.244Y-21.791
X50.296Y-45.413
X50.303Y-16.413
X50.322Y-38.556
X50.408Y-56.593
X50.622Y-37.06
X50.67Y-16.063
X50.86Y-21.1
X50.904Y-70.574
X50.973Y-68.022
X51.119Y-33.144
X51.25Y-52.75
X51.25Y-75.12
X51.26Y-88.29
X51.275Y-20.316
X51.364Y-81.73
X51.419Y-83.855
X51.475Y-22.966
X51.484Y-68.238
X51.52Y-29.413
X51.69Y-30.7
X51.719Y-29.205
X51.723Y-96.091
X51.806Y-37.208
X51.938Y-79.618
X51.994Y-30.704
X52.109Y-23.761
X52.188Y-10.682
X52.32Y-23.08
X52.338Y-82.518
X52.44Y-69.78
X52.461Y-30.598
X52.56Y-45.111
X52.56Y-83.036
X52.6Y-21.65
X52.631Y-28.743
X52.631Y-70.244
X52.636Y-86.6
X52.686Y-27.104
X52.743Y-24.725
X52.745Y-84.05
X52.823Y-18.343
X52.919Y-30.705
X52.984Y-13.913
X53.029Y-86.2
X53.198Y-21.948
X53.208Y-30.698
X53.292Y-23.402
X53.441Y-78.122
X53.543Y-22.23
X53.55Y-19.7
X53.597Y-23.265
X53.603Y-32.328
X53.658Y-80.874
X53.675Y-26.016
X53.711Y-31.948
X53.735Y-44.813
X53.769Y-16.743
X53.787Y-21.505
X53.803Y-7.313
X53.848Y-27.686
X53.98Y-90.51
X54.098Y-45.098
X54.132Y-20.42
X54.14Y-18.56
X54.156Y-82.2
X54.158Y-80.374
X54.17Y-79.454
X54.19Y-84.339
X54.318Y-7.813
X54.331Y-19.772
X54.44Y-24.842
X54.475Y-23.466
X54.484Y-22.715
X54.509Y-19.095
X54.535Y-44.014
X54.575Y-19.966
X54.586Y-72.354
X54.598Y-44.648
X54.603Y-81.263
X54.603Y-19.662
X54.737Y-88.138
X54.745Y-65.114
X54.76Y-85.836
X54.81Y-79.845
X54.81Y-15.813
X54.841Y-21.573
X55.0Y-19.587
X55.075Y-62.586
X55.096Y-45.213
X55.279Y-33.849
X55.309Y-87.0
X55.312Y-85.367
X55.317Y-84.2
X55.348Y-43.852
X55.387Y-83.0
X55.558Y-32.073
X55.585Y-23.095
X55.592Y-23.548
X55.598Y-80.148
X55.703Y-33.128
X55.86Y-21.306
X55.898Y-21.648
X55.903Y-16.977
X55.922Y-26.41
X55.954Y-80.236
X55.998Y-23.003
X56.027Y-25.991
X56.059Y-24.94
X56.075Y-46.082
X56.103Y-17.177
X56.242Y-15.731
X56.315Y-22.161
X56.42Y-51.777
X56.488Y-26.988
X56.488Y-34.725
X56.548Y-91.598
X56.6Y-80.171
X56.627Y-63.544
X56.64Y-22.308
X56.711Y-46.565
X56.78Y-18.48
X56.795Y-26.593
X56.803Y-17.262
X56.85Y-20.95
X56.852Y-23.002
X56.868Y-23.368
X56.962Y-1.325
X57.0Y-4.85
X57.0Y-90.689
X57.02Y-1.013
X57.094Y-17.084
X57.1Y-25.413
X57.151Y-63.996
X57.344Y-33.554
X57.462Y-29.125
X57.469Y-35.264
X57.479Y-30.701
X57.486Y-28.254
X57.571Y-68.655
X57.762Y-30.675
X57.789Y-23.019
X57.95Y-17.8
X58.04Y-30.713
X58.1Y-22.15
X58.194Y-16.684
X58.2Y-90.686
X58.303Y-19.227
X58.33Y-30.683
X58.35Y-22.3
X58.498Y-15.988
X58.585Y-90.682
X58.68Y-29.05
X58.696Y-38.034
X59.0Y-60.211
X59.0Y-90.676
X59.042Y-13.131
X59.071Y-59.696
X59.128Y-15.19
X59.15Y-23.9
X59.318Y-28.772
X59.324Y-76.551
X59.461Y-31.648
X59.49Y-15.64
X59.536Y-30.704
X59.691Y-77.222
X59.726Y-25.226
X59.78Y-24.73
X59.893Y-89.522
X59.904Y-14.592
X59.986Y-46.807
X60.011Y-28.898
X60.043Y-81.322
X60.098Y-14.888
X60.14Y-13.59
X60.262Y-61.502
X60.489Y-22.494
X60.568Y-91.168
X60.696Y-39.134
X60.821Y-41.849
X60.88Y-27.637
X60.89Y-13.59
X60.898Y-14.888
X61.0Y-90.674
X61.092Y-25.25
X61.093Y-35.695
X61.096Y-24.325
X61.25Y-94.8
X61.339Y-58.926
X61.35Y-27.713
X61.4Y-90.675
X61.532Y-23.972
X61.6Y-53.2
X61.717Y-42.79
X61.805Y-44.9
X61.86Y-59.704
X61.888Y-33.968
X61.904Y-22.907
X61.935Y-49.113
X61.951Y-33.486
X61.98Y-79.83
X62.0Y-52.55
X62.17Y-80.754
X62.25Y-94.8
X62.27Y-78.73
X62.27Y-81.02
X62.322Y-58.619
X62.33Y-27.58
X62.388Y-44.264
X62.44Y-21.39
X62.478Y-79.85
X62.5Y-29.113
X62.568Y-33.762
X62.64Y-24.89
X62.68Y-80.73
X62.741Y-75.722
X62.782Y-90.688
X62.878Y-79.15
X62.888Y-80.016
X63.0Y-91.815
X63.196Y-37.534
X63.2Y-26.9
X63.204Y-24.107
X63.491Y-26.65
X63.519Y-90.686
X63.531Y-39.831
X63.56Y-43.258
X63.56Y-49.533
X63.664Y-97.132
X63.726Y-86.809
X63.822Y-83.0
X63.909Y-51.455
X63.95Y-57.55
X64.0Y-38.363
X64.007Y-30.068
X64.058Y-28.73
X64.095Y-90.175
X64.168Y-86.268
X64.193Y-86.713
X64.23Y-70.646
X64.23Y-85.4
X64.265Y-48.312
X64.295Y-88.6
X64.546Y-86.6
X64.819Y-69.93
X64.844Y-12.4
X65.064Y-9.913
X65.142Y-30.931
X65.143Y-24.58
X65.176Y-90.524
X65.176Y-94.055
X65.314Y-69.269
X65.365Y-24.402
X65.67Y-85.72
X65.814Y-83.4
X65.816Y-87.0
X65.816Y-87.853
X65.958Y-25.23
X65.996Y-27.234
X66.444Y-47.429
X66.516Y-89.4
X66.643Y-70.351
X66.662Y-71.352
X66.796Y-30.634
X66.942Y-29.731
X66.97Y-79.03
X67.028Y-84.044
X67.38Y-83.115
X67.668Y-30.035
X67.741Y-78.772
X67.747Y-80.348
X67.947Y-79.116
X68.167Y-39.967
X68.5Y-30.6
X68.618Y-23.885
X68.853Y-31.177
X68.875Y-34.742
X69.259Y-34.83
X69.496Y-53.313
X69.742Y-22.131
X69.864Y-19.164
X70.066Y-15.166
X70.644Y-13.0
X70.672Y-16.872
X70.767Y-40.267
X70.778Y-81.528
X71.017Y-86.75
X71.05Y-26.372
X71.072Y-20.272
X71.091Y-25.784
X71.168Y-17.831
X71.253Y-40.777
X71.308Y-31.739
X71.503Y-35.927
X71.534Y-25.222
X71.79Y-14.34
X71.923Y-26.111
X71.945Y-69.213
X72.027Y-39.029
X72.088Y-42.664
X72.098Y-14.588
X72.164Y-19.164
X72.17Y-45.576
X72.243Y-26.807
X72.534Y-30.122
X72.553Y-25.127
X72.703Y-23.727
X72.75Y-25.75
X72.872Y-24.072
X73.065Y-45.134
X73.265Y-44.839
X73.327Y-44.129
X73.348Y-26.87
X73.423Y-24.711
X73.465Y-25.102
X73.702Y-28.394
X73.703Y-26.387
X73.703Y-25.424
X73.708Y-29.432
X74.098Y-45.29
X74.212Y-44.012
X74.618Y-8.813
X74.841Y-8.513
X74.846Y-23.813
X74.905Y-48.6
X74.966Y-44.466
X75.144Y-24.1
X75.244Y-14.3
X75.244Y-20.6
X75.247Y-44.745
X75.357Y-38.688
X75.527Y-38.448
X75.718Y-25.213
X76.072Y-37.172
X76.225Y-23.011
X76.227Y-29.901
X76.391Y-37.684
X76.524Y-33.296
X76.611Y-32.809
X76.978Y-33.087
X77.041Y-21.913
X77.296Y-53.713
X77.344Y-33.5
X77.461Y-70.646
X77.491Y-42.084
X77.54Y-16.59
X77.567Y-42.967
X77.598Y-14.888
X77.649Y-35.176
X77.721Y-44.72
X77.767Y-59.23
X77.844Y-41.8
X78.116Y-54.896
X78.294Y-9.584
X78.342Y-30.716
X78.436Y-57.585
X78.72Y-58.639
X78.786Y-32.803
X78.824Y-44.174
X79.197Y-76.191
X79.561Y-32.797
X79.678Y-30.692
X80.053Y-62.177
X80.053Y-66.227
X80.063Y-32.802
X80.188Y-39.764
X80.513Y-30.612
X81.209Y-75.314
X81.244Y-69.93
X81.478Y-33.578
X81.484Y-55.9
X81.491Y-30.435
X81.546Y-70.351
X81.627Y-26.512
X81.641Y-10.114
X81.854Y-29.662
X81.949Y-57.921
X81.959Y-71.352
X82.018Y-14.913
X82.043Y-30.028
X82.127Y-29.384
X82.129Y-27.787
X82.136Y-28.877
X82.141Y-26.849
X82.341Y-12.013
X82.341Y-13.913
X82.446Y-37.213
X82.618Y-31.913
X82.644Y-24.969
X82.918Y-38.668
X83.09Y-25.39
X83.235Y-56.615
X83.878Y-39.478
X84.043Y-26.294
X84.39Y-23.24
X84.397Y-55.15
X84.651Y-54.536
X84.845Y-25.301
X85.218Y-20.113
X85.232Y-72.706
X85.418Y-25.413
X85.418Y-30.213
X85.453Y-88.377
X85.469Y-57.72
X85.598Y-20.988
X86.1Y-55.521
X86.547Y-54.484
X87.296Y-60.413
X87.887Y-56.413
X88.724Y-60.374
X88.864Y-17.614
X89.259Y-48.696
X89.418Y-35.068
X89.615Y-18.77
X90.0Y-54.25
X90.225Y-25.912
X90.676Y-20.313
X91.012Y-56.48
X91.141Y-56.041
X91.28Y-60.864
X91.503Y-60.149
X91.79Y-59.461
X91.794Y-89.665
X91.794Y-92.212
X92.529Y-37.56
X92.803Y-37.804
X92.868Y-13.131
X96.864Y-91.937
X97.114Y-38.214
X97.212Y-81.953
X97.268Y-17.431
X98.069Y-43.631
X98.376Y-16.413
X100.78Y-79.116
T2
X0.775Y-0.775
X1.0Y-1.0
X1.3Y-0.8
X1.389Y-1.389
X1.389Y-1.389
X1.55Y-1.0
X1.55Y-1.0
X1.725Y-1.275
X1.775Y-0.725
X1.9Y-1.0
X2.1Y-0.7
X2.1Y-1.25
X2.225Y-0.975
X2.55Y-1.0
X6.47Y-36.9
X8.401Y-75.504
X10.07Y-36.9
X10.07Y-39.6
X10.558Y-67.698
X10.653Y-46.727
X10.653Y-48.727
X11.053Y-50.727
X11.553Y-51.927
X11.653Y-54.827
X12.237Y-39.885
X12.353Y-55.427
X12.586Y-59.67
X12.586Y-60.67
X12.65Y-18.062
X12.686Y-53.87
X12.753Y-54.227
X12.77Y-50.239
X13.049Y-13.778
X13.049Y-18.028
X13.23Y-50.453
X13.281Y-67.979
X13.286Y-60.47
X13.452Y-48.917
X14.197Y-55.673
X14.253Y-52.627
X14.328Y-53.31
X14.422Y-63.263
X14.625Y-71.293
X14.635Y-55.011
X14.825Y-67.394
X14.85Y-21.863
X14.85Y-22.762
X15.625Y-66.593
X15.734Y-12.856
X15.954Y-47.699
X15.986Y-59.07
X16.151Y-57.961
X16.325Y-49.813
X16.534Y-12.856
X16.611Y-64.727
X16.634Y-14.456
X16.635Y-55.411
X16.644Y-68.264
X16.806Y-14.847
X16.827Y-64.362
X16.979Y-22.091
X17.05Y-21.438
X17.17Y-60.25
X17.306Y-15.297
X17.634Y-14.656
X17.763Y-24.067
X17.953Y-47.627
X17.986Y-55.67
X18.307Y-83.317
X18.307Y-85.117
X18.65Y-14.462
X18.737Y-10.305
X18.945Y-87.538
X19.046Y-12.087
X19.061Y-64.192
X19.137Y-60.15
X19.248Y-14.361
X19.25Y-13.855
X19.253Y-48.227
X19.268Y-63.136
X19.345Y-59.75
X19.62Y-24.666
X20.219Y-11.723
X20.466Y-78.22
X20.627Y-61.912
X20.65Y-13.362
X21.34Y-11.334
X21.709Y-46.91
X21.737Y-57.55
X21.75Y-21.337
X21.794Y-77.206
X21.958Y-11.098
X22.028Y-45.838
X22.094Y-70.606
X22.192Y-43.95
X22.25Y-11.962
X22.266Y-71.878
X22.279Y-82.174
X22.281Y-25.901
X22.339Y-24.188
X22.346Y-42.432
X22.35Y-21.651
X22.403Y-90.903
X22.55Y-23.351
X22.57Y-82.5
X22.69Y-46.5
X22.75Y-51.337
X22.75Y-71.662
X22.858Y-76.825
X22.977Y-62.662
X23.186Y-71.537
X23.44Y-36.212
X23.79Y-48.2
X23.894Y-68.906
X23.955Y-78.172
X23.958Y-75.724
X24.094Y-80.606
X24.094Y-82.206
X24.148Y-16.16
X24.323Y-75.058
X24.358Y-14.298
X24.494Y-88.406
X24.558Y-76.424
X24.758Y-73.124
X24.858Y-75.424
X25.018Y-94.297
X25.15Y-23.363
X25.15Y-48.537
X25.176Y-74.188
X25.198Y-46.292
X25.505Y-78.172
X25.558Y-73.224
X25.782Y-44.05
X25.85Y-11.962
X25.85Y-15.851
X26.19Y-12.5
X26.194Y-87.306
X26.218Y-91.027
X26.225Y-75.345
X26.282Y-45.55
X26.317Y-35.892
X26.318Y-67.558
X26.466Y-75.578
X26.505Y-43.012
X26.586Y-47.104
X26.96Y-53.352
X26.968Y-67.408
X26.994Y-86.206
X27.276Y-74.088
X27.43Y-18.0
X27.505Y-44.412
X27.658Y-78.84
X27.678Y-45.903
X27.794Y-80.906
X27.845Y-40.878
X27.85Y-72.662
X27.878Y-42.603
X27.896Y-48.177
X28.005Y-41.512
X28.194Y-69.206
X28.25Y-20.651
X28.35Y-21.651
X28.646Y-53.777
X28.65Y-23.351
X28.778Y-41.703
X28.905Y-40.712
X29.403Y-90.903
X29.405Y-45.512
X29.442Y-93.608
X29.836Y-78.01
X30.169Y-55.7
X30.302Y-43.927
X30.36Y-51.352
X30.386Y-68.936
X30.386Y-70.136
X30.398Y-37.427
X30.599Y-45.615
X30.75Y-51.345
X30.878Y-41.603
X30.992Y-93.608
X31.01Y-47.102
X31.105Y-48.212
X31.238Y-75.227
X31.289Y-5.495
X31.395Y-69.346
X31.562Y-75.528
X31.597Y-90.097
X31.658Y-46.358
X31.668Y-64.291
X31.795Y-74.046
X32.138Y-74.027
X32.168Y-61.791
X32.168Y-62.491
X32.278Y-43.003
X32.358Y-47.058
X32.403Y-81.097
X32.962Y-48.592
X33.025Y-78.421
X33.168Y-75.591
X33.268Y-72.791
X33.31Y-45.552
X33.595Y-66.947
X33.78Y-36.9
X33.904Y-93.616
X34.1Y-75.181
X34.125Y-49.194
X34.446Y-54.327
X35.595Y-69.447
X35.616Y-87.666
X36.016Y-91.266
X36.25Y-69.975
X36.378Y-44.003
X36.496Y-54.027
X36.569Y-55.7
X36.656Y-73.255
X36.671Y-77.49
X36.868Y-75.391
X37.333Y-82.827
X38.37Y-52.75
X38.88Y-82.113
X39.294Y-41.637
X39.5Y-69.9
X40.116Y-57.304
X40.67Y-52.75
X40.748Y-62.286
X40.963Y-74.38
X41.17Y-55.05
X41.186Y-64.636
X41.35Y-56.75
X41.38Y-83.213
X41.568Y-57.191
X41.954Y-68.791
X42.148Y-79.548
X42.189Y-71.173
X42.294Y-41.237
X42.333Y-68.829
X42.748Y-64.386
X42.82Y-96.08
X42.948Y-76.448
X42.98Y-79.813
X43.166Y-65.304
X43.189Y-72.373
X43.31Y-76.41
X43.341Y-44.912
X43.469Y-55.2
X43.826Y-63.17
X43.849Y-53.247
X44.031Y-54.481
X44.133Y-72.973
X44.175Y-59.575
X44.391Y-50.979
X44.429Y-57.273
X44.648Y-80.048
X44.792Y-63.154
X44.802Y-40.37
X44.969Y-72.4
X44.98Y-83.213
X45.161Y-63.007
X45.226Y-65.171
X45.394Y-47.952
X45.5Y-85.5
X45.961Y-64.707
X45.971Y-56.409
X45.98Y-61.113
X45.98Y-64.313
X46.0Y-87.4
X46.17Y-59.309
X46.248Y-51.047
X46.31Y-75.81
X46.349Y-55.847
X46.925Y-57.146
X47.196Y-59.4
X47.349Y-49.247
X47.469Y-59.7
X47.48Y-83.213
X47.569Y-70.5
X47.61Y-90.1
X47.625Y-54.346
X47.636Y-73.9
X47.75Y-5.5
X47.803Y-62.498
X47.906Y-31.519
X48.01Y-91.8
X48.456Y-26.669
X48.5Y-16.422
X48.81Y-85.4
X48.81Y-87.0
X48.82Y-95.18
X48.935Y-23.032
X48.935Y-25.535
X48.98Y-64.313
X49.036Y-72.2
X49.331Y-27.4
X49.399Y-80.17
X49.47Y-79.31
X49.481Y-25.825
X49.751Y-85.093
X49.79Y-91.85
X50.1Y-14.122
X50.128Y-93.82
X50.49Y-92.55
X50.558Y-25.23
X50.651Y-80.492
X50.678Y-22.848
X50.898Y-74.398
X50.983Y-86.282
X51.013Y-79.265
X51.104Y-28.752
X51.188Y-24.58
X51.225Y-55.046
X51.34Y-29.134
X51.397Y-86.716
X51.42Y-16.929
X51.581Y-65.513
X51.598Y-72.398
X51.628Y-21.799
X51.764Y-81.346
X51.779Y-25.242
X51.788Y-20.854
X51.831Y-17.05
X51.849Y-23.516
X51.965Y-83.846
X51.997Y-24.875
X51.998Y-20.614
X52.025Y-77.346
X52.078Y-88.151
X52.111Y-16.108
X52.325Y-75.846
X52.357Y-85.284
X52.38Y-64.813
X52.394Y-89.602
X52.564Y-81.346
X52.688Y-76.135
X52.802Y-90.042
X52.878Y-86.951
X52.898Y-22.264
X52.9Y-13.125
X52.931Y-15.1
X52.955Y-29.489
X53.11Y-92.866
X53.181Y-20.466
X53.337Y-71.495
X53.438Y-80.505
X53.751Y-79.789
X53.762Y-82.778
X53.762Y-90.042
X53.82Y-23.627
X53.914Y-92.252
X53.95Y-84.05
X54.105Y-78.726
X54.15Y-16.0
X54.231Y-15.25
X54.298Y-71.798
X54.364Y-83.846
X54.507Y-26.198
X55.0Y-65.75
X55.3Y-67.45
X55.394Y-86.402
X55.4Y-53.6
X55.579Y-33.842
X55.674Y-31.724
X55.798Y-80.698
X55.955Y-28.389
X56.013Y-18.072
X56.094Y-28.114
X56.1Y-68.25
X56.153Y-18.359
X56.171Y-93.812
X56.2Y-96.091
X56.5Y-69.1
X56.51Y-14.022
X56.584Y-16.02
X56.685Y-61.782
X56.75Y-23.8
X56.75Y-25.75
X56.786Y-21.602
X56.934Y-16.02
X57.0Y-4.525
X57.028Y-23.948
X57.07Y-93.664
X57.103Y-21.109
X57.106Y-22.656
X57.215Y-15.621
X57.238Y-22.38
X57.244Y-25.764
X57.361Y-15.908
X57.4Y-91.25
X57.519Y-31.741
X57.534Y-17.37
X57.65Y-79.25
X57.688Y-93.901
X57.726Y-21.226
X57.907Y-16.417
X57.915Y-15.021
X58.062Y-76.495
X58.202Y-11.3
X58.202Y-95.462
X58.28Y-71.813
X58.28Y-79.313
X58.28Y-82.013
X58.313Y-18.172
X58.5Y-59.7
X58.585Y-60.882
X58.6Y-64.25
X58.6Y-81.55
X58.65Y-54.0
X58.654Y-23.204
X58.685Y-89.682
X58.757Y-23.748
X58.8Y-58.6
X58.9Y-58.8
X58.972Y-27.654
X59.0Y-50.8
X59.024Y-33.774
X59.1Y-56.6
X59.11Y-95.0
X59.242Y-21.842
X59.279Y-32.042
X59.3Y-81.85
X59.4Y-67.7
X59.4Y-80.75
X59.4Y-91.45
X59.405Y-78.826
X59.457Y-61.407
X59.55Y-62.55
X59.55Y-64.2
X59.598Y-95.075
X59.6Y-56.0
X59.6Y-69.2
X59.6Y-70.8
X59.61Y-96.066
X59.618Y-20.487
X59.622Y-28.754
X59.731Y-21.316
X59.734Y-21.734
X59.862Y-79.365
X59.9Y-57.0
X59.912Y-93.618
X60.0Y-62.25
X60.037Y-78.665
X60.124Y-19.039
X60.15Y-26.775
X60.2Y-31.575
X60.3Y-23.025
X60.362Y-78.935
X60.368Y-21.837
X60.5Y-57.0
X60.5Y-61.3
X60.506Y-28.906
X60.51Y-97.7
X60.68Y-79.613
X60.69Y-81.65
X60.706Y-31.556
X61.074Y-19.239
X61.292Y-29.292
X61.448Y-21.423
X61.59Y-81.35
X61.68Y-78.813
X61.71Y-96.1
X61.75Y-95.15
X61.95Y-53.85
X62.024Y-30.094
X62.05Y-79.05
X62.168Y-30.568
X62.2Y-70.7
X62.2Y-77.1
X62.21Y-96.1
X62.225Y-92.018
X62.25Y-68.55
X62.267Y-94.123
X62.3Y-52.5
X62.3Y-56.6
X62.55Y-69.0
X62.63Y-82.38
X62.639Y-89.339
X62.668Y-30.068
X62.75Y-95.15
X62.765Y-69.365
X63.1Y-73.0
X63.125Y-93.568
X63.4Y-73.0
X63.435Y-93.812
X63.484Y-27.484
X63.5Y-60.8
X63.598Y-15.323
X63.6Y-53.1
X63.839Y-93.639
X63.845Y-9.457
X63.9Y-61.3
X64.2Y-56.7
X64.248Y-89.498
X64.334Y-93.664
X64.385Y-87.582
X64.4Y-54.4
X64.5Y-66.7
X64.65Y-61.2
X64.7Y-57.15
X64.7Y-67.0
X64.795Y-9.157
X64.8Y-63.9
X64.815Y-95.132
X65.142Y-26.198
X65.2Y-59.3
X65.348Y-91.198
X65.55Y-57.45
X65.6Y-58.0
X65.673Y-91.255
X65.7Y-61.05
X65.7Y-64.65
X65.87Y-86.2
X65.93Y-86.58
X66.102Y-62.087
X66.242Y-88.839
X66.641Y-24.035
X66.9Y-54.7
X66.984Y-86.222
X67.034Y-85.872
X67.15Y-61.1
X67.298Y-79.242
X67.3Y-54.8
X67.62Y-21.6
X67.709Y-55.784
X68.1Y-20.8
X68.134Y-87.772
X68.141Y-24.035
X68.15Y-39.0
X68.159Y-93.679
X68.191Y-21.25
X68.209Y-15.102
X68.244Y-91.21
X68.5Y-86.6
X68.668Y-88.472
X68.7Y-72.3
X68.859Y-15.052
X68.868Y-82.368
X68.909Y-56.884
X69.0Y-68.4
X69.06Y-86.0
X69.3Y-69.15
X69.374Y-90.8
X69.498Y-80.042
X69.62Y-16.6
X70.5Y-72.3
X70.583Y-80.041
X70.65Y-39.0
X70.8Y-54.7
X70.991Y-21.25
X71.2Y-72.3
X71.5Y-60.9
X71.599Y-37.642
X71.671Y-82.301
X71.8Y-75.2
X71.965Y-10.577
X71.979Y-88.492
X72.0Y-65.0
X72.15Y-26.4
X72.246Y-37.135
X72.677Y-21.222
X72.695Y-85.25
X73.0Y-61.0
X73.477Y-23.122
X73.666Y-37.851
X73.677Y-30.622
X73.691Y-34.3
X74.091Y-22.3
X74.335Y-87.438
X74.386Y-35.876
X74.55Y-46.33
X74.677Y-12.222
X74.8Y-95.215
X74.879Y-84.663
X75.209Y-59.384
X75.242Y-32.1
X75.487Y-10.987
X75.8Y-15.3
X76.1Y-46.33
X76.4Y-15.5
X76.7Y-61.5
X76.702Y-63.487
X77.056Y-23.642
X77.247Y-23.893
X77.537Y-43.677
X77.568Y-40.968
X77.8Y-15.9
X77.97Y-7.9
X78.447Y-24.993
X78.646Y-38.735
X79.02Y-11.0
X79.106Y-24.992
X79.386Y-59.276
X79.416Y-36.501
X79.486Y-56.176
X79.52Y-7.9
X79.534Y-54.208
X79.534Y-55.258
X79.995Y-56.95
X80.032Y-58.158
X80.032Y-59.258
X80.066Y-57.592
X80.083Y-38.761
X80.093Y-35.533
X80.5Y-11.1
X81.425Y-36.06
X82.099Y-23.035
X82.099Y-25.235
X82.612Y-36.634
X82.9Y-11.1
X82.909Y-66.384
X83.088Y-29.892
X83.251Y-38.303
X83.625Y-96.06
X84.315Y-56.14
X84.342Y-12.098
X85.3Y-11.0
X85.668Y-56.818
X86.0Y-15.9
X86.1Y-56.23
X86.126Y-32.432
X86.802Y-28.042
X87.0Y-11.0
X87.168Y-56.618
X87.289Y-18.295
X87.559Y-35.025
X87.932Y-27.632
X88.009Y-16.463
X88.115Y-30.117
X88.5Y-61.1
X88.925Y-56.1
X89.02Y-41.45
X89.059Y-16.113
X89.237Y-60.262
X89.355Y-59.25
X89.915Y-59.183
X89.93Y-44.41
X90.0Y-54.25
X90.005Y-55.7
X90.042Y-27.632
X90.278Y-57.915
X90.8Y-39.55
X90.8Y-41.45
X91.11Y-9.188
X91.352Y-11.727
X92.662Y-58.737
X93.737Y-10.015
X94.792Y-27.632
X96.957Y-31.9
X97.207Y-41.917
X98.302Y-76.287
X98.315Y-64.34
X100.473Y-31.998
X100.873Y-12.098
X101.42Y-34.6
X102.358Y-29.2
T3
X4.732Y-69.271
X5.794Y-48.834
X6.603Y-44.981
X7.22Y-43.359
X7.905Y-37.605
X8.695Y-38.793
X9.064Y-86.151
X9.825Y-64.47
X11.101Y-83.742
X11.985Y-73.369
X12.328Y-47.218
X12.491Y-45.417
X13.098Y-68.74
X13.438Y-51.215
X13.489Y-63.601
X13.846Y-46.056
X14.093Y-53.895
X14.142Y-45.2
X14.251Y-66.399
X14.415Y-51.653
X15.594Y-63.465
X15.766Y-90.225
X16.07Y-75.037
X16.08Y-46.775
X16.087Y-91.025
X16.436Y-74.948
X16.732Y-42.946
X16.753Y-58.023
X16.87Y-73.004
X17.059Y-80.063
X17.275Y-41.831
X17.33Y-73.086
X17.684Y-73.106
X17.971Y-39.563
X18.162Y-23.203
X18.356Y-80.018
X18.413Y-78.401
X18.653Y-41.722
X18.928Y-49.625
X19.309Y-23.16
X19.562Y-54.08
X20.211Y-46.46
X20.212Y-81.298
X20.483Y-97.421
X20.566Y-76.538
X20.566Y-95.895
X20.597Y-72.635
X20.661Y-49.185
X20.662Y-60.375
X20.891Y-70.09
X20.937Y-79.02
X21.03Y-62.683
X21.072Y-54.529
X21.19Y-73.283
X21.21Y-22.13
X21.43Y-36.868
X21.822Y-76.31
X21.974Y-74.866
X22.259Y-76.212
X22.275Y-73.27
X22.296Y-75.447
X22.322Y-69.102
X22.379Y-56.594
X22.636Y-56.351
X22.778Y-72.937
X23.034Y-87.398
X23.055Y-68.565
X23.079Y-70.619
X23.537Y-87.716
X23.943Y-51.372
X23.991Y-70.711
X24.342Y-68.931
X24.582Y-89.13
X24.891Y-89.833
X24.923Y-61.681
X25.784Y-67.635
X25.796Y-86.012
X25.96Y-98.535
X25.964Y-38.035
X25.965Y-77.169
X26.177Y-84.114
X26.273Y-76.268
X27.032Y-76.926
X27.034Y-76.052
X27.23Y-80.962
X27.234Y-51.543
X27.359Y-68.337
X27.386Y-85.405
X27.415Y-54.624
X27.628Y-77.677
X28.012Y-46.615
X28.121Y-53.445
X28.154Y-77.535
X28.52Y-51.57
X28.717Y-45.541
X28.868Y-79.598
X29.442Y-42.694
X29.66Y-74.154
X30.35Y-46.406
X30.725Y-69.583
X30.793Y-72.773
X30.874Y-82.597
X30.997Y-68.092
X31.297Y-60.431
X31.444Y-80.716
X31.613Y-69.966
X31.616Y-61.602
X31.617Y-76.997
X31.637Y-45.843
X32.596Y-48.963
X32.692Y-79.999
X32.787Y-83.104
X32.898Y-80.722
X33.463Y-42.073
X33.533Y-61.2
X34.008Y-82.927
X34.27Y-60.028
X34.351Y-69.445
X34.449Y-68.597
X34.487Y-79.028
X34.527Y-84.205
X34.844Y-78.543
X34.999Y-62.379
X35.163Y-48.884
X35.25Y-72.9
X36.378Y-68.562
X36.387Y-80.003
X36.44Y-80.681
X36.541Y-63.671
X36.592Y-46.478
X36.597Y-59.085
X36.635Y-82.418
X36.658Y-79.733
X36.7Y-47.268
X37.023Y-63.425
X37.22Y-73.882
X37.366Y-42.036
X37.761Y-55.98
X37.792Y-69.107
X37.988Y-81.268
X38.355Y-71.524
X38.43Y-73.663
X38.465Y-71.911
X38.509Y-83.788
X38.677Y-62.734
X38.779Y-94.534
X38.795Y-77.362
X39.042Y-76.176
X39.356Y-48.457
X39.418Y-36.968
X40.072Y-44.772
X40.198Y-46.683
X40.965Y-50.408
X41.057Y-50.97
X41.068Y-71.579
X41.194Y-53.799
X41.371Y-76.065
X41.412Y-70.657
X41.469Y-74.016
X41.516Y-53.405
X41.593Y-71.023
X41.62Y-72.767
X41.832Y-78.294
X42.253Y-70.701
X42.427Y-78.435
X42.658Y-74.411
X42.917Y-74.118
X43.181Y-50.24
X43.201Y-38.151
X43.548Y-37.123
X44.062Y-71.525
X44.128Y-66.922
X44.769Y-68.531
X44.773Y-49.15
X44.965Y-68.235
X45.151Y-49.264
X45.201Y-67.561
X45.204Y-75.417
X45.316Y-69.43
X45.321Y-66.654
X45.379Y-68.174
X45.498Y-80.604
X45.578Y-69.114
X45.69Y-65.986
X45.698Y-65.62
X45.726Y-72.489
X45.774Y-70.125
X45.819Y-42.768
X45.891Y-49.31
X46.161Y-73.122
X46.18Y-74.214
X46.423Y-71.834
X46.471Y-71.381
X46.497Y-46.932
X46.593Y-47.802
X46.601Y-75.375
X46.704Y-43.436
X46.982Y-65.758
X47.383Y-48.226
X47.492Y-74.691
X47.503Y-52.067
X47.573Y-77.007
X47.605Y-78.976
X47.68Y-75.705
X47.776Y-71.831
X47.876Y-58.188
X47.88Y-79.688
X48.19Y-40.375
X48.288Y-81.909
X48.403Y-33.926
X48.729Y-65.323
X48.737Y-71.062
X51.179Y-49.537
X51.253Y-49.183
X51.382Y-66.345
X51.442Y-64.899
X51.944Y-50.962
X52.259Y-58.768
X52.877Y-50.228
X52.973Y-56.349
X53.509Y-47.25
X54.266Y-35.245
X54.615Y-50.295
X54.723Y-50.996
X54.866Y-42.429
X54.887Y-50.648
X55.583Y-40.831
X56.666Y-42.275
X56.953Y-41.425
X57.15Y-42.812
X57.187Y-44.325
X59.553Y-39.771
X59.939Y-37.892
X60.16Y-38.486
X60.616Y-40.598
X64.46Y-30.915
X64.896Y-35.413
X64.997Y-29.778
X65.23Y-31.473
X67.523Y-33.793
X69.253Y-75.087
X69.269Y-76.668
X69.416Y-37.903
X70.524Y-34.197
X71.521Y-27.282
X71.941Y-30.247
X72.173Y-33.466
X74.612Y-33.005
X74.766Y-92.55
X77.226Y-51.816
X78.962Y-41.622
X79.219Y-43.111
X79.716Y-62.089
X80.907Y-33.878
X81.289Y-33.26
X83.117Y-86.795
X84.516Y-32.784
T4
X7.72Y-63.985
X13.58Y-45.567
X13.82Y-69.185
X13.98Y-43.267
X16.42Y-70.985
X16.48Y-40.767
X17.079Y-46.603
X17.23Y-67.25
X17.62Y-70.885
X20.176Y-89.674
X20.779Y-43.303
X21.025Y-66.75
X21.449Y-91.342
X22.58Y-45.367
X22.649Y-92.542
X22.925Y-37.046
X23.18Y-55.367
X23.98Y-46.767
X24.25Y-71.662
X26.982Y-90.782
X27.25Y-71.662
X27.482Y-96.282
X31.014Y-81.514
X31.95Y-69.45
X32.75Y-72.77
X34.114Y-82.214
X34.287Y-86.564
X34.58Y-53.667
X36.064Y-94.359
X36.538Y-85.581
X36.975Y-62.25
X37.238Y-90.685
X38.68Y-57.167
X43.625Y-96.046
X51.536Y-27.754
X52.35Y-61.5
X53.55Y-33.75
X53.97Y-10.047
X53.97Y-11.317
X56.782Y-97.533
X58.53Y-17.65
X62.24Y-16.24
X62.3Y-4.2
X62.595Y-88.595
X62.848Y-74.176
X63.048Y-69.576
X63.834Y-27.534
X68.697Y-29.878
X70.44Y-22.04
X70.797Y-23.978
X72.083Y-22.654
X72.782Y-97.533
X72.94Y-22.54
X73.045Y-10.625
X73.745Y-32.065
X74.287Y-15.807
X77.627Y-22.55
X78.618Y-22.55
X79.634Y-22.55
X79.893Y-25.166
X81.132Y-22.5
X81.709Y-38.542
X83.609Y-36.742
X84.145Y-37.065
X85.185Y-12.11
X86.551Y-17.373
X87.387Y-32.107
X88.609Y-5.295
X88.783Y-12.954
X90.293Y-6.58
X90.595Y-3.95
X90.851Y-27.673
X92.145Y-8.525
X93.323Y-11.648
X95.14Y-39.54
X95.285Y-10.71
X96.839Y-11.025
X97.781Y-18.406
X98.8Y-24.0
X99.623Y-12.148
X99.8Y-20.0
X100.8Y-16.0
X101.381Y-31.906
X101.439Y-30.725
X103.155Y-12.08
X103.155Y-27.48
T5
X5.8Y-20.9
X6.7Y-40.026
X9.6Y-20.0
X9.8Y-14.8
X10.286Y-44.362
X10.48Y-19.1
X10.604Y-14.0
X12.15Y-16.25
X12.426Y-85.712
X13.5Y-15.75
X13.683Y-91.362
X13.684Y-14.05
X13.684Y-19.15
X14.322Y-87.238
X16.645Y-37.919
X16.676Y-59.266
X17.16Y-65.75
X18.797Y-74.823
X21.14Y-41.548
X21.266Y-80.95
X27.604Y-82.223
X27.974Y-51.499
X29.391Y-38.533
X30.73Y-86.5
X30.996Y-84.973
X31.704Y-35.053
X32.428Y-41.529
X32.723Y-85.403
X33.482Y-77.076
X38.158Y-54.654
X38.494Y-55.75
X40.411Y-77.529
X40.843Y-68.75
X41.146Y-77.49
X42.564Y-80.376
X42.935Y-61.908
X44.822Y-75.045
X46.894Y-80.601
X48.571Y-29.013
X54.032Y-8.777
X57.841Y-34.36
X58.8Y-20.0
X59.5Y-11.4
X61.4Y-19.0
X62.4Y-23.4
X62.4Y-26.0
X63.0Y-13.4
X63.6Y-11.9
X64.177Y-37.777
X64.807Y-14.265
X64.98Y-21.8
X65.3Y-25.8
X65.5Y-17.975
X65.6Y-23.4
X66.2Y-18.625
X67.706Y-37.444
X68.0Y-10.2
X68.975Y-19.8
X69.141Y-23.5
X69.2Y-15.3
X70.1Y-11.8
X70.141Y-23.2
X71.112Y-14.2
X72.3Y-18.625
X72.6Y-20.8
X74.4Y-23.5
X76.3Y-19.3
X77.752Y-95.06
X79.1Y-18.2
X80.8Y-17.0
X84.3Y-21.8
X84.5Y-18.5
X86.8Y-22.8
X88.2Y-41.45
X91.8Y-40.5
X98.8Y-39.0
T6
X67.391Y-25.472
X67.391Y-26.472
X67.391Y-27.472
X68.391Y-25.472
X68.391Y-26.472
X68.391Y-27.472
X69.391Y-25.472
X69.391Y-26.472
X69.391Y-27.472
T7
X3.5Y-80.6
X4.055Y-75.2
X5.1Y-80.6
X5.325Y-75.2
X6.595Y-75.2
X7.865Y-75.2
X9.135Y-75.2
X10.405Y-75.2
X11.675Y-75.2
X11.9Y-80.6
X12.945Y-75.2
X13.5Y-80.6
T8
X5.5Y-53.0
X5.5Y-54.27
X5.5Y-55.54
X5.5Y-56.81
X5.5Y-58.08
X6.77Y-53.0
X6.77Y-54.27
X6.77Y-55.54
X6.77Y-56.81
X6.77Y-58.08
X18.0Y-96.0
X18.0Y-97.27
X18.0Y-98.54
X18.0Y-99.81
X18.0Y-101.08
X19.27Y-96.0
X19.27Y-97.27
X19.27Y-98.54
X19.27Y-99.81
X19.27Y-101.08
X32.0Y-5.2
X32.0Y-6.47
X32.0Y-7.74
X32.0Y-9.01
X32.0Y-10.28
X33.27Y-5.2
X33.27Y-6.47
X33.27Y-7.74
X33.27Y-9.01
X33.27Y-10.28
X88.0Y-18.0
X88.0Y-19.27
X88.0Y-20.54
X88.0Y-21.81
X88.0Y-23.08
X89.27Y-18.0
X89.27Y-19.27
X89.27Y-20.54
X89.27Y-21.81
X89.27Y-23.08
T9
X44.0Y-4.2
X46.54Y-4.2
X49.08Y-4.2
X56.0Y-4.2
X58.54Y-4.2
X61.08Y-4.2
X66.8Y-4.2
X66.8Y-6.74
X66.8Y-9.28
X80.0Y-4.2
X82.54Y-4.2
X85.08Y-4.2
X87.0Y-73.0
X87.0Y-75.54
X87.0Y-78.08
X87.0Y-80.62
X87.0Y-83.16
X87.0Y-85.7
X87.0Y-88.24
X87.0Y-90.78
X87.0Y-93.32
X87.0Y-95.86
X89.54Y-73.0
X89.54Y-75.54
X89.54Y-78.08
X89.54Y-80.62
X89.54Y-83.16
X89.54Y-85.7
X89.54Y-88.24
X89.54Y-90.78
X89.54Y-93.32
X89.54Y-95.86
X95.7Y-56.846
X95.7Y-59.386
X96.0Y-4.2
X96.0Y-6.74
X97.2Y-51.386
X98.24Y-56.846
X98.24Y-59.386
X99.74Y-51.386
X100.78Y-56.846
X100.78Y-59.386
X102.28Y-51.386
X103.0Y-4.2
X103.0Y-6.74
X103.0Y-9.28
X103.32Y-56.846
X103.32Y-59.386
T10
X99.0Y-65.0
X99.0Y-70.0
X99.0Y-77.0
X99.0Y-82.0
X99.0Y-89.0
X99.0Y-94.0
T11
X5.8Y-18.0
T12
X3.26Y-15.46
X3.26Y-20.54
X8.34Y-15.46
X8.34Y-20.54
T13
X27.11Y-97.135
X32.89Y-97.135
X43.11Y-97.135
X48.89Y-97.135
X59.11Y-97.135
X64.89Y-97.135
X75.11Y-97.135
X80.89Y-97.135
T7
X25.68Y-96.085G85X25.68Y-97.185
G05
X25.68Y-100.415G85X25.68Y-101.215
G05
X34.32Y-96.085G85X34.32Y-97.185
G05
X34.32Y-100.415G85X34.32Y-101.215
G05
X41.68Y-96.085G85X41.68Y-97.185
G05
X41.68Y-100.415G85X41.68Y-101.215
G05
X50.32Y-96.085G85X50.32Y-97.185
G05
X50.32Y-100.415G85X50.32Y-101.215
G05
X57.68Y-96.085G85X57.68Y-97.185
G05
X57.68Y-100.415G85X57.68Y-101.215
G05
X66.32Y-96.085G85X66.32Y-97.185
G05
X66.32Y-100.415G85X66.32Y-101.215
G05
X73.68Y-96.085G85X73.68Y-97.185
G05
X73.68Y-100.415G85X73.68Y-101.215
G05
X82.32Y-96.085G85X82.32Y-97.185
G05
X82.32Y-100.415G85X82.32Y-101.215
G05
M30
