%TF.GenerationSoftware,KiCad,Pcbnew,9.0.7*%
%TF.CreationDate,2026-07-19T12:43:14+05:30*%
%TF.ProjectId,dev-real-production,6465762d-7265-4616-9c2d-70726f647563,rev?*%
%TF.SameCoordinates,Original*%
%TF.FileFunction,Copper,L4,Bot*%
%TF.FilePolarity,Positive*%
%FSLAX46Y46*%
G04 Gerber Fmt 4.6, Leading zero omitted, Abs format (unit mm)*
G04 Created by KiCad (PCBNEW 9.0.7) date 2026-07-19 12:43:14*
%MOMM*%
%LPD*%
G01*
G04 APERTURE LIST*
G04 Aperture macros list*
%AMRoundRect*
0 Rectangle with rounded corners*
0 $1 Rounding radius*
0 $2 $3 $4 $5 $6 $7 $8 $9 X,Y pos of 4 corners*
0 Add a 4 corners polygon primitive as box body*
4,1,4,$2,$3,$4,$5,$6,$7,$8,$9,$2,$3,0*
0 Add four circle primitives for the rounded corners*
1,1,$1+$1,$2,$3*
1,1,$1+$1,$4,$5*
1,1,$1+$1,$6,$7*
1,1,$1+$1,$8,$9*
0 Add four rect primitives between the rounded corners*
20,1,$1+$1,$2,$3,$4,$5,0*
20,1,$1+$1,$4,$5,$6,$7,0*
20,1,$1+$1,$6,$7,$8,$9,0*
20,1,$1+$1,$8,$9,$2,$3,0*%
G04 Aperture macros list end*
%TA.AperFunction,ComponentPad*%
%ADD10C,2.050000*%
%TD*%
%TA.AperFunction,ComponentPad*%
%ADD11C,2.250000*%
%TD*%
%TA.AperFunction,ComponentPad*%
%ADD12R,1.000000X1.000000*%
%TD*%
%TA.AperFunction,ComponentPad*%
%ADD13C,1.000000*%
%TD*%
%TA.AperFunction,ComponentPad*%
%ADD14R,1.700000X1.700000*%
%TD*%
%TA.AperFunction,ComponentPad*%
%ADD15C,1.700000*%
%TD*%
%TA.AperFunction,HeatsinkPad*%
%ADD16O,1.000000X2.100000*%
%TD*%
%TA.AperFunction,HeatsinkPad*%
%ADD17O,1.000000X1.800000*%
%TD*%
%TA.AperFunction,ComponentPad*%
%ADD18RoundRect,0.250000X1.050000X-1.050000X1.050000X1.050000X-1.050000X1.050000X-1.050000X-1.050000X0*%
%TD*%
%TA.AperFunction,ComponentPad*%
%ADD19C,2.600000*%
%TD*%
%TA.AperFunction,HeatsinkPad*%
%ADD20C,0.500000*%
%TD*%
%TA.AperFunction,HeatsinkPad*%
%ADD21R,2.500000X2.500000*%
%TD*%
%TA.AperFunction,ComponentPad*%
%ADD22C,1.050000*%
%TD*%
%TA.AperFunction,SMDPad,CuDef*%
%ADD23C,1.000000*%
%TD*%
%TA.AperFunction,SMDPad,CuDef*%
%ADD24RoundRect,0.225000X0.225000X0.250000X-0.225000X0.250000X-0.225000X-0.250000X0.225000X-0.250000X0*%
%TD*%
%TA.AperFunction,SMDPad,CuDef*%
%ADD25RoundRect,0.225000X-0.225000X-0.250000X0.225000X-0.250000X0.225000X0.250000X-0.225000X0.250000X0*%
%TD*%
%TA.AperFunction,SMDPad,CuDef*%
%ADD26RoundRect,0.135000X0.135000X0.185000X-0.135000X0.185000X-0.135000X-0.185000X0.135000X-0.185000X0*%
%TD*%
%TA.AperFunction,SMDPad,CuDef*%
%ADD27RoundRect,0.135000X-0.135000X-0.185000X0.135000X-0.185000X0.135000X0.185000X-0.135000X0.185000X0*%
%TD*%
%TA.AperFunction,SMDPad,CuDef*%
%ADD28RoundRect,0.125000X-0.262500X-0.125000X0.262500X-0.125000X0.262500X0.125000X-0.262500X0.125000X0*%
%TD*%
%TA.AperFunction,HeatsinkPad*%
%ADD29R,3.400000X4.000000*%
%TD*%
%TA.AperFunction,ViaPad*%
%ADD30C,0.300000*%
%TD*%
%TA.AperFunction,ViaPad*%
%ADD31C,0.254000*%
%TD*%
%TA.AperFunction,ViaPad*%
%ADD32C,0.600000*%
%TD*%
%TA.AperFunction,ViaPad*%
%ADD33C,0.500000*%
%TD*%
%TA.AperFunction,ViaPad*%
%ADD34C,0.240000*%
%TD*%
%TA.AperFunction,ViaPad*%
%ADD35C,0.250250*%
%TD*%
%TA.AperFunction,Conductor*%
%ADD36C,0.200000*%
%TD*%
%TA.AperFunction,Conductor*%
%ADD37C,0.150000*%
%TD*%
%TA.AperFunction,Conductor*%
%ADD38C,0.300000*%
%TD*%
%TA.AperFunction,Conductor*%
%ADD39C,0.250000*%
%TD*%
%TA.AperFunction,Conductor*%
%ADD40C,0.350000*%
%TD*%
%TA.AperFunction,Conductor*%
%ADD41C,0.127000*%
%TD*%
%TA.AperFunction,Conductor*%
%ADD42C,0.100000*%
%TD*%
%TA.AperFunction,Conductor*%
%ADD43C,0.180000*%
%TD*%
%TA.AperFunction,Conductor*%
%ADD44C,0.400000*%
%TD*%
%TA.AperFunction,Conductor*%
%ADD45C,0.340000*%
%TD*%
G04 APERTURE END LIST*
D10*
%TO.P,J7,1,Pin_1*%
%TO.N,/XCC1352R1F3RGZR/ANT_50OHM*%
X5800000Y-18000000D03*
D11*
%TO.P,J7,2,Pin_2*%
%TO.N,GND*%
X3260000Y-15460000D03*
X3260000Y-20540000D03*
X8340000Y-15460000D03*
X8340000Y-20540000D03*
%TD*%
D12*
%TO.P,J19,1,1*%
%TO.N,GND*%
X5500000Y-53000000D03*
D13*
%TO.P,J19,2,2*%
%TO.N,/STM32H7/NRST*%
X6770000Y-53000000D03*
%TO.P,J19,3,3*%
%TO.N,unconnected-(J19-Pad3)*%
X5500000Y-54270000D03*
%TO.P,J19,4,4*%
%TO.N,/STM32H7/JTDI*%
X6770000Y-54270000D03*
%TO.P,J19,5,5*%
%TO.N,GND*%
X5500000Y-55540000D03*
%TO.P,J19,6,6*%
%TO.N,/STM32H7/SWO*%
X6770000Y-55540000D03*
%TO.P,J19,7,7*%
%TO.N,GND*%
X5500000Y-56810000D03*
%TO.P,J19,8,8*%
%TO.N,/STM32H7/SWCLK*%
X6770000Y-56810000D03*
%TO.P,J19,9,9*%
%TO.N,+3V3*%
X5500000Y-58080000D03*
%TO.P,J19,10,10*%
%TO.N,/STM32H7/SWDIO*%
X6770000Y-58080000D03*
%TD*%
D14*
%TO.P,J12,1*%
%TO.N,N/C*%
X44000000Y-4200000D03*
D15*
%TO.P,J12,2*%
X46540000Y-4200000D03*
%TO.P,J12,3*%
X49080000Y-4200000D03*
%TD*%
D16*
%TO.P,J10,S1,Shield*%
%TO.N,GND*%
X73680000Y-96635000D03*
D17*
X73680000Y-100815000D03*
D16*
X82320000Y-96635000D03*
D17*
X82320000Y-100815000D03*
%TD*%
D18*
%TO.P,J1,1,1*%
%TO.N,GND*%
X99000000Y-70000000D03*
D19*
%TO.P,J1,2,2*%
%TO.N,/Power/VIN*%
X99000000Y-65000000D03*
%TD*%
D20*
%TO.P,U21,33,EPAD*%
%TO.N,GND*%
X67391500Y-25472100D03*
X67391500Y-26472100D03*
X67391500Y-27472100D03*
X68391500Y-25472100D03*
X68391500Y-26472100D03*
D21*
X68391500Y-26472100D03*
D20*
X68391500Y-27472100D03*
X69391500Y-25472100D03*
X69391500Y-26472100D03*
X69391500Y-27472100D03*
%TD*%
D14*
%TO.P,J22,1,Pin_1*%
%TO.N,GND*%
X87000000Y-73000000D03*
D15*
%TO.P,J22,2,Pin_2*%
%TO.N,+3V3*%
X89540000Y-73000000D03*
%TO.P,J22,3,Pin_3*%
X87000000Y-75540000D03*
%TO.P,J22,4,Pin_4*%
%TO.N,/XCC1352R1F3RGZR/DIO_13*%
X89540000Y-75540000D03*
%TO.P,J22,5,Pin_5*%
%TO.N,/XCC1352R1F3RGZR/DIO_12*%
X87000000Y-78080000D03*
%TO.P,J22,6,Pin_6*%
%TO.N,/XCC1352R1F3RGZR/DIO_11*%
X89540000Y-78080000D03*
%TO.P,J22,7,Pin_7*%
%TO.N,/XCC1352R1F3RGZR/DIO_10*%
X87000000Y-80620000D03*
%TO.P,J22,8,Pin_8*%
%TO.N,/XCC1352R1F3RGZR/DIO_17*%
X89540000Y-80620000D03*
%TO.P,J22,9,Pin_9*%
%TO.N,/XCC1352R1F3RGZR/DIO_18*%
X87000000Y-83160000D03*
%TO.P,J22,10,Pin_10*%
%TO.N,/XCC1352R1F3RGZR/DIO_19*%
X89540000Y-83160000D03*
%TO.P,J22,11,Pin_11*%
%TO.N,/XCC1352R1F3RGZR/DIO_20*%
X87000000Y-85700000D03*
%TO.P,J22,12,Pin_12*%
%TO.N,/XCC1352R1F3RGZR/DIO_21*%
X89540000Y-85700000D03*
%TO.P,J22,13,Pin_13*%
%TO.N,/XCC1352R1F3RGZR/DIO_22*%
X87000000Y-88240000D03*
%TO.P,J22,14,Pin_14*%
%TO.N,/XCC1352R1F3RGZR/DIO_23*%
X89540000Y-88240000D03*
%TO.P,J22,15,Pin_15*%
%TO.N,/XCC1352R1F3RGZR/DIO_24*%
X87000000Y-90780000D03*
%TO.P,J22,16,Pin_16*%
%TO.N,/XCC1352R1F3RGZR/DIO_25*%
X89540000Y-90780000D03*
%TO.P,J22,17,Pin_17*%
%TO.N,/XCC1352R1F3RGZR/DIO_26*%
X87000000Y-93320000D03*
%TO.P,J22,18,Pin_18*%
%TO.N,/XCC1352R1F3RGZR/DIO_27*%
X89540000Y-93320000D03*
%TO.P,J22,19,Pin_19*%
%TO.N,/XCC1352R1F3RGZR/DIO_28*%
X87000000Y-95860000D03*
%TO.P,J22,20,Pin_20*%
%TO.N,/XCC1352R1F3RGZR/DIO_29*%
X89540000Y-95860000D03*
%TD*%
D14*
%TO.P,J14,1,Pin_1*%
%TO.N,GND*%
X103000000Y-4200000D03*
D15*
%TO.P,J14,2,Pin_2*%
%TO.N,/IWRL6432BD/TDO_SOP0*%
X103000000Y-6740000D03*
%TO.P,J14,3,Pin_3*%
%TO.N,+3V3*%
X103000000Y-9280000D03*
%TD*%
D18*
%TO.P,J3,1,1*%
%TO.N,/Power/FB*%
X99000000Y-94000000D03*
D19*
%TO.P,J3,2,2*%
%TO.N,/Power/SW*%
X99000000Y-89000000D03*
%TD*%
D12*
%TO.P,J6,1,1*%
%TO.N,+3V3*%
X32000000Y-5200000D03*
D13*
%TO.P,J6,2,2*%
%TO.N,/XCC1352R1F3RGZR/JTAG_TMSC*%
X33270000Y-5200000D03*
%TO.P,J6,3,3*%
%TO.N,GND*%
X32000000Y-6470000D03*
%TO.P,J6,4,4*%
%TO.N,/XCC1352R1F3RGZR/JTAG_TCKC*%
X33270000Y-6470000D03*
%TO.P,J6,5,5*%
%TO.N,GND*%
X32000000Y-7740000D03*
%TO.P,J6,6,6*%
%TO.N,/XCC1352R1F3RGZR/DIO_16*%
X33270000Y-7740000D03*
%TO.P,J6,7,7*%
%TO.N,unconnected-(J6-Pin_7-Pad7)*%
X32000000Y-9010000D03*
%TO.P,J6,8,8*%
%TO.N,/XCC1352R1F3RGZR/DIO_17*%
X33270000Y-9010000D03*
%TO.P,J6,9,9*%
%TO.N,GND*%
X32000000Y-10280000D03*
%TO.P,J6,10,10*%
%TO.N,/XCC1352R1F3RGZR/RESET_N*%
X33270000Y-10280000D03*
%TD*%
D14*
%TO.P,J18,1,Pin_1*%
%TO.N,GND*%
X66800000Y-4200000D03*
D15*
%TO.P,J18,2,Pin_2*%
%TO.N,Net-(J18-Pin_2)*%
X66800000Y-6740000D03*
%TO.P,J18,3,Pin_3*%
%TO.N,/AD9609/VREF*%
X66800000Y-9280000D03*
%TD*%
D16*
%TO.P,J17,S1,SHIELD*%
%TO.N,Net-(J17-SHIELD)*%
X25680000Y-96635000D03*
D17*
X25680000Y-100815000D03*
D16*
X34320000Y-96635000D03*
D17*
X34320000Y-100815000D03*
%TD*%
D14*
%TO.P,J23,1,Pin_1*%
%TO.N,/RP2350/GPIO46_ADC6*%
X95700000Y-59385600D03*
D15*
%TO.P,J23,2,Pin_2*%
%TO.N,/RP2350/GPIO47_ADC7*%
X95700000Y-56845600D03*
%TO.P,J23,3,Pin_3*%
%TO.N,/RP2350/GPIO45_ADC5*%
X98240000Y-59385600D03*
%TO.P,J23,4,Pin_4*%
%TO.N,/RP2350/GPIO29*%
X98240000Y-56845600D03*
%TO.P,J23,5,Pin_5*%
%TO.N,/RP2350/GPIO44_ADC4*%
X100780000Y-59385600D03*
%TO.P,J23,6,Pin_6*%
%TO.N,+3V3*%
X100780000Y-56845600D03*
%TO.P,J23,7,Pin_7*%
%TO.N,/RP2350/GPIO43_ADC3*%
X103320000Y-59385600D03*
%TO.P,J23,8,Pin_8*%
%TO.N,GND*%
X103320000Y-56845600D03*
%TD*%
D14*
%TO.P,J15,1,Pin_1*%
%TO.N,GND*%
X56000000Y-4200000D03*
D15*
%TO.P,J15,2,Pin_2*%
%TO.N,/IWRL6432BD/PMIC_CLKOUT_SOP1*%
X58540000Y-4200000D03*
%TO.P,J15,3,Pin_3*%
%TO.N,+3V3*%
X61080000Y-4200000D03*
%TD*%
D12*
%TO.P,J16,1,Pin_1*%
%TO.N,/MM8108/3V3*%
X18000000Y-96000000D03*
D13*
%TO.P,J16,2,Pin_2*%
%TO.N,/MM8108/JTAG_TMS*%
X19270000Y-96000000D03*
%TO.P,J16,3,Pin_3*%
%TO.N,GND*%
X18000000Y-97270000D03*
%TO.P,J16,4,Pin_4*%
%TO.N,/MM8108/JTAG_TCK*%
X19270000Y-97270000D03*
%TO.P,J16,5,Pin_5*%
%TO.N,GND*%
X18000000Y-98540000D03*
%TO.P,J16,6,Pin_6*%
%TO.N,/MM8108/TDO_SOP0*%
X19270000Y-98540000D03*
%TO.P,J16,7,Pin_7*%
%TO.N,unconnected-(J16-Pin_7-Pad7)*%
X18000000Y-99810000D03*
%TO.P,J16,8,Pin_8*%
%TO.N,/MM8108/JTAG_TDI*%
X19270000Y-99810000D03*
%TO.P,J16,9,Pin_9*%
%TO.N,GND*%
X18000000Y-101080000D03*
%TO.P,J16,10,Pin_10*%
%TO.N,/MM8108/NRESET*%
X19270000Y-101080000D03*
%TD*%
D14*
%TO.P,J13,1*%
%TO.N,N/C*%
X80000000Y-4200000D03*
D15*
%TO.P,J13,2*%
X82540000Y-4200000D03*
%TO.P,J13,3*%
X85080000Y-4200000D03*
%TD*%
D18*
%TO.P,J2,1,1*%
%TO.N,/Power/PG*%
X99000000Y-82000000D03*
D19*
%TO.P,J2,2,2*%
%TO.N,/Power/EN*%
X99000000Y-77000000D03*
%TD*%
D12*
%TO.P,J11,1,Pin_1*%
%TO.N,+3V3*%
X88000000Y-18000000D03*
D13*
%TO.P,J11,2,Pin_2*%
%TO.N,/IWRL6432BD/JTAG_TMS*%
X89270000Y-18000000D03*
%TO.P,J11,3,Pin_3*%
%TO.N,GND*%
X88000000Y-19270000D03*
%TO.P,J11,4,Pin_4*%
%TO.N,/IWRL6432BD/JTAG_TCK*%
X89270000Y-19270000D03*
%TO.P,J11,5,Pin_5*%
%TO.N,GND*%
X88000000Y-20540000D03*
%TO.P,J11,6,Pin_6*%
%TO.N,/IWRL6432BD/TDO_SOP0*%
X89270000Y-20540000D03*
%TO.P,J11,7,Pin_7*%
%TO.N,unconnected-(J11-Pin_7-Pad7)*%
X88000000Y-21810000D03*
%TO.P,J11,8,Pin_8*%
%TO.N,/IWRL6432BD/JTAG_TDI*%
X89270000Y-21810000D03*
%TO.P,J11,9,Pin_9*%
%TO.N,GND*%
X88000000Y-23080000D03*
%TO.P,J11,10,Pin_10*%
%TO.N,/IWRL6432BD/NRESET*%
X89270000Y-23080000D03*
%TD*%
D16*
%TO.P,J4,S1,SHIELD*%
%TO.N,GND*%
X57680000Y-96635000D03*
D17*
X57680000Y-100815000D03*
D16*
X66320000Y-96635000D03*
D17*
X66320000Y-100815000D03*
%TD*%
D16*
%TO.P,J20,S1,Shield*%
%TO.N,/STM32H7/USB_SHIELD*%
X41680000Y-96635000D03*
D17*
X41680000Y-100815000D03*
D16*
X50320000Y-96635000D03*
D17*
X50320000Y-100815000D03*
%TD*%
D14*
%TO.P,J8,1*%
%TO.N,N/C*%
X96000000Y-4200000D03*
D15*
%TO.P,J8,2*%
X96000000Y-6740000D03*
%TD*%
D22*
%TO.P,J21,1*%
%TO.N,/STM32H7/PHY_TXP*%
X4055000Y-75200000D03*
%TO.P,J21,2*%
%TO.N,/STM32H7/PHY_TXN*%
X5325000Y-75200000D03*
%TO.P,J21,3*%
%TO.N,/STM32H7/PHY_RXP*%
X6595000Y-75200000D03*
%TO.P,J21,4*%
%TO.N,+3V3*%
X7865000Y-75200000D03*
%TO.P,J21,5*%
X9135000Y-75200000D03*
%TO.P,J21,6*%
%TO.N,/STM32H7/PHY_RXN*%
X10405000Y-75200000D03*
%TO.P,J21,7*%
%TO.N,unconnected-(J21-NC-Pad7)*%
X11675000Y-75200000D03*
%TO.P,J21,8*%
%TO.N,GND*%
X12945000Y-75200000D03*
%TO.P,J21,9*%
%TO.N,/STM32H7/RJ_LED_GREEN_A*%
X3500000Y-80600000D03*
%TO.P,J21,10*%
%TO.N,GND*%
X5100000Y-80600000D03*
%TO.P,J21,11*%
X11900000Y-80600000D03*
%TO.P,J21,12*%
%TO.N,/STM32H7/RJ_LED_YELLOW_A*%
X13500000Y-80600000D03*
%TD*%
D14*
%TO.P,J5,1,Pin_1*%
%TO.N,/RP2350/SWDIO*%
X97200000Y-51385600D03*
D15*
%TO.P,J5,2,Pin_2*%
%TO.N,GND*%
X99740000Y-51385600D03*
%TO.P,J5,3,Pin_3*%
%TO.N,/RP2350/SWCLK*%
X102280000Y-51385600D03*
%TD*%
D23*
%TO.P,TP8,1,1*%
%TO.N,/AD9609/ADC_VIN_P*%
X79000000Y-11000000D03*
%TD*%
D24*
%TO.P,C93,1*%
%TO.N,GND*%
X68975000Y-22500000D03*
%TO.P,C93,2*%
%TO.N,/AD9609/VCM*%
X67425000Y-22500000D03*
%TD*%
D25*
%TO.P,C84,1*%
%TO.N,GND*%
X63225000Y-23400000D03*
%TO.P,C84,2*%
%TO.N,/AD9609/AVDD_1V8*%
X64775000Y-23400000D03*
%TD*%
D26*
%TO.P,R26,1*%
%TO.N,GND*%
X83510000Y-21800000D03*
%TO.P,R26,2*%
%TO.N,/THX8136/FSADJ*%
X82490000Y-21800000D03*
%TD*%
D27*
%TO.P,R13,1*%
%TO.N,Net-(R13-Pad1)*%
X55490000Y-14000000D03*
%TO.P,R13,2*%
%TO.N,/IWRL6432BD/FT_USBDM*%
X56510000Y-14000000D03*
%TD*%
%TO.P,R14,1*%
%TO.N,Net-(R14-Pad1)*%
X52990000Y-12000000D03*
%TO.P,R14,2*%
%TO.N,/IWRL6432BD/FT_USBDP*%
X54010000Y-12000000D03*
%TD*%
D25*
%TO.P,C91,1*%
%TO.N,GND*%
X61225000Y-18000000D03*
%TO.P,C91,2*%
%TO.N,/AD9609/VCM*%
X62775000Y-18000000D03*
%TD*%
D26*
%TO.P,R22,1*%
%TO.N,GND*%
X76310000Y-21200000D03*
%TO.P,R22,2*%
%TO.N,/THX8136/AB*%
X75290000Y-21200000D03*
%TD*%
D24*
%TO.P,C89,1*%
%TO.N,GND*%
X73575000Y-23500000D03*
%TO.P,C89,2*%
%TO.N,/AD9609/VREF*%
X72025000Y-23500000D03*
%TD*%
%TO.P,C92,1*%
%TO.N,GND*%
X71775000Y-20800000D03*
%TO.P,C92,2*%
%TO.N,/AD9609/VREF*%
X70225000Y-20800000D03*
%TD*%
D23*
%TO.P,TP9,1,1*%
%TO.N,/AD9609/ADC_VIN_N*%
X81000000Y-11000000D03*
%TD*%
D26*
%TO.P,R21,1*%
%TO.N,GND*%
X81510000Y-21200000D03*
%TO.P,R21,2*%
%TO.N,/THX8136/AG*%
X80490000Y-21200000D03*
%TD*%
D28*
%TO.P,U15,1*%
%TO.N,RP_QSPI_SS*%
X53337500Y-76905000D03*
%TO.P,U15,2*%
%TO.N,RP_QSPI_SD1*%
X53337500Y-75635000D03*
%TO.P,U15,3*%
%TO.N,RP_QSPI_SD2*%
X53337500Y-74365000D03*
%TO.P,U15,4*%
%TO.N,GND*%
X53337500Y-73095000D03*
%TO.P,U15,5*%
%TO.N,RP_QSPI_SD0*%
X58662500Y-73095000D03*
%TO.P,U15,6*%
%TO.N,RP_QSPI_SCLK*%
X58662500Y-74365000D03*
%TO.P,U15,7*%
%TO.N,RP_QSPI_SD3*%
X58662500Y-75635000D03*
%TO.P,U15,8*%
%TO.N,+3V3*%
X58662500Y-76905000D03*
D29*
%TO.P,U15,9*%
%TO.N,GND*%
X56000000Y-75000000D03*
%TD*%
D23*
%TO.P,TP3,1,1*%
%TO.N,/THX8136/AB*%
X87000000Y-11000000D03*
%TD*%
D26*
%TO.P,R20,1*%
%TO.N,GND*%
X79110000Y-20800000D03*
%TO.P,R20,2*%
%TO.N,/THX8136/AR*%
X78090000Y-20800000D03*
%TD*%
D23*
%TO.P,TP1,1,1*%
%TO.N,/THX8136/AR*%
X83000000Y-11000000D03*
%TD*%
D25*
%TO.P,C81,1*%
%TO.N,GND*%
X63225000Y-26000000D03*
%TO.P,C81,2*%
%TO.N,/AD9609/DRVDD_3V3*%
X64775000Y-26000000D03*
%TD*%
D23*
%TO.P,TP2,1,1*%
%TO.N,/THX8136/AG*%
X85000000Y-11000000D03*
%TD*%
D30*
%TO.N,/Power/PVDD*%
X65700000Y-61050000D03*
X68100000Y-64950000D03*
X65700000Y-64649999D03*
X58650000Y-54000000D03*
X68100000Y-66899999D03*
%TO.N,GND*%
X47195900Y-59400300D03*
X53337500Y-71495000D03*
X62300000Y-52500000D03*
X26967559Y-67407964D03*
D31*
X56640000Y-22308000D03*
D30*
X68208974Y-15102123D03*
X18945390Y-87538199D03*
X77056259Y-23641704D03*
X16635404Y-55410595D03*
X22750000Y-71662500D03*
X32278000Y-43002800D03*
X58202494Y-95462494D03*
X44391294Y-50979494D03*
X51998478Y-20614420D03*
X38370000Y-52750000D03*
D31*
X55557900Y-32072800D03*
X16933700Y-75032394D03*
D32*
X91800000Y-40500000D03*
D31*
X56962000Y-1325000D03*
D30*
X87558621Y-35025121D03*
X14635404Y-55010594D03*
X89930121Y-44410121D03*
X14327800Y-53310199D03*
D31*
X27237300Y-46866800D03*
D30*
X60367907Y-21837056D03*
X44175000Y-59575000D03*
X46348500Y-55846799D03*
X48934829Y-23031685D03*
D31*
X26667800Y-15300800D03*
D30*
X44792310Y-63154171D03*
X27678000Y-45902800D03*
X22403050Y-90903050D03*
X77246604Y-23893469D03*
X48934829Y-25534685D03*
D31*
X46216736Y-53585810D03*
D30*
X59621550Y-28753780D03*
X17985700Y-55670000D03*
X2100000Y-700000D03*
X83625000Y-96060000D03*
X64333856Y-93663950D03*
D31*
X48316736Y-54710810D03*
D30*
X46248500Y-51046800D03*
X47348500Y-49246799D03*
D31*
X28049999Y-70212500D03*
X59150000Y-23900000D03*
D30*
X1900000Y-1000000D03*
X27276000Y-74088500D03*
X47803072Y-62498472D03*
X24323105Y-75058394D03*
D32*
X69200000Y-15300000D03*
D31*
X40368500Y-66292000D03*
X40136195Y-75335304D03*
D30*
X60200000Y-31575000D03*
X59912170Y-93618314D03*
X13048603Y-18028450D03*
D31*
X27392800Y-15550800D03*
X24333700Y-77132394D03*
D33*
X79893167Y-25166342D03*
D30*
X79534035Y-55257903D03*
X44802422Y-40369922D03*
X59600000Y-70800000D03*
X89237500Y-60262500D03*
X72677500Y-21222000D03*
D31*
X57950000Y-17800000D03*
D30*
X13285700Y-60470000D03*
X13048603Y-13778450D03*
X30301794Y-43926794D03*
X50128007Y-93819592D03*
X43826200Y-63170500D03*
D31*
X1277163Y-1114805D03*
D30*
X10069999Y-39600000D03*
D31*
X51520000Y-29413500D03*
D30*
X57000000Y-4525000D03*
D31*
X1000000Y-1300000D03*
X34023500Y-76298800D03*
D30*
X53762021Y-90042021D03*
D31*
X22517105Y-25237800D03*
D32*
X10604500Y-14000000D03*
D30*
X52898478Y-22264421D03*
D31*
X30460446Y-52437500D03*
D30*
X57534063Y-17370297D03*
X27430000Y-18000000D03*
D32*
X9600000Y-20000000D03*
D30*
X26218129Y-91026611D03*
X26317372Y-35892372D03*
D32*
X13684500Y-19150000D03*
D30*
X74677500Y-12222000D03*
D32*
X84300000Y-21800000D03*
D30*
X74549600Y-46330300D03*
D31*
X24533700Y-80632394D03*
X33726000Y-70251200D03*
D30*
X91110099Y-9188290D03*
X1388908Y-1388908D03*
X61074375Y-19238548D03*
X22570000Y-82500000D03*
X39293600Y-41637000D03*
D33*
X88608594Y-5295120D03*
D31*
X59317570Y-28772381D03*
D30*
X52356543Y-85284350D03*
X62639081Y-89339081D03*
X90041900Y-27631900D03*
X31657794Y-46358200D03*
X68868100Y-82368100D03*
X12585700Y-59670000D03*
D31*
X24726000Y-72051200D03*
D32*
X12150000Y-16250000D03*
D30*
X22750000Y-51337500D03*
D31*
X53550000Y-19700000D03*
D30*
X82099398Y-25234535D03*
D31*
X44540090Y-78040090D03*
D30*
X74386159Y-35875654D03*
X79534035Y-54207903D03*
D31*
X52918800Y-30704900D03*
D30*
X69373800Y-90800000D03*
X33024699Y-78420900D03*
D31*
X50012000Y-16725000D03*
D30*
X61448370Y-21423477D03*
D32*
X62400000Y-23400000D03*
D30*
X23790490Y-48199898D03*
X41350000Y-56750000D03*
X53762021Y-82778221D03*
D31*
X52600000Y-21650000D03*
D30*
X64794662Y-9156981D03*
X14197404Y-55672595D03*
X77970000Y-7900000D03*
X14422172Y-63262627D03*
D31*
X22792105Y-24412800D03*
X25560810Y-25445764D03*
D30*
X22690490Y-46499899D03*
X63839081Y-93639080D03*
X53750724Y-79788523D03*
D31*
X32450000Y-74912500D03*
D30*
X91351794Y-11726794D03*
D33*
X72781974Y-97533025D03*
D30*
X68668500Y-88472100D03*
X1388908Y-1388908D03*
X18307193Y-85117193D03*
D31*
X30510446Y-51651518D03*
D33*
X20175800Y-89673800D03*
D31*
X1075000Y-1575000D03*
D30*
X57070056Y-93663950D03*
X25504790Y-78172199D03*
D31*
X57000000Y-4850000D03*
D32*
X86800000Y-22800000D03*
D30*
X56584063Y-16020297D03*
X44031100Y-54481199D03*
X71979199Y-88492200D03*
X25781900Y-44050200D03*
X25176000Y-74188499D03*
X26281900Y-45550200D03*
X25017800Y-94296790D03*
D31*
X51718800Y-29204900D03*
D30*
X40748500Y-62286000D03*
X10653431Y-46726800D03*
X73477500Y-23122000D03*
X10653431Y-48726800D03*
X11553431Y-51926800D03*
D31*
X62269900Y-78729900D03*
D32*
X88200000Y-41450000D03*
D30*
X21339691Y-11334091D03*
X17306209Y-15296760D03*
D31*
X57020000Y-1013500D03*
D30*
X52078500Y-88151500D03*
X49469878Y-79310121D03*
X32403050Y-81096949D03*
X56934063Y-16020297D03*
X1300000Y-800000D03*
X1000000Y-1000000D03*
D32*
X72600000Y-20800000D03*
D30*
X11053431Y-50726800D03*
X19620309Y-24665909D03*
D31*
X50670000Y-16063500D03*
D30*
X51788478Y-20854421D03*
D31*
X54483648Y-22715330D03*
D32*
X84500000Y-18500000D03*
D31*
X26890392Y-20498209D03*
D30*
X62267350Y-94123456D03*
X90277988Y-57915488D03*
X74800000Y-95215000D03*
X27878000Y-42602800D03*
X22028490Y-45837899D03*
X30599481Y-45615435D03*
X26586209Y-47103899D03*
D31*
X1000000Y-1300000D03*
X32750000Y-71662500D03*
D30*
X51339840Y-29133640D03*
D31*
X63949999Y-57550000D03*
D30*
X26317559Y-67557964D03*
X11653431Y-54826800D03*
D32*
X74400000Y-23500000D03*
D30*
X26960446Y-53351518D03*
X88114800Y-30116600D03*
X53913756Y-92252349D03*
X2225000Y-975000D03*
X101420000Y-34600000D03*
X45226200Y-65170500D03*
D32*
X59500000Y-11400000D03*
D30*
X68100000Y-60900000D03*
X86125800Y-32431900D03*
X86100000Y-56230000D03*
D32*
X62400000Y-26000000D03*
D30*
X40670000Y-52750000D03*
X65200000Y-59300000D03*
X16643900Y-68263800D03*
D31*
X24433700Y-81332394D03*
D33*
X36538351Y-85580961D03*
D30*
X29403050Y-90903050D03*
D31*
X35300000Y-74262500D03*
D30*
X51996675Y-24874923D03*
X92662500Y-58737500D03*
X37332999Y-82827009D03*
X63598370Y-15323477D03*
X88008939Y-16463284D03*
X15985700Y-59070000D03*
X69498200Y-80041800D03*
D31*
X25650000Y-68862500D03*
X63491400Y-26650000D03*
D30*
X16806209Y-14846760D03*
X59404724Y-78825899D03*
D31*
X58329899Y-30683213D03*
D30*
X33780000Y-36900000D03*
D31*
X53207899Y-30697800D03*
D30*
X57518786Y-31741213D03*
X29835928Y-78009876D03*
D31*
X31030592Y-66562286D03*
D32*
X13684500Y-14050000D03*
D30*
X89020000Y-41450000D03*
X42748500Y-64385999D03*
X23439900Y-36211709D03*
X28778000Y-41702800D03*
X31010446Y-47101518D03*
X59617907Y-20487056D03*
X12753431Y-54226800D03*
X42819999Y-96080000D03*
X33904100Y-93616200D03*
X18307193Y-83317193D03*
X19345000Y-59750000D03*
X12353430Y-55426800D03*
X16150799Y-57961290D03*
X775000Y-775000D03*
X48819999Y-95180000D03*
D31*
X24733700Y-75032394D03*
D30*
X2550000Y-1000000D03*
X1775000Y-725000D03*
D31*
X26134485Y-68842714D03*
D30*
X71200000Y-72300000D03*
X68159154Y-93679154D03*
D31*
X34400000Y-75162500D03*
D30*
X33310446Y-45551518D03*
X42293600Y-41237000D03*
X13451600Y-48917199D03*
X14253431Y-52626799D03*
X64815403Y-95131501D03*
D31*
X58040000Y-30713500D03*
X36236194Y-74535304D03*
D30*
X16325431Y-49812768D03*
X63844662Y-9456981D03*
D32*
X76300000Y-19300000D03*
D33*
X62595081Y-88595081D03*
D30*
X36378000Y-44002800D03*
X36656195Y-73255304D03*
X71671500Y-82300900D03*
D31*
X26349999Y-70212500D03*
D30*
X31596949Y-90096949D03*
X26190000Y-12500000D03*
X58971550Y-27653780D03*
X12585700Y-60670000D03*
D31*
X61599999Y-53200000D03*
X22785810Y-25000000D03*
D30*
X60300000Y-23025000D03*
X69060000Y-86000000D03*
D31*
X30900000Y-66312500D03*
D30*
X75486900Y-10986700D03*
X70800000Y-54700000D03*
X19253431Y-48226800D03*
D31*
X35673500Y-74248800D03*
D30*
X56200500Y-96090900D03*
D31*
X57762000Y-30675000D03*
D30*
X19045800Y-12087200D03*
D32*
X80800000Y-17000000D03*
D30*
X86802021Y-28042021D03*
X44429300Y-57273000D03*
X25150000Y-48537499D03*
X22346430Y-42432269D03*
X79106259Y-24991704D03*
X67298200Y-79241799D03*
X52878500Y-86951500D03*
D31*
X57478786Y-30701213D03*
D30*
X36670600Y-77490300D03*
D32*
X58800000Y-20000000D03*
D30*
X41170000Y-55050000D03*
D31*
X20533700Y-78632394D03*
D30*
X68858974Y-15052123D03*
D31*
X54585810Y-72354236D03*
D33*
X37238238Y-90685448D03*
D30*
X30992100Y-93608500D03*
D32*
X72300000Y-18625000D03*
D30*
X1725000Y-1275000D03*
D31*
X1277163Y-1114805D03*
D32*
X98800000Y-39000000D03*
D33*
X32750000Y-72770000D03*
D31*
X21717514Y-75742714D03*
D30*
X73677500Y-30622000D03*
D31*
X62000000Y-52550000D03*
D30*
X1550000Y-1000000D03*
X2100000Y-1250000D03*
X60124375Y-19038548D03*
X34100500Y-75181200D03*
X70583300Y-80041200D03*
X60150000Y-26775000D03*
X12685700Y-53870000D03*
X30878000Y-41602800D03*
X16610700Y-64727000D03*
X82099398Y-23034535D03*
D32*
X79100000Y-18200000D03*
D30*
X83251400Y-38302800D03*
X19268308Y-63135553D03*
X79485999Y-56176000D03*
X64800000Y-63900000D03*
D33*
X56781974Y-97533025D03*
D30*
X54104724Y-78725900D03*
D31*
X722836Y-1114805D03*
X20433700Y-75932394D03*
X58100000Y-22150000D03*
D30*
X93736709Y-10014900D03*
X94791900Y-27631900D03*
X27850000Y-72662500D03*
D32*
X61400000Y-19000000D03*
D30*
X72695000Y-85250000D03*
D33*
X21025000Y-66750000D03*
D31*
X23937300Y-48466800D03*
X17833700Y-74132394D03*
D30*
X30360446Y-51351518D03*
X63400000Y-73000000D03*
X12236709Y-39885099D03*
X79386000Y-59276000D03*
D31*
X58350000Y-22300000D03*
X42168499Y-65292000D03*
D30*
X1550000Y-1000000D03*
D33*
X53970000Y-11317500D03*
D30*
X78446604Y-24993469D03*
D31*
X21960810Y-22750000D03*
D30*
X63100000Y-73000000D03*
D31*
X57462000Y-29125000D03*
D30*
X17953431Y-47626799D03*
X74335099Y-87438290D03*
X80093400Y-35533400D03*
D31*
X66969899Y-79029900D03*
D30*
X90005000Y-55700000D03*
D31*
X55000000Y-19587200D03*
D30*
X43848500Y-53246799D03*
D32*
X5800000Y-20900000D03*
D30*
X30398205Y-37426794D03*
X32357794Y-47058200D03*
D31*
X28521407Y-75040113D03*
D30*
X89058939Y-16113284D03*
D32*
X68975000Y-19800000D03*
X13500000Y-15750000D03*
D30*
X82611800Y-36634090D03*
X22279358Y-82174432D03*
X22281500Y-25901500D03*
%TO.N,/Power/VDD*%
X62300000Y-56600000D03*
X64200000Y-56700000D03*
X59900000Y-57000000D03*
X63900000Y-61300000D03*
X63500000Y-60800000D03*
X59100000Y-56600000D03*
%TO.N,/Power/SW*%
X59600000Y-69200000D03*
X70300000Y-66100000D03*
X64700000Y-67000000D03*
X64500000Y-66700000D03*
X62764644Y-69364644D03*
D31*
X60262000Y-61501999D03*
D30*
X60500000Y-61300000D03*
D33*
X62848000Y-74176000D03*
X63048000Y-69576000D03*
D30*
%TO.N,/Power/FB*%
X69300000Y-69149999D03*
X58500000Y-59699999D03*
X62550000Y-69000000D03*
X70500000Y-72300000D03*
X69000000Y-68399999D03*
X59456568Y-61406567D03*
D31*
%TO.N,+3V3*%
X22349999Y-51337500D03*
D33*
X36975000Y-62250000D03*
D31*
X35252799Y-48554400D03*
X30750000Y-48537500D03*
D30*
X29442100Y-93608500D03*
X52393900Y-89602000D03*
X54364500Y-83846000D03*
X66241575Y-88839476D03*
X12769699Y-50239400D03*
D31*
X41502500Y-46438799D03*
X40962500Y-67250000D03*
X36802499Y-49238800D03*
X48105928Y-32269304D03*
D30*
X52111098Y-16108000D03*
D31*
X43248206Y-51115486D03*
D30*
X57914640Y-15021421D03*
X56500000Y-69100000D03*
X80065964Y-57592096D03*
X57361098Y-15908000D03*
X22339393Y-24188332D03*
X42332702Y-68829219D03*
D31*
X58680000Y-29050000D03*
D33*
X90292587Y-6580087D03*
X17229999Y-67250000D03*
D30*
X59400000Y-91449999D03*
X57214640Y-15621421D03*
X21737499Y-57550000D03*
X42148500Y-79548500D03*
X32137610Y-74026800D03*
X68243921Y-91210121D03*
X45960961Y-64706944D03*
X72000000Y-65000000D03*
X21750000Y-21337500D03*
D31*
X28500000Y-48437500D03*
X55859691Y-21306186D03*
D30*
X27844594Y-40878494D03*
X55393900Y-86402000D03*
X51964500Y-83846000D03*
X35616000Y-87666000D03*
X90800000Y-41450000D03*
X67034149Y-85871956D03*
X56171285Y-93811770D03*
X64248000Y-89497999D03*
X79520000Y-7900000D03*
X6470000Y-36900000D03*
X62224686Y-92018437D03*
X63124686Y-93568437D03*
X80031964Y-58158096D03*
X96957500Y-31900000D03*
D31*
X48155928Y-34869304D03*
D30*
X41954305Y-68790594D03*
X81425194Y-36060194D03*
D31*
X26500000Y-51487500D03*
D30*
X65348000Y-91198000D03*
X66984149Y-86221956D03*
X20626854Y-61912468D03*
X42189100Y-71173299D03*
D33*
X36063677Y-94358537D03*
D30*
X22976854Y-62662468D03*
X35594699Y-69446500D03*
X31237610Y-75226800D03*
X43310500Y-76410500D03*
D31*
X38252799Y-52054400D03*
X49105928Y-36769304D03*
D30*
X22266000Y-71878499D03*
X80083400Y-38761500D03*
X49751100Y-85092500D03*
X10558194Y-67698394D03*
X43341090Y-44911699D03*
X72245699Y-37135200D03*
X36250000Y-69975000D03*
X18737395Y-10305149D03*
X15954500Y-47698800D03*
X16826854Y-64362468D03*
X57400000Y-91250000D03*
D31*
X26693010Y-18634393D03*
D30*
X68100000Y-64100000D03*
D31*
X22650000Y-50837500D03*
D33*
X53970000Y-10047500D03*
D31*
X61980000Y-79830000D03*
D30*
X65930000Y-86580000D03*
X19250000Y-13855000D03*
X50983245Y-86282140D03*
X62630000Y-82380000D03*
X45160961Y-63006944D03*
X55673900Y-31724500D03*
X13230500Y-50452700D03*
X97207193Y-41917193D03*
X57907193Y-16417193D03*
D31*
X38352500Y-52338799D03*
D30*
X36016000Y-91266000D03*
X17050000Y-21437500D03*
X34446257Y-54327331D03*
X65672945Y-91254559D03*
X102357500Y-29200000D03*
X73666329Y-37851246D03*
D31*
X27582800Y-20874200D03*
D30*
X51396543Y-86715649D03*
D31*
X27700000Y-48437500D03*
D30*
X19137500Y-60150000D03*
X27896257Y-48177331D03*
X8400515Y-75504233D03*
X23954790Y-78172199D03*
D31*
X39402800Y-46104400D03*
X38662500Y-67250000D03*
D30*
X85668000Y-56818000D03*
X25197705Y-46292005D03*
X57688500Y-93901500D03*
X22192400Y-43949790D03*
X49399100Y-80170500D03*
X89915355Y-59183271D03*
D33*
X62300000Y-4200000D03*
D30*
X63435085Y-93811770D03*
X27657690Y-78840299D03*
X80031964Y-59258096D03*
X10069999Y-36900000D03*
X44133190Y-72973299D03*
X31561610Y-75527528D03*
X21708781Y-46909835D03*
X52564500Y-81346000D03*
X26224999Y-75345200D03*
X36496257Y-54027331D03*
X89355000Y-59250000D03*
X59597702Y-95075297D03*
X48455928Y-26669304D03*
X44648500Y-80048500D03*
X79994999Y-56950000D03*
D31*
X44352500Y-48238800D03*
D30*
X51764500Y-81346000D03*
X31288612Y-5494666D03*
D31*
X41462500Y-65550000D03*
X59323941Y-76551452D03*
X23782800Y-21099200D03*
D30*
X20218600Y-11723000D03*
D31*
X50860000Y-21100000D03*
D30*
X24148000Y-16160499D03*
X31794700Y-74046500D03*
X26466000Y-75578499D03*
D34*
X39402800Y-45104400D03*
D31*
X52823100Y-18343100D03*
D30*
X87288612Y-18294666D03*
X71598905Y-37641994D03*
X78645699Y-38735200D03*
X46310500Y-75810500D03*
X50651100Y-80492500D03*
X16979251Y-22091144D03*
X28646257Y-53777331D03*
X20465600Y-78220000D03*
X33594699Y-66946500D03*
X17170000Y-60250000D03*
X79416329Y-36501246D03*
X47905928Y-31519304D03*
X68134149Y-87771956D03*
X45394000Y-47952000D03*
X87168000Y-56617999D03*
X31394699Y-69346499D03*
X42948499Y-76448500D03*
X19247999Y-14360500D03*
X51420116Y-16928888D03*
D31*
X54509021Y-19095258D03*
D30*
X52802021Y-90042021D03*
X68700000Y-72300000D03*
X76099600Y-46330300D03*
D31*
X62680000Y-80730000D03*
D30*
X59023900Y-33774500D03*
X87931900Y-27631900D03*
X51012845Y-79264945D03*
D31*
X39662500Y-62250000D03*
X36448207Y-42743313D03*
D30*
X43189100Y-72373299D03*
X90800000Y-39550000D03*
D33*
X34287277Y-86564458D03*
X90595000Y-3950000D03*
D30*
X88925000Y-56100000D03*
X30750000Y-51345000D03*
X65870000Y-86200000D03*
X17763266Y-24066524D03*
D31*
X53596703Y-23265179D03*
D30*
X13280609Y-67978700D03*
%TO.N,/Power/RIPPLE_INJ*%
X61949999Y-53850000D03*
X65550000Y-57449999D03*
D33*
%TO.N,Net-(U18-VDD_USB)*%
X26982000Y-90782000D03*
X27482000Y-96282000D03*
D31*
%TO.N,/RP2350/GPIO32*%
X66642600Y-70351300D03*
X65176300Y-90523700D03*
X81546200Y-70351300D03*
X84396700Y-55150000D03*
%TO.N,/IWRL6432BD/XTALM*%
X54810000Y-15813500D03*
X63204000Y-24107500D03*
X61904000Y-22907500D03*
%TO.N,/IWRL6432BD/XTALP*%
X52984000Y-13913500D03*
X61091600Y-25250000D03*
X60880000Y-27637400D03*
X61096000Y-24325500D03*
D33*
%TO.N,/IWRL6432BD/1V8*%
X95140000Y-39540000D03*
D30*
X57102800Y-21109200D03*
D31*
X56850000Y-20950000D03*
D30*
X58312800Y-18172000D03*
X52955099Y-29488900D03*
X56012800Y-18072000D03*
D33*
X72940000Y-22540000D03*
X62239999Y-16240000D03*
D31*
X54132000Y-20420000D03*
D30*
X56093999Y-28113999D03*
X56152800Y-18359199D03*
D33*
X70440000Y-22040000D03*
D30*
X55955099Y-28388900D03*
X57244000Y-25764000D03*
%TO.N,/IWRL6432BD/NRESET*%
X54149999Y-16000000D03*
D31*
X85598000Y-20988000D03*
X72098000Y-14588000D03*
X77598000Y-14888000D03*
X58498000Y-15988000D03*
X59904000Y-14591999D03*
X60898000Y-14888000D03*
X60098000Y-14888000D03*
D30*
%TO.N,/IWRL6432BD/FT_USBDM*%
X56510000Y-14022500D03*
%TO.N,/IWRL6432BD/FT_USBDP*%
X48500000Y-16422500D03*
X50100000Y-14122500D03*
X52900000Y-13125000D03*
%TO.N,/IWRL6432BD/RADAR_VBGAP*%
X62668000Y-30068000D03*
X77568000Y-40968000D03*
X58654000Y-23203999D03*
X62168000Y-30568000D03*
%TO.N,/IWRL6432BD/RADAR_1V_RF_OUT*%
X59730600Y-21316300D03*
X53180600Y-20466300D03*
X59734000Y-21734000D03*
X63484000Y-27484000D03*
D33*
X63834000Y-27534000D03*
D30*
%TO.N,/IWRL6432BD/USB_VBUS*%
X74879200Y-84662800D03*
D31*
X52685800Y-27103800D03*
D30*
X51848523Y-23516477D03*
X58201799Y-11300000D03*
D31*
X59535799Y-30703800D03*
D33*
X51535800Y-27753800D03*
D31*
X57485800Y-28253800D03*
D30*
X51103800Y-28752000D03*
%TO.N,/IWRL6432BD/RADAR_1V4_APLL*%
X58756600Y-23748000D03*
X54506600Y-26198000D03*
D31*
%TO.N,/IWRL6432BD/RADAR_1V4_SYNTH*%
X59726000Y-25226000D03*
D33*
X58529999Y-17650000D03*
D30*
%TO.N,/IWRL6432BD/RADAR_1P2_RF*%
X62023999Y-30094000D03*
X61292000Y-29292000D03*
X59242000Y-21842000D03*
%TO.N,/IWRL6432BD/RADAR_SRAM_1V2*%
X57726000Y-21226000D03*
X57238499Y-22380000D03*
X56785847Y-21601827D03*
X57106000Y-22656000D03*
X50558499Y-25230000D03*
X60506000Y-28906000D03*
X51188498Y-24580000D03*
X53820000Y-23626500D03*
X60706000Y-31555999D03*
%TO.N,/IWRL6432BD/RADAR_1V2_INT*%
X57028500Y-23948500D03*
X50678500Y-22848500D03*
X56750000Y-25750000D03*
X51628500Y-21798500D03*
X56750000Y-23800000D03*
D31*
%TO.N,/RP2350/GPIO26*%
X85469300Y-57720500D03*
D30*
X58684800Y-89682300D03*
D31*
X58584800Y-90682000D03*
X59070800Y-59696300D03*
D30*
X64384800Y-87582300D03*
X56684800Y-61782300D03*
X58584800Y-60882300D03*
D33*
%TO.N,/THX8136/3V3_DVDD_PRE*%
X87386900Y-32106700D03*
X74286900Y-15806700D03*
X81709400Y-38541799D03*
X83609400Y-36741800D03*
%TO.N,/THX8136/DVDD_1V8*%
X73745500Y-32065100D03*
X86550600Y-17373000D03*
X84145500Y-37065100D03*
X90850600Y-27673000D03*
D31*
%TO.N,/RP2350/GPIO33*%
X66516400Y-89400000D03*
X81958800Y-71352300D03*
X86547100Y-54483600D03*
X66661500Y-71352300D03*
X83234900Y-56614900D03*
D33*
%TO.N,/MM8108/3V3_MM8108*%
X31014000Y-81514000D03*
X34114000Y-82214000D03*
X22648800Y-92541800D03*
X21448800Y-91341800D03*
D31*
%TO.N,/RP2350/GPIO35*%
X61339200Y-58925800D03*
X64295000Y-88600000D03*
X84651500Y-54536500D03*
D32*
%TO.N,/AD9609/3V3_AFE*%
X63600000Y-11900000D03*
X64980000Y-21800000D03*
D33*
X103155000Y-27480000D03*
X92144805Y-8525000D03*
X73044805Y-10625000D03*
D32*
X70100000Y-11800000D03*
D33*
X103155000Y-12080000D03*
D30*
X71964805Y-10577163D03*
D32*
X66200000Y-18625000D03*
D33*
%TO.N,/AD9609/DRVDD_3V3*%
X96839000Y-11025000D03*
D30*
X65141999Y-26198000D03*
D33*
X85185000Y-12110000D03*
X95285000Y-10710000D03*
D32*
X65300000Y-25800000D03*
D33*
X101439000Y-30725000D03*
D30*
X84341999Y-12098000D03*
D33*
%TO.N,/AD9609/LDO_1V8*%
X93323000Y-11648000D03*
D30*
X100873000Y-12098000D03*
D33*
X99623000Y-12148000D03*
D30*
X100473000Y-31998000D03*
D33*
%TO.N,/AD9609/AVDD_1V8*%
X97781000Y-18406000D03*
X72083000Y-22654000D03*
D32*
X65599999Y-23400000D03*
D33*
X68697499Y-29878100D03*
D30*
X68141500Y-24034600D03*
X66641499Y-24034600D03*
D33*
X88782999Y-12954000D03*
X101381000Y-31906000D03*
X70797499Y-23978100D03*
D30*
%TO.N,/AD9609/VREF*%
X72150000Y-26400000D03*
D32*
X63000000Y-13400000D03*
X68000000Y-10200000D03*
D30*
X70650000Y-39000000D03*
D32*
X70141500Y-23200000D03*
D30*
X68150000Y-39000000D03*
%TO.N,/AD9609/VCM*%
X68191499Y-21250000D03*
D32*
X65500000Y-17975000D03*
D30*
X75241500Y-32100000D03*
D32*
X69141500Y-23500000D03*
D30*
X73691499Y-34300000D03*
X74091500Y-22300000D03*
X70991499Y-21250000D03*
%TO.N,/AD9609/ADC_VIN_P*%
X67620000Y-21600000D03*
X69620000Y-16600000D03*
X79020000Y-11000000D03*
%TO.N,/AD9609/ADC_VIN_N*%
X75800000Y-15300000D03*
X80500000Y-11100000D03*
X68100000Y-20800000D03*
D35*
%TO.N,/STM32H7/HSE_IN*%
X15593668Y-63464692D03*
X9825406Y-64469603D03*
D32*
X42564200Y-80375600D03*
D35*
X14251088Y-66399241D03*
D32*
X42934800Y-61908200D03*
D35*
X24922637Y-61681128D03*
X20661775Y-60374847D03*
D30*
%TO.N,/STM32H7/VCAP1*%
X30386000Y-68936500D03*
X41186000Y-64636500D03*
X30386000Y-70136500D03*
X23186000Y-71536500D03*
D35*
%TO.N,/STM32H7/HSE_OUT*%
X16753109Y-58022585D03*
X13488558Y-63601458D03*
D33*
%TO.N,/STM32H7/VBAT*%
X17079500Y-46603500D03*
X20779500Y-43303500D03*
D30*
%TO.N,/STM32H7/VDDA*%
X43469500Y-55200400D03*
X47469500Y-59700400D03*
X19061500Y-64192400D03*
X26504900Y-43011900D03*
X27504900Y-44411900D03*
X32961500Y-48592400D03*
X30169500Y-55700400D03*
X36569500Y-55700400D03*
X31104900Y-48211900D03*
X47569500Y-70500400D03*
X44969500Y-72400400D03*
X28904900Y-40711900D03*
X29404900Y-45511900D03*
X28004900Y-41511900D03*
%TO.N,/STM32H7/3V3_XSPI*%
X31668000Y-64291000D03*
D33*
X27250000Y-71662500D03*
D30*
X41568000Y-57191000D03*
X36868000Y-75391000D03*
X33268000Y-72791000D03*
X26194000Y-87306500D03*
X40963407Y-74379913D03*
D31*
X41050000Y-74662500D03*
D30*
X26994000Y-86206499D03*
X28194000Y-69206499D03*
X21794000Y-77206499D03*
X32168000Y-61791000D03*
X22094000Y-70606500D03*
D33*
X17619799Y-70884999D03*
D30*
X23957600Y-75724499D03*
X24494000Y-88406500D03*
D31*
X30138000Y-67462499D03*
D30*
X24857599Y-75424500D03*
D31*
X33154592Y-75951412D03*
D30*
X22857599Y-76824500D03*
D31*
X33250000Y-72062500D03*
X31476088Y-66093114D03*
D30*
X24094000Y-80606500D03*
D33*
X7719799Y-63984999D03*
X16419800Y-70985000D03*
X24250000Y-71662500D03*
D30*
X32168000Y-62491000D03*
X25557600Y-73224499D03*
X33168000Y-75591000D03*
X24757600Y-73124500D03*
X27794000Y-80906500D03*
X23894000Y-68906500D03*
D31*
X36950000Y-75962499D03*
D33*
X13819800Y-69185000D03*
D30*
X24557600Y-76424500D03*
X24094000Y-82206499D03*
D31*
%TO.N,/STM32H7/VCAP2*%
X22603700Y-58061000D03*
X38653700Y-66311000D03*
X14703700Y-56261000D03*
X35353700Y-63061000D03*
D35*
%TO.N,/STM32H7/LSE_IN*%
X21072000Y-54528856D03*
X51442260Y-64899445D03*
X28011860Y-46614642D03*
D33*
%TO.N,/STM32H7/VCAP34*%
X23180000Y-55367500D03*
D30*
X43166500Y-65304000D03*
D33*
X16480000Y-40767500D03*
X38680000Y-57167500D03*
X13580000Y-45567500D03*
X34580000Y-53667500D03*
X13979999Y-43267500D03*
X22580000Y-45367500D03*
X23980000Y-46767500D03*
D30*
X40116500Y-57304000D03*
D32*
%TO.N,/STM32H7/VREFP*%
X33482000Y-77076500D03*
D35*
X21029895Y-62682575D03*
X32595547Y-48963091D03*
X36378214Y-68562430D03*
D32*
%TO.N,/STM32H7/NRST*%
X32428000Y-41529200D03*
X16676000Y-59265700D03*
X18796800Y-74823300D03*
D35*
%TO.N,/STM32H7/ETH_PHY_RESET*%
X51253331Y-49182766D03*
X52877105Y-50227760D03*
%TO.N,/STM32H7/PHY_XTAL1*%
X14141706Y-45200106D03*
X28717457Y-45541401D03*
X41831961Y-78294350D03*
%TO.N,/STM32H7/PHY_XTAL2*%
X18928091Y-49625103D03*
X29442062Y-42694130D03*
X42426848Y-78434882D03*
D31*
%TO.N,/STM32H7/USB_VBUS_SENSE*%
X29089600Y-37648000D03*
X30424500Y-39543000D03*
%TO.N,/STM32H7/3V3_USB*%
X42962000Y-54920700D03*
X41162000Y-55820700D03*
D30*
X34125000Y-49193500D03*
X14625000Y-71293500D03*
D31*
X44362000Y-54820700D03*
D30*
X14825000Y-67393500D03*
D31*
X34062000Y-52020700D03*
D30*
X46170500Y-59308700D03*
D31*
X34762000Y-52020700D03*
D30*
X45970500Y-56408699D03*
D31*
X34162000Y-50720700D03*
D30*
X15625000Y-66593500D03*
%TO.N,/STM32H7/PHY_VDDCR*%
X51580500Y-65513300D03*
X52380500Y-64813300D03*
X48980500Y-64313300D03*
X45980500Y-61113299D03*
X42980500Y-79813300D03*
X47480500Y-83213300D03*
X41380500Y-83213300D03*
X38880500Y-82113300D03*
X45980500Y-64313300D03*
X44980500Y-83213300D03*
%TO.N,/Power/VIN*%
X62200000Y-70700000D03*
X59400000Y-67700000D03*
X84315000Y-56140000D03*
X58800000Y-58600000D03*
X59600000Y-56000000D03*
X60500000Y-57000000D03*
X98315000Y-64340000D03*
X58900000Y-58800000D03*
%TO.N,/Power/MODE_SS*%
X63599999Y-53100000D03*
X64649999Y-61199999D03*
%TO.N,/Power/AGND*%
X65600000Y-58000000D03*
X67300000Y-54800000D03*
X66900000Y-54700000D03*
X59000000Y-50800000D03*
%TO.N,/Power/SVIN*%
X64400000Y-54400000D03*
X55400000Y-53600000D03*
%TO.N,/Power/PG*%
X75209000Y-59384000D03*
X68909000Y-56884000D03*
X67709000Y-55784000D03*
X82909000Y-66384000D03*
%TO.N,/Power/EN*%
X66101999Y-62087000D03*
X74001999Y-63487000D03*
X98301999Y-76287000D03*
X64700000Y-57150000D03*
X67150000Y-61100000D03*
X76701999Y-63487000D03*
D31*
%TO.N,/RP2350/GPIO34*%
X63725900Y-86809200D03*
X86100000Y-55521100D03*
X61859800Y-59704200D03*
%TO.N,/RP2350/GPIO27*%
X59000000Y-90675800D03*
X87887100Y-56413400D03*
X59000000Y-60210600D03*
D35*
%TO.N,/STM32H7/SWDIO*%
X22378638Y-56594159D03*
X14415336Y-51652867D03*
%TO.N,/STM32H7/SWO*%
X16079517Y-46774690D03*
X23942746Y-51371869D03*
%TO.N,/STM32H7/SWCLK*%
X12327980Y-47217839D03*
X18652983Y-41721567D03*
X17274562Y-41830746D03*
X22636320Y-56350845D03*
D32*
X21140200Y-41548300D03*
D35*
%TO.N,/STM32H7/JTDI*%
X12490610Y-45416945D03*
X13845956Y-46055628D03*
X19562236Y-54079920D03*
X17971469Y-39563267D03*
D30*
%TO.N,/STM32H7/USB_VBUS*%
X47625000Y-54346000D03*
X46925000Y-57146000D03*
X52325000Y-75845999D03*
X51225000Y-55046000D03*
D33*
X22925000Y-37046000D03*
X43625000Y-96045999D03*
D30*
X52025000Y-77345999D03*
D31*
%TO.N,/STM32H7/USB_CONN_DP*%
X50408500Y-56592800D03*
X51483700Y-68238400D03*
X46826800Y-95222300D03*
%TO.N,/STM32H7/USB_CONN_DM*%
X50973400Y-68022500D03*
X46349700Y-95222300D03*
X50127700Y-53651200D03*
%TO.N,/STM32H7/USB_CC1*%
X27679100Y-36009800D03*
X28812300Y-85411000D03*
X44896300Y-92593600D03*
X26883700Y-43436800D03*
X25524700Y-45063600D03*
%TO.N,/IWRL6432BD/USB_ID*%
X59042500Y-13130900D03*
D35*
X83116637Y-86794925D03*
D31*
X56242500Y-15730900D03*
X66942500Y-29730900D03*
X65142500Y-30930900D03*
X69742500Y-22130900D03*
D35*
X64459636Y-30915407D03*
D30*
%TO.N,Net-(R13-Pad1)*%
X51830800Y-17050000D03*
X49330800Y-27400000D03*
X52930800Y-15100000D03*
X54230800Y-15250000D03*
%TO.N,Net-(R14-Pad1)*%
X49480800Y-25825000D03*
D31*
%TO.N,/IWRL6432BD/FT_TXD*%
X51689819Y-30700000D03*
X51993819Y-30704000D03*
X57343819Y-33554000D03*
X50189819Y-30700000D03*
D32*
X54032400Y-8777500D03*
X57841000Y-34360000D03*
D31*
%TO.N,/IWRL6432BD/FT_RXD*%
X55279300Y-33848800D03*
X52188200Y-10682500D03*
D30*
X51779300Y-25241800D03*
X55579300Y-33841800D03*
X59279300Y-32041800D03*
D31*
%TO.N,/IWRL6432BD/RS232_TX*%
X53603300Y-32328000D03*
X56059298Y-24939999D03*
X55703300Y-33128000D03*
X51119299Y-33144000D03*
%TO.N,/IWRL6432BD/QSPI_CS*%
X53768800Y-16742700D03*
X44337500Y-35096400D03*
X56488000Y-26988000D03*
X56488500Y-34725000D03*
%TO.N,/IWRL6432BD/QSPI_D2*%
X70767100Y-40266800D03*
X44473100Y-38169500D03*
X68167100Y-39966800D03*
X61350000Y-27713400D03*
X56027500Y-25990900D03*
X64000000Y-38363400D03*
X62500000Y-29113400D03*
X57100000Y-25413400D03*
X63531100Y-39830800D03*
X77567100Y-42966800D03*
%TO.N,/IWRL6432BD/QSPI_D3*%
X56794800Y-26592900D03*
X57469100Y-35264300D03*
D33*
%TO.N,/THX8136/AR*%
X99800000Y-20000000D03*
D30*
X77800000Y-15900000D03*
X82900000Y-11100000D03*
D33*
X78617900Y-22550000D03*
%TO.N,/THX8136/AG*%
X98800000Y-24000000D03*
D30*
X85300000Y-11000000D03*
D33*
X79633900Y-22550000D03*
D30*
X86000000Y-15900000D03*
%TO.N,/THX8136/AB*%
X87000000Y-11000000D03*
D33*
X100800000Y-16000000D03*
X77627300Y-22550000D03*
D30*
X76400000Y-15500000D03*
D35*
%TO.N,/THX8136/BLANK*%
X48737121Y-71061954D03*
X81288886Y-33259953D03*
X78962438Y-41621578D03*
X69253225Y-75086765D03*
D32*
X40842700Y-68750000D03*
D35*
X77226172Y-51816291D03*
X46471001Y-71381374D03*
X79715745Y-62088994D03*
X69269067Y-76668229D03*
X45773648Y-70124518D03*
X79218606Y-43110893D03*
X47776267Y-71830546D03*
X84516012Y-32784360D03*
X46161145Y-73122492D03*
D31*
%TO.N,/THX8136/SYNC*%
X81478000Y-33577999D03*
X65064000Y-9913500D03*
X83878000Y-39477999D03*
X82043100Y-30028000D03*
D35*
%TO.N,/THX8136/SYNC_T*%
X54866287Y-42428770D03*
X69416054Y-37902905D03*
X43200958Y-38150976D03*
X20210510Y-46459951D03*
X43548478Y-37123440D03*
X33462629Y-42073208D03*
X80906554Y-33877927D03*
X74611515Y-33005481D03*
X60615912Y-40598125D03*
X54265819Y-35245162D03*
D33*
%TO.N,/THX8136/FSADJ*%
X81132500Y-22500000D03*
D31*
%TO.N,/THX8136/M2*%
X82340589Y-12013500D03*
D35*
X7905313Y-37605270D03*
D31*
X81640590Y-10113500D03*
X82340589Y-13913500D03*
X74840589Y-8513500D03*
X76224699Y-23011500D03*
D35*
X20660791Y-49184773D03*
X16731686Y-42945684D03*
D31*
X77040590Y-21913500D03*
X90224699Y-25911500D03*
D35*
%TO.N,/MM8108/SDIO_D0_SPI_MISO*%
X23054989Y-68565321D03*
X17329939Y-73086309D03*
X18413033Y-78401398D03*
X26176679Y-84113688D03*
X16069695Y-75037036D03*
X32787225Y-83103501D03*
X37022751Y-63424710D03*
X18356377Y-80018105D03*
X27358996Y-68337381D03*
X38779180Y-94533744D03*
%TO.N,/MM8108/SDIO_D1_SPI_INT*%
X38676782Y-62733764D03*
D32*
X30996100Y-84973400D03*
D35*
X25784185Y-67635209D03*
X16435646Y-74948289D03*
D32*
X12425800Y-85711500D03*
D35*
X20937223Y-79020078D03*
X17683785Y-73105938D03*
X20211860Y-81298270D03*
X22322035Y-69101975D03*
%TO.N,/MM8108/SDIO_D2*%
X17059201Y-80062788D03*
X30725016Y-69583285D03*
X11100557Y-83741500D03*
X30996513Y-68091630D03*
X36596877Y-59085426D03*
X36540538Y-63670540D03*
X22258997Y-76212329D03*
D32*
X32723000Y-85403000D03*
X14322500Y-87237900D03*
X38494200Y-55750000D03*
D35*
%TO.N,/MM8108/SDIO_D3_SPI_CS*%
X38794977Y-77361874D03*
X36634999Y-82418183D03*
X23537335Y-87715525D03*
X41411691Y-70657090D03*
X36440254Y-80680839D03*
X34008327Y-82927447D03*
X37220482Y-73881964D03*
X33533429Y-61199676D03*
X37760943Y-55979728D03*
X16086760Y-91025392D03*
D32*
%TO.N,/MM8108/SDIO_CMD_SPI_MOSI*%
X30730500Y-86500000D03*
D35*
X14093052Y-53895495D03*
X9063932Y-86150750D03*
X15766343Y-90225427D03*
X27414907Y-54623549D03*
D32*
X13683000Y-91362400D03*
D31*
%TO.N,/AD9609/SCOPE_PGA_CS_N*%
X89417999Y-35068000D03*
X74846000Y-23813500D03*
X88724000Y-60374000D03*
X78824000Y-44174000D03*
X82446000Y-37213500D03*
X82917999Y-38668000D03*
D32*
%TO.N,/AD9609/PGA_OUT*%
X71112500Y-14200000D03*
X64807049Y-14264819D03*
D31*
%TO.N,/AD9609/RBIAS*%
X68618447Y-23884600D03*
X67668447Y-30034600D03*
X92529258Y-37560000D03*
%TO.N,/AD9609/SCOPE_DRIVER_PD_N*%
X92868500Y-13131000D03*
X97268499Y-17431000D03*
X98068500Y-43631000D03*
X71168500Y-17831000D03*
D35*
%TO.N,/STM32H7/BOOT0*%
X28520131Y-51569759D03*
X13438029Y-51214679D03*
%TO.N,/STM32H7/PHY_RXER*%
X40071805Y-44772037D03*
X45497587Y-80604473D03*
X39356138Y-48457067D03*
X37366173Y-42035949D03*
%TO.N,/STM32H7/ETH_RXD0*%
X28154093Y-77534773D03*
X34486696Y-79027532D03*
X21189687Y-73282633D03*
X48288404Y-81908588D03*
X40198324Y-46683155D03*
X21973686Y-74865861D03*
%TO.N,/STM32H7/ETH_RXD1*%
X35162839Y-48884381D03*
X23079354Y-70618779D03*
X34999420Y-62379117D03*
X24342407Y-68930629D03*
X20597101Y-72634707D03*
X34270020Y-60028448D03*
X34843874Y-78542545D03*
%TO.N,/STM32H7/ETH_CRS_DV*%
X47876274Y-58188403D03*
X46982491Y-65758411D03*
X20890505Y-70090033D03*
X45689737Y-65986333D03*
D32*
X46894000Y-80600800D03*
D35*
%TO.N,/STM32H7/ETH_MDIO*%
X47880359Y-79688222D03*
D32*
X16644500Y-37918600D03*
D35*
X34351188Y-69444858D03*
X47680317Y-75704568D03*
X42657818Y-74410869D03*
D32*
X17160500Y-65750000D03*
D31*
%TO.N,/STM32H7/USB_DP_ESD*%
X49855300Y-53953700D03*
X11909100Y-37288700D03*
X37322000Y-33574800D03*
X37845000Y-53971200D03*
%TO.N,/STM32H7/USB_FS_DP*%
X12925000Y-37615700D03*
X14354200Y-48611500D03*
X19612400Y-51569600D03*
%TO.N,/STM32H7/USB_DM_ESD*%
X51250000Y-52750000D03*
X15000000Y-37500000D03*
%TO.N,/STM32H7/USB_FS_DM*%
X24369200Y-52604100D03*
X20728400Y-37696700D03*
D35*
%TO.N,/STM32H7/PHY_RBIAS*%
X25963692Y-38035456D03*
X31636714Y-45843049D03*
X41593096Y-71023455D03*
X38429542Y-73662946D03*
X31297483Y-60431129D03*
X21430340Y-36868441D03*
D31*
%TO.N,/STM32H7/USB_CC2*%
X25885300Y-45425300D03*
X27306000Y-44004600D03*
X27306000Y-38316700D03*
X47750000Y-92825800D03*
X28420400Y-85364500D03*
D32*
%TO.N,/STM32H7/ETH_LED1*%
X31704400Y-35053200D03*
D35*
X52259392Y-58768429D03*
X8695400Y-38792979D03*
X45578317Y-69114024D03*
D32*
X40410600Y-77529200D03*
D35*
X39418388Y-36967740D03*
%TO.N,/STM32H7/RJ_LED_GREEN_A*%
X4732498Y-69271076D03*
X11984595Y-73368912D03*
D32*
X29391200Y-38533400D03*
D35*
X22295502Y-75447437D03*
X6602914Y-44981095D03*
%TO.N,/STM32H7/ETH_LED2*%
X32897501Y-80721549D03*
D32*
X10285600Y-44361800D03*
D35*
X36657745Y-79733370D03*
D32*
X41145900Y-77489600D03*
%TO.N,/STM32H7/RJ_LED_YELLOW_A*%
X6700000Y-40025600D03*
D30*
%TO.N,/Power/ILIM*%
X59550000Y-62550000D03*
X59550000Y-64200000D03*
X62250000Y-68550000D03*
D31*
%TO.N,Net-(U20-CH1)*%
X75244000Y-14300000D03*
X77844000Y-41800000D03*
X75143999Y-24100000D03*
X92802700Y-37804000D03*
X77344000Y-33500000D03*
X75244000Y-20600000D03*
X97114000Y-38214000D03*
X70643999Y-13000000D03*
X64843999Y-12400000D03*
%TO.N,/RP2350/GPIO41_ADC1*%
X77460700Y-70646100D03*
X64230100Y-70646100D03*
X78436500Y-57585300D03*
X64230100Y-85400000D03*
%TO.N,/RP2350/GPIO36*%
X78719900Y-58639400D03*
X62321500Y-58619200D03*
X64193400Y-86712600D03*
X78115600Y-54895900D03*
%TO.N,/RP2350/GPIO37*%
X65816100Y-87852600D03*
X65313700Y-69269500D03*
%TO.N,/RP2350/GPIO38*%
X81948600Y-57921200D03*
X81208900Y-75313700D03*
%TO.N,/RP2350/GPIO28*%
X81484000Y-55900000D03*
X64819000Y-69929600D03*
X81244400Y-69929600D03*
X64094600Y-90175100D03*
%TO.N,/IWRL6432BD/JTAG_TMS*%
X47610000Y-24040000D03*
X49320960Y-14490207D03*
X88864000Y-17614000D03*
X69864000Y-19164000D03*
X72164000Y-19164000D03*
X52320000Y-23080000D03*
%TO.N,/IWRL6432BD/JTAG_TDI*%
X47750000Y-23250000D03*
X55591636Y-23547701D03*
X48750000Y-16032000D03*
X52109079Y-23760524D03*
%TO.N,/IWRL6432BD/JTAG_TCK*%
X54439900Y-24842500D03*
X89614700Y-18770000D03*
X60488700Y-22494000D03*
X57788700Y-23019000D03*
%TO.N,/IWRL6432BD/TDO_SOP0*%
X51274999Y-20315599D03*
X54574999Y-19965600D03*
X54474999Y-23465600D03*
X78294000Y-9584000D03*
X90675999Y-20313500D03*
X56803000Y-17262000D03*
X54331200Y-19771800D03*
X53675000Y-26015600D03*
X54603000Y-19662000D03*
X52743000Y-24725300D03*
X98375999Y-16413500D03*
X51474999Y-22965600D03*
X57094000Y-17084000D03*
X58194000Y-16683999D03*
%TO.N,/IWRL6432BD/PMIC_CLKOUT_SOP1*%
X50302900Y-16413500D03*
X53802900Y-7313500D03*
X55998500Y-23003100D03*
X55584900Y-23095500D03*
D35*
%TO.N,/MM8108/TDO_SOP0*%
X20483022Y-97421217D03*
X24582379Y-89129580D03*
D31*
%TO.N,/XCC1352R1F3RGZR/DIO_25*%
X31360707Y-12696586D03*
X31535300Y-12913500D03*
X54535300Y-44013500D03*
X61935300Y-49113500D03*
X25759300Y-14723200D03*
X53735300Y-44813500D03*
D30*
X77536700Y-43676600D03*
D31*
%TO.N,/XCC1352R1F3RGZR/DIO_23*%
X24059900Y-15031700D03*
X36330800Y-87040100D03*
D30*
%TO.N,/XCC1352R1F3RGZR/DIO_22*%
X62050000Y-79050000D03*
D31*
X39141700Y-73756900D03*
D30*
X62200000Y-77100000D03*
X49035600Y-72200000D03*
D31*
X30712500Y-17250000D03*
D30*
X47635600Y-73900000D03*
D32*
%TO.N,/MM8108/JTAG_TMS*%
X21266100Y-80950100D03*
D31*
%TO.N,/XCC1352R1F3RGZR/DIO_26*%
X56103000Y-17177200D03*
X58303000Y-19227200D03*
X72553000Y-25127200D03*
X68853000Y-31177200D03*
X71253000Y-40777200D03*
X71503000Y-35927200D03*
X72703000Y-23727200D03*
X26750800Y-14597000D03*
X85453000Y-88377200D03*
X55903000Y-16977200D03*
X80053000Y-66227200D03*
X80053000Y-62177200D03*
D30*
%TO.N,/XCC1352R1F3RGZR/RESET_N*%
X21958500Y-11098500D03*
X24358500Y-14298500D03*
D31*
X24091500Y-15750000D03*
%TO.N,/XCC1352R1F3RGZR/DIO_21*%
X80188400Y-39764000D03*
X25888400Y-18664000D03*
X62388400Y-44264000D03*
X72088400Y-42664000D03*
X49088400Y-43064000D03*
X25266400Y-18542000D03*
D35*
%TO.N,/MM8108/NRESET*%
X23033545Y-87398093D03*
%TO.N,/MM8108/JTAG_TDI*%
X30873516Y-82597454D03*
X25960128Y-98535445D03*
D31*
%TO.N,/XCC1352R1F3RGZR/DIO_27*%
X89258800Y-48696200D03*
X23087700Y-33135100D03*
X21624100Y-13913200D03*
D30*
%TO.N,/XCC1352R1F3RGZR/X48M_N*%
X16533800Y-12855900D03*
X15733800Y-12855900D03*
D31*
%TO.N,/XCC1352R1F3RGZR/DIO_20*%
X23745500Y-18313499D03*
X24087500Y-18250000D03*
X71945500Y-69213500D03*
X54745500Y-65113500D03*
X25145500Y-21013500D03*
D35*
%TO.N,/MM8108/JTAG_TCK*%
X24890590Y-89833156D03*
D32*
X27604100Y-82223400D03*
D35*
X27386136Y-85405443D03*
X20565882Y-95895135D03*
D31*
%TO.N,/XCC1352R1F3RGZR/DIO_11*%
X59780000Y-24730000D03*
X56780000Y-18480000D03*
X62330000Y-27580000D03*
D30*
%TO.N,/XCC1352R1F3RGZR/X48M_P*%
X16633800Y-14455900D03*
X17633800Y-14655900D03*
D31*
%TO.N,/XCC1352R1F3RGZR/DIO_30*%
X9822500Y-18180500D03*
X19722500Y-14580500D03*
%TO.N,/XCC1352R1F3RGZR/DIO_18*%
X49105300Y-43500000D03*
X25905300Y-21000000D03*
X61805300Y-44900000D03*
X74905300Y-48600000D03*
X24103300Y-19250000D03*
D30*
%TO.N,/XCC1352R1F3RGZR/DCOUPL*%
X28650000Y-23350800D03*
X28350000Y-21650800D03*
X28250000Y-20650800D03*
X25850000Y-15850800D03*
X22550000Y-23350800D03*
X22350000Y-21650800D03*
D31*
%TO.N,/XCC1352R1F3RGZR/DIO_29*%
X37406600Y-94143400D03*
X21170200Y-13582700D03*
%TO.N,/XCC1352R1F3RGZR/DIO_12*%
X25784300Y-24713200D03*
X34925100Y-65026200D03*
D30*
%TO.N,/XCC1352R1F3RGZR/VDDR*%
X18650000Y-14462500D03*
X14850000Y-22762500D03*
X20650000Y-13362500D03*
X22250000Y-11962500D03*
X12650000Y-18062500D03*
X25850000Y-11962500D03*
X25150000Y-23362500D03*
X14850000Y-21862500D03*
D31*
%TO.N,/XCC1352R1F3RGZR/JTAG_TCKC*%
X33886400Y-19853500D03*
%TO.N,/XCC1352R1F3RGZR/DIO_16*%
X23986600Y-64750000D03*
X33059500Y-19154700D03*
X24086400Y-20250000D03*
%TO.N,/XCC1352R1F3RGZR/DIO_19*%
X55096400Y-45213500D03*
X50296400Y-45413500D03*
X32196399Y-27913500D03*
X77296400Y-53713500D03*
X26896400Y-21413500D03*
X69496400Y-53313500D03*
X24088400Y-18750000D03*
X87296400Y-60413500D03*
%TO.N,/XCC1352R1F3RGZR/DIO_17*%
X32702900Y-19042800D03*
X52631300Y-70243700D03*
%TO.N,/XCC1352R1F3RGZR/DIO_24*%
X23377500Y-33486200D03*
X66443800Y-47428700D03*
X23377500Y-14562500D03*
%TO.N,Net-(J17-CC1)*%
X28661300Y-96859500D03*
X18910000Y-83476300D03*
%TO.N,Net-(J17-CC2)*%
X19398500Y-84895700D03*
X31750000Y-94237800D03*
%TO.N,/XCC1352R1F3RGZR/JTAG_TMSC*%
X25446500Y-21398400D03*
%TO.N,/XCC1352R1F3RGZR/DIO_10*%
X18750000Y-22085300D03*
X23546200Y-73065100D03*
%TO.N,/XCC1352R1F3RGZR/DIO_13*%
X20721900Y-22860500D03*
X41093800Y-60103700D03*
X33488800Y-23038100D03*
%TO.N,/XCC1352R1F3RGZR/DIO_28*%
X26175200Y-13542400D03*
X39817900Y-93234000D03*
D32*
%TO.N,/XCC1352R1F3RGZR/RF_SUB1_SW*%
X9800000Y-14800000D03*
X10480000Y-19100000D03*
%TO.N,/IWRL6432BD/USB_DP_CONN*%
X48570700Y-29013300D03*
X77751600Y-95060100D03*
D30*
%TO.N,/IWRL6432BD/USB_DM_CONN*%
X55000000Y-65750000D03*
X56100000Y-68250000D03*
D35*
X74765623Y-92549797D03*
D30*
X55300000Y-67450000D03*
D35*
X48402830Y-33926365D03*
D31*
%TO.N,/IWRL6432BD/QSPI_D0*%
X50622500Y-37060000D03*
X47622500Y-28810000D03*
X55922500Y-26409999D03*
%TO.N,/IWRL6432BD/QSPI_CLK*%
X50322200Y-38556200D03*
X52630700Y-28742900D03*
%TO.N,/AD9609/SCOPE_PGA_DIO*%
X70672000Y-16872000D03*
X74212000Y-44012000D03*
X72872000Y-24072000D03*
X71072000Y-20272000D03*
X76072000Y-37172000D03*
%TO.N,/AD9609/SCOPE_PGA_SCLK*%
X25750000Y-69780200D03*
X74966000Y-44466000D03*
X75246800Y-44745000D03*
X70066000Y-15166000D03*
D32*
%TO.N,/AD9609/D5*%
X67706200Y-37444200D03*
D35*
X48189566Y-40375388D03*
X36591790Y-46478018D03*
X57186846Y-44324840D03*
X53508608Y-47249755D03*
X30349631Y-46405667D03*
%TO.N,/AD9609/D0*%
X46497499Y-46931792D03*
X59938952Y-37891745D03*
X65229906Y-31473470D03*
X41194326Y-53798951D03*
X45151294Y-49264075D03*
X41057237Y-50969818D03*
D31*
%TO.N,/AD9609/MODE_OR*%
X46152200Y-32213000D03*
X38523400Y-65157500D03*
X71533500Y-25222100D03*
D35*
%TO.N,/AD9609/CSB*%
X45321270Y-66654405D03*
X44128495Y-66922136D03*
X48728740Y-65322766D03*
X51381900Y-66345344D03*
D31*
%TO.N,/AD9609/D8*%
X36031800Y-35827200D03*
X72243400Y-26806700D03*
X35587600Y-70112300D03*
%TO.N,/AD9609/D9*%
X71050000Y-26372100D03*
X68500000Y-30600000D03*
X63199999Y-26900000D03*
%TO.N,/AD9609/CLK_N*%
X65958000Y-25230100D03*
D33*
X53550000Y-33750000D03*
X52350000Y-61500000D03*
X31950000Y-69450000D03*
D31*
X64057999Y-28730100D03*
D35*
%TO.N,/AD9609/D6*%
X27234176Y-51542659D03*
X51178640Y-49536619D03*
X72172842Y-33466040D03*
X71941071Y-30246767D03*
X47502515Y-52066555D03*
X54615103Y-50295156D03*
X43181125Y-50240470D03*
X28120597Y-53444759D03*
%TO.N,/AD9609/D1*%
X44773010Y-49150141D03*
X46592755Y-47802065D03*
X64895545Y-35412961D03*
X40965245Y-50407924D03*
X41516092Y-53405368D03*
X60160130Y-38485587D03*
%TO.N,/AD9609/D2*%
X41619578Y-72767175D03*
X54886555Y-50648460D03*
X45315661Y-69429900D03*
X52973178Y-56349052D03*
D31*
%TO.N,/AD9609/CLK_P*%
X64007121Y-30068100D03*
D35*
X35250454Y-72900238D03*
X45379240Y-68174067D03*
X56665916Y-42274655D03*
%TO.N,/AD9609/D7*%
X71521415Y-27282120D03*
X70523789Y-34196921D03*
X34448670Y-68596503D03*
X54722849Y-50995941D03*
X51944269Y-50961953D03*
X45200579Y-67561485D03*
D31*
%TO.N,/AD9609/SDIO_PDWN*%
X66795711Y-30634100D03*
X65995711Y-27234100D03*
D35*
X31613477Y-69966216D03*
D31*
X58695710Y-38034100D03*
D35*
X45698317Y-65620109D03*
X56952961Y-41424624D03*
D31*
X63195710Y-37534100D03*
X60695710Y-39134100D03*
D35*
%TO.N,/AD9609/D4*%
X45819359Y-42767919D03*
X55583188Y-40831096D03*
D32*
X27973900Y-51499100D03*
D35*
X46704247Y-43435809D03*
D32*
X64177200Y-37777100D03*
D35*
X36699725Y-47267928D03*
%TO.N,/AD9609/SCLK_DFS*%
X64996694Y-29777802D03*
X57150321Y-42812011D03*
X38354510Y-71524135D03*
X44964664Y-68235335D03*
D31*
%TO.N,/AD9609/DCO*%
X77490900Y-42084000D03*
X71090900Y-25784000D03*
X35750000Y-73250000D03*
X76390900Y-37684000D03*
D30*
X90000000Y-54250000D03*
D31*
X72750000Y-25750000D03*
X90000000Y-54250000D03*
D35*
%TO.N,/AD9609/D3*%
X47382989Y-48225629D03*
X45890704Y-49309784D03*
X67522606Y-33792508D03*
X59552911Y-39770793D03*
D31*
%TO.N,/STM32H7/PE0*%
X21871000Y-51292900D03*
X76524400Y-33296200D03*
X75527300Y-38447700D03*
X63560200Y-43258100D03*
X75356900Y-38687700D03*
X63560200Y-49533400D03*
D35*
%TO.N,/STM32H7/PO1*%
X7219704Y-43359432D03*
X16869552Y-73003642D03*
X13097798Y-68740016D03*
X23991017Y-70711394D03*
X21209779Y-22130449D03*
X18162420Y-23203444D03*
X5793773Y-48834415D03*
X19309183Y-23159898D03*
D31*
%TO.N,Net-(U18-USB_D_N)*%
X15577900Y-91576600D03*
X23442000Y-91797700D03*
%TO.N,/STM32H7/PB5*%
X73265000Y-44839400D03*
X73327000Y-44128800D03*
X72027000Y-39028800D03*
X24270100Y-49389200D03*
X73702500Y-26387300D03*
%TO.N,/STM32H7/PM3*%
X52461099Y-30598000D03*
X33011300Y-51650000D03*
X49011099Y-30448000D03*
X34761300Y-51400000D03*
X60011099Y-28898000D03*
X49011099Y-29448000D03*
X34488100Y-34643200D03*
X32811299Y-51449999D03*
X53711099Y-31948000D03*
X59461099Y-31648000D03*
X84043000Y-26293700D03*
%TO.N,/STM32H7/PB14*%
X80063300Y-32801600D03*
X77648900Y-35175600D03*
X57571300Y-68655400D03*
X61716800Y-42790000D03*
X40615400Y-67954500D03*
%TO.N,/STM32H7/PB2*%
X21961800Y-67650800D03*
X56420200Y-51777400D03*
X72533800Y-30121600D03*
X61887900Y-33968400D03*
%TO.N,/RP2350/GPIO42_ADC2*%
X77767400Y-59229600D03*
X79196900Y-76190700D03*
%TO.N,/RP2350/GPIO30*%
X91012300Y-56480500D03*
X91793800Y-92212500D03*
X63000000Y-91815300D03*
%TO.N,/RP2350/GPIO31*%
X91140700Y-56040700D03*
X63518600Y-90686400D03*
%TO.N,/STM32H7/PE1*%
X76611300Y-32809000D03*
X21750000Y-49389800D03*
X52559700Y-45111500D03*
X51806300Y-37207900D03*
D35*
%TO.N,/STM32H7/ETH_TXD0*%
X31443851Y-80715750D03*
X47572671Y-77006726D03*
X22275195Y-73270003D03*
X27032061Y-76926266D03*
D30*
%TO.N,/STM32H7/PB10*%
X46000000Y-87400000D03*
X83088300Y-29892500D03*
X68500000Y-86600000D03*
X39500000Y-69900000D03*
X45500000Y-85500000D03*
X71800000Y-75200000D03*
X88500000Y-61100000D03*
D31*
%TO.N,/RP2350/GPIO39*%
X91502800Y-60149400D03*
X65816000Y-87000000D03*
D35*
%TO.N,/STM32H7/ETH_TX_EN*%
X45725669Y-72489204D03*
X44061840Y-71524596D03*
X46180012Y-74214019D03*
X42252621Y-70701478D03*
D31*
%TO.N,/RP2350/GPIO25*%
X91793800Y-89664800D03*
X91790500Y-59460900D03*
X58200000Y-90686300D03*
%TO.N,/RP2350/GPIO40_ADC0*%
X64546000Y-86600000D03*
X91279800Y-60863700D03*
%TO.N,/RP2350/GPIO7*%
X51419200Y-83855400D03*
X18390500Y-34378000D03*
X19395000Y-81823400D03*
X17374300Y-36090300D03*
X16590499Y-19278000D03*
%TO.N,/STM32H7/PC0*%
X73708000Y-29431900D03*
X19414100Y-60442400D03*
X38268300Y-35850400D03*
X38268300Y-51046100D03*
%TO.N,/RP2350/GPIO8*%
X55317000Y-84200000D03*
X17251100Y-39084000D03*
X42335000Y-46129300D03*
X16120300Y-21963800D03*
%TO.N,/RP2350/GPIO2*%
X56600000Y-80171100D03*
X18637500Y-73427800D03*
X16972400Y-19820000D03*
%TO.N,/STM32H7/PE6*%
X21757700Y-58485800D03*
X35558800Y-37167100D03*
X78785800Y-32802500D03*
X31943200Y-57290700D03*
D35*
%TO.N,/STM32H7/ETH_TXD1*%
X46600853Y-75374820D03*
X44769242Y-68531076D03*
X46422975Y-71833619D03*
X22777673Y-72937423D03*
D31*
%TO.N,/STM32H7/PE5*%
X16716200Y-55868600D03*
X76977900Y-33087500D03*
X77721400Y-44720400D03*
X72169700Y-45575600D03*
%TO.N,/RP2350/GPIO6*%
X18057100Y-22089200D03*
X55387000Y-83000000D03*
X53292100Y-23402200D03*
%TO.N,/STM32H7/PB15*%
X57151400Y-63995800D03*
X79678300Y-30692400D03*
X61093200Y-35695500D03*
X40736700Y-65573600D03*
%TO.N,/RP2350/GPIO4*%
X18863400Y-73700000D03*
X15613700Y-20250000D03*
X54156200Y-82200000D03*
%TO.N,/STM32H7/PM1*%
X62440000Y-21390000D03*
X60140000Y-13590000D03*
X83090000Y-25390000D03*
X84390000Y-23240000D03*
X59490000Y-15640000D03*
X71789999Y-14340000D03*
X59128000Y-15190000D03*
X77539999Y-16590000D03*
X84844592Y-25301086D03*
X62640000Y-24890000D03*
X61532346Y-23971522D03*
X60890000Y-13590000D03*
%TO.N,/STM32H7/PM6*%
X81491000Y-30434700D03*
X33123900Y-51289200D03*
X35286600Y-37439400D03*
%TO.N,/RP2350/GPIO3*%
X48790000Y-22260100D03*
X17649900Y-22086400D03*
X55954200Y-80236500D03*
%TO.N,/RP2350/GPIO15*%
X48129900Y-87669000D03*
X38510300Y-60189200D03*
%TO.N,/RP2350/GPIO10*%
X19681600Y-82917400D03*
X52745400Y-84050200D03*
X19411200Y-67750000D03*
%TO.N,/RP2350/GPIO9*%
X54190200Y-84339400D03*
X20700900Y-84545600D03*
X19433500Y-66250000D03*
%TO.N,/STM32H7/PM8*%
X32348900Y-52420500D03*
X31246400Y-36086200D03*
X82129300Y-27787100D03*
%TO.N,/RP2350/GPIO1*%
X42334000Y-59250000D03*
X54602600Y-81263500D03*
%TO.N,/STM32H7/PB13*%
X60821000Y-41848700D03*
X56627400Y-63543800D03*
X79561000Y-32797400D03*
X38491900Y-64349400D03*
D35*
%TO.N,/MM8108/WAKE*%
X29660393Y-74153857D03*
X31616602Y-76997421D03*
D31*
%TO.N,/STM32H7/PE2*%
X22180600Y-49347600D03*
X56075100Y-46082000D03*
X61950800Y-33486200D03*
X76226700Y-29900800D03*
%TO.N,/RP2350/GPIO13*%
X43039900Y-62602300D03*
X52636100Y-86600000D03*
D35*
%TO.N,/MM8108/SDIO_CLK_SPI_SCK*%
X31615776Y-61601730D03*
X37791915Y-69107036D03*
X34527467Y-84205299D03*
X38464739Y-71910558D03*
X41469224Y-74016150D03*
D32*
X38157700Y-54654400D03*
D35*
X38508954Y-83788155D03*
X37988261Y-81268416D03*
D31*
%TO.N,/STM32H7/PB6*%
X43130300Y-35966300D03*
X21051100Y-48181000D03*
X73347600Y-26869900D03*
X71307800Y-31739000D03*
X43484500Y-46017000D03*
%TO.N,/RP2350/GPIO14*%
X40618500Y-60750000D03*
X55074900Y-62586500D03*
X55309100Y-87000000D03*
%TO.N,/STM32H7/PP7*%
X85418000Y-25413500D03*
X54318000Y-7813500D03*
X14222000Y-36913500D03*
X74618000Y-8813500D03*
X82018000Y-14913500D03*
X85218000Y-20113500D03*
X24922000Y-15413500D03*
X19122000Y-31713500D03*
D30*
X47750000Y-5500000D03*
D31*
X82618000Y-31913500D03*
X31750000Y-73000000D03*
X75718000Y-25213500D03*
X85418000Y-30213500D03*
%TO.N,/STM32H7/PM2*%
X81627200Y-26511900D03*
X73423500Y-24711300D03*
X34974300Y-51683100D03*
X71923500Y-26111300D03*
X40192800Y-51068600D03*
X42361300Y-30086500D03*
%TO.N,/STM32H7/PC13*%
X82126600Y-29384500D03*
X19489500Y-53430100D03*
X64265300Y-48312400D03*
X68874600Y-34741700D03*
%TO.N,/RP2350/GPIO12*%
X53029200Y-86200000D03*
X49874500Y-72887500D03*
X19287200Y-68764500D03*
%TO.N,/STM32H7/PC2*%
X19525400Y-62087500D03*
X63908800Y-51455000D03*
X69259200Y-34830200D03*
%TO.N,/STM32H7/PM9*%
X33982600Y-37709800D03*
X32153700Y-49173200D03*
X81854300Y-29662000D03*
D35*
%TO.N,/STM32H7/ETH_MDC*%
X47604929Y-78975897D03*
X42917298Y-74117813D03*
X47492014Y-74690567D03*
X41067619Y-71578707D03*
D31*
%TO.N,/STM32H7/PE4*%
X20365700Y-55880700D03*
X39810400Y-50748800D03*
X39826300Y-35565600D03*
X78341700Y-30716400D03*
%TO.N,/STM32H7/PM5*%
X33806200Y-48862500D03*
X53543000Y-22230500D03*
X65365000Y-24402500D03*
X82141100Y-26849100D03*
X33486900Y-32220600D03*
X73465000Y-25102500D03*
X65143000Y-24580500D03*
X53786979Y-21505017D03*
D35*
%TO.N,/MM8108/BUSY*%
X27034091Y-76051507D03*
X30792997Y-72773228D03*
X26272688Y-76267645D03*
X27229506Y-80962498D03*
X25795742Y-86012187D03*
X25964948Y-77168598D03*
X28867758Y-79598266D03*
X27628258Y-77677325D03*
D31*
%TO.N,/RP2350/GPIO0*%
X54809800Y-79845200D03*
X42978900Y-59601700D03*
%TO.N,/STM32H7/PE3*%
X80512900Y-30612200D03*
X33355300Y-37789800D03*
X17147000Y-55867500D03*
X31978000Y-48556700D03*
%TO.N,/RP2350/GPIO11*%
X19702600Y-68051200D03*
X55311800Y-85367500D03*
X50903800Y-70573700D03*
%TO.N,/STM32H7/PM13*%
X56710600Y-46564800D03*
X28574100Y-49219200D03*
X62568000Y-33762400D03*
X82136400Y-28876500D03*
%TO.N,/STM32H7/PO5*%
X27750000Y-69369300D03*
X73703000Y-25423700D03*
X74097700Y-45289900D03*
%TO.N,/STM32H7/PC3*%
X73064900Y-45133900D03*
X73701600Y-28393900D03*
X19893400Y-61986700D03*
%TO.N,/STM32H7/PM0*%
X82644500Y-24968600D03*
X34330400Y-48824000D03*
X35091000Y-33157800D03*
D35*
%TO.N,/STM32H7/PHY_TXP*%
X45203759Y-75417112D03*
%TO.N,/STM32H7/PHY_TXN*%
X39042345Y-76176465D03*
X21822183Y-76309661D03*
%TO.N,/STM32H7/PHY_RXN*%
X32691508Y-79999227D03*
D32*
X44821600Y-75044900D03*
D35*
X36386700Y-80003269D03*
%TO.N,/STM32H7/PHY_RXP*%
X20565551Y-76538385D03*
X41371070Y-76065410D03*
D31*
%TO.N,/IWRL6432BD/GPIO_0*%
X54737000Y-88138000D03*
X53848000Y-27686000D03*
D30*
%TO.N,/IWRL6432BD/GPIO_2*%
X60000000Y-62250000D03*
X58600000Y-81550000D03*
D31*
X56868000Y-23367999D03*
D30*
X59300000Y-81850000D03*
X58600000Y-64250000D03*
D31*
%TO.N,/IWRL6432BD/GPIO_3*%
X49840000Y-89780000D03*
X47427402Y-31765654D03*
X56315000Y-22160654D03*
X33790000Y-88890000D03*
X30760000Y-88980000D03*
X53980000Y-90510000D03*
X45630000Y-28800000D03*
X31740000Y-30610000D03*
D30*
%TO.N,/IWRL6432BD/GPIO_4*%
X57650000Y-79250000D03*
X53950000Y-84050000D03*
D31*
%TO.N,/IWRL6432BD/GPIO_5*%
X56852000Y-23002000D03*
D30*
%TO.N,/IWRL6432BD/GPIO_6*%
X51597999Y-72398000D03*
X50897999Y-74398000D03*
D31*
X50243687Y-21791031D03*
D30*
X54297999Y-71798000D03*
D31*
X54098000Y-45098000D03*
X53198000Y-21948000D03*
D30*
X55797999Y-80698000D03*
D31*
X56548000Y-91598000D03*
X55897999Y-21648000D03*
X55598000Y-80148000D03*
X54598000Y-44648000D03*
D30*
%TO.N,/IWRL6432BD/GPIO_7*%
X61679600Y-78813400D03*
X58279600Y-71813400D03*
D31*
X54840800Y-21572900D03*
D30*
X60679600Y-79613400D03*
D31*
X59986200Y-46806800D03*
D30*
X58279600Y-82013400D03*
X58279600Y-79313400D03*
D31*
X57000000Y-90689500D03*
X55347600Y-43851800D03*
%TO.N,/IWRL6432BD/RDIF_D2*%
X51260000Y-88290000D03*
X54140000Y-18560000D03*
X52440000Y-69780000D03*
X47780000Y-83630000D03*
X51250000Y-75120000D03*
X51363774Y-81729562D03*
%TO.N,/RP2350/GPIO29*%
X62781800Y-90687800D03*
X96863800Y-91936600D03*
%TO.N,/RP2350/GPIO43_ADC3*%
X85232100Y-72705500D03*
%TO.N,/RP2350/GPIO44_ADC4*%
X100780000Y-79116200D03*
X67946900Y-79116200D03*
X67027900Y-84044500D03*
%TO.N,/RP2350/GPIO45_ADC5*%
X70778000Y-81527500D03*
X97212400Y-81953400D03*
%TO.N,/RP2350/GPIO46_ADC6*%
X65814400Y-83400000D03*
%TO.N,/RP2350/GPIO47_ADC7*%
X63822000Y-83000000D03*
%TO.N,/RP2350/XOUT_XTAL*%
X71017100Y-86750000D03*
X51723200Y-96090900D03*
X50084600Y-88436800D03*
%TO.N,/RP2350/+1V1*%
X52338000Y-82518000D03*
X62170100Y-80753900D03*
X62270000Y-81020000D03*
X53658000Y-80873899D03*
X51938000Y-79618000D03*
X54759900Y-85836100D03*
X52559900Y-83036100D03*
X60568000Y-91167999D03*
X54170100Y-79453900D03*
X62878000Y-79149900D03*
X64168000Y-86268000D03*
X62478000Y-79849900D03*
X65670000Y-85720000D03*
X50188600Y-89828100D03*
X54158000Y-80373899D03*
%TO.N,/RP2350/VREG_AVDD*%
X62741100Y-75722000D03*
X49491100Y-78122000D03*
X49191100Y-79572000D03*
X67741100Y-78772000D03*
X53441100Y-78122000D03*
X59691100Y-77222000D03*
D30*
%TO.N,/RP2350/USB_VBUS*%
X59609800Y-96066200D03*
X53109800Y-92866199D03*
D31*
%TO.N,/RP2350/CC1*%
X67746700Y-80348300D03*
X63664000Y-97132300D03*
D30*
%TO.N,/RP2350/USB_D_P_CONN*%
X59110000Y-95000000D03*
X48810000Y-87000000D03*
X61710000Y-96100000D03*
X62750000Y-95150000D03*
X61750000Y-95150000D03*
X48010000Y-91800000D03*
%TO.N,/RP2350/USB_D_N_CONN*%
X60510000Y-97700000D03*
X48810000Y-85400000D03*
D31*
X61250000Y-94800000D03*
D30*
X62210000Y-96100000D03*
D31*
X62250000Y-94800000D03*
D30*
X47610000Y-90100000D03*
D31*
%TO.N,/RP2350/CC2*%
X67380400Y-83115500D03*
X65176300Y-94055300D03*
%TO.N,/RP2350/SWDIO*%
X61400000Y-90675100D03*
%TO.N,/RP2350/SWCLK*%
X60042900Y-81322400D03*
X59892900Y-89522400D03*
X61000000Y-90673700D03*
%TO.N,/RP2350/VREG_LX*%
X62887600Y-80016000D03*
X49667999Y-90850000D03*
D30*
%TO.N,/RP2350/USB_DP_IC*%
X49790000Y-91850000D03*
X60690000Y-81650000D03*
%TO.N,/RP2350/USB_DM_IC*%
X50490000Y-92550000D03*
X61590000Y-81350000D03*
%TO.N,RP_QSPI_SD3*%
X60362500Y-78935000D03*
%TO.N,RP_QSPI_SCLK*%
X59862500Y-79365000D03*
%TO.N,RP_QSPI_SD0*%
X59400000Y-80750000D03*
X58062500Y-76495000D03*
%TO.N,RP_QSPI_SD2*%
X60037500Y-78665000D03*
%TO.N,RP_QSPI_SD1*%
X52687500Y-76135000D03*
%TO.N,RP_QSPI_SS*%
X53437500Y-80505000D03*
%TD*%
D36*
%TO.N,/Power/PVDD*%
X65700000Y-61050000D02*
X58650000Y-54000000D01*
D37*
%TO.N,GND*%
X50012000Y-16325000D02*
X50012000Y-16375000D01*
D36*
X70000000Y-54700000D02*
X70800000Y-54700000D01*
D38*
X24549999Y-49737500D02*
X22750000Y-51337500D01*
D39*
X32278000Y-43002800D02*
X35778000Y-43802800D01*
X11053431Y-50726800D02*
X11553431Y-51926800D01*
D40*
X61225000Y-18000000D02*
X61400000Y-19000000D01*
D41*
X57020000Y-1013500D02*
X53520000Y-8713500D01*
D38*
X48819999Y-95180000D02*
X47120000Y-96180000D01*
X67398199Y-79341799D02*
X67298200Y-79241799D01*
D37*
X1075000Y-1575000D02*
X1549999Y-1000000D01*
D36*
X56934063Y-16020297D02*
X56584063Y-16020297D01*
D41*
X19233700Y-74432394D02*
X20433700Y-75932394D01*
X27126000Y-68051200D02*
X26134485Y-68842714D01*
D39*
X17985700Y-55670000D02*
X14285700Y-53470000D01*
D36*
X61000000Y-70900000D02*
X59700000Y-70900000D01*
D41*
X29549999Y-66462500D02*
X30900000Y-66312500D01*
D38*
X39893600Y-41237000D02*
X42293600Y-41237000D01*
X67000000Y-61600000D02*
X66600000Y-61200000D01*
D36*
X67000000Y-52500000D02*
X68300000Y-53800000D01*
D38*
X59404724Y-78825899D02*
X54104724Y-78725900D01*
D36*
X53337500Y-73095000D02*
X53337500Y-71495000D01*
D41*
X25933700Y-76332394D02*
X24333700Y-77132394D01*
X28726000Y-67951200D02*
X27126000Y-68051200D01*
X20833700Y-78032394D02*
X17233700Y-75332394D01*
D38*
X25150000Y-48537499D02*
X24549999Y-49737500D01*
D41*
X53520000Y-8713500D02*
X50670000Y-16063500D01*
D38*
X68000000Y-60900000D02*
X67300000Y-61600000D01*
X66300000Y-60900000D02*
X66200000Y-60800000D01*
D41*
X57478786Y-30701213D02*
X57500000Y-31979999D01*
D37*
X51962000Y-9875000D02*
X51012000Y-11775000D01*
D39*
X12753431Y-54226800D02*
X14253431Y-52626799D01*
D42*
X53397632Y-22450000D02*
X53300000Y-22450000D01*
D39*
X35778000Y-43802800D02*
X36378000Y-44002800D01*
D37*
X47516736Y-54685810D02*
X47366736Y-54585810D01*
X59621550Y-28753780D02*
X59317570Y-28772381D01*
D40*
X63225000Y-23400000D02*
X62400000Y-23400000D01*
D38*
X43220000Y-96480000D02*
X42819999Y-96080000D01*
X47120000Y-96180000D02*
X43720000Y-96580000D01*
D41*
X25933700Y-75932394D02*
X25933700Y-76332394D01*
D39*
X14285700Y-53470000D02*
X12685700Y-53870000D01*
X74677500Y-12222000D02*
X73877500Y-13222000D01*
D36*
X59700000Y-70900000D02*
X59600000Y-70800000D01*
D41*
X28521407Y-75040113D02*
X29526000Y-73851200D01*
D38*
X14635404Y-55010594D02*
X16635404Y-55410595D01*
X62639081Y-89339081D02*
X62339081Y-91039081D01*
D40*
X81510000Y-21200000D02*
X80800000Y-17000000D01*
D37*
X63491400Y-26650000D02*
X63225000Y-26000000D01*
D39*
X57468786Y-30791213D02*
X57518786Y-31741213D01*
D36*
X57534063Y-17370297D02*
X57950000Y-17800000D01*
D39*
X68858974Y-15052123D02*
X68208974Y-15102123D01*
D37*
X48316736Y-54710810D02*
X47516736Y-54685810D01*
X63949999Y-57550000D02*
X62150000Y-56900000D01*
X50012000Y-16375000D02*
X50012000Y-16475000D01*
X57478786Y-30701213D02*
X58329899Y-30683213D01*
D42*
X53632899Y-30972800D02*
X55557900Y-32072800D01*
D39*
X63844662Y-9456981D02*
X64794662Y-9156981D01*
D42*
X53436132Y-22488500D02*
X53397632Y-22450000D01*
D38*
X62339081Y-91039081D02*
X62739081Y-92239081D01*
D41*
X24726000Y-72051200D02*
X22026000Y-72451200D01*
X22026000Y-72451200D02*
X20826000Y-73151200D01*
D37*
X47366736Y-54585810D02*
X46216736Y-53585810D01*
D41*
X24733700Y-75032394D02*
X25233700Y-75132394D01*
D38*
X52078500Y-88151500D02*
X52878500Y-86951500D01*
D39*
X73477500Y-23122000D02*
X74077500Y-25422000D01*
D37*
X50012000Y-16475000D02*
X50012000Y-16725000D01*
X51012000Y-11775000D02*
X50012000Y-16325000D01*
D41*
X29526000Y-73851200D02*
X30326000Y-73751200D01*
D38*
X66200000Y-60300000D02*
X65200000Y-59300000D01*
D42*
X53688368Y-22450000D02*
X53649868Y-22488500D01*
D38*
X22690490Y-46499899D02*
X23790490Y-48199898D01*
D39*
X28778000Y-41702800D02*
X30878000Y-41602800D01*
D37*
X57685810Y-74904236D02*
X57710810Y-74779236D01*
D38*
X79386000Y-59276000D02*
X79485999Y-56176000D01*
D41*
X32450000Y-74912500D02*
X32750000Y-71662500D01*
X21726000Y-75551200D02*
X21717514Y-75742714D01*
X57920000Y-30963500D02*
X58040000Y-30713500D01*
D38*
X66500000Y-61200000D02*
X66300000Y-61000000D01*
X27276000Y-74088500D02*
X25176000Y-74188499D01*
D40*
X83510000Y-21800000D02*
X84300000Y-21800000D01*
X79110000Y-20800000D02*
X79100000Y-18200000D01*
D37*
X57585810Y-74979236D02*
X57685810Y-74904236D01*
D41*
X25233700Y-75132394D02*
X25933700Y-75932394D01*
D40*
X76310000Y-21200000D02*
X76300000Y-19300000D01*
D42*
X53300000Y-22450000D02*
X52950000Y-22100000D01*
D37*
X57610810Y-73029236D02*
X54585810Y-72354236D01*
D39*
X13285700Y-60470000D02*
X15985700Y-59070000D01*
D42*
X53649868Y-22488500D02*
X53436132Y-22488500D01*
D39*
X11653431Y-54826800D02*
X12353430Y-55426800D01*
D38*
X25781900Y-44050200D02*
X26281900Y-45350200D01*
D42*
X54218318Y-22450000D02*
X53688368Y-22450000D01*
D39*
X74077500Y-25422000D02*
X74077500Y-30222000D01*
D38*
X43848500Y-53246799D02*
X46348500Y-55846799D01*
D40*
X68975000Y-22500000D02*
X68975000Y-19800000D01*
D38*
X66200000Y-60800000D02*
X66200000Y-60300000D01*
D41*
X35673500Y-74248800D02*
X34023500Y-76298800D01*
X23937300Y-48466800D02*
X27237300Y-46866800D01*
D37*
X56962000Y-1325000D02*
X51962000Y-9875000D01*
D40*
X63225000Y-26000000D02*
X62400000Y-26000000D01*
D38*
X64800000Y-63900000D02*
X65200000Y-63500000D01*
D42*
X53207899Y-30697800D02*
X53632899Y-30972800D01*
D38*
X43720000Y-96580000D02*
X43220000Y-96480000D01*
D41*
X20833700Y-78332394D02*
X20833700Y-78032394D01*
D40*
X73575000Y-23500000D02*
X74400000Y-23500000D01*
D39*
X73877500Y-13222000D02*
X73177500Y-16322000D01*
D37*
X62000000Y-52550000D02*
X62300000Y-52500000D01*
D38*
X27850000Y-72662500D02*
X27550000Y-72262499D01*
D39*
X61074375Y-19238548D02*
X60124375Y-19038548D01*
D36*
X69100000Y-53800000D02*
X70000000Y-54700000D01*
D41*
X37136195Y-76235304D02*
X36736194Y-76235304D01*
D39*
X26078000Y-43902800D02*
X26078000Y-42802800D01*
D38*
X65200000Y-63500000D02*
X65200000Y-62200000D01*
X38370000Y-52750000D02*
X41170000Y-55050000D01*
D39*
X13048603Y-18028450D02*
X13048603Y-13778450D01*
X88008939Y-16463284D02*
X89058939Y-16113284D01*
D38*
X66600000Y-61200000D02*
X66500000Y-61200000D01*
D36*
X62300000Y-52500000D02*
X67000000Y-52500000D01*
D41*
X35300000Y-74262500D02*
X34400000Y-75162500D01*
D38*
X45226200Y-65170500D02*
X43826200Y-63170500D01*
D41*
X31030592Y-66562286D02*
X28726000Y-67951200D01*
D39*
X57478786Y-30701213D02*
X57468786Y-30791213D01*
X12585700Y-59670000D02*
X12585700Y-60670000D01*
D37*
X57710810Y-74779236D02*
X57710810Y-73129236D01*
D39*
X74077500Y-30222000D02*
X73677500Y-30622000D01*
D38*
X66200000Y-60300000D02*
X65200000Y-59300000D01*
D39*
X10653431Y-46726800D02*
X10653431Y-48726800D01*
D38*
X46248500Y-51046800D02*
X47348500Y-49246799D01*
D41*
X18633699Y-74232394D02*
X19233700Y-74432394D01*
X17233700Y-75332394D02*
X16933700Y-75032394D01*
X33626000Y-70451200D02*
X33726000Y-70251200D01*
D36*
X68300000Y-53800000D02*
X69100000Y-53800000D01*
D39*
X26478000Y-42602800D02*
X27878000Y-42602800D01*
D37*
X62150000Y-56900000D02*
X62000000Y-56750000D01*
D40*
X71775000Y-20800000D02*
X72600000Y-20800000D01*
D37*
X57710810Y-73129236D02*
X57610810Y-73029236D01*
D38*
X68100000Y-60900000D02*
X68000000Y-60900000D01*
D37*
X68868100Y-82368100D02*
X71671500Y-82300900D01*
D38*
X67300000Y-61600000D02*
X67000000Y-61600000D01*
X65200000Y-62200000D02*
X66200000Y-61200000D01*
D39*
X42748500Y-64385999D02*
X40748500Y-62286000D01*
D38*
X31657794Y-46358200D02*
X32357794Y-47058200D01*
D41*
X36736194Y-76235304D02*
X36236194Y-74535304D01*
D38*
X66200000Y-61200000D02*
X66200000Y-60300000D01*
D36*
X63100000Y-73000000D02*
X61000000Y-70900000D01*
D42*
X52950000Y-22100000D02*
X52600000Y-21650000D01*
D37*
X56000000Y-75000000D02*
X57585810Y-74979236D01*
D41*
X25650000Y-68862500D02*
X29549999Y-66462500D01*
D37*
X61599999Y-53650000D02*
X61599999Y-53200000D01*
D38*
X66300000Y-61000000D02*
X66300000Y-60900000D01*
X39293600Y-41637000D02*
X39893600Y-41237000D01*
X23250000Y-72162500D02*
X22950000Y-71962499D01*
D39*
X59621550Y-28753780D02*
X58971550Y-27653780D01*
D41*
X30326000Y-73751200D02*
X33626000Y-70451200D01*
X24533700Y-80632394D02*
X24433700Y-81332394D01*
D37*
X62000000Y-56750000D02*
X61599999Y-53650000D01*
D41*
X20826000Y-73151200D02*
X21726000Y-75551200D01*
D38*
X22950000Y-71962499D02*
X22750000Y-71662500D01*
X27550000Y-72262499D02*
X23250000Y-72162500D01*
D39*
X73177500Y-16322000D02*
X72677500Y-21222000D01*
D41*
X17833700Y-74132394D02*
X18633699Y-74232394D01*
D37*
X17306209Y-15296760D02*
X16806209Y-14846760D01*
D38*
X62739081Y-92239081D02*
X63839081Y-93639080D01*
D42*
X54483648Y-22715330D02*
X54218318Y-22450000D01*
D41*
X40136195Y-75335304D02*
X37136195Y-76235304D01*
D37*
X51718800Y-29204900D02*
X52918800Y-30704900D01*
D38*
X69498200Y-80041800D02*
X67398199Y-79341799D01*
D39*
X77246604Y-23893469D02*
X78446604Y-24993469D01*
D41*
X28049999Y-70212500D02*
X26349999Y-70212500D01*
D39*
X17953431Y-47626799D02*
X19253431Y-48226800D01*
X26078000Y-42802800D02*
X26478000Y-42602800D01*
D36*
X77056259Y-23641704D02*
X79106259Y-24991704D01*
D38*
X26281900Y-45350200D02*
X26281900Y-45550200D01*
D41*
X20533700Y-78632394D02*
X20833700Y-78332394D01*
D39*
X27678000Y-45902800D02*
X26078000Y-43902800D01*
D43*
%TO.N,/Power/VDD*%
X59100000Y-56600000D02*
X59200000Y-56600000D01*
X62300000Y-56600000D02*
X64100000Y-56600000D01*
X63000000Y-60000000D02*
X63000000Y-60300000D01*
X61100000Y-58500000D02*
X61500000Y-58500000D01*
X61500000Y-58500000D02*
X63000000Y-60000000D01*
X61400000Y-58500000D02*
X61500000Y-58500000D01*
X61500000Y-58500000D02*
X63000000Y-60000000D01*
X59900000Y-57000000D02*
X61400000Y-58500000D01*
X63000000Y-60000000D02*
X63000000Y-60400000D01*
X64100000Y-56600000D02*
X64200000Y-56700000D01*
X63000000Y-60300000D02*
X63500000Y-60800000D01*
X59200000Y-56600000D02*
X61100000Y-58500000D01*
X63000000Y-60400000D02*
X63900000Y-61300000D01*
%TO.N,/Power/SW*%
X62900000Y-69200000D02*
X62900000Y-69300000D01*
X63000000Y-69100000D02*
X62900000Y-69200000D01*
X63000000Y-68900000D02*
X63000000Y-69100000D01*
X63200000Y-64000000D02*
X60500000Y-61300000D01*
X64300000Y-66500000D02*
X64300000Y-65800000D01*
D44*
X63048000Y-69576000D02*
X63948000Y-73076000D01*
X63648000Y-73476000D02*
X62848000Y-74176000D01*
D43*
X62764644Y-69364644D02*
X59800000Y-69400000D01*
X63300000Y-64700000D02*
X63200000Y-64600000D01*
X64300000Y-65800000D02*
X63300000Y-64800000D01*
X64500000Y-66700000D02*
X64300000Y-66500000D01*
X59800000Y-69400000D02*
X59600000Y-69200000D01*
X64700000Y-67000000D02*
X64300000Y-67400000D01*
X63300000Y-64800000D02*
X63300000Y-64700000D01*
X64300000Y-67400000D02*
X64300000Y-67600000D01*
X63200000Y-64600000D02*
X63200000Y-64000000D01*
X64300000Y-67600000D02*
X63000000Y-68900000D01*
X62900000Y-69300000D02*
X62764644Y-69364644D01*
D44*
X63948000Y-73076000D02*
X63648000Y-73476000D01*
D36*
%TO.N,/Power/FB*%
X59099999Y-61650000D02*
X59456568Y-61406567D01*
X61800000Y-68850000D02*
X61800000Y-68700000D01*
X62550000Y-69000000D02*
X61949999Y-69000000D01*
X62550000Y-69000000D02*
X61949999Y-69000000D01*
X69300000Y-69149999D02*
X69300000Y-71100000D01*
X61949999Y-69000000D02*
X61800000Y-68850000D01*
X59099999Y-66000000D02*
X59099999Y-61650000D01*
X58500000Y-60300000D02*
X58500000Y-59699999D01*
X59099999Y-66000000D02*
X59099999Y-60900000D01*
X61949999Y-69000000D02*
X61800000Y-68850000D01*
X59099999Y-60900000D02*
X58500000Y-60300000D01*
X61800000Y-68700000D02*
X59099999Y-66000000D01*
X61800000Y-68700000D02*
X59099999Y-66000000D01*
X61800000Y-68850000D02*
X61800000Y-68700000D01*
X69300000Y-71100000D02*
X70500000Y-72300000D01*
D42*
%TO.N,+3V3*%
X55859691Y-21306186D02*
X54655099Y-21295100D01*
D41*
X41962500Y-64050000D02*
X41962500Y-64450000D01*
D37*
X63280000Y-80030000D02*
X63180000Y-78830000D01*
D41*
X41962500Y-64450000D02*
X41462500Y-65550000D01*
D43*
X68100000Y-64300000D02*
X68500000Y-64700000D01*
D39*
X45110500Y-74510500D02*
X44510500Y-74510500D01*
D43*
X68700000Y-71600000D02*
X68700000Y-72300000D01*
D41*
X50957646Y-19542354D02*
X51420116Y-19079884D01*
X26900000Y-51087500D02*
X26500000Y-51487500D01*
D37*
X47305928Y-28819304D02*
X47405928Y-28519304D01*
D38*
X22737499Y-58650000D02*
X21537500Y-58950000D01*
X20026854Y-62362468D02*
X18476854Y-63062468D01*
D41*
X39662500Y-62250000D02*
X41962500Y-64050000D01*
D39*
X44510500Y-74510500D02*
X43310500Y-76410500D01*
D43*
X68500000Y-71400000D02*
X68700000Y-71600000D01*
D41*
X41502500Y-46438799D02*
X44352500Y-48238800D01*
X41352799Y-49154399D02*
X39402800Y-46104400D01*
D38*
X53364500Y-83046000D02*
X54364500Y-83846000D01*
D43*
X68500000Y-64700000D02*
X68500000Y-71400000D01*
D37*
X62580000Y-78830000D02*
X61980000Y-79830000D01*
D41*
X37902800Y-51704400D02*
X38252799Y-52054400D01*
D39*
X55393900Y-86402000D02*
X53593900Y-87902000D01*
D38*
X35616000Y-87666000D02*
X36016000Y-91266000D01*
D37*
X58662500Y-76905000D02*
X59323941Y-76551452D01*
D42*
X54655099Y-21295100D02*
X54368999Y-21009000D01*
D38*
X50151100Y-82592500D02*
X49651100Y-83192500D01*
X17050000Y-21437500D02*
X19550000Y-21037500D01*
D37*
X63180000Y-78830000D02*
X62580000Y-78830000D01*
D39*
X59023900Y-33774500D02*
X55673900Y-31724500D01*
D38*
X19037499Y-59350000D02*
X18937500Y-59550000D01*
D41*
X50860000Y-21100000D02*
X50957646Y-21002354D01*
D38*
X20626854Y-61912468D02*
X20026854Y-62362468D01*
X42189100Y-71173299D02*
X43189100Y-72373299D01*
D41*
X27700000Y-48437500D02*
X26900000Y-51087500D01*
D38*
X49651100Y-83192500D02*
X49751100Y-85092500D01*
X32137610Y-74026800D02*
X31237610Y-75226800D01*
D41*
X51420116Y-19079884D02*
X51420116Y-16928888D01*
D42*
X52899600Y-19985532D02*
X53789874Y-19095258D01*
D38*
X42948499Y-78348500D02*
X42948499Y-76448500D01*
X19550000Y-21037500D02*
X21750000Y-21337500D01*
X19747999Y-14160499D02*
X19247999Y-14360500D01*
D41*
X50957646Y-21002354D02*
X50957646Y-19542354D01*
D42*
X53325905Y-21009000D02*
X52899600Y-20582695D01*
D38*
X57400000Y-91250000D02*
X59400000Y-91449999D01*
X78316329Y-37301246D02*
X79416329Y-36501246D01*
X64248000Y-89497999D02*
X64848000Y-90898000D01*
X18476854Y-63062468D02*
X17776854Y-63762468D01*
D37*
X47905928Y-31519304D02*
X47305928Y-28819304D01*
D38*
X21537500Y-58950000D02*
X19037499Y-59350000D01*
D42*
X54368999Y-21009000D02*
X53325905Y-21009000D01*
D41*
X36802499Y-49238800D02*
X37602500Y-51388799D01*
D38*
X18937500Y-59550000D02*
X18937500Y-60050000D01*
D41*
X36602799Y-50004400D02*
X37902800Y-51704400D01*
D37*
X47405928Y-28519304D02*
X48455928Y-26669304D01*
D39*
X57914640Y-15021421D02*
X57214640Y-15621421D01*
D38*
X22548000Y-15360500D02*
X19747999Y-14160499D01*
D42*
X52899600Y-20582695D02*
X52899600Y-19985532D01*
D38*
X62630000Y-82380000D02*
X63930000Y-85780000D01*
X23048000Y-15860500D02*
X22548000Y-15360500D01*
X18937500Y-60050000D02*
X19137500Y-60150000D01*
D39*
X46310500Y-75810500D02*
X45110500Y-74510500D01*
D41*
X38102500Y-52288799D02*
X38352500Y-52338799D01*
D38*
X73666329Y-37851246D02*
X76216329Y-38051246D01*
X67034149Y-85871956D02*
X68134149Y-87771956D01*
D43*
X68100000Y-64200000D02*
X68100000Y-64300000D01*
D38*
X65830000Y-86479999D02*
X65930000Y-86580000D01*
X52564500Y-81346000D02*
X53364500Y-83046000D01*
D41*
X35252799Y-48554400D02*
X36602799Y-50004400D01*
X43248206Y-51115486D02*
X41352799Y-49154399D01*
D38*
X85668000Y-56818000D02*
X87168000Y-56617999D01*
D37*
X47905928Y-31519304D02*
X48105928Y-32269304D01*
D38*
X63930000Y-85780000D02*
X65830000Y-86479999D01*
X76416329Y-38051246D02*
X76466329Y-38051246D01*
X76216329Y-38051246D02*
X76416329Y-38051246D01*
X72245699Y-37135200D02*
X78645699Y-38735200D01*
X76466329Y-38051246D02*
X78316329Y-37301246D01*
D41*
X40962500Y-67250000D02*
X38662500Y-67250000D01*
D38*
X50651100Y-80492500D02*
X50151100Y-82592500D01*
D42*
X53789874Y-19095258D02*
X54509021Y-19095258D01*
D37*
X48155928Y-34869304D02*
X49105928Y-36769304D01*
D39*
X53593900Y-87902000D02*
X52393900Y-89602000D01*
D38*
X51964500Y-83846000D02*
X51764500Y-81346000D01*
X21737499Y-57550000D02*
X22737499Y-57550000D01*
X17776854Y-63762468D02*
X16826854Y-64362468D01*
D37*
X22650000Y-50837500D02*
X22349999Y-51337500D01*
D38*
X23037500Y-58050000D02*
X22737499Y-58650000D01*
D41*
X30750000Y-48537500D02*
X28500000Y-48437500D01*
D38*
X80031964Y-58158096D02*
X80031964Y-59258096D01*
X22737499Y-57550000D02*
X23037500Y-58050000D01*
D37*
X58680000Y-29050000D02*
X59023900Y-33774500D01*
D41*
X39402800Y-45104400D02*
X36448207Y-42743313D01*
D38*
X42148500Y-79548500D02*
X42948499Y-78348500D01*
X24148000Y-16160499D02*
X23048000Y-15860500D01*
X64848000Y-90898000D02*
X65348000Y-91198000D01*
D37*
X62680000Y-80730000D02*
X63280000Y-80030000D01*
D41*
X37602500Y-51388799D02*
X38102500Y-52288799D01*
D36*
%TO.N,/Power/RIPPLE_INJ*%
X61949999Y-53850000D02*
X65550000Y-57449999D01*
D40*
%TO.N,Net-(U18-VDD_USB)*%
X26982000Y-90782000D02*
X27482000Y-96282000D01*
D41*
%TO.N,/IWRL6432BD/XTALM*%
X58804000Y-17307499D02*
X54810000Y-15813500D01*
X61904000Y-22907500D02*
X58804000Y-17307499D01*
X54810000Y-15813500D02*
X58910000Y-17313499D01*
%TO.N,/IWRL6432BD/XTALP*%
X61091600Y-25250000D02*
X61096000Y-24325500D01*
X61091600Y-25250000D02*
X60725800Y-24884200D01*
D39*
%TO.N,/IWRL6432BD/1V8*%
X56994000Y-26014000D02*
X57093999Y-25913999D01*
D40*
X81240000Y-30840000D02*
X90740000Y-35140000D01*
D41*
X55700000Y-20200000D02*
X56850000Y-20950000D01*
D40*
X66740000Y-16340000D02*
X69640000Y-19540000D01*
D41*
X54504224Y-20420000D02*
X54724224Y-20200000D01*
X54724224Y-20200000D02*
X55700000Y-20200000D01*
D40*
X62239999Y-16240000D02*
X66740000Y-16340000D01*
X69640000Y-19540000D02*
X69440000Y-20540000D01*
D39*
X57093999Y-25913999D02*
X57244000Y-25764000D01*
X56093999Y-28113999D02*
X56144000Y-26814000D01*
X58312800Y-18172000D02*
X56012800Y-18072000D01*
D40*
X72940000Y-22540000D02*
X74640000Y-22840000D01*
X69440000Y-20540000D02*
X69440000Y-21440000D01*
D41*
X54132000Y-20420000D02*
X54504224Y-20420000D01*
D39*
X56943999Y-26064000D02*
X56994000Y-26014000D01*
X56593999Y-26264000D02*
X56943999Y-26064000D01*
X55955099Y-28388900D02*
X52955099Y-29488900D01*
D40*
X69440000Y-21440000D02*
X70440000Y-22040000D01*
X90740000Y-35140000D02*
X95140000Y-39540000D01*
X74640000Y-22840000D02*
X81240000Y-30840000D01*
D39*
X57102800Y-21109200D02*
X56152800Y-18359199D01*
X56144000Y-26814000D02*
X56593999Y-26264000D01*
D41*
%TO.N,/IWRL6432BD/NRESET*%
X59904000Y-14591999D02*
X60098000Y-14888000D01*
X72098000Y-14588000D02*
X70898000Y-14688000D01*
X60098000Y-14888000D02*
X58498000Y-15988000D01*
X62598000Y-14888000D02*
X60898000Y-14888000D01*
X80998000Y-16488000D02*
X77598000Y-14888000D01*
X85598000Y-20988000D02*
X80998000Y-16488000D01*
X70898000Y-14688000D02*
X62598000Y-14888000D01*
D37*
%TO.N,/IWRL6432BD/FT_USBDM*%
X56510000Y-14022500D02*
X56510000Y-14000000D01*
D41*
%TO.N,/IWRL6432BD/FT_USBDP*%
X48500000Y-16422500D02*
X48400000Y-15922500D01*
D37*
X52900000Y-13125000D02*
X54010000Y-12000000D01*
D41*
X48400000Y-15922500D02*
X50100000Y-14122500D01*
D39*
%TO.N,/IWRL6432BD/RADAR_VBGAP*%
X70368000Y-37668000D02*
X77568000Y-40968000D01*
X63568000Y-28968000D02*
X62604000Y-28253999D01*
X63568000Y-28968000D02*
X65367999Y-29468000D01*
X62668000Y-30068000D02*
X63568000Y-28968000D01*
X58254000Y-23604000D02*
X58654000Y-23203999D01*
X62604000Y-28253999D02*
X59754000Y-25954000D01*
X59754000Y-25954000D02*
X59254000Y-25854000D01*
X70368000Y-35568000D02*
X70368000Y-37668000D01*
X59254000Y-25854000D02*
X59004000Y-25503999D01*
X59004000Y-25503999D02*
X58254000Y-23604000D01*
X65367999Y-29468000D02*
X70368000Y-35568000D01*
%TO.N,/IWRL6432BD/RADAR_1V_RF_OUT*%
X54269934Y-20753000D02*
X54282934Y-20740000D01*
X60684000Y-25734000D02*
X59484000Y-25534000D01*
X59484000Y-25534000D02*
X59384000Y-25434000D01*
X59384000Y-25234000D02*
X59384000Y-25034000D01*
X56429847Y-21749288D02*
X56638386Y-21957827D01*
X58140000Y-21740460D02*
X59730600Y-21316300D01*
X57080135Y-21811000D02*
X57609105Y-21811000D01*
X57609105Y-21811000D02*
X57679644Y-21740460D01*
X56400675Y-21706529D02*
X56400675Y-21720116D01*
X59384000Y-25034000D02*
X59734000Y-21734000D01*
X53994066Y-20753000D02*
X54269934Y-20753000D01*
X56933308Y-21957827D02*
X57080135Y-21811000D01*
X56230600Y-21516300D02*
X56400675Y-21706529D01*
X53707366Y-20466300D02*
X53994066Y-20753000D01*
X59384000Y-25284000D02*
X59384000Y-25234000D01*
X56400675Y-21720116D02*
X56421019Y-21740460D01*
X56180600Y-21066300D02*
X56230600Y-21516300D01*
X59384000Y-25434000D02*
X59384000Y-25284000D01*
X56429847Y-21740460D02*
X56429847Y-21749288D01*
X54282934Y-20740000D02*
X55854300Y-20740000D01*
X57679644Y-21740460D02*
X58140000Y-21740460D01*
X56421019Y-21740460D02*
X56429847Y-21740460D01*
X55854300Y-20740000D02*
X56180600Y-21066300D01*
X56638386Y-21957827D02*
X56933308Y-21957827D01*
X63484000Y-27484000D02*
X60684000Y-25734000D01*
X53180600Y-20466300D02*
X53707366Y-20466300D01*
D38*
%TO.N,/IWRL6432BD/USB_VBUS*%
X53801799Y-15100000D02*
X55101799Y-13400000D01*
X52477621Y-22382379D02*
X52517478Y-22422237D01*
X52240000Y-21796289D02*
X52240000Y-20911714D01*
D36*
X74679200Y-63762800D02*
X71079200Y-54362800D01*
D38*
X52517478Y-22422237D02*
X52517478Y-22106605D01*
X51848523Y-23516477D02*
X51848523Y-23011477D01*
D39*
X51003800Y-28902000D02*
X51103800Y-28752000D01*
X50953800Y-29152000D02*
X51003800Y-28902000D01*
D38*
X52460000Y-20691714D02*
X52460000Y-20560000D01*
X52240000Y-20911714D02*
X52460000Y-20691714D01*
X52522457Y-22008000D02*
X52451711Y-22008000D01*
D36*
X61079200Y-44662800D02*
X56879200Y-44662800D01*
X50379200Y-27362800D02*
X50579200Y-26962800D01*
D38*
X55101799Y-13400000D02*
X58201799Y-11300000D01*
X53301799Y-16900000D02*
X53801799Y-15100000D01*
D36*
X53879200Y-41662800D02*
X50379200Y-27362800D01*
D38*
X53301799Y-18570000D02*
X53301799Y-16900000D01*
X52460000Y-19411799D02*
X53301799Y-18570000D01*
X52451711Y-22008000D02*
X52240000Y-21796289D01*
X51848523Y-23011477D02*
X52477621Y-22382379D01*
D39*
X53879200Y-41662800D02*
X50953800Y-29152000D01*
D38*
X52460000Y-20691714D02*
X52460000Y-19411799D01*
D36*
X56879200Y-44662800D02*
X54079200Y-42162800D01*
D38*
X52517478Y-22106605D02*
X52563418Y-22060665D01*
D36*
X74879200Y-84662800D02*
X74679200Y-63762800D01*
X71079200Y-54362800D02*
X61079200Y-44662800D01*
D38*
X52563418Y-22060665D02*
X52522457Y-22008000D01*
D36*
X54079200Y-42162800D02*
X53879200Y-41662800D01*
D40*
%TO.N,/IWRL6432BD/RADAR_1V4_SYNTH*%
X64429999Y-27450000D02*
X64229999Y-28050000D01*
X64229999Y-28050000D02*
X63129999Y-28150000D01*
D37*
X61326000Y-23676000D02*
X59726000Y-25226000D01*
D40*
X58529999Y-17650000D02*
X62029999Y-23950000D01*
D37*
X62029999Y-23950000D02*
X61626000Y-23676000D01*
D40*
X64030000Y-26850000D02*
X64429999Y-27450000D01*
X64030000Y-25450000D02*
X64030000Y-26850000D01*
D37*
X61626000Y-23676000D02*
X61326000Y-23676000D01*
D40*
X62029999Y-23950000D02*
X64030000Y-25450000D01*
D39*
%TO.N,/IWRL6432BD/RADAR_1P2_RF*%
X57942000Y-24192000D02*
X59292000Y-26842000D01*
X59292000Y-26842000D02*
X61292000Y-29292000D01*
X57891999Y-23442000D02*
X57942000Y-24192000D01*
X59242000Y-21842000D02*
X57891999Y-23442000D01*
%TO.N,/IWRL6432BD/RADAR_SRAM_1V2*%
X55028498Y-22640000D02*
X57280000Y-22640000D01*
X54337065Y-23132600D02*
X54535898Y-23132600D01*
X57290000Y-22431501D02*
X57238499Y-22380000D01*
X57290000Y-22630000D02*
X57290000Y-22431501D01*
X54066500Y-23380000D02*
X54089665Y-23380000D01*
D36*
X57106000Y-22656000D02*
X58256000Y-26206000D01*
D39*
X56785847Y-21601827D02*
X56907674Y-21480000D01*
X57472000Y-21480000D02*
X57726000Y-21226000D01*
X54089665Y-23380000D02*
X54337065Y-23132600D01*
X54535898Y-23132600D02*
X55028498Y-22640000D01*
X57280000Y-22640000D02*
X57290000Y-22630000D01*
X56907674Y-21480000D02*
X57472000Y-21480000D01*
D36*
X58256000Y-26206000D02*
X60506000Y-28906000D01*
D39*
X53820000Y-23626500D02*
X54066500Y-23380000D01*
%TO.N,/IWRL6432BD/RADAR_1V2_INT*%
X52080000Y-24250000D02*
X50678500Y-22848500D01*
X52487065Y-24132600D02*
X52369665Y-24250000D01*
X56727000Y-24250000D02*
X52880333Y-24250000D01*
X52880333Y-24250000D02*
X52762933Y-24132600D01*
X52369665Y-24250000D02*
X52080000Y-24250000D01*
X56750000Y-23800000D02*
X56750000Y-25750000D01*
X57028500Y-23948500D02*
X56727000Y-24250000D01*
X52762933Y-24132600D02*
X52487065Y-24132600D01*
D41*
%TO.N,/RP2350/GPIO26*%
X66184800Y-86082300D02*
X66284800Y-86682300D01*
X65484800Y-80082300D02*
X65484800Y-85082300D01*
X58584800Y-71682300D02*
X59584800Y-72782300D01*
X66284800Y-86682300D02*
X66084800Y-87182300D01*
X65884800Y-87282300D02*
X64384800Y-87582300D01*
X55784800Y-68482300D02*
X56284800Y-69382300D01*
X55984800Y-63382300D02*
X55784800Y-68482300D01*
X65484800Y-85082300D02*
X65984800Y-85582300D01*
X66084800Y-87182300D02*
X65884800Y-87282300D01*
X56284800Y-69382300D02*
X58584800Y-71682300D01*
X62684800Y-76982300D02*
X65484800Y-80082300D01*
X59584800Y-72782300D02*
X62684800Y-76982300D01*
X65984800Y-85582300D02*
X66184800Y-86082300D01*
X56684800Y-61782300D02*
X55984800Y-63382300D01*
D40*
%TO.N,/THX8136/3V3_DVDD_PRE*%
X81709400Y-38541799D02*
X83609400Y-36741800D01*
X85386900Y-30706700D02*
X77586900Y-24906700D01*
X77586900Y-24906700D02*
X74386900Y-21806700D01*
X87386900Y-32106700D02*
X85386900Y-30706700D01*
X74386900Y-21806700D02*
X74286900Y-15806700D01*
%TO.N,/THX8136/DVDD_1V8*%
X75245500Y-34265100D02*
X74145500Y-33265100D01*
X89550600Y-17173000D02*
X90050600Y-17573000D01*
X86550600Y-17373000D02*
X87750600Y-17173000D01*
X87750600Y-17173000D02*
X89550600Y-17173000D01*
X84145500Y-36365100D02*
X77545500Y-34265100D01*
X84145500Y-37065100D02*
X84145500Y-36365100D01*
X74145500Y-33265100D02*
X73745500Y-32065100D01*
X77545500Y-34265100D02*
X75245500Y-34265100D01*
X90050600Y-17573000D02*
X90850600Y-27673000D01*
%TO.N,/MM8108/3V3_MM8108*%
X21448800Y-91341800D02*
X22648800Y-92541800D01*
X31214000Y-81714000D02*
X31014000Y-81514000D01*
X34114000Y-82214000D02*
X31214000Y-81714000D01*
D38*
%TO.N,/AD9609/3V3_AFE*%
X66500000Y-16800000D02*
X66500000Y-21800000D01*
X63600000Y-11900000D02*
X63600000Y-10500000D01*
X66500000Y-21800000D02*
X64980000Y-21800000D01*
X64800000Y-21800000D02*
X64980000Y-21800000D01*
X70100000Y-11800000D02*
X63600000Y-11900000D01*
X64800000Y-20300000D02*
X64800000Y-21800000D01*
X60500000Y-10500000D02*
X60500000Y-16800000D01*
X66200000Y-18625000D02*
X64800000Y-20300000D01*
X63600000Y-10500000D02*
X60500000Y-10500000D01*
D40*
X92144805Y-8525000D02*
X73044805Y-10625000D01*
D38*
X60500000Y-16800000D02*
X66500000Y-16800000D01*
D40*
X103155000Y-27480000D02*
X103155000Y-12080000D01*
%TO.N,/AD9609/DRVDD_3V3*%
X95285000Y-10710000D02*
X85185000Y-12110000D01*
X101339000Y-15625000D02*
X101239000Y-13225000D01*
X101439000Y-30725000D02*
X101339000Y-15625000D01*
X99939000Y-11625000D02*
X96839000Y-11025000D01*
D38*
X64775000Y-26000000D02*
X65300000Y-25800000D01*
D40*
X101239000Y-13225000D02*
X99939000Y-11625000D01*
D38*
%TO.N,/AD9609/LDO_1V8*%
X101973000Y-30398000D02*
X101773000Y-13398000D01*
X101773000Y-13398000D02*
X101473000Y-12698000D01*
X101873000Y-32298000D02*
X101973000Y-30398000D01*
X100473000Y-31998000D02*
X101373000Y-32498000D01*
X101373000Y-32498000D02*
X101873000Y-32298000D01*
D40*
X93323000Y-11648000D02*
X99623000Y-12148000D01*
D38*
X101473000Y-12698000D02*
X100873000Y-12098000D01*
D40*
%TO.N,/AD9609/AVDD_1V8*%
X74583000Y-13054000D02*
X74383000Y-13254000D01*
X73282999Y-21253999D02*
X72083000Y-22654000D01*
X70297499Y-28178100D02*
X70497499Y-24278100D01*
D38*
X64775000Y-23400000D02*
X65599999Y-23400000D01*
D40*
X88782999Y-12954000D02*
X74583000Y-13054000D01*
X70497499Y-24278100D02*
X70797499Y-23978100D01*
X74383000Y-13254000D02*
X73683000Y-15954000D01*
X97781000Y-18406000D02*
X98381000Y-26105999D01*
X98381000Y-26105999D02*
X101381000Y-31906000D01*
X73683000Y-15954000D02*
X73282999Y-21253999D01*
X68697499Y-29878100D02*
X70297499Y-28178100D01*
X68141500Y-24034600D02*
X66641499Y-24034600D01*
D39*
%TO.N,/AD9609/VREF*%
X70225000Y-20800000D02*
X72025000Y-23500000D01*
X72500000Y-10200000D02*
X72500000Y-15500000D01*
X71350000Y-22500000D02*
X72350000Y-26200000D01*
X72025000Y-23500000D02*
X70141500Y-23200000D01*
X72500000Y-15500000D02*
X70225000Y-15500000D01*
X71000000Y-13400000D02*
X63000000Y-13400000D01*
X68000000Y-10200000D02*
X71000000Y-10200000D01*
X68000000Y-10200000D02*
X72500000Y-10200000D01*
X71000000Y-10200000D02*
X71000000Y-13400000D01*
X70225000Y-20800000D02*
X71350000Y-22500000D01*
X70225000Y-15500000D02*
X70225000Y-20800000D01*
X72350000Y-26200000D02*
X72150000Y-26400000D01*
%TO.N,/AD9609/VCM*%
X62775000Y-22500000D02*
X67425000Y-22500000D01*
D36*
X69141500Y-23500000D02*
X68341500Y-23100000D01*
X68341500Y-23100000D02*
X68191499Y-21250000D01*
D39*
X67425000Y-23500000D02*
X69141500Y-23500000D01*
X65500000Y-17975000D02*
X62775000Y-18000000D01*
X62775000Y-18000000D02*
X62775000Y-22500000D01*
X67425000Y-22500000D02*
X67425000Y-23500000D01*
D37*
%TO.N,/AD9609/ADC_VIN_P*%
X79000000Y-11000000D02*
X79020000Y-11000000D01*
%TO.N,/AD9609/ADC_VIN_N*%
X81000000Y-11000000D02*
X80500000Y-11100000D01*
D41*
%TO.N,/STM32H7/HSE_IN*%
X14251088Y-71873699D02*
X14251088Y-66399241D01*
X36192791Y-80889778D02*
X35196125Y-80889778D01*
X28542537Y-80106669D02*
X27802769Y-79646185D01*
X27511216Y-62132503D02*
X33960621Y-62132503D01*
X17571931Y-63464692D02*
X15593668Y-63464692D01*
X30925710Y-79639152D02*
X30831196Y-79733666D01*
X36349389Y-81046376D02*
X36192791Y-80889778D01*
X34413138Y-80106791D02*
X33224184Y-80106791D01*
X33224184Y-80106791D02*
X32886957Y-79769564D01*
X32554468Y-79639152D02*
X30925710Y-79639152D01*
X27572527Y-79415943D02*
X22852774Y-79415943D01*
X28835411Y-80206232D02*
X28542537Y-80106669D01*
X42339131Y-61908500D02*
X42934500Y-61908500D01*
X9825406Y-64469603D02*
X12321450Y-64469603D01*
X18022130Y-75644741D02*
X14251088Y-71873699D01*
X30831196Y-79733666D02*
X28835411Y-80206232D01*
X20661775Y-60374847D02*
X17571931Y-63464692D01*
X39294033Y-80375500D02*
X42564500Y-80375500D01*
X37815847Y-81516168D02*
X37346054Y-81046376D01*
X34540665Y-61552459D02*
X41983090Y-61552459D01*
X38089913Y-81579620D02*
X37815847Y-81516168D01*
X19081572Y-75644741D02*
X18022130Y-75644741D01*
X27059842Y-61681128D02*
X27511216Y-62132503D01*
X37346054Y-81046376D02*
X36349389Y-81046376D01*
X22852774Y-79415943D02*
X19081572Y-75644741D01*
X33960621Y-62132503D02*
X34540665Y-61552459D01*
X24922637Y-61681128D02*
X27059842Y-61681128D01*
X39294033Y-80375500D02*
X38089913Y-81579620D01*
X27802769Y-79646185D02*
X27572527Y-79415943D01*
X12321450Y-64469603D02*
X14251088Y-66399241D01*
X32886957Y-79769564D02*
X32581774Y-79666459D01*
X41983090Y-61552459D02*
X42339131Y-61908500D01*
X32581774Y-79666459D02*
X32554468Y-79639152D01*
X35196125Y-80889778D02*
X34413138Y-80106791D01*
D40*
%TO.N,/STM32H7/VCAP1*%
X30386000Y-68936500D02*
X36486000Y-66236500D01*
X36486000Y-66236500D02*
X40986000Y-64836500D01*
X24086000Y-71136500D02*
X29886000Y-70736500D01*
X23186000Y-71536500D02*
X24086000Y-71136500D01*
X40986000Y-64836500D02*
X41186000Y-64636500D01*
X29886000Y-70736500D02*
X30386000Y-70136500D01*
D41*
%TO.N,/STM32H7/HSE_OUT*%
X17193838Y-58463313D02*
X16753109Y-58022585D01*
X13488558Y-63287374D02*
X17193838Y-59582094D01*
X17193838Y-59582094D02*
X17193838Y-58463313D01*
X13488558Y-63601458D02*
X13488558Y-63287374D01*
D40*
%TO.N,/STM32H7/VBAT*%
X17079500Y-46603500D02*
X16379500Y-45503500D01*
X16379500Y-45503500D02*
X16279499Y-42703500D01*
X16279499Y-42703500D02*
X16679499Y-42503500D01*
X16679499Y-42503500D02*
X20779500Y-43303500D01*
D38*
%TO.N,/STM32H7/VDDA*%
X19061500Y-64192400D02*
X21461500Y-62892400D01*
X32961500Y-50192400D02*
X33061500Y-48692400D01*
X28004900Y-41511900D02*
X28904900Y-40711900D01*
X47469500Y-59700400D02*
X47369500Y-64100400D01*
X27504900Y-44411900D02*
X27004900Y-44411900D01*
X29904900Y-46411900D02*
X29404900Y-45511900D01*
X26504900Y-43711900D02*
X26504900Y-43011900D01*
X21461500Y-62892400D02*
X31361500Y-52392400D01*
X31361500Y-52392400D02*
X30169500Y-54800399D01*
X47669500Y-69200400D02*
X47969500Y-69600400D01*
X47369500Y-64100400D02*
X47569500Y-67100400D01*
X27004900Y-44411900D02*
X26504900Y-43711900D01*
X33061500Y-48692400D02*
X32961500Y-48592400D01*
X31361500Y-52392400D02*
X31761500Y-51392400D01*
X47969500Y-69600400D02*
X47969500Y-70100400D01*
X30169500Y-54800399D02*
X30169500Y-55700400D01*
X31104900Y-48211900D02*
X29904900Y-46411900D01*
X47969500Y-70100400D02*
X47569500Y-70500400D01*
X47569500Y-67100400D02*
X47669500Y-69200400D01*
X31761500Y-51392400D02*
X32961500Y-50192400D01*
D37*
%TO.N,/STM32H7/3V3_XSPI*%
X36868000Y-75391000D02*
X40963407Y-74379913D01*
D36*
X20194000Y-72506499D02*
X22094000Y-70606500D01*
D40*
X24857599Y-75424500D02*
X23957600Y-75724499D01*
D41*
X33250000Y-72062500D02*
X33154592Y-75951412D01*
D40*
X16419800Y-70985000D02*
X17619799Y-70884999D01*
D36*
X21094000Y-76506499D02*
X20194000Y-74506499D01*
D40*
X24557600Y-76424500D02*
X22857599Y-76824500D01*
X27250000Y-71662500D02*
X24250000Y-71662500D01*
D37*
X40068000Y-56891000D02*
X41568000Y-57191000D01*
D40*
X12919800Y-69185000D02*
X13819800Y-69185000D01*
D36*
X21794000Y-77206499D02*
X21094000Y-76506499D01*
X27994000Y-69006499D02*
X28194000Y-69206499D01*
D40*
X24757600Y-73124500D02*
X25557600Y-73224499D01*
D37*
X33268000Y-72791000D02*
X33168000Y-75591000D01*
X35568000Y-61091000D02*
X40068000Y-56891000D01*
D41*
X31250000Y-66862500D02*
X30138000Y-67462499D01*
D36*
X26194000Y-87306500D02*
X24494000Y-88406500D01*
X20194000Y-74506499D02*
X20194000Y-72506499D01*
X24094000Y-82206499D02*
X24094000Y-80606500D01*
X23894000Y-68906500D02*
X24194000Y-69306500D01*
X27794000Y-80906500D02*
X28194000Y-82506499D01*
D41*
X36950000Y-75962499D02*
X41050000Y-74662500D01*
D36*
X28194000Y-82506499D02*
X27894000Y-85506499D01*
D37*
X32168000Y-61791000D02*
X35568000Y-61091000D01*
D36*
X24194000Y-69306500D02*
X27994000Y-69006499D01*
X27894000Y-85506499D02*
X26994000Y-86206499D01*
D40*
X7719799Y-63984999D02*
X12919800Y-69185000D01*
D41*
X31476088Y-66093114D02*
X31250000Y-66862500D01*
D37*
X31668000Y-64291000D02*
X32168000Y-62491000D01*
D41*
%TO.N,/STM32H7/VCAP2*%
X35353700Y-63061000D02*
X37153700Y-63111000D01*
X14703700Y-56261000D02*
X15403700Y-56511000D01*
X41553700Y-64661000D02*
X40953700Y-65861000D01*
X40953700Y-65861000D02*
X38653700Y-66311000D01*
X37153700Y-63111000D02*
X41453700Y-64361000D01*
X19603700Y-57461000D02*
X22603700Y-58061000D01*
X15403700Y-56511000D02*
X16053700Y-56511000D01*
X16053700Y-56511000D02*
X19603700Y-57461000D01*
X41453700Y-64361000D02*
X41553700Y-64661000D01*
%TO.N,/STM32H7/LSE_IN*%
X25599441Y-50115898D02*
X25599441Y-49027062D01*
X49221046Y-59721891D02*
X48388091Y-58888935D01*
X48388091Y-57219947D02*
X43627910Y-52459766D01*
X29373283Y-42343377D02*
X28011860Y-43704799D01*
X31192237Y-44002903D02*
X29532712Y-42343377D01*
X22709414Y-52409292D02*
X23306046Y-52409292D01*
X25599441Y-49027062D02*
X28011860Y-46614642D01*
X43627910Y-52459766D02*
X43627910Y-51920906D01*
X37964769Y-46588337D02*
X35379335Y-44002903D01*
X23306046Y-52409292D02*
X25599441Y-50115898D01*
X28011860Y-43704799D02*
X28011860Y-46614642D01*
X21072000Y-54528856D02*
X21072000Y-54046706D01*
X49221046Y-62678231D02*
X49221046Y-59721891D01*
X51442260Y-64899445D02*
X49221046Y-62678231D01*
X29532712Y-42343377D02*
X29373283Y-42343377D01*
X38295340Y-46588337D02*
X37964769Y-46588337D01*
X35379335Y-44002903D02*
X31192237Y-44002903D01*
X48388091Y-58888935D02*
X48388091Y-57219947D01*
X43627910Y-51920906D02*
X38295340Y-46588337D01*
X21072000Y-54046706D02*
X22709414Y-52409292D01*
D39*
%TO.N,/STM32H7/VCAP34*%
X43466500Y-61754000D02*
X41316500Y-58804000D01*
D44*
X23180000Y-55367500D02*
X20680000Y-55567500D01*
X17280000Y-52467500D02*
X14480000Y-47467500D01*
X14480000Y-47467500D02*
X13379999Y-46167500D01*
X38580000Y-54067500D02*
X37980000Y-53467500D01*
X20680000Y-55567500D02*
X18880000Y-54067500D01*
D39*
X43166500Y-65304000D02*
X43316500Y-62904000D01*
D44*
X38680000Y-57167500D02*
X39180000Y-55567500D01*
X39180000Y-55567500D02*
X38580000Y-54067500D01*
X22580000Y-45367500D02*
X23980000Y-46767500D01*
X13979999Y-43267500D02*
X16480000Y-40767500D01*
D39*
X41316500Y-58804000D02*
X40116500Y-57304000D01*
D44*
X37980000Y-53467500D02*
X34580000Y-53667500D01*
X13379999Y-46167500D02*
X13479999Y-45667500D01*
X18880000Y-54067500D02*
X17280000Y-52467500D01*
X13479999Y-45667500D02*
X13580000Y-45567500D01*
D39*
X43316500Y-62904000D02*
X43416500Y-62654000D01*
X43416500Y-62654000D02*
X43466500Y-61754000D01*
D41*
%TO.N,/STM32H7/VREFP*%
X21029895Y-62682575D02*
X21029895Y-62275859D01*
X21029895Y-62275859D02*
X31032371Y-52273384D01*
X31032371Y-51671698D02*
X32595547Y-50108521D01*
X33482000Y-75191603D02*
X33482000Y-77076500D01*
X34028321Y-70787707D02*
X34581000Y-71340386D01*
X35812639Y-69128005D02*
X34240996Y-69128005D01*
X36378214Y-68562430D02*
X35812639Y-69128005D01*
X34240996Y-69128005D02*
X34028321Y-69340680D01*
X34581000Y-74092603D02*
X33482000Y-75191603D01*
X34581000Y-71340386D02*
X34581000Y-74092603D01*
X32595547Y-50108521D02*
X32595547Y-48963091D01*
X34028321Y-69340680D02*
X34028321Y-70787707D01*
X31032371Y-52273384D02*
X31032371Y-51671698D01*
%TO.N,/STM32H7/NRST*%
X21907835Y-39597792D02*
X29902409Y-39597792D01*
X17395740Y-74438257D02*
X15256072Y-72298589D01*
X18412157Y-74438257D02*
X17395740Y-74438257D01*
X10410300Y-53000000D02*
X16676000Y-59265700D01*
X19749008Y-37438964D02*
X21907835Y-39597792D01*
X15256072Y-66894621D02*
X12903685Y-64542233D01*
X8346233Y-52900000D02*
X10974466Y-50271768D01*
X32277000Y-41529250D02*
X32428000Y-41529500D01*
X12903685Y-59121315D02*
X14646500Y-57378500D01*
X16343430Y-37438964D02*
X19749008Y-37438964D01*
X10974466Y-42807928D02*
X16343430Y-37438964D01*
X10974466Y-50271768D02*
X10974466Y-42807928D01*
X12903685Y-64542233D02*
X12903685Y-59121315D01*
X6770000Y-53000000D02*
X10410300Y-53000000D01*
X18796500Y-74823500D02*
X18689750Y-74716500D01*
X15256072Y-72298589D02*
X15256072Y-66894621D01*
X29902409Y-39597792D02*
X31833132Y-41528515D01*
X18689750Y-74716500D02*
X18412157Y-74438257D01*
X31833132Y-41528515D02*
X32277000Y-41529250D01*
%TO.N,/STM32H7/ETH_PHY_RESET*%
X52877105Y-50227760D02*
X51832111Y-49182766D01*
X51832111Y-49182766D02*
X51253331Y-49182766D01*
%TO.N,/STM32H7/PHY_XTAL1*%
X22204689Y-53609794D02*
X22728586Y-53085897D01*
X42022813Y-55418062D02*
X42022813Y-57148763D01*
X43649463Y-74272477D02*
X42111840Y-75810101D01*
X42111840Y-78014471D02*
X41831961Y-78294350D01*
X42111840Y-75810101D02*
X42111840Y-78014471D01*
X45641066Y-61860166D02*
X45641066Y-64946815D01*
X32308764Y-45101397D02*
X33068071Y-45860704D01*
X42022813Y-57148763D02*
X43474966Y-58600916D01*
X37777302Y-51172551D02*
X42022813Y-55418062D01*
X22728586Y-53085897D02*
X26011662Y-53085897D01*
X36435345Y-45860704D02*
X37777302Y-47202661D01*
X29157461Y-45101397D02*
X32308764Y-45101397D01*
X46091287Y-68127658D02*
X46091287Y-70533429D01*
X28717457Y-45541401D02*
X29157461Y-45101397D01*
X14141706Y-45304779D02*
X20009803Y-51172876D01*
X20009803Y-51172876D02*
X20009803Y-54381362D01*
X26922147Y-52175412D02*
X26922147Y-51427936D01*
X14141706Y-45200106D02*
X14141706Y-45304779D01*
X45641066Y-64946815D02*
X45957329Y-65263077D01*
X28036159Y-50313924D02*
X28036159Y-48467042D01*
X43649463Y-72975253D02*
X43649463Y-74272477D01*
X43474966Y-58600916D02*
X43474966Y-59694066D01*
X28717457Y-47785744D02*
X28717457Y-45541401D01*
X22204689Y-54148696D02*
X22204689Y-53609794D01*
X37777302Y-47202661D02*
X37777302Y-51172551D01*
X46020581Y-68056952D02*
X46091287Y-68127658D01*
X26922147Y-51427936D02*
X28036159Y-50313924D01*
X33068071Y-45860704D02*
X36435345Y-45860704D01*
X46020581Y-65679459D02*
X46020581Y-68056952D01*
X20736037Y-55107596D02*
X21245788Y-55107596D01*
X46091287Y-70533429D02*
X43649463Y-72975253D01*
X45957329Y-65263077D02*
X46020581Y-65679459D01*
X26011662Y-53085897D02*
X26922147Y-52175412D01*
X43474966Y-59694066D02*
X45641066Y-61860166D01*
X20009803Y-54381362D02*
X20736037Y-55107596D01*
X28036159Y-48467042D02*
X28717457Y-47785744D01*
X21245788Y-55107596D02*
X22204689Y-54148696D01*
%TO.N,/STM32H7/PHY_XTAL2*%
X40213606Y-49232318D02*
X39691341Y-49232318D01*
X20344006Y-54287380D02*
X20898788Y-54842163D01*
X46565116Y-66473896D02*
X46471873Y-66380652D01*
X46565116Y-70759981D02*
X46565116Y-66473896D01*
X42661937Y-51680649D02*
X40213606Y-49232318D01*
X26710781Y-48838327D02*
X28341229Y-47207878D01*
X39691341Y-49232318D02*
X38511240Y-48052217D01*
X38511240Y-48052217D02*
X38511240Y-47579094D01*
X42426848Y-78434882D02*
X42572421Y-78289309D01*
X36450482Y-45518336D02*
X34220611Y-45518336D01*
X46453224Y-65370331D02*
X46370897Y-64808245D01*
X26710781Y-50863190D02*
X26710781Y-48838327D01*
X42572421Y-78289309D02*
X42572421Y-75970566D01*
X28341229Y-47207878D02*
X28341229Y-45272186D01*
X46329734Y-59955627D02*
X42661937Y-56287830D01*
X31905777Y-44423144D02*
X30154176Y-44423144D01*
X28341229Y-45272186D02*
X29672223Y-43941191D01*
X29672223Y-42924291D02*
X29672223Y-43941191D01*
X45321956Y-72003141D02*
X46565116Y-70759981D01*
X25451550Y-52122420D02*
X26710781Y-50863190D01*
X45321956Y-73221031D02*
X45321956Y-72003141D01*
X46370897Y-64808245D02*
X46329734Y-64767082D01*
X33607373Y-44905097D02*
X32387730Y-44905097D01*
X22685178Y-52747215D02*
X23294388Y-52747215D01*
X42661937Y-56287830D02*
X42661937Y-51680649D01*
X21787834Y-54255424D02*
X21787834Y-53644559D01*
X29442062Y-42694130D02*
X29672223Y-42924291D01*
X18928091Y-49625103D02*
X20344006Y-51041018D01*
X30154176Y-44423144D02*
X29672223Y-43941191D01*
X46471873Y-66380652D02*
X46471873Y-65388979D01*
X42572421Y-75970566D02*
X45321956Y-73221031D01*
X46471873Y-65388979D02*
X46453224Y-65370331D01*
X21787834Y-53644559D02*
X22685178Y-52747215D01*
X34220611Y-45518336D02*
X33607373Y-44905097D01*
X20344006Y-51041018D02*
X20344006Y-54287380D01*
X21201095Y-54842163D02*
X21787834Y-54255424D01*
X23919183Y-52122420D02*
X25451550Y-52122420D01*
X46329734Y-64767082D02*
X46329734Y-59955627D01*
X20898788Y-54842163D02*
X21201095Y-54842163D01*
X32387730Y-44905097D02*
X31905777Y-44423144D01*
X23294388Y-52747215D02*
X23919183Y-52122420D01*
X38511240Y-47579094D02*
X36450482Y-45518336D01*
%TO.N,/STM32H7/3V3_USB*%
X41162000Y-55820700D02*
X38062000Y-53020700D01*
D40*
X30725000Y-60893500D02*
X23925000Y-61193500D01*
X23925000Y-61193500D02*
X21325000Y-63593500D01*
D39*
X46170500Y-59308700D02*
X45970500Y-56408699D01*
D40*
X31625000Y-60793500D02*
X30725000Y-60893500D01*
X34125000Y-49193500D02*
X31625000Y-60793500D01*
X17325000Y-66393500D02*
X15625000Y-66593500D01*
X14825000Y-67393500D02*
X14625000Y-71293500D01*
D41*
X44362000Y-54820700D02*
X42962000Y-54920700D01*
X34062000Y-52020700D02*
X34162000Y-50720700D01*
D40*
X21325000Y-63593500D02*
X17325000Y-66393500D01*
D41*
X38062000Y-53020700D02*
X34762000Y-52020700D01*
D38*
%TO.N,/STM32H7/PHY_VDDCR*%
X50631845Y-79107129D02*
X50855029Y-78883945D01*
X50855029Y-78883945D02*
X51170661Y-78883945D01*
X50305439Y-80299345D02*
X50317014Y-80250730D01*
X50604133Y-80089667D02*
X51002426Y-79691374D01*
X42980500Y-80913299D02*
X38880500Y-82113300D01*
X50543262Y-80111500D02*
X50585824Y-80085308D01*
X44580500Y-83613300D02*
X44980500Y-83213300D01*
X48644529Y-82049271D02*
X50270100Y-80423700D01*
X50413318Y-80191466D02*
X50493284Y-80111500D01*
X52989300Y-70104500D02*
X53080500Y-70013300D01*
X48429087Y-82264713D02*
X48435916Y-82264713D01*
X51012350Y-79645945D02*
X50855029Y-79645945D01*
X51177346Y-78890630D02*
X52140000Y-74483813D01*
X53080500Y-70013300D02*
X52380500Y-64813300D01*
X51170661Y-78883945D02*
X51177346Y-78890630D01*
X51580500Y-65513300D02*
X48980500Y-64313300D01*
X52140000Y-73187781D02*
X52224980Y-73102801D01*
X52140000Y-74483813D02*
X52140000Y-73187781D01*
X50317014Y-80250730D02*
X50413318Y-80191466D01*
X52492100Y-70601700D02*
X52779589Y-70601700D01*
X44180499Y-83613300D02*
X44580500Y-83613300D01*
X42980500Y-79813300D02*
X43180499Y-80413299D01*
X52224980Y-73102801D02*
X52224980Y-70868820D01*
X45980500Y-64313300D02*
X45980500Y-61113299D01*
X50270100Y-80334684D02*
X50305439Y-80299345D01*
X50855029Y-79645945D02*
X50631845Y-79422761D01*
X48644529Y-82056100D02*
X48644529Y-82049271D01*
X50270100Y-80423700D02*
X50270100Y-80334684D01*
X47480500Y-83213300D02*
X48429087Y-82264713D01*
X50493284Y-80111500D02*
X50543262Y-80111500D01*
X41380500Y-83213300D02*
X44180499Y-83613300D01*
X52779589Y-70601700D02*
X52989300Y-70391989D01*
X50585824Y-80085308D02*
X50604133Y-80089667D01*
X52989300Y-70391989D02*
X52989300Y-70104500D01*
X52224980Y-70868820D02*
X52492100Y-70601700D01*
X50631845Y-79422761D02*
X50631845Y-79107129D01*
X48435916Y-82264713D02*
X48644529Y-82056100D01*
X43180499Y-80413299D02*
X42980500Y-80913299D01*
X51002426Y-79691374D02*
X51012350Y-79645945D01*
D44*
%TO.N,/Power/VIN*%
X59000000Y-66600000D02*
X58600000Y-66200000D01*
X58600000Y-65000000D02*
X58000000Y-64400000D01*
X59100000Y-69500000D02*
X59100000Y-69300000D01*
D36*
X58100000Y-59600000D02*
X58000000Y-59700000D01*
X58400000Y-59300000D02*
X58300000Y-59300000D01*
D44*
X57900000Y-59600000D02*
X58000000Y-59500000D01*
X59000000Y-69200000D02*
X59000000Y-66600000D01*
X59700000Y-69900000D02*
X59600000Y-69800000D01*
X58000000Y-59500000D02*
X58000000Y-59400000D01*
X57900000Y-59700000D02*
X57900000Y-59600000D01*
X58000000Y-64400000D02*
X58000000Y-59800000D01*
D38*
X85514999Y-57239999D02*
X90214999Y-60440000D01*
D36*
X58700000Y-65700000D02*
X58700000Y-66100000D01*
D44*
X58000000Y-59800000D02*
X57900000Y-59700000D01*
D38*
X84315000Y-56140000D02*
X85514999Y-57239999D01*
D44*
X58600000Y-66200000D02*
X58600000Y-65000000D01*
D36*
X59400000Y-66800000D02*
X59400000Y-67700000D01*
X58100000Y-59500000D02*
X58100000Y-59600000D01*
D44*
X59100000Y-69300000D02*
X59000000Y-69200000D01*
D36*
X58300000Y-59300000D02*
X58100000Y-59500000D01*
D44*
X59600000Y-69800000D02*
X59500000Y-69800000D01*
D36*
X58700000Y-66100000D02*
X59400000Y-66800000D01*
D44*
X59500000Y-69800000D02*
X59400000Y-69700000D01*
D36*
X58000000Y-65000000D02*
X58700000Y-65700000D01*
D44*
X62200000Y-70700000D02*
X61400000Y-69900000D01*
X61400000Y-69900000D02*
X59700000Y-69900000D01*
D36*
X58900000Y-58800000D02*
X58400000Y-59300000D01*
X58000000Y-59700000D02*
X58000000Y-65000000D01*
D44*
X59400000Y-69700000D02*
X59300000Y-69700000D01*
X59300000Y-69700000D02*
X59100000Y-69500000D01*
X58000000Y-59400000D02*
X58800000Y-58600000D01*
D38*
X90214999Y-60440000D02*
X91115000Y-61239999D01*
X91115000Y-61239999D02*
X98315000Y-64340000D01*
D43*
%TO.N,/Power/AGND*%
X63000000Y-54000000D02*
X59800000Y-50800000D01*
X64600000Y-54000000D02*
X63000000Y-54000000D01*
X66900000Y-54700000D02*
X66600000Y-54700000D01*
X66600000Y-54700000D02*
X66200000Y-54300000D01*
X59800000Y-50800000D02*
X59000000Y-50800000D01*
X66200000Y-54300000D02*
X64900000Y-54300000D01*
X64900000Y-54300000D02*
X64600000Y-54000000D01*
D38*
%TO.N,/Power/PG*%
X68909000Y-56884000D02*
X67709000Y-55784000D01*
X82909000Y-66384000D02*
X75209000Y-59384000D01*
D37*
%TO.N,/Power/EN*%
X64800000Y-57650000D02*
X64800000Y-57250000D01*
X65500000Y-58350000D02*
X65450000Y-58350000D01*
X65250000Y-58150000D02*
X65250000Y-58100000D01*
X65450000Y-58350000D02*
X65250000Y-58150000D01*
X67150000Y-61100000D02*
X67150000Y-60000000D01*
X65250000Y-58100000D02*
X64800000Y-57650000D01*
X67150000Y-60000000D02*
X65500000Y-58350000D01*
D38*
X76701999Y-63487000D02*
X98301999Y-76287000D01*
D37*
X64800000Y-57250000D02*
X64700000Y-57150000D01*
D38*
X66101999Y-62087000D02*
X74001999Y-63487000D01*
D41*
%TO.N,/STM32H7/SWDIO*%
X22378638Y-56594159D02*
X20195071Y-56594159D01*
X15253779Y-51652867D02*
X14415336Y-51652867D01*
X20195071Y-56594159D02*
X15253779Y-51652867D01*
%TO.N,/STM32H7/SWO*%
X22024061Y-52172963D02*
X16625788Y-46774690D01*
X16625788Y-46774690D02*
X16079517Y-46774690D01*
X23141651Y-52172963D02*
X22024061Y-52172963D01*
X23942746Y-51371869D02*
X23141651Y-52172963D01*
%TO.N,/STM32H7/SWCLK*%
X15960462Y-50850321D02*
X12327980Y-47217839D01*
X17274562Y-41830746D02*
X16390090Y-41830746D01*
X22164332Y-56266181D02*
X22050631Y-56379882D01*
X12327980Y-47142781D02*
X12327980Y-47217839D01*
X15960462Y-52043066D02*
X15960462Y-50850321D01*
X18826050Y-41548500D02*
X21140500Y-41548500D01*
X20297278Y-56379882D02*
X15960462Y-52043066D01*
X12881796Y-45339041D02*
X12881796Y-46588965D01*
X22551656Y-56266181D02*
X22164332Y-56266181D01*
X16390090Y-41830746D02*
X12881796Y-45339041D01*
X22050631Y-56379882D02*
X20297278Y-56379882D01*
X22636320Y-56350845D02*
X22551656Y-56266181D01*
X12881796Y-46588965D02*
X12327980Y-47142781D01*
X18652983Y-41721567D02*
X18826050Y-41548500D01*
%TO.N,/STM32H7/JTDI*%
X17971469Y-39563267D02*
X17971469Y-39936086D01*
X17656809Y-49866481D02*
X17656809Y-52174494D01*
X17656809Y-52174494D02*
X19562236Y-54079920D01*
X13845956Y-46055628D02*
X17656809Y-49866481D01*
X17971469Y-39936086D02*
X12490610Y-45416945D01*
D40*
%TO.N,/STM32H7/USB_VBUS*%
X46225000Y-51646000D02*
X47825000Y-51646000D01*
X53525000Y-70045999D02*
X54025000Y-72945999D01*
X47125000Y-95646000D02*
X43625000Y-96045999D01*
X47925000Y-51846000D02*
X47825000Y-51646000D01*
X47625000Y-54346000D02*
X47925000Y-51846000D01*
X52625000Y-74045999D02*
X52425000Y-75745999D01*
X29225000Y-39146000D02*
X30525000Y-39046000D01*
X53625000Y-73845999D02*
X52825000Y-73845999D01*
X52025000Y-77345999D02*
X50925000Y-81845999D01*
X47825000Y-51646000D02*
X52925000Y-65045999D01*
X52925000Y-65045999D02*
X53525000Y-70045999D01*
X27625000Y-37946000D02*
X29225000Y-39146000D01*
X22925000Y-37046000D02*
X27625000Y-37946000D01*
X40725000Y-46546000D02*
X46225000Y-51646000D01*
X54025000Y-72945999D02*
X54025000Y-73445999D01*
X50925000Y-81845999D02*
X49025000Y-90646000D01*
D45*
X30525000Y-39046000D02*
X40725000Y-46546000D01*
D40*
X49025000Y-90646000D02*
X47125000Y-95646000D01*
X52425000Y-75745999D02*
X52325000Y-75845999D01*
X52825000Y-73845999D02*
X52625000Y-74045999D01*
X54025000Y-73445999D02*
X53625000Y-73845999D01*
D37*
%TO.N,/STM32H7/USB_CONN_DP*%
X48885000Y-73297700D02*
X51483700Y-70699000D01*
X48885000Y-80676800D02*
X48885000Y-73297700D01*
X46826800Y-95222300D02*
X46826800Y-82735000D01*
X51483700Y-70699000D02*
X51483700Y-68238400D01*
X46826800Y-82735000D02*
X48885000Y-80676800D01*
%TO.N,/STM32H7/USB_CONN_DM*%
X49467200Y-69528700D02*
X49467200Y-72272600D01*
X50973400Y-68022500D02*
X49467200Y-69528700D01*
X48653300Y-80196500D02*
X46349700Y-82500100D01*
X49467200Y-72272600D02*
X48653300Y-73086500D01*
X48653300Y-73086500D02*
X48653300Y-80196500D01*
X46349700Y-82500100D02*
X46349700Y-95222300D01*
D41*
%TO.N,/IWRL6432BD/USB_ID*%
X66642500Y-24630900D02*
X66542500Y-25230900D01*
X74871330Y-57388357D02*
X75278199Y-56981488D01*
X65092265Y-30915407D02*
X64459636Y-30915407D01*
X80093876Y-86907985D02*
X79850065Y-86907985D01*
X78312721Y-85370641D02*
X78312721Y-78641706D01*
X65856858Y-31680000D02*
X65092265Y-30915407D01*
X67192326Y-33437262D02*
X65856858Y-32101794D01*
X75278199Y-47961921D02*
X72405581Y-45089303D01*
X66542500Y-28430900D02*
X66942500Y-29730900D01*
X72405581Y-45089303D02*
X72405581Y-42491736D01*
X74871330Y-63402408D02*
X74871330Y-57388357D01*
X80333221Y-87147330D02*
X80093876Y-86907985D01*
X70031448Y-38097273D02*
X69556622Y-37622447D01*
X78295521Y-71899124D02*
X78295521Y-66826599D01*
X77753693Y-78082678D02*
X77753693Y-72440952D01*
X65856858Y-32101794D02*
X65856858Y-31680000D01*
X69642500Y-23830900D02*
X67542500Y-24630900D01*
X70031448Y-40117603D02*
X70031448Y-38097273D01*
X78295521Y-66826599D02*
X74871330Y-63402408D01*
X65142500Y-30930900D02*
X65092265Y-30915407D01*
X82764232Y-87147330D02*
X80333221Y-87147330D01*
X77753693Y-72440952D02*
X78295521Y-71899124D01*
X67579968Y-33437262D02*
X67192326Y-33437262D01*
X67952944Y-33810238D02*
X67579968Y-33437262D01*
X67952944Y-34799969D02*
X67952944Y-33810238D01*
X79850065Y-86907985D02*
X78312721Y-85370641D01*
X69742500Y-22130900D02*
X69642500Y-23830900D01*
X56242500Y-15730900D02*
X59042500Y-13130900D01*
X78312721Y-78641706D02*
X77753693Y-78082678D01*
X72405581Y-42491736D02*
X70031448Y-40117603D01*
X67542500Y-24630900D02*
X66642500Y-24630900D01*
X69556622Y-37622447D02*
X69556622Y-36403647D01*
X69556622Y-36403647D02*
X67952944Y-34799969D01*
X66542500Y-25230900D02*
X66542500Y-28430900D01*
X83116637Y-86794925D02*
X82764232Y-87147330D01*
X75278199Y-56981488D02*
X75278199Y-47961921D01*
D37*
%TO.N,Net-(R13-Pad1)*%
X52230800Y-16650000D02*
X51830800Y-17050000D01*
X55490000Y-14000000D02*
X54230800Y-15250000D01*
X52930800Y-15100000D02*
X52230800Y-16650000D01*
%TO.N,Net-(R14-Pad1)*%
X49480800Y-19625000D02*
X49480800Y-25825000D01*
X52990000Y-12000000D02*
X49480800Y-19625000D01*
D41*
%TO.N,/IWRL6432BD/FT_TXD*%
X57343819Y-33554000D02*
X51993819Y-30704000D01*
X57841000Y-34360000D02*
X58870146Y-34360000D01*
D42*
X51089819Y-16700000D02*
X52489819Y-15100000D01*
X50189819Y-30700000D02*
X49889819Y-27100000D01*
D41*
X54032500Y-8777500D02*
X55879819Y-10624819D01*
X55879819Y-10624819D02*
X58569393Y-10624819D01*
D42*
X52489819Y-15100000D02*
X55879819Y-10624819D01*
X49889819Y-27100000D02*
X51089819Y-16700000D01*
D41*
X62846552Y-30383594D02*
X58870146Y-34360000D01*
%TO.N,/IWRL6432BD/FT_RXD*%
X52479300Y-25241800D02*
X52579300Y-25241800D01*
X53579300Y-28441800D02*
X53479300Y-28541800D01*
X53579300Y-25241800D02*
X53679300Y-25241800D01*
X58579300Y-28741800D02*
X58679300Y-28741800D01*
X55579300Y-26441800D02*
X55479300Y-26541800D01*
X54079300Y-27941800D02*
X53979300Y-28041800D01*
X54979300Y-27041800D02*
X54879300Y-27141800D01*
X57679300Y-28741800D02*
X58079300Y-28741800D01*
X52979300Y-29041800D02*
X52879300Y-29141800D01*
X59079300Y-30141800D02*
X59079300Y-30241800D01*
X53979300Y-28041800D02*
X53879300Y-28141800D01*
X59079300Y-31041800D02*
X59079300Y-31241800D01*
X53779300Y-28241800D02*
X53679300Y-28341800D01*
X56379300Y-24941800D02*
X56379300Y-25041800D01*
X55179300Y-29841800D02*
X55579300Y-29841800D01*
X58979300Y-29541800D02*
X58979300Y-29641800D01*
X53079300Y-29841800D02*
X53179300Y-29841800D01*
X52679300Y-29341800D02*
X52579300Y-29441800D01*
X56779300Y-29141800D02*
X56879300Y-29041800D01*
X53179300Y-29841800D02*
X53579300Y-29841800D01*
X56179300Y-25441800D02*
X56079300Y-25541800D01*
X53379300Y-28641800D02*
X53279300Y-28741800D01*
X53079300Y-25241800D02*
X53179300Y-25241800D01*
X55579300Y-29841800D02*
X55679300Y-29841800D01*
X54179300Y-29841800D02*
X54579300Y-29841800D01*
X54879300Y-27141800D02*
X54779300Y-27241800D01*
X59079300Y-31241800D02*
X59079300Y-31341800D01*
X55679300Y-26041800D02*
X55679300Y-26141800D01*
X55579300Y-24841800D02*
X55679300Y-24741800D01*
X56379300Y-25041800D02*
X56379300Y-25141800D01*
X58979300Y-29641800D02*
X58979300Y-29741800D01*
X54179300Y-25241800D02*
X54379300Y-25241800D01*
X52779300Y-29741800D02*
X52879300Y-29841800D01*
X58979300Y-29241800D02*
X58979300Y-29441800D01*
X54179300Y-27841800D02*
X54079300Y-27941800D01*
X59079300Y-30441800D02*
X59079300Y-30541800D01*
X59079300Y-30941800D02*
X59079300Y-31041800D01*
X55379300Y-26641800D02*
X55279300Y-26741800D01*
X53679300Y-29841800D02*
X54079300Y-29841800D01*
X59079300Y-30041800D02*
X59079300Y-30141800D01*
X54079300Y-25241800D02*
X54179300Y-25241800D01*
X59179300Y-31841800D02*
X59179300Y-31941800D01*
X54979300Y-25041800D02*
X55079300Y-24941800D01*
X59079300Y-30241800D02*
X59079300Y-30441800D01*
X58979300Y-29441800D02*
X58979300Y-29541800D01*
X57079300Y-28841800D02*
X57179300Y-28741800D01*
X55379300Y-24841800D02*
X55579300Y-24841800D01*
X56479300Y-29441800D02*
X56579300Y-29341800D01*
X59079300Y-30641800D02*
X59079300Y-30741800D01*
X55679300Y-26141800D02*
X55679300Y-26241800D01*
X51979300Y-25241800D02*
X52079300Y-25241800D01*
X58079300Y-28741800D02*
X58179300Y-28741800D01*
X55779300Y-24741800D02*
X55879300Y-24641800D01*
X54479300Y-25141800D02*
X54579300Y-25141800D01*
X55479300Y-26541800D02*
X55379300Y-26641800D01*
X59079300Y-30741800D02*
X59079300Y-30941800D01*
X58979300Y-29141800D02*
X58979300Y-29241800D01*
X59079300Y-31341800D02*
X59179300Y-31441800D01*
X56679300Y-29241800D02*
X56779300Y-29141800D01*
X52879300Y-29141800D02*
X52779300Y-29141800D01*
X56079300Y-29841800D02*
X56179300Y-29741800D01*
X58979300Y-28941800D02*
X58979300Y-29041800D01*
X53879300Y-28141800D02*
X53779300Y-28241800D01*
X55979300Y-25641800D02*
X55879300Y-25741800D01*
X52579300Y-25241800D02*
X53079300Y-25241800D01*
X54479300Y-27541800D02*
X54379300Y-27641800D01*
X59179300Y-31541800D02*
X59179300Y-31741800D01*
X56079300Y-24641800D02*
X56179300Y-24641800D01*
X55279300Y-24941800D02*
X55379300Y-24841800D01*
X54679300Y-25141800D02*
X54779300Y-25041800D01*
X55079300Y-26941800D02*
X54979300Y-27041800D01*
X54579300Y-29841800D02*
X54679300Y-29841800D01*
X59179300Y-31741800D02*
X59179300Y-31841800D01*
X53679300Y-28341800D02*
X53579300Y-28441800D01*
X58979300Y-29941800D02*
X59079300Y-30041800D01*
X55079300Y-29841800D02*
X55179300Y-29841800D01*
X59079300Y-30541800D02*
X59079300Y-30641800D01*
X58779300Y-28741800D02*
X58979300Y-28941800D01*
X53079300Y-28941800D02*
X52979300Y-29041800D01*
X53579300Y-29841800D02*
X53679300Y-29841800D01*
X52079300Y-25241800D02*
X52479300Y-25241800D01*
X55079300Y-24941800D02*
X55179300Y-24941800D01*
X55679300Y-24741800D02*
X55779300Y-24741800D01*
X55879300Y-24641800D02*
X56079300Y-24641800D01*
X54079300Y-29841800D02*
X54179300Y-29841800D01*
X55679300Y-26241800D02*
X55579300Y-26341800D01*
X55679300Y-29841800D02*
X56079300Y-29841800D01*
X54379300Y-25241800D02*
X54479300Y-25141800D01*
X55579300Y-26341800D02*
X55579300Y-26441800D01*
X53179300Y-25241800D02*
X53579300Y-25241800D01*
X53479300Y-28541800D02*
X53379300Y-28641800D01*
X54679300Y-27341800D02*
X54579300Y-27441800D01*
X56879300Y-29041800D02*
X56979300Y-28941800D01*
X55179300Y-26841800D02*
X55079300Y-26941800D01*
X56379300Y-25241800D02*
X56179300Y-25441800D01*
X56379300Y-24841800D02*
X56379300Y-24941800D01*
X54579300Y-27441800D02*
X54479300Y-27541800D01*
X57579300Y-28741800D02*
X57679300Y-28741800D01*
X56279300Y-24741800D02*
X56379300Y-24841800D01*
X58679300Y-28741800D02*
X58779300Y-28741800D01*
X54679300Y-29841800D02*
X55079300Y-29841800D01*
X59179300Y-31941800D02*
X59279300Y-32041800D01*
X52779300Y-29141800D02*
X52679300Y-29241800D01*
X51779300Y-25241800D02*
X51979300Y-25241800D01*
X54579300Y-25141800D02*
X54679300Y-25141800D01*
X57179300Y-28741800D02*
X57579300Y-28741800D01*
X55179300Y-24941800D02*
X55279300Y-24941800D01*
X55279300Y-26741800D02*
X55179300Y-26841800D01*
X52679300Y-29641800D02*
X52779300Y-29741800D01*
X53679300Y-25241800D02*
X54079300Y-25241800D01*
X55879300Y-25741800D02*
X55679300Y-25941800D01*
X58979300Y-29741800D02*
X58979300Y-29941800D01*
X56179300Y-24641800D02*
X56279300Y-24741800D01*
X52679300Y-29241800D02*
X52679300Y-29341800D01*
X56279300Y-29641800D02*
X56379300Y-29541800D01*
X56079300Y-25541800D02*
X55979300Y-25641800D01*
X54779300Y-27241800D02*
X54679300Y-27341800D01*
X56979300Y-28941800D02*
X57079300Y-28841800D01*
X56579300Y-29341800D02*
X56679300Y-29241800D01*
X55679300Y-25941800D02*
X55679300Y-26041800D01*
X52579300Y-29541800D02*
X52679300Y-29641800D01*
X56179300Y-29741800D02*
X56279300Y-29641800D01*
X53279300Y-28741800D02*
X53179300Y-28841800D01*
X53179300Y-28841800D02*
X53079300Y-28941800D01*
X58179300Y-28741800D02*
X58579300Y-28741800D01*
X52879300Y-29841800D02*
X53079300Y-29841800D01*
X56379300Y-29541800D02*
X56479300Y-29441800D01*
X54779300Y-25041800D02*
X54979300Y-25041800D01*
X54379300Y-27641800D02*
X54279300Y-27741800D01*
X56379300Y-25141800D02*
X56379300Y-25241800D01*
X54279300Y-27741800D02*
X54179300Y-27841800D01*
X52579300Y-29441800D02*
X52579300Y-29541800D01*
X59179300Y-31441800D02*
X59179300Y-31541800D01*
X58979300Y-29041800D02*
X58979300Y-29141800D01*
D42*
%TO.N,/IWRL6432BD/RS232_TX*%
X50119299Y-27044000D02*
X51719300Y-24544000D01*
D41*
X50409299Y-26740000D02*
X50119299Y-27044000D01*
X56059298Y-24939999D02*
X50409299Y-26740000D01*
X53603300Y-32328000D02*
X55703300Y-33128000D01*
D42*
X50119299Y-27444000D02*
X50119299Y-27044000D01*
X51119299Y-33144000D02*
X50119299Y-27444000D01*
D41*
%TO.N,/IWRL6432BD/QSPI_D2*%
X64000000Y-38363400D02*
X63531099Y-39830800D01*
X61350000Y-27713400D02*
X61400000Y-28013400D01*
X70767100Y-40266800D02*
X77567100Y-42966800D01*
X61400000Y-28013400D02*
X62500000Y-29113400D01*
D39*
%TO.N,/THX8136/AR*%
X77200000Y-21000000D02*
X77200000Y-14500000D01*
X78617900Y-22550000D02*
X77200000Y-21000000D01*
D37*
X77200000Y-16500000D02*
X77200000Y-21000000D01*
X77800000Y-15900000D02*
X77200000Y-16500000D01*
D39*
X78090000Y-20800000D02*
X78617900Y-22550000D01*
X99800000Y-14500000D02*
X99800000Y-20000000D01*
D37*
X83000000Y-11000000D02*
X82900000Y-11100000D01*
D39*
X77200000Y-14500000D02*
X99800000Y-14500000D01*
D37*
%TO.N,/THX8136/AG*%
X86000000Y-15900000D02*
X86000000Y-23600000D01*
X85000000Y-11000000D02*
X85300000Y-11000000D01*
D39*
X79000000Y-23600000D02*
X86000000Y-23600000D01*
X80490000Y-21200000D02*
X79633900Y-22550000D01*
X86000000Y-23600000D02*
X86000000Y-15500000D01*
X98800000Y-15500000D02*
X98800000Y-24000000D01*
X79633900Y-22550000D02*
X79000000Y-23600000D01*
X86000000Y-15500000D02*
X98800000Y-15500000D01*
D37*
%TO.N,/THX8136/AB*%
X75500000Y-20900000D02*
X74800000Y-21600000D01*
X76400000Y-15500000D02*
X75500000Y-20900000D01*
D39*
X100800000Y-13500000D02*
X100800000Y-16000000D01*
X74800000Y-21200000D02*
X74800000Y-21600000D01*
X74800000Y-13500000D02*
X100800000Y-13500000D01*
X74800000Y-21600000D02*
X74800000Y-13500000D01*
X77627300Y-22550000D02*
X74800000Y-21600000D01*
X75290000Y-21200000D02*
X74800000Y-21200000D01*
D41*
%TO.N,/THX8136/BLANK*%
X78962438Y-42854726D02*
X78962438Y-41621578D01*
X81288886Y-33259953D02*
X81764479Y-32784360D01*
X45498471Y-67846748D02*
X45866365Y-68214642D01*
X42341121Y-67846748D02*
X45498471Y-67846748D01*
X81764479Y-32784360D02*
X84516012Y-32784360D01*
X46042000Y-73003347D02*
X46042000Y-71810375D01*
X76930500Y-56710500D02*
X77037500Y-56817250D01*
X77351832Y-57130847D02*
X77351832Y-59725081D01*
X76930500Y-52111963D02*
X76930500Y-56710500D01*
X77037500Y-56817250D02*
X77351832Y-57130847D01*
X46042000Y-71810375D02*
X46471001Y-71381374D01*
X77351832Y-59725081D02*
X79715745Y-62088994D01*
X45866365Y-70031801D02*
X45773648Y-70124518D01*
X69253225Y-75086765D02*
X69269067Y-75102607D01*
X47776267Y-71830546D02*
X48544860Y-71061954D01*
X45866365Y-68214642D02*
X45866365Y-70031801D01*
X77226172Y-51816291D02*
X76930500Y-52111963D01*
X41437869Y-68750000D02*
X42341121Y-67846748D01*
X40842500Y-68750000D02*
X41437869Y-68750000D01*
X79218606Y-43110893D02*
X78962438Y-42854726D01*
X46161145Y-73122492D02*
X46042000Y-73003347D01*
X48544860Y-71061954D02*
X48737121Y-71061954D01*
X69269067Y-75102607D02*
X69269067Y-76668229D01*
%TO.N,/THX8136/SYNC*%
X81478000Y-33577999D02*
X84578000Y-36277999D01*
X84578000Y-38777999D02*
X83878000Y-39477999D01*
X84578000Y-36277999D02*
X84578000Y-38777999D01*
%TO.N,/THX8136/SYNC_T*%
X54866287Y-42428770D02*
X54265819Y-41828303D01*
X75483962Y-33877927D02*
X80906554Y-33877927D01*
X43200958Y-38150976D02*
X43548478Y-37803456D01*
X69348632Y-37122546D02*
X69348632Y-37835484D01*
X69348632Y-37835484D02*
X69416054Y-37902905D01*
X30361118Y-42104162D02*
X24566299Y-42104162D01*
X33462629Y-42073208D02*
X33103630Y-42432208D01*
X30689164Y-42432208D02*
X30361118Y-42104162D01*
X43548478Y-37803456D02*
X43548478Y-37123440D01*
X33103630Y-42432208D02*
X30689164Y-42432208D01*
X68958701Y-36732615D02*
X69348632Y-37122546D01*
X60615912Y-40598125D02*
X64481422Y-36732615D01*
X24566299Y-42104162D02*
X20210510Y-46459951D01*
X64481422Y-36732615D02*
X68958701Y-36732615D01*
X74611515Y-33005481D02*
X75483962Y-33877927D01*
X54265819Y-41828303D02*
X54265819Y-35245162D01*
D36*
%TO.N,/THX8136/FSADJ*%
X81132500Y-22500000D02*
X82490000Y-21800000D01*
D41*
%TO.N,/THX8136/M2*%
X16213500Y-19213500D02*
X14613500Y-24813500D01*
X57140590Y-713500D02*
X37940590Y-4013500D01*
X17513500Y-18013500D02*
X16213500Y-19213500D01*
X76840589Y-14313500D02*
X77340589Y-14113500D01*
X8113500Y-32913500D02*
X7905313Y-37605270D01*
X16731686Y-45255669D02*
X16731686Y-42945684D01*
X37434590Y-4518603D02*
X39465526Y-6549540D01*
X79924699Y-24211500D02*
X90224699Y-25911500D01*
X82340589Y-12013500D02*
X81640590Y-10113500D01*
X76224699Y-23011500D02*
X79924699Y-24211500D01*
X22313500Y-18013500D02*
X17513500Y-18013500D01*
X74840589Y-8513500D02*
X63040590Y-4213500D01*
X7905313Y-37605270D02*
X7905313Y-23290862D01*
X24413500Y-16513500D02*
X22313500Y-18013500D01*
X14613500Y-24813500D02*
X8113500Y-32913500D01*
X26677572Y-4518603D02*
X37434590Y-4518603D01*
X77340589Y-14113500D02*
X82340589Y-13913500D01*
X76840589Y-20513500D02*
X76840589Y-14313500D01*
X20660791Y-49184773D02*
X16731686Y-45255669D01*
X26677572Y-4518603D02*
X24413500Y-16513500D01*
X63040590Y-4213500D02*
X61640590Y-3213500D01*
X61640590Y-3213500D02*
X57140590Y-713500D01*
X77040590Y-21913500D02*
X76840589Y-20513500D01*
X37940590Y-4013500D02*
X37434590Y-4518603D01*
%TO.N,/MM8108/SDIO_D0_SPI_MISO*%
X25496007Y-84113688D02*
X26176679Y-84113688D01*
X18356377Y-80018105D02*
X18828501Y-80490229D01*
X21872548Y-80490229D02*
X25496007Y-84113688D01*
X30112563Y-68337381D02*
X35070892Y-63379051D01*
X27358996Y-68337381D02*
X30112563Y-68337381D01*
X18413033Y-77380373D02*
X16069695Y-75037036D01*
X34784543Y-85705073D02*
X34784543Y-90539107D01*
X17329939Y-72846753D02*
X17329939Y-73086309D01*
X34784543Y-90539107D02*
X38779180Y-94533744D01*
X32787225Y-83103501D02*
X32787225Y-83707755D01*
X36977092Y-63379051D02*
X37022751Y-63424710D01*
X23054989Y-68565321D02*
X21611371Y-68565321D01*
X18828501Y-80490229D02*
X21872548Y-80490229D01*
X32787225Y-83707755D02*
X34784543Y-85705073D01*
X35070892Y-63379051D02*
X36977092Y-63379051D01*
X21611371Y-68565321D02*
X17329939Y-72846753D01*
X18413033Y-78401398D02*
X18413033Y-77380373D01*
%TO.N,/MM8108/SDIO_D1_SPI_INT*%
X21472080Y-69101975D02*
X19197984Y-71376071D01*
X30996000Y-84973500D02*
X30401131Y-84973500D01*
X20507435Y-79020078D02*
X20937223Y-79020078D01*
X25269261Y-86549057D02*
X24431704Y-85711500D01*
X25784185Y-67635209D02*
X27595211Y-65824182D01*
X19197984Y-71376071D02*
X19197984Y-71591739D01*
X30401131Y-84973500D02*
X29412145Y-85962486D01*
X27595211Y-65824182D02*
X31421698Y-65824182D01*
X24431704Y-85711500D02*
X12425500Y-85711500D01*
X16435646Y-74948289D02*
X20507435Y-79020078D01*
X27929186Y-85962486D02*
X27342615Y-86549057D01*
X16838730Y-81298270D02*
X12425500Y-85711500D01*
X20211860Y-81298270D02*
X16838730Y-81298270D01*
X22322035Y-69101975D02*
X21472080Y-69101975D01*
X19197984Y-71591739D02*
X17683785Y-73105938D01*
X34512117Y-62733764D02*
X38676782Y-62733764D01*
X27342615Y-86549057D02*
X25269261Y-86549057D01*
X29412145Y-85962486D02*
X27929186Y-85962486D01*
X31421698Y-65824182D02*
X34512117Y-62733764D01*
%TO.N,/MM8108/SDIO_D2*%
X22306092Y-74996774D02*
X22306092Y-73708746D01*
X36789835Y-56543767D02*
X37776784Y-55556818D01*
X30540229Y-85828477D02*
X31702654Y-85828477D01*
X35417603Y-63670540D02*
X30996513Y-68091630D01*
X32128131Y-85403000D02*
X32723000Y-85403000D01*
X14917869Y-87238000D02*
X15626311Y-86529558D01*
X28513759Y-73353643D02*
X30725016Y-71142386D01*
X21936801Y-73123081D02*
X22405641Y-72654242D01*
X36596877Y-59085426D02*
X36789835Y-58892468D01*
X37776784Y-55556818D02*
X38027394Y-55556818D01*
X31702654Y-85828477D02*
X32128131Y-85403000D01*
X24612062Y-86756541D02*
X27681705Y-86756541D01*
X22258997Y-76212329D02*
X21995119Y-75948451D01*
X36540538Y-63670540D02*
X35417603Y-63670540D01*
X27360946Y-72654242D02*
X28060347Y-73353643D01*
X36789835Y-58892468D02*
X36789835Y-56543767D01*
X21936801Y-73339455D02*
X21936801Y-73123081D01*
X22405641Y-72654242D02*
X27360946Y-72654242D01*
X38493777Y-55750000D02*
X38494500Y-55750000D01*
X24385079Y-86529558D02*
X24612062Y-86756541D01*
X28060347Y-73353643D02*
X28513759Y-73353643D01*
X11100557Y-83741500D02*
X13380489Y-83741500D01*
X21995119Y-75307747D02*
X22306092Y-74996774D01*
X22306092Y-73708746D02*
X21936801Y-73339455D01*
X27681705Y-86756541D02*
X28145737Y-86292509D01*
X13380489Y-83741500D02*
X17059201Y-80062788D01*
X30076197Y-86292509D02*
X30540229Y-85828477D01*
X38027394Y-55556818D02*
X38493777Y-55750000D01*
X28145737Y-86292509D02*
X30076197Y-86292509D01*
X15626311Y-86529558D02*
X24385079Y-86529558D01*
X21995119Y-75948451D02*
X21995119Y-75307747D01*
X14917869Y-87238000D02*
X14322500Y-87238000D01*
X30725016Y-71142386D02*
X30725016Y-69583285D01*
%TO.N,/MM8108/SDIO_D3_SPI_CS*%
X35328784Y-60787726D02*
X37760943Y-58355567D01*
X37703649Y-73881964D02*
X37220482Y-73881964D01*
X37725947Y-78831741D02*
X37869482Y-78688206D01*
X41411691Y-70657090D02*
X40928524Y-70657090D01*
X40928524Y-70657090D02*
X37703649Y-73881964D01*
X35720646Y-79832336D02*
X36721242Y-78831741D01*
X33533429Y-61199676D02*
X33945378Y-60787726D01*
X23537335Y-87715525D02*
X20227469Y-91025392D01*
X36242728Y-80680839D02*
X35720646Y-80158757D01*
X33945378Y-60787726D02*
X35328784Y-60787726D01*
X20227469Y-91025392D02*
X16086760Y-91025392D01*
X37869482Y-78688206D02*
X37869482Y-78151458D01*
X37869482Y-78151458D02*
X38659067Y-77361874D01*
X36721242Y-78831741D02*
X37725947Y-78831741D01*
X34008327Y-82927447D02*
X34517591Y-82418183D01*
X34517591Y-82418183D02*
X36634999Y-82418183D01*
X36440254Y-80680839D02*
X36242728Y-80680839D01*
X37760943Y-58355567D02*
X37760943Y-55979728D01*
X35720646Y-80158757D02*
X35720646Y-79832336D01*
X38659067Y-77361874D02*
X38794977Y-77361874D01*
%TO.N,/MM8108/SDIO_CMD_SPI_MOSI*%
X24170663Y-86990434D02*
X24002207Y-86821979D01*
X15413332Y-56260799D02*
X14093052Y-54940519D01*
X18678750Y-56260799D02*
X15413332Y-56260799D01*
X29644697Y-86990434D02*
X24170663Y-86990434D01*
X30135131Y-86500000D02*
X29644697Y-86990434D01*
X19606466Y-57188515D02*
X18678750Y-56260799D01*
X9063932Y-86742448D02*
X13262653Y-90941168D01*
X24002207Y-86821979D02*
X19169791Y-86821979D01*
X24849940Y-57188515D02*
X19606466Y-57188515D01*
X9063932Y-86150750D02*
X9063932Y-86742448D01*
X19169791Y-86821979D02*
X15766343Y-90225427D01*
X13262653Y-90941168D02*
X13576250Y-91255500D01*
X14093052Y-54940519D02*
X14093052Y-53895495D01*
X30135131Y-86500000D02*
X30730500Y-86500000D01*
X27414907Y-54623549D02*
X24849940Y-57188515D01*
X13576250Y-91255500D02*
X13683000Y-91362500D01*
%TO.N,/AD9609/SCOPE_PGA_CS_N*%
X75146000Y-34613500D02*
X82446000Y-37213500D01*
X82917999Y-38668000D02*
X83717998Y-39768000D01*
X88724000Y-60374000D02*
X85024000Y-57774000D01*
X83717998Y-39768000D02*
X84517998Y-39768000D01*
X74846000Y-23813500D02*
X74846000Y-30213500D01*
X83924000Y-56174000D02*
X78824000Y-44174000D01*
X74846000Y-30213500D02*
X73246000Y-31913500D01*
X84517998Y-39768000D02*
X89417999Y-35068000D01*
X73246000Y-31913500D02*
X73946000Y-33713500D01*
X73946000Y-33713500D02*
X75146000Y-34613500D01*
X85024000Y-57774000D02*
X83924000Y-56174000D01*
D39*
%TO.N,/AD9609/PGA_OUT*%
X64807049Y-14264819D02*
X64871868Y-14200000D01*
X64871868Y-14200000D02*
X71112500Y-14200000D01*
D41*
%TO.N,/AD9609/RBIAS*%
X69138099Y-31934313D02*
X69138099Y-33555333D01*
X69138099Y-33555333D02*
X70689567Y-35106801D01*
X70689567Y-35106801D02*
X72209567Y-37726800D01*
X69804346Y-27804543D02*
X67568447Y-30040441D01*
X67568447Y-30040441D02*
X67568447Y-30364661D01*
X77909567Y-41126801D02*
X77609036Y-41475392D01*
X67668447Y-30034600D02*
X67568447Y-30040441D01*
X67568447Y-30364661D02*
X69138099Y-31934313D01*
X70689567Y-35106801D02*
X70689567Y-37392073D01*
X77609036Y-41475392D02*
X78010853Y-41073576D01*
X77909567Y-40726800D02*
X77909567Y-41126801D01*
X78010853Y-41073576D02*
X83169258Y-41073576D01*
X83169258Y-41073576D02*
X92529258Y-37560000D01*
X72209567Y-37726800D02*
X77909567Y-40726800D01*
X83169258Y-41073576D02*
X83530851Y-41435168D01*
%TO.N,/AD9609/SCOPE_DRIVER_PD_N*%
X72868500Y-15531000D02*
X73568500Y-12931000D01*
X89068500Y-12531000D02*
X92868500Y-13131000D01*
X73568500Y-12931000D02*
X74568500Y-11831000D01*
X98268499Y-39331000D02*
X98668500Y-40031000D01*
X98368500Y-43331000D02*
X98068500Y-43631000D01*
X74568500Y-11831000D02*
X85268499Y-12531000D01*
X71168500Y-17831000D02*
X72868500Y-15531000D01*
X85268499Y-12531000D02*
X89068500Y-12531000D01*
X98668500Y-40031000D02*
X98368500Y-43331000D01*
X97268499Y-17431000D02*
X98268499Y-39331000D01*
%TO.N,/STM32H7/BOOT0*%
X16952576Y-53852091D02*
X16075440Y-53852091D01*
X16075440Y-53852091D02*
X13438029Y-51214679D01*
X27878956Y-54087426D02*
X27270890Y-54087426D01*
X28520131Y-53446250D02*
X27878956Y-54087426D01*
X20016133Y-56915648D02*
X16952576Y-53852091D01*
X28520131Y-51569759D02*
X28520131Y-53446250D01*
X27270890Y-54087426D02*
X24442668Y-56915648D01*
X24442668Y-56915648D02*
X20016133Y-56915648D01*
%TO.N,/STM32H7/PHY_RXER*%
X37366173Y-42066405D02*
X37366173Y-42035949D01*
X46689392Y-65182701D02*
X46689392Y-66095602D01*
X46949810Y-66356020D02*
X46949810Y-75976324D01*
X45497587Y-77825538D02*
X45497587Y-80604473D01*
X46689392Y-66095602D02*
X46949810Y-66356020D01*
X46640094Y-65133402D02*
X46689392Y-65182701D01*
X46949810Y-75976324D02*
X46768282Y-76554842D01*
X46568662Y-64633134D02*
X46640094Y-65133402D01*
X46568662Y-56532798D02*
X46568662Y-64633134D01*
X42987850Y-51575922D02*
X42987850Y-52951987D01*
X39868994Y-48457067D02*
X42987850Y-51575922D01*
X40071805Y-44772037D02*
X37366173Y-42066405D01*
X46768282Y-76554842D02*
X45497587Y-77825538D01*
X39356138Y-48457067D02*
X39868994Y-48457067D01*
X42987850Y-52951987D02*
X46568662Y-56532798D01*
%TO.N,/STM32H7/ETH_RXD0*%
X40198324Y-46683155D02*
X41616566Y-48101398D01*
X51270000Y-72980815D02*
X51199185Y-72980815D01*
X51303184Y-67055516D02*
X51270000Y-67055517D01*
X51703200Y-70789920D02*
X51270000Y-71223120D01*
X49864720Y-59712815D02*
X49864720Y-62620567D01*
X51493583Y-66075719D02*
X51651525Y-66233661D01*
X51270217Y-66075719D02*
X51493583Y-66075719D01*
X51796775Y-65747471D02*
X51567845Y-65831813D01*
X45032330Y-53205842D02*
X48656155Y-56829667D01*
X51651525Y-66233661D02*
X51651525Y-66457027D01*
X51703200Y-68402859D02*
X51703200Y-70789920D01*
X51711885Y-64904923D02*
X51711885Y-65011128D01*
X48656155Y-58504251D02*
X49864720Y-59712815D01*
X51899013Y-65525955D02*
X51796775Y-65747471D01*
X51596159Y-67966900D02*
X51755200Y-68125941D01*
X32755246Y-79166726D02*
X32132687Y-78544166D01*
X21189687Y-73282633D02*
X21973686Y-74066632D01*
X49805936Y-74374064D02*
X49805936Y-75105360D01*
X51553943Y-65169070D02*
X51537435Y-65169070D01*
X51755200Y-68125941D02*
X51755200Y-68350859D01*
X29163487Y-78544166D02*
X28154093Y-77534773D01*
X49864720Y-62620567D02*
X51930480Y-64686328D01*
X51270000Y-68068141D02*
X51371241Y-67966900D01*
X32132687Y-78544166D02*
X29163487Y-78544166D01*
X51930480Y-64686328D02*
X51711885Y-64904923D01*
X51814671Y-65297025D02*
X51899013Y-65525955D01*
X51371241Y-67966900D02*
X51596159Y-67966900D01*
X51589899Y-66768801D02*
X51303184Y-67055516D01*
X51270000Y-66075936D02*
X51270217Y-66075719D01*
X51199185Y-72980815D02*
X49805936Y-74374064D01*
X51270000Y-67055517D02*
X51270000Y-68068141D01*
X49805936Y-80391056D02*
X48288404Y-81908588D01*
X51589900Y-66518652D02*
X51589899Y-66768801D01*
X51567845Y-65831813D02*
X51270000Y-65694346D01*
X41616566Y-48101398D02*
X41616566Y-49095482D01*
X48656155Y-56829667D02*
X48656155Y-58504251D01*
X21973686Y-74066632D02*
X21973686Y-74865861D01*
X41616566Y-49095482D02*
X45032330Y-52511245D01*
X33643668Y-79557315D02*
X33164949Y-79374144D01*
X33164949Y-79374144D02*
X32755246Y-79166726D01*
X45032330Y-52511245D02*
X45032330Y-53205842D01*
X51537435Y-65169070D02*
X51814671Y-65297025D01*
X51755200Y-68350859D02*
X51703200Y-68402859D01*
X51651525Y-66457027D02*
X51589900Y-66518652D01*
X34486696Y-79027532D02*
X33956913Y-79557315D01*
X51270000Y-65694346D02*
X51270000Y-66075936D01*
X51711885Y-65011128D02*
X51553943Y-65169070D01*
X33956913Y-79557315D02*
X33643668Y-79557315D01*
X49805936Y-75105360D02*
X49805936Y-80391056D01*
X51270000Y-71223120D02*
X51270000Y-72980815D01*
%TO.N,/STM32H7/ETH_RXD1*%
X20464120Y-74382356D02*
X20464120Y-72767688D01*
X25489205Y-67397861D02*
X27423872Y-65463195D01*
X31121471Y-77562683D02*
X30492191Y-76933402D01*
X35162839Y-50499590D02*
X35162839Y-48884381D01*
X22859148Y-77760764D02*
X21391675Y-76293290D01*
X31341958Y-65463195D02*
X34426036Y-62379117D01*
X27836783Y-77281967D02*
X27416016Y-77401666D01*
X25489205Y-67783831D02*
X25489205Y-67397861D01*
X24342407Y-68930629D02*
X25489205Y-67783831D01*
X30492191Y-76933402D02*
X28185347Y-76933402D01*
X27423872Y-65463195D02*
X31341958Y-65463195D01*
X34133988Y-59892416D02*
X34133988Y-52715408D01*
X34434208Y-51228220D02*
X35162839Y-50499590D01*
X32184148Y-77357279D02*
X31978744Y-77562683D01*
X20597101Y-72634707D02*
X21063426Y-72634707D01*
X32548285Y-77357279D02*
X32184148Y-77357279D01*
X33106990Y-77915984D02*
X32548285Y-77357279D01*
X21063426Y-72634707D02*
X23079354Y-70618779D01*
X34843874Y-78542545D02*
X34217313Y-77915984D01*
X21391675Y-76293290D02*
X21391675Y-75309910D01*
X34426036Y-62379117D02*
X34999420Y-62379117D01*
X27056918Y-77760764D02*
X22859148Y-77760764D01*
X28185347Y-76933402D02*
X27836783Y-77281967D01*
X21391675Y-75309910D02*
X20464120Y-74382356D01*
X34270020Y-60028448D02*
X34133988Y-59892416D01*
X20464120Y-72767688D02*
X20597101Y-72634707D01*
X27416016Y-77401666D02*
X27056918Y-77760764D01*
X31978744Y-77562683D02*
X31121471Y-77562683D01*
X34133988Y-52715408D02*
X34434208Y-52415188D01*
X34434208Y-52415188D02*
X34434208Y-51228220D01*
X34217313Y-77915984D02*
X33106990Y-77915984D01*
%TO.N,/STM32H7/ETH_CRS_DV*%
X46845256Y-59219421D02*
X46845256Y-64895850D01*
X46982491Y-65758411D02*
X47179542Y-65955462D01*
X30656737Y-69232756D02*
X30844675Y-69232756D01*
X46894000Y-80600500D02*
X46894000Y-76837437D01*
X26254005Y-69854183D02*
X28937606Y-69854183D01*
X35367199Y-68211191D02*
X36710968Y-66867421D01*
X34248387Y-68211191D02*
X35367199Y-68211191D01*
X29370500Y-70236500D02*
X29192500Y-70059500D01*
X25706677Y-70401511D02*
X26254005Y-69854183D01*
X20986225Y-69994312D02*
X24087750Y-69994312D01*
X31108364Y-69872540D02*
X31518823Y-70282999D01*
X46913873Y-64964467D02*
X46913873Y-65689793D01*
X47106681Y-76209224D02*
X47106681Y-76624756D01*
X24087750Y-69994312D02*
X24494949Y-70401511D01*
X29495500Y-70361500D02*
X29681107Y-70361500D01*
X31108364Y-69496445D02*
X31108364Y-69872540D01*
X36710968Y-66867421D02*
X41533657Y-66867421D01*
X30042557Y-70000050D02*
X30042557Y-69846937D01*
X30042557Y-69846937D02*
X30656737Y-69232756D01*
X29370500Y-70236500D02*
X29495500Y-70361500D01*
X47179542Y-76136363D02*
X47106681Y-76209224D01*
X30844675Y-69232756D02*
X31108364Y-69496445D01*
X45312128Y-66363942D02*
X45689737Y-65986333D01*
X46845256Y-64895850D02*
X46913873Y-64964467D01*
X47876274Y-58188403D02*
X46845256Y-59219421D01*
X47179542Y-65955462D02*
X47179542Y-76136363D01*
X29681107Y-70361500D02*
X30042557Y-70000050D01*
X46913873Y-65689793D02*
X46982491Y-65758411D01*
X28937606Y-69854183D02*
X29192500Y-70059500D01*
X24494949Y-70401511D02*
X25706677Y-70401511D01*
X20890505Y-70090033D02*
X20986225Y-69994312D01*
X32176579Y-70282999D02*
X34248387Y-68211191D01*
X41533657Y-66867421D02*
X42037136Y-66363942D01*
X47106681Y-76624756D02*
X46894000Y-76837437D01*
X31518823Y-70282999D02*
X32176579Y-70282999D01*
X42037136Y-66363942D02*
X45312128Y-66363942D01*
%TO.N,/STM32H7/ETH_MDIO*%
X17652980Y-60420376D02*
X16268987Y-61804369D01*
X16027043Y-65329653D02*
X16739168Y-65329653D01*
X36092820Y-74164854D02*
X40750577Y-74164854D01*
X40750577Y-74164854D02*
X41121740Y-73793691D01*
X34910485Y-72982519D02*
X36092820Y-74164854D01*
X17053500Y-65643250D02*
X17160500Y-65750000D01*
X41121740Y-73793691D02*
X41447166Y-73682744D01*
X11943435Y-53955600D02*
X14744348Y-56756513D01*
X34910485Y-70004155D02*
X34910485Y-72982519D01*
X14744348Y-56756513D02*
X15895036Y-56756513D01*
X34351188Y-69444858D02*
X34910485Y-70004155D01*
X42267792Y-74410869D02*
X42657818Y-74410869D01*
X16739168Y-65329653D02*
X17053500Y-65643250D01*
X15358546Y-61804369D02*
X14080054Y-63082861D01*
X14080054Y-63082861D02*
X14080054Y-63382664D01*
X16268987Y-61804369D02*
X15358546Y-61804369D01*
X41539668Y-73682744D02*
X42267792Y-74410869D01*
X41447166Y-73682744D02*
X41539668Y-73682744D01*
X17652980Y-58514458D02*
X17652980Y-60420376D01*
X48194041Y-76218292D02*
X48194041Y-79374539D01*
X11943435Y-42619565D02*
X16644500Y-37918500D01*
X14080054Y-63382664D02*
X16027043Y-65329653D01*
X15895036Y-56756513D02*
X17652980Y-58514458D01*
X47680317Y-75704568D02*
X48194041Y-76218292D01*
X48194041Y-79374539D02*
X47880359Y-79688222D01*
X11943435Y-42619565D02*
X11943435Y-53955600D01*
%TO.N,/STM32H7/PHY_RBIAS*%
X21430340Y-36868441D02*
X22597354Y-38035456D01*
X41593096Y-71023455D02*
X41069032Y-71023455D01*
X31950312Y-51771622D02*
X33407674Y-50314259D01*
X31297483Y-60431129D02*
X30496088Y-59629735D01*
X33407674Y-47614009D02*
X31636714Y-45843049D01*
X41069032Y-71023455D02*
X38429542Y-73662946D01*
X30496088Y-55012500D02*
X31950312Y-53558277D01*
X22597354Y-38035456D02*
X25963692Y-38035456D01*
X31950312Y-53558277D02*
X31950312Y-51771622D01*
X33407674Y-50314259D02*
X33407674Y-47614009D01*
X30496088Y-59629735D02*
X30496088Y-55012500D01*
%TO.N,/STM32H7/ETH_LED1*%
X31134152Y-34900098D02*
X31287554Y-35053500D01*
X43217143Y-73113200D02*
X43217143Y-74286743D01*
X47990244Y-44112159D02*
X48328449Y-44619789D01*
X44772604Y-71557739D02*
X43217143Y-73113200D01*
X8695400Y-38792979D02*
X12588281Y-34900098D01*
X31287554Y-35053500D02*
X31704500Y-35053500D01*
X52234723Y-58768429D02*
X52259392Y-58768429D01*
X51670055Y-58203761D02*
X52234723Y-58768429D01*
X44772604Y-70372305D02*
X44772604Y-71557739D01*
X41882953Y-76356198D02*
X41320471Y-76918680D01*
X49882786Y-51482721D02*
X50493130Y-52093065D01*
X51092347Y-53749000D02*
X51670055Y-54326708D01*
X51670055Y-54326708D02*
X51670055Y-58203761D01*
X39418388Y-36967740D02*
X44501860Y-42051212D01*
X45578317Y-69114024D02*
X45641896Y-69177603D01*
X41882953Y-75620934D02*
X41882953Y-76356198D01*
X48328449Y-44619789D02*
X48506971Y-44798311D01*
X46084205Y-42051212D02*
X47642177Y-43609183D01*
X45641896Y-69503014D02*
X44772604Y-70372305D01*
X45641896Y-69177603D02*
X45641896Y-69503014D01*
X12588281Y-34900098D02*
X31134152Y-34900098D01*
X49882786Y-47591000D02*
X49882786Y-51482721D01*
X50493130Y-52093065D02*
X51092347Y-53749000D01*
X44501860Y-42051212D02*
X46084205Y-42051212D01*
X47642177Y-43609183D02*
X47642177Y-43764091D01*
X48506971Y-44798311D02*
X48506971Y-46215185D01*
X41320471Y-76918680D02*
X41021320Y-76918680D01*
X41021320Y-76918680D02*
X40410500Y-77529500D01*
X48506971Y-46215185D02*
X49882786Y-47591000D01*
X47642177Y-43764091D02*
X47990244Y-44112159D01*
X43217143Y-74286743D02*
X41882953Y-75620934D01*
%TO.N,/STM32H7/RJ_LED_GREEN_A*%
X27442813Y-36584813D02*
X29391500Y-38533500D01*
X6602914Y-44981095D02*
X8010222Y-44981095D01*
X22922580Y-76074515D02*
X25097132Y-76074515D01*
X8830335Y-73368912D02*
X11984595Y-73368912D01*
X25097132Y-76074515D02*
X25541000Y-76075250D01*
X16406504Y-36584813D02*
X27442813Y-36584813D01*
X22295502Y-75447437D02*
X22922580Y-76074515D01*
X8010222Y-44981095D02*
X16406504Y-36584813D01*
X4732498Y-69271076D02*
X8830335Y-73368912D01*
X25541000Y-76075250D02*
X25692000Y-76075500D01*
%TO.N,/STM32H7/ETH_LED2*%
X3348623Y-50882121D02*
X3348623Y-75538279D01*
X36657745Y-79733370D02*
X38903114Y-79733370D01*
X32081900Y-80721549D02*
X31876982Y-80516631D01*
X19509173Y-80259970D02*
X18911663Y-79662461D01*
X9864410Y-44782590D02*
X9448155Y-44782590D01*
X28315185Y-80972474D02*
X27889896Y-80547185D01*
X26762945Y-80339638D02*
X26683277Y-80259970D01*
X26683277Y-80259970D02*
X19509173Y-80259970D01*
X38903114Y-79733370D02*
X40725653Y-77910832D01*
X16625186Y-79662461D02*
X16045075Y-80242571D01*
X15180087Y-80242571D02*
X13883347Y-78945832D01*
X32897501Y-80721549D02*
X32081900Y-80721549D01*
X27889896Y-80547185D02*
X27315215Y-80379472D01*
X9864410Y-44782590D02*
X10285500Y-44361500D01*
X13569750Y-78631500D02*
X13463000Y-78524500D01*
X41039250Y-77596500D02*
X41146000Y-77489500D01*
X3348623Y-75538279D02*
X6334844Y-78524500D01*
X31876982Y-80516631D02*
X31366722Y-80414172D01*
X18911663Y-79662461D02*
X16625186Y-79662461D01*
X30840097Y-80550463D02*
X30418087Y-80972474D01*
X40725653Y-77910832D02*
X41039250Y-77596500D01*
X27315215Y-80379472D02*
X26762945Y-80339638D01*
X16045075Y-80242571D02*
X15180087Y-80242571D01*
X30418087Y-80972474D02*
X28315185Y-80972474D01*
X9448155Y-44782590D02*
X3348623Y-50882121D01*
X13883347Y-78945832D02*
X13569750Y-78631500D01*
X6334844Y-78524500D02*
X13463000Y-78524500D01*
X31366722Y-80414172D02*
X30840097Y-80550463D01*
%TO.N,/STM32H7/RJ_LED_YELLOW_A*%
X3063110Y-75556445D02*
X3063110Y-44257759D01*
X13500000Y-80600000D02*
X12739349Y-79839349D01*
X3063110Y-44257759D02*
X6700000Y-40620869D01*
X6700000Y-40620869D02*
X6700000Y-40025500D01*
X12739349Y-79839349D02*
X7346013Y-79839349D01*
X7346013Y-79839349D02*
X3063110Y-75556445D01*
D36*
%TO.N,/Power/ILIM*%
X59550000Y-64200000D02*
X59550000Y-65849999D01*
X59550000Y-65849999D02*
X62250000Y-68550000D01*
D41*
%TO.N,Net-(U20-CH1)*%
X78853275Y-41280089D02*
X77802937Y-42330427D01*
X79215196Y-41280089D02*
X78853275Y-41280089D01*
X79698700Y-41763593D02*
X79215196Y-41280089D01*
D42*
X77844000Y-41800000D02*
X78943999Y-41300000D01*
X78943999Y-41300000D02*
X79244000Y-41300000D01*
X77344000Y-33400000D02*
X77344000Y-33500000D01*
D41*
X92802700Y-37804000D02*
X83602700Y-41704000D01*
D42*
X75244000Y-14300000D02*
X75244000Y-20600000D01*
D41*
X98439996Y-40084710D02*
X98131806Y-40392900D01*
D42*
X75143999Y-24100000D02*
X77344000Y-33400000D01*
X79244000Y-41300000D02*
X79215196Y-41280089D01*
X64843999Y-12400000D02*
X70643999Y-13000000D01*
D41*
X98439996Y-40084710D02*
X97114000Y-38214000D01*
X83602700Y-41704000D02*
X79698700Y-41763593D01*
%TO.N,/IWRL6432BD/JTAG_TDI*%
X52951464Y-23940000D02*
X54384558Y-23940000D01*
X52375435Y-23863100D02*
X52874563Y-23863100D01*
X52874563Y-23863100D02*
X52951464Y-23940000D01*
X54384558Y-23940000D02*
X54934558Y-23390000D01*
X54934558Y-23390000D02*
X55433935Y-23390000D01*
X52298534Y-23940000D02*
X52375435Y-23863100D01*
X55433935Y-23390000D02*
X55591636Y-23547701D01*
X52288555Y-23940000D02*
X52298534Y-23940000D01*
X52109079Y-23760524D02*
X52288555Y-23940000D01*
%TO.N,/IWRL6432BD/TDO_SOP0*%
X58194000Y-16683999D02*
X58294000Y-16283999D01*
X66894000Y-8183999D02*
X78294000Y-9584000D01*
X90675999Y-20313500D02*
X98375999Y-16413500D01*
X55753000Y-17862000D02*
X54603000Y-19662000D01*
X58194000Y-15984000D02*
X58294000Y-15584000D01*
X58294000Y-16283999D02*
X58194000Y-15984000D01*
X56803000Y-17262000D02*
X55753000Y-17862000D01*
X51474999Y-22965600D02*
X51175000Y-20915599D01*
X60194000Y-10184000D02*
X66894000Y-8183999D01*
X51175000Y-20915599D02*
X51274999Y-20315599D01*
X58294000Y-15584000D02*
X60094000Y-11483999D01*
X60094000Y-11483999D02*
X60194000Y-10184000D01*
%TO.N,/IWRL6432BD/PMIC_CLKOUT_SOP1*%
X50302900Y-16413500D02*
X51302900Y-11713500D01*
X52102900Y-10213500D02*
X53802900Y-7313500D01*
X51302900Y-11713500D02*
X52102900Y-10213500D01*
%TO.N,/MM8108/TDO_SOP0*%
X24965352Y-89512553D02*
X25056802Y-89512553D01*
X25056802Y-89512553D02*
X25441287Y-89897038D01*
X25441287Y-89897038D02*
X25441287Y-92993213D01*
X25441287Y-92993213D02*
X21013283Y-97421217D01*
X24582379Y-89129580D02*
X24965352Y-89512553D01*
X21013283Y-97421217D02*
X20483022Y-97421217D01*
%TO.N,/XCC1352R1F3RGZR/DIO_25*%
X48435300Y-33413500D02*
X31535300Y-12913500D01*
X51935300Y-43613500D02*
X49935300Y-35813500D01*
X49935300Y-35813500D02*
X48435300Y-33413500D01*
X61935300Y-49113500D02*
X54535300Y-44013500D01*
X53735300Y-44813500D02*
X51935300Y-43613500D01*
%TO.N,/MM8108/JTAG_TMS*%
X21266000Y-80950000D02*
X16533888Y-80950000D01*
X11872131Y-85611757D02*
X11872131Y-88602131D01*
X11872131Y-88602131D02*
X19270000Y-96000000D01*
X16533888Y-80950000D02*
X11872131Y-85611757D01*
%TO.N,/XCC1352R1F3RGZR/DIO_26*%
X69353000Y-31827200D02*
X70003000Y-34077200D01*
X70003000Y-34077200D02*
X70903000Y-34977200D01*
X68853000Y-31177200D02*
X69353000Y-31827200D01*
X74403000Y-45227200D02*
X74853000Y-46227200D01*
X79853000Y-62377200D02*
X80053000Y-62177200D01*
X75503000Y-47927200D02*
X77103000Y-59877200D01*
X77103000Y-59877200D02*
X79603000Y-62377200D01*
X79603000Y-62377200D02*
X79853000Y-62377200D01*
X71253000Y-40777200D02*
X72653000Y-42427200D01*
X80053000Y-66227200D02*
X85403000Y-88327200D01*
X70903000Y-34977200D02*
X71503000Y-35927200D01*
X85403000Y-88327200D02*
X85453000Y-88377200D01*
X74853000Y-46227200D02*
X75503000Y-47927200D01*
X72653000Y-42427200D02*
X74403000Y-45227200D01*
D36*
%TO.N,/XCC1352R1F3RGZR/RESET_N*%
X23258500Y-12598500D02*
X24358500Y-14298500D01*
X21958500Y-11098500D02*
X23258500Y-12598500D01*
D41*
%TO.N,/XCC1352R1F3RGZR/DIO_21*%
X45188400Y-38164000D02*
X45288400Y-39964000D01*
X25888400Y-18664000D02*
X42988400Y-36264000D01*
X62388400Y-44264000D02*
X72088400Y-42664000D01*
X45288400Y-39964000D02*
X49088400Y-43064000D01*
X42988400Y-36264000D02*
X45188400Y-38164000D01*
%TO.N,/MM8108/NRESET*%
X24530731Y-89713610D02*
X24530731Y-91271862D01*
X23033545Y-87398093D02*
X23703655Y-87398093D01*
X23703655Y-87398093D02*
X23920911Y-87615348D01*
X19270000Y-101080000D02*
X20094665Y-100255335D01*
X20094665Y-95707927D02*
X20094665Y-100255335D01*
X23920911Y-89103790D02*
X24530731Y-89713610D01*
X24530731Y-91271862D02*
X20094665Y-95707927D01*
X23920911Y-87615348D02*
X23920911Y-89103790D01*
%TO.N,/MM8108/JTAG_TDI*%
X25960128Y-98535445D02*
X28018100Y-98535445D01*
X28018100Y-98535445D02*
X33190343Y-93363202D01*
X33190343Y-84914281D02*
X30873516Y-82597454D01*
X33190343Y-93363202D02*
X33190343Y-84914281D01*
D37*
%TO.N,/XCC1352R1F3RGZR/X48M_N*%
X15733800Y-12855900D02*
X16533800Y-12855900D01*
D41*
%TO.N,/XCC1352R1F3RGZR/DIO_20*%
X54745500Y-65113500D02*
X53845500Y-63613500D01*
X52145500Y-60113500D02*
X51145500Y-58513500D01*
X25145500Y-21513500D02*
X25145500Y-21013500D01*
X39045500Y-37013500D02*
X38245500Y-35013500D01*
X51145500Y-58513500D02*
X50245500Y-52313500D01*
X44945500Y-43313500D02*
X39045500Y-37013500D01*
X53845500Y-63613500D02*
X52145500Y-60113500D01*
X50245500Y-52313500D02*
X49645500Y-51613500D01*
X38245500Y-35013500D02*
X25145500Y-21513500D01*
X49645500Y-51613500D02*
X44945500Y-43313500D01*
%TO.N,/MM8108/JTAG_TCK*%
X27386136Y-85405443D02*
X27604000Y-85187578D01*
X24890590Y-91570428D02*
X20565882Y-95895135D01*
X27604000Y-82223500D02*
X27604000Y-85187578D01*
X24890590Y-89833156D02*
X24890590Y-91570428D01*
%TO.N,/XCC1352R1F3RGZR/DIO_11*%
X56780000Y-18480000D02*
X59080000Y-20980000D01*
X59830000Y-24680000D02*
X59780000Y-24730000D01*
X60080000Y-21230000D02*
X59830000Y-24680000D01*
X59080000Y-20980000D02*
X59830000Y-20980000D01*
X59830000Y-20980000D02*
X60080000Y-21230000D01*
D37*
%TO.N,/XCC1352R1F3RGZR/X48M_P*%
X16633800Y-14455900D02*
X17633800Y-14655900D01*
D42*
%TO.N,/XCC1352R1F3RGZR/DIO_30*%
X13322500Y-18180500D02*
X14822500Y-18180500D01*
X9822500Y-18180500D02*
X9922500Y-19380500D01*
X14822500Y-18180500D02*
X17622500Y-15480500D01*
X9922500Y-19380500D02*
X10422500Y-19580500D01*
X17622500Y-15480500D02*
X19722500Y-14580500D01*
X12522500Y-18980500D02*
X13322500Y-18180500D01*
X10422500Y-19580500D02*
X12522500Y-18980500D01*
%TO.N,/XCC1352R1F3RGZR/DIO_18*%
X44605300Y-39600000D02*
X48105300Y-43000000D01*
X61805300Y-44900000D02*
X74905300Y-48600000D01*
X48105300Y-43000000D02*
X49105300Y-43500000D01*
X43105300Y-38500000D02*
X44605300Y-39600000D01*
X25905300Y-21000000D02*
X43105300Y-38500000D01*
D36*
%TO.N,/XCC1352R1F3RGZR/DCOUPL*%
X25850000Y-15850800D02*
X28250000Y-20650800D01*
X22550000Y-23350800D02*
X22350000Y-21650800D01*
X28350000Y-21650800D02*
X28650000Y-23350800D01*
%TO.N,/XCC1352R1F3RGZR/VDDR*%
X12650000Y-18062500D02*
X12650000Y-13662500D01*
X24750000Y-20762500D02*
X25150000Y-15762500D01*
X25250000Y-15562500D02*
X25850000Y-11962500D01*
X25150000Y-15762500D02*
X25250000Y-15562500D01*
X22250000Y-11962500D02*
X20650000Y-13362500D01*
X12950000Y-13362500D02*
X18650000Y-14462500D01*
X14850000Y-22762500D02*
X14850000Y-21862500D01*
X25150000Y-23362500D02*
X24750000Y-20762500D01*
X12650000Y-13662500D02*
X12950000Y-13362500D01*
D41*
%TO.N,/XCC1352R1F3RGZR/DIO_19*%
X80296400Y-55313500D02*
X81396400Y-56213500D01*
X39496400Y-35313500D02*
X39496400Y-35813500D01*
X81396400Y-56213500D02*
X87296400Y-60413500D01*
X77296400Y-53713500D02*
X80296400Y-55313500D01*
X46796400Y-42313500D02*
X50296400Y-45413500D01*
X55096400Y-45213500D02*
X56796400Y-46113500D01*
X56796400Y-46113500D02*
X63096400Y-50213500D01*
X63096400Y-50213500D02*
X69496400Y-53313500D01*
X32196399Y-27913500D02*
X39496400Y-35313500D01*
X44696400Y-40713500D02*
X46796400Y-42313500D01*
X39496400Y-35813500D02*
X44696400Y-40713500D01*
D39*
%TO.N,/XCC1352R1F3RGZR/RF_SUB1_SW*%
X10480000Y-19100000D02*
X10200000Y-19100000D01*
X10200000Y-19100000D02*
X10200000Y-14800000D01*
X10200000Y-14800000D02*
X9800000Y-14800000D01*
D41*
%TO.N,/IWRL6432BD/USB_DP_CONN*%
X70187622Y-97964369D02*
X61877257Y-97964369D01*
X74569567Y-80315687D02*
X73074923Y-78821044D01*
X57714908Y-55474667D02*
X56406601Y-54166360D01*
X48571613Y-31752074D02*
X48571613Y-29686584D01*
X51040500Y-94498000D02*
X54705526Y-98163026D01*
X73599983Y-87687913D02*
X73599983Y-85518431D01*
X61404657Y-60741117D02*
X61404657Y-59774590D01*
X61678600Y-98163026D02*
X54705526Y-98163026D01*
X52223064Y-41646539D02*
X52223064Y-37048973D01*
X75969457Y-91702477D02*
X75605670Y-92066264D01*
X50740269Y-35566179D02*
X50740269Y-33920731D01*
X75605670Y-92066264D02*
X75605670Y-92546320D01*
X55611867Y-53204264D02*
X55611867Y-49867276D01*
X52367220Y-41790695D02*
X52223064Y-41646539D01*
X77751500Y-93192253D02*
X76261725Y-91702477D01*
X63595944Y-64579165D02*
X63595944Y-63125710D01*
X72008633Y-76147561D02*
X71860045Y-76147561D01*
X72775666Y-77970641D02*
X72775666Y-76914594D01*
X71860045Y-76147561D02*
X67655662Y-71943177D01*
X58676956Y-57775611D02*
X57714908Y-56813563D01*
X63595944Y-63125710D02*
X61610460Y-61140225D01*
X61877257Y-97964369D02*
X61678600Y-98163026D01*
X52223064Y-37048973D02*
X50740269Y-35566179D01*
X64919601Y-66629548D02*
X64919601Y-65902821D01*
X73074923Y-78821044D02*
X73074923Y-78269898D01*
X67655662Y-71943177D02*
X67655662Y-69365610D01*
X56406601Y-54166360D02*
X56406601Y-53998998D01*
X52367220Y-42844509D02*
X52367220Y-41790695D01*
X72775666Y-76914594D02*
X72008633Y-76147561D01*
X55611867Y-49867276D02*
X54666444Y-48921853D01*
X64919601Y-65902821D02*
X63595944Y-64579165D01*
X57714908Y-56813563D02*
X57714908Y-55474667D01*
X48571613Y-29686584D02*
X48570750Y-29164750D01*
X74569567Y-84548847D02*
X74569567Y-80315687D01*
X56406601Y-53998998D02*
X55611867Y-53204264D01*
X75969457Y-90057386D02*
X73599983Y-87687913D01*
X67655662Y-69365610D02*
X64919601Y-66629548D01*
X54666444Y-45143733D02*
X52367220Y-42844509D01*
X73599983Y-85518431D02*
X74569567Y-84548847D01*
X48570750Y-29164750D02*
X48570500Y-29013500D01*
X61404657Y-59774590D02*
X59405678Y-57775611D01*
X61610460Y-61140225D02*
X61404657Y-60741117D01*
X75605670Y-92546320D02*
X70187622Y-97964369D01*
X73074923Y-78269898D02*
X72775666Y-77970641D01*
X59405678Y-57775611D02*
X58676956Y-57775611D01*
X76261725Y-91702477D02*
X75969457Y-91702477D01*
X50740269Y-33920731D02*
X48571613Y-31752074D01*
X54666444Y-48921853D02*
X54666444Y-45143733D01*
X77751500Y-95060000D02*
X77751500Y-93192253D01*
X75969457Y-91702477D02*
X75969457Y-90057386D01*
%TO.N,/IWRL6432BD/USB_DM_CONN*%
X55298531Y-65147358D02*
X54618140Y-64466967D01*
X47537801Y-40641209D02*
X47537801Y-34791394D01*
X51401584Y-52030782D02*
X51259784Y-51468033D01*
X51259784Y-51468033D02*
X50616621Y-50824870D01*
X50918211Y-45367951D02*
X49461958Y-43911698D01*
X54618140Y-64466967D02*
X54618140Y-63298404D01*
X52699964Y-58471160D02*
X52534383Y-57957477D01*
X49461958Y-43911698D02*
X49461958Y-42565366D01*
X50616621Y-47817490D02*
X50918211Y-47515900D01*
X70946032Y-86091345D02*
X70690063Y-85643255D01*
X74765623Y-92549797D02*
X74765623Y-89910936D01*
X69666185Y-83766174D02*
X65747871Y-79847860D01*
X52481959Y-57830209D02*
X52426324Y-57261135D01*
X52414696Y-53043893D02*
X51401584Y-52030782D01*
X49461958Y-42565366D02*
X47537801Y-40641209D01*
X52426324Y-57261135D02*
X52414696Y-57249507D01*
X52534383Y-57957477D02*
X52534383Y-57882632D01*
X52534383Y-57882632D02*
X52481959Y-57830209D01*
X53362289Y-62042553D02*
X53362289Y-59133485D01*
X69847871Y-79900000D02*
X69747871Y-80300000D01*
X69747871Y-80300000D02*
X69347871Y-80400000D01*
X74765623Y-89910936D02*
X70946032Y-86091345D01*
X65747871Y-79847860D02*
X65747871Y-79177239D01*
X50616621Y-50824870D02*
X50616621Y-47817490D01*
X70690063Y-85643255D02*
X69666185Y-84619377D01*
X67000000Y-77000000D02*
X69847871Y-79900000D01*
X62700000Y-74650000D02*
X67000000Y-77000000D01*
X53362289Y-59133485D02*
X52699964Y-58471160D01*
X56100000Y-68250000D02*
X62700000Y-74650000D01*
X55298531Y-65147358D02*
X55000000Y-65750000D01*
X47537801Y-34791394D02*
X48402830Y-33926365D01*
X54618140Y-63298404D02*
X53362289Y-62042553D01*
X69347871Y-80400000D02*
X65747871Y-79177239D01*
X69666185Y-84619377D02*
X69666185Y-83766174D01*
X50918211Y-47515900D02*
X50918211Y-45367951D01*
X52414696Y-57249507D02*
X52414696Y-53043893D01*
%TO.N,/IWRL6432BD/QSPI_D0*%
X48972500Y-32509999D02*
X48322500Y-31860000D01*
X48322500Y-31860000D02*
X47622500Y-28810000D01*
X50622500Y-37060000D02*
X48972500Y-32509999D01*
%TO.N,/AD9609/SCOPE_PGA_DIO*%
X73072000Y-32872000D02*
X72972000Y-30972000D01*
X71072000Y-20272000D02*
X70672000Y-16872000D01*
X73072000Y-24472000D02*
X72872000Y-24072000D01*
X76072000Y-37172000D02*
X73072000Y-32872000D01*
X72972000Y-30972000D02*
X73072000Y-24472000D01*
%TO.N,/AD9609/D5*%
X50849087Y-44331014D02*
X50849087Y-43034908D01*
X30349631Y-46405667D02*
X30349631Y-46338077D01*
X67706500Y-37444500D02*
X60826160Y-44324840D01*
X53508608Y-47249755D02*
X52622101Y-46363249D01*
X32138468Y-45309317D02*
X32913655Y-46084505D01*
X52622101Y-46104027D02*
X50849087Y-44331014D01*
X32913655Y-46084505D02*
X36198277Y-46084505D01*
X52622101Y-46363249D02*
X52622101Y-46104027D01*
X36198277Y-46084505D02*
X36591790Y-46478018D01*
X31378391Y-45309317D02*
X32138468Y-45309317D01*
X57186846Y-44324840D02*
X60826160Y-44324840D01*
X30349631Y-46338077D02*
X31378391Y-45309317D01*
X50849087Y-43034908D02*
X48189566Y-40375388D01*
%TO.N,/AD9609/D0*%
X46893983Y-47328276D02*
X46893983Y-47899626D01*
X65229906Y-32475534D02*
X65229906Y-31473470D01*
X59938952Y-37766488D02*
X65229906Y-32475534D01*
X59938952Y-37891745D02*
X59938952Y-37766488D01*
X46893983Y-47899626D02*
X45529534Y-49264075D01*
X46497499Y-46931792D02*
X46893983Y-47328276D01*
X45529534Y-49264075D02*
X45151294Y-49264075D01*
X41057237Y-50969818D02*
X41057237Y-53661862D01*
X41057237Y-53661862D02*
X41194326Y-53798951D01*
%TO.N,/AD9609/CSB*%
X45321270Y-66654405D02*
X45053539Y-66922136D01*
X50253490Y-66847517D02*
X48728740Y-65322766D01*
X51217027Y-66847517D02*
X50253490Y-66847517D01*
X51381900Y-66345344D02*
X51381900Y-66682644D01*
X51381900Y-66682644D02*
X51217027Y-66847517D01*
X45053539Y-66922136D02*
X44128495Y-66922136D01*
%TO.N,/AD9609/D9*%
X68900000Y-30250000D02*
X68500000Y-30600000D01*
X70650000Y-28300000D02*
X69000000Y-30150000D01*
X70800000Y-26250000D02*
X71050000Y-26372100D01*
X70800000Y-26250000D02*
X70650000Y-28300000D01*
X69000000Y-30150000D02*
X68900000Y-30250000D01*
%TO.N,/AD9609/CLK_N*%
X65807999Y-25830100D02*
X65958000Y-25230100D01*
X64608000Y-28180100D02*
X65807999Y-25830100D01*
X64057999Y-28730100D02*
X64608000Y-28180100D01*
%TO.N,/AD9609/D6*%
X72172842Y-33466040D02*
X71941071Y-33234269D01*
X51936255Y-50615788D02*
X52400975Y-50615788D01*
X51798499Y-50478032D02*
X51936255Y-50615788D01*
X51488570Y-50007325D02*
X51798499Y-50478032D01*
X45007210Y-52066555D02*
X43181125Y-50240470D01*
X47502515Y-52066555D02*
X45007210Y-52066555D01*
X51178640Y-49536619D02*
X51488570Y-49846548D01*
X54156716Y-50753543D02*
X54615103Y-50295156D01*
X52538731Y-50753543D02*
X54156716Y-50753543D01*
X28120597Y-53444759D02*
X27234176Y-52558339D01*
X27234176Y-52558339D02*
X27234176Y-51542659D01*
X71941071Y-33234269D02*
X71941071Y-30246767D01*
X52400975Y-50615788D02*
X52538731Y-50753543D01*
X51488570Y-49846548D02*
X51488570Y-50007325D01*
%TO.N,/AD9609/D1*%
X63232755Y-35412961D02*
X64895545Y-35412961D01*
X60160130Y-38485587D02*
X63232755Y-35412961D01*
X41516092Y-50958770D02*
X41516092Y-53405368D01*
X46592755Y-47802065D02*
X46121086Y-47802065D01*
X40965245Y-50407924D02*
X41516092Y-50958770D01*
X46121086Y-47802065D02*
X44773010Y-49150141D01*
%TO.N,/AD9609/D2*%
X54886555Y-50648460D02*
X55029135Y-50918989D01*
X55029135Y-50918989D02*
X55029135Y-52297117D01*
X44489114Y-70256447D02*
X45315661Y-69429900D01*
X55029135Y-52297117D02*
X52973178Y-54353074D01*
X43263410Y-72767175D02*
X44489114Y-71541471D01*
X52973178Y-54353074D02*
X52973178Y-56349052D01*
X41619578Y-72767175D02*
X43263410Y-72767175D01*
X44489114Y-71541471D02*
X44489114Y-70256447D01*
D37*
%TO.N,/AD9609/CLK_P*%
X45379240Y-68747459D02*
X43834037Y-70292662D01*
X64007121Y-30068100D02*
X63761121Y-30060078D01*
X58151412Y-35669787D02*
X63761121Y-30060078D01*
X37999599Y-72900238D02*
X35250454Y-72900238D01*
X43834037Y-70292662D02*
X40607175Y-70292662D01*
X45379240Y-68174067D02*
X45379240Y-68747459D01*
X63761121Y-30060078D02*
X63761121Y-29334893D01*
X58151412Y-37732545D02*
X58151412Y-35669787D01*
X56665916Y-42274655D02*
X56611643Y-42220382D01*
X56611643Y-42220382D02*
X56611643Y-39272315D01*
X40607175Y-70292662D02*
X37999599Y-72900238D01*
X56611643Y-39272315D02*
X58151412Y-37732545D01*
D41*
%TO.N,/AD9609/D7*%
X71132724Y-28646955D02*
X70186673Y-29593006D01*
X71132724Y-27670811D02*
X71132724Y-28646955D01*
X35410605Y-68596503D02*
X36445624Y-67561485D01*
X51978256Y-50995941D02*
X54722849Y-50995941D01*
X71521415Y-27282120D02*
X71132724Y-27670811D01*
X34448670Y-68596503D02*
X35410605Y-68596503D01*
X70186673Y-33859804D02*
X70523789Y-34196921D01*
X70186673Y-29593006D02*
X70186673Y-33859804D01*
X51944269Y-50961953D02*
X51978256Y-50995941D01*
X36445624Y-67561485D02*
X45200579Y-67561485D01*
%TO.N,/AD9609/SDIO_PDWN*%
X59218336Y-36642884D02*
X61483711Y-34377509D01*
X61483711Y-34377509D02*
X61483711Y-32717172D01*
X58695710Y-38034100D02*
X61483711Y-34377509D01*
X58085649Y-40291937D02*
X58085649Y-39033754D01*
X63195710Y-37534100D02*
X60695710Y-39134100D01*
X34367553Y-67753271D02*
X35301067Y-67753271D01*
X43675505Y-65620109D02*
X45698317Y-65620109D01*
X43164163Y-66131452D02*
X43675505Y-65620109D01*
X65995711Y-27234100D02*
X66795711Y-30634100D01*
X31613477Y-69966216D02*
X32154607Y-69966216D01*
X41141352Y-66131452D02*
X43164163Y-66131452D01*
X36411544Y-66642794D02*
X40630010Y-66642794D01*
X40630010Y-66642794D02*
X41141352Y-66131452D01*
X59218336Y-37901067D02*
X59218336Y-36642884D01*
X56952961Y-41424624D02*
X58085649Y-40291937D01*
X58085649Y-39033754D02*
X59218336Y-37901067D01*
X32154607Y-69966216D02*
X34367553Y-67753271D01*
X35301067Y-67753271D02*
X36411544Y-66642794D01*
%TO.N,/AD9609/D4*%
X27974000Y-51499000D02*
X28394590Y-51078410D01*
X31341582Y-45696356D02*
X31341582Y-47950865D01*
X57260598Y-43102467D02*
X58334647Y-42028417D01*
X31341582Y-47950865D02*
X31491346Y-48100629D01*
X63756168Y-38197347D02*
X64070500Y-37883750D01*
X35983343Y-47267928D02*
X35160962Y-46445547D01*
X46036357Y-42767919D02*
X45819359Y-42767919D01*
X56357989Y-41605897D02*
X56357989Y-42417971D01*
X32006400Y-45523245D02*
X31514694Y-45523245D01*
X28741614Y-51078410D02*
X28394590Y-51078410D01*
X56357989Y-42417971D02*
X57042485Y-43102467D01*
X64070500Y-37883750D02*
X64177500Y-37777000D01*
X59925098Y-42028417D02*
X63756168Y-38197347D01*
X31491346Y-48100629D02*
X31491346Y-48328679D01*
X32928703Y-46445547D02*
X32006400Y-45523245D01*
X36699725Y-47267928D02*
X35983343Y-47267928D01*
X55583188Y-40831096D02*
X56357989Y-41605897D01*
X35160962Y-46445547D02*
X32928703Y-46445547D01*
X46704247Y-43435809D02*
X46036357Y-42767919D01*
X31491346Y-48328679D02*
X28741614Y-51078410D01*
X58334647Y-42028417D02*
X59925098Y-42028417D01*
X31514694Y-45523245D02*
X31341582Y-45696356D01*
X57042485Y-43102467D02*
X57260598Y-43102467D01*
%TO.N,/AD9609/SCLK_DFS*%
X59417374Y-39264936D02*
X59417374Y-37984914D01*
X45094998Y-68365669D02*
X45094998Y-68687857D01*
X64072189Y-30702307D02*
X64996694Y-29777802D01*
X59093509Y-40868823D02*
X59093509Y-39588801D01*
X40240561Y-69638085D02*
X38354510Y-71524135D01*
X44144770Y-69638085D02*
X40240561Y-69638085D01*
X57150321Y-42812011D02*
X59093509Y-40868823D01*
X59417374Y-37984914D02*
X64072189Y-33330099D01*
X44964664Y-68235335D02*
X45094998Y-68365669D01*
X64072189Y-33330099D02*
X64072189Y-30702307D01*
X45094998Y-68687857D02*
X44144770Y-69638085D01*
X59093509Y-39588801D02*
X59417374Y-39264936D01*
%TO.N,/AD9609/DCO*%
X72790900Y-34884000D02*
X75890900Y-37684000D01*
X71890900Y-27284000D02*
X72790900Y-34884000D01*
X75890900Y-37684000D02*
X76390900Y-37684000D01*
X71090900Y-25784000D02*
X71890900Y-27284000D01*
X77490900Y-42084000D02*
X77590900Y-42584000D01*
X77590900Y-42584000D02*
X89990900Y-54284000D01*
%TO.N,/AD9609/D3*%
X46298833Y-49309784D02*
X45890704Y-49309784D01*
X65529845Y-35785270D02*
X67522606Y-33792508D01*
X59552911Y-39770793D02*
X63538434Y-35785270D01*
X47382989Y-48225629D02*
X46298833Y-49309784D01*
X63538434Y-35785270D02*
X65529845Y-35785270D01*
%TO.N,Net-(J17-SHIELD)*%
X25680000Y-100815000D02*
X25680000Y-96635000D01*
%TO.N,/STM32H7/PO1*%
X19114547Y-22412387D02*
X19114547Y-22809830D01*
X17252891Y-73428074D02*
X18074404Y-73428074D01*
X19309183Y-23004466D02*
X19309183Y-23159898D01*
X16869552Y-73003642D02*
X16869552Y-73044735D01*
X23528236Y-70248612D02*
X23991017Y-70711394D01*
X8436059Y-32929806D02*
X18162420Y-23203444D01*
X21253866Y-70248612D02*
X23528236Y-70248612D01*
X7219704Y-43359432D02*
X7219704Y-39155746D01*
X18074404Y-73428074D02*
X21253866Y-70248612D01*
X16869552Y-73044735D02*
X17252891Y-73428074D01*
X21206175Y-22126845D02*
X19400089Y-22126845D01*
X4837696Y-49790492D02*
X4837696Y-60479914D01*
X21209779Y-22130449D02*
X21206175Y-22126845D01*
X4837696Y-60479914D02*
X13097798Y-68740016D01*
X19114547Y-22809830D02*
X19309183Y-23004466D01*
X19400089Y-22126845D02*
X19114547Y-22412387D01*
X8436059Y-37939391D02*
X8436059Y-32929806D01*
X5793773Y-48834415D02*
X4837696Y-49790492D01*
X7219704Y-39155746D02*
X8436059Y-37939391D01*
%TO.N,/STM32H7/ETH_TXD0*%
X45409435Y-82738158D02*
X47521568Y-80626025D01*
X37737659Y-82738158D02*
X45409435Y-82738158D01*
X47929195Y-79074422D02*
X47929195Y-77363249D01*
X47929195Y-77363249D02*
X47572671Y-77006726D01*
X37111059Y-82111558D02*
X37737659Y-82738158D01*
X31443851Y-80715750D02*
X32281336Y-81553235D01*
X35484886Y-81553235D02*
X36043209Y-82111558D01*
X23580168Y-74574975D02*
X24998855Y-74574975D01*
X32281336Y-81553235D02*
X35484886Y-81553235D01*
X47521568Y-80626025D02*
X47521568Y-79482049D01*
X47521568Y-79482049D02*
X47929195Y-79074422D01*
X22275195Y-73270003D02*
X23580168Y-74574975D01*
X27032061Y-76608181D02*
X27032061Y-76926266D01*
X36043209Y-82111558D02*
X37111059Y-82111558D01*
X24998855Y-74574975D02*
X27032061Y-76608181D01*
%TO.N,/STM32H7/ETH_TX_EN*%
X45725669Y-72489204D02*
X45725669Y-73759677D01*
X42252621Y-70701478D02*
X43075739Y-71524596D01*
X45725669Y-73759677D02*
X46180012Y-74214019D01*
X43075739Y-71524596D02*
X44061840Y-71524596D01*
%TO.N,/RP2350/GPIO7*%
X16590499Y-22278000D02*
X18490500Y-22978000D01*
X18490500Y-22978000D02*
X18390500Y-34378000D01*
X16590499Y-19278000D02*
X16590499Y-22278000D01*
%TO.N,/STM32H7/ETH_TXD1*%
X29156875Y-73151606D02*
X29865852Y-73151606D01*
X37525669Y-68251394D02*
X38507424Y-69233149D01*
X29865852Y-73151606D02*
X30240702Y-72776755D01*
X44067169Y-69233149D02*
X44769242Y-68531076D01*
X23502165Y-73661915D02*
X28646566Y-73661915D01*
X30240702Y-72776755D02*
X30240702Y-72587917D01*
X46600853Y-72011497D02*
X46600853Y-75374820D01*
X46422975Y-71833619D02*
X46600853Y-72011497D01*
X22777673Y-72937423D02*
X23502165Y-73661915D01*
X35443975Y-68877511D02*
X36070091Y-68251394D01*
X33951109Y-68877511D02*
X35443975Y-68877511D01*
X36070091Y-68251394D02*
X37525669Y-68251394D01*
X28646566Y-73661915D02*
X29156875Y-73151606D01*
X30240702Y-72587917D02*
X33951109Y-68877511D01*
X38507424Y-69233149D02*
X44067169Y-69233149D01*
%TO.N,/STM32H7/PM1*%
X60140000Y-13590000D02*
X59128000Y-15190000D01*
X81940000Y-21690000D02*
X81090000Y-21690000D01*
X79440000Y-17790000D02*
X77539999Y-16590000D01*
X62640000Y-24890000D02*
X61532346Y-23971522D01*
X61840000Y-17390000D02*
X62440000Y-21390000D01*
X81090000Y-21690000D02*
X80940000Y-20740000D01*
X82039999Y-21340000D02*
X81940000Y-21690000D01*
X82940000Y-22090000D02*
X82940000Y-21340000D01*
X71039999Y-13690000D02*
X61540000Y-13890000D01*
X83090000Y-25390000D02*
X84844592Y-25301086D01*
X82940000Y-21340000D02*
X82490000Y-21290000D01*
X60290000Y-17090000D02*
X61840000Y-17390000D01*
X84390000Y-23240000D02*
X82940000Y-22090000D01*
X82490000Y-21290000D02*
X82039999Y-21340000D01*
X71789999Y-14340000D02*
X71390000Y-13790000D01*
X61540000Y-13890000D02*
X60890000Y-13590000D01*
X59490000Y-15640000D02*
X60290000Y-17090000D01*
X71390000Y-13790000D02*
X71039999Y-13690000D01*
X80940000Y-20740000D02*
X79440000Y-17790000D01*
%TO.N,/MM8108/WAKE*%
X29660393Y-74153857D02*
X31616602Y-76110066D01*
X31616602Y-76110066D02*
X31616602Y-76997421D01*
%TO.N,/MM8108/SDIO_CLK_SPI_SCK*%
X34326195Y-60427209D02*
X36422954Y-58330450D01*
X32790297Y-60427209D02*
X34326195Y-60427209D01*
X36025818Y-79914091D02*
X36025818Y-80098879D01*
X36854039Y-79085870D02*
X36025818Y-79914091D01*
X36025818Y-80098879D02*
X36255391Y-80328452D01*
X36255391Y-80328452D02*
X37048297Y-80328452D01*
X31615776Y-61601730D02*
X32790297Y-60427209D01*
X41469224Y-74016150D02*
X41651494Y-74198419D01*
X41651494Y-76241450D02*
X41487858Y-76405086D01*
X38157500Y-54654500D02*
X36422954Y-56389046D01*
X38508954Y-83788155D02*
X37592953Y-84704155D01*
X38091428Y-79085870D02*
X36854039Y-79085870D01*
X35026323Y-84704155D02*
X34527467Y-84205299D01*
X40772212Y-76405086D02*
X38091428Y-79085870D01*
X37791915Y-71369989D02*
X38332484Y-71910558D01*
X37048297Y-80328452D02*
X37988261Y-81268416D01*
X37791915Y-69107036D02*
X37791915Y-71369989D01*
X37592953Y-84704155D02*
X35026323Y-84704155D01*
X36422954Y-58330450D02*
X36422954Y-56389046D01*
X41651494Y-74198419D02*
X41651494Y-76241450D01*
X41487858Y-76405086D02*
X40772212Y-76405086D01*
X38332484Y-71910558D02*
X38464739Y-71910558D01*
%TO.N,/STM32H7/PP7*%
X24922000Y-15413500D02*
X23822000Y-25513500D01*
X85418000Y-30213500D02*
X85418000Y-25413500D01*
X82018000Y-16313500D02*
X82018000Y-14913500D01*
X74618000Y-8813500D02*
X66617999Y-7913500D01*
X23822000Y-25513500D02*
X19122000Y-31713500D01*
X80318000Y-30913500D02*
X82618000Y-31913500D01*
X66617999Y-7913500D02*
X54318000Y-7813500D01*
X85218000Y-20113500D02*
X82018000Y-16313500D01*
X75718000Y-25213500D02*
X80318000Y-30913500D01*
%TO.N,/STM32H7/ETH_MDC*%
X47325756Y-76503436D02*
X47388103Y-76441089D01*
X47388103Y-76441089D02*
X47388103Y-74794478D01*
X42569652Y-74117813D02*
X42917298Y-74117813D01*
X47388103Y-74794478D02*
X47492014Y-74690567D01*
X47284192Y-78655160D02*
X47284192Y-76956653D01*
X47284192Y-76956653D02*
X47325756Y-76503436D01*
X41067619Y-71578707D02*
X41067619Y-72615780D01*
X41067619Y-72615780D02*
X42569652Y-74117813D01*
X47604929Y-78975897D02*
X47284192Y-78655160D01*
%TO.N,/MM8108/BUSY*%
X25964948Y-77168598D02*
X26272688Y-76860858D01*
X27133000Y-84674929D02*
X27133000Y-81059005D01*
X30792997Y-72773228D02*
X30009611Y-73556615D01*
X26272688Y-76860858D02*
X26272688Y-76267645D01*
X29232495Y-73556615D02*
X27034091Y-75755018D01*
X28867758Y-79598266D02*
X27628258Y-78358766D01*
X27133000Y-81059005D02*
X27229506Y-80962498D01*
X25795742Y-86012187D02*
X27133000Y-84674929D01*
X30009611Y-73556615D02*
X29232495Y-73556615D01*
X27034091Y-75755018D02*
X27034091Y-76051507D01*
X27628258Y-78358766D02*
X27628258Y-77677325D01*
D37*
%TO.N,/STM32H7/PHY_TXP*%
X30779521Y-80288368D02*
X31363627Y-80144644D01*
X28403776Y-80711622D02*
X30356267Y-80711622D01*
X35720009Y-81388843D02*
X36818955Y-81388843D01*
X34166409Y-81124321D02*
X35455487Y-81124321D01*
X31363627Y-80144644D02*
X31917662Y-80242903D01*
X26863558Y-79958147D02*
X27001281Y-80095871D01*
X18903838Y-79203895D02*
X19658091Y-79958147D01*
X27610535Y-80141779D02*
X28081131Y-80388977D01*
X37911521Y-82481409D02*
X43373488Y-82481409D01*
X36818955Y-81388843D02*
X37911521Y-82481409D01*
X45203759Y-80496450D02*
X45203759Y-75417112D01*
X44843999Y-81010898D02*
X44843999Y-80856210D01*
X30356267Y-80711622D02*
X30779521Y-80288368D01*
X4055000Y-75200000D02*
X5998743Y-77143743D01*
X14412628Y-77143743D02*
X16472779Y-79203895D01*
X35455487Y-81124321D02*
X35720009Y-81388843D01*
X19658091Y-79958147D02*
X26863558Y-79958147D01*
X44843999Y-80856210D02*
X45203759Y-80496450D01*
X5998743Y-77143743D02*
X14412628Y-77143743D01*
X32471697Y-80341161D02*
X33383249Y-80341161D01*
X28081131Y-80388977D02*
X28403776Y-80711622D01*
X43373488Y-82481409D02*
X44843999Y-81010898D01*
X32373438Y-80242903D02*
X32471697Y-80341161D01*
X33383249Y-80341161D02*
X34166409Y-81124321D01*
X31917662Y-80242903D02*
X32373438Y-80242903D01*
X27001281Y-80095871D02*
X27610535Y-80141779D01*
X16472779Y-79203895D02*
X18903838Y-79203895D01*
%TO.N,/STM32H7/PHY_TXN*%
X31741390Y-77313963D02*
X31959790Y-77095563D01*
X35332849Y-76499901D02*
X38587131Y-76499901D01*
X27084707Y-77239889D02*
X27608461Y-77101884D01*
X38910567Y-76176465D02*
X39042345Y-76176465D01*
X28005865Y-76704480D02*
X30881927Y-76704480D01*
X32698045Y-77095563D02*
X33169431Y-77566949D01*
X33169431Y-77566949D02*
X34265801Y-77566949D01*
X31959790Y-77095563D02*
X32698045Y-77095563D01*
X31491410Y-77313963D02*
X31741390Y-77313963D01*
X34265801Y-77566949D02*
X35332849Y-76499901D01*
X21822183Y-76309661D02*
X23028421Y-77515899D01*
X27608461Y-77101884D02*
X28005865Y-76704480D01*
X38587131Y-76499901D02*
X38910567Y-76176465D01*
X30881927Y-76704480D02*
X31491410Y-77313963D01*
X23028421Y-77515899D02*
X26808698Y-77515899D01*
X26808698Y-77515899D02*
X27084707Y-77239889D01*
%TO.N,/STM32H7/PHY_RXN*%
X27747210Y-79879643D02*
X27559173Y-79879643D01*
X32691508Y-79999227D02*
X32605671Y-79913390D01*
X19733945Y-78947420D02*
X16876151Y-78947420D01*
X13927708Y-75998976D02*
X11203976Y-75998976D01*
X27353987Y-79674456D02*
X20460982Y-79674456D01*
X16876151Y-78947420D02*
X13927708Y-75998976D01*
X27559173Y-79879643D02*
X27353987Y-79674456D01*
X32125594Y-79870471D02*
X31251278Y-79870471D01*
X28251165Y-80195561D02*
X27852516Y-79984949D01*
X36386700Y-80003269D02*
X36417328Y-80033897D01*
X10405000Y-75200000D02*
X11203976Y-75998976D01*
X30057133Y-80454339D02*
X28499660Y-80454339D01*
X44821500Y-75045000D02*
X44821500Y-77359871D01*
X28499660Y-80454339D02*
X28251165Y-80205844D01*
X20460982Y-79674456D02*
X19733945Y-78947420D01*
X32605671Y-79913390D02*
X32168513Y-79913390D01*
X42147474Y-80033897D02*
X44821500Y-77359871D01*
X27852516Y-79984949D02*
X27747210Y-79879643D01*
X36417328Y-80033897D02*
X42147474Y-80033897D01*
X31251278Y-79870471D02*
X30446378Y-80065094D01*
X30446378Y-80065094D02*
X30057133Y-80454339D01*
X28251165Y-80205844D02*
X28251165Y-80195561D01*
X32168513Y-79913390D02*
X32125594Y-79870471D01*
%TO.N,/STM32H7/PHY_RXP*%
X33433939Y-79827801D02*
X33332743Y-79726605D01*
X37966507Y-76831684D02*
X34970390Y-79827801D01*
X38820692Y-76687181D02*
X38676190Y-76831684D01*
X38676190Y-76831684D02*
X37966507Y-76831684D01*
X30723286Y-79410187D02*
X30615953Y-79517520D01*
X32931861Y-79524213D02*
X32695609Y-79444930D01*
X32660865Y-79410187D02*
X30723286Y-79410187D01*
X29574528Y-79517520D02*
X29252529Y-79839518D01*
X27898963Y-79179615D02*
X23206781Y-79179615D01*
X39584400Y-76065410D02*
X38962629Y-76687181D01*
X28410454Y-79691106D02*
X27898963Y-79179615D01*
X38962629Y-76687181D02*
X38820692Y-76687181D01*
X34970390Y-79827801D02*
X33433939Y-79827801D01*
X28798054Y-79946851D02*
X28410454Y-79691106D01*
X23206781Y-79179615D02*
X20565551Y-76538385D01*
X30615953Y-79517520D02*
X29574528Y-79517520D01*
X32695609Y-79444930D02*
X32660865Y-79410187D01*
X33332743Y-79726605D02*
X32931861Y-79524213D01*
X41371070Y-76065410D02*
X39584400Y-76065410D01*
X29252529Y-79839518D02*
X28798054Y-79946851D01*
D41*
%TO.N,/IWRL6432BD/GPIO_3*%
X47490151Y-31779849D02*
X47441597Y-31779849D01*
X53288500Y-91121500D02*
X53900000Y-90510000D01*
X49396499Y-90737541D02*
X49396499Y-90962459D01*
X53900000Y-90510000D02*
X53980000Y-90510000D01*
X49840000Y-89780000D02*
X49840000Y-90294040D01*
X47441597Y-31779849D02*
X47427402Y-31765654D01*
X49840000Y-90294040D02*
X49396499Y-90737541D01*
X45630000Y-28800000D02*
X47490151Y-30660151D01*
X49555540Y-91121500D02*
X53288500Y-91121500D01*
X47490151Y-30660151D02*
X47490151Y-31779849D01*
X49396499Y-90962459D02*
X49555540Y-91121500D01*
%TO.N,/IWRL6432BD/GPIO_6*%
X54498000Y-49698000D02*
X55198000Y-50548000D01*
X54098000Y-45098000D02*
X54498000Y-49698000D01*
X53647999Y-21948000D02*
X53198000Y-21948000D01*
X55098000Y-53498000D02*
X55098000Y-53598000D01*
X50169500Y-21883941D02*
X50169500Y-22108859D01*
X50997999Y-73598000D02*
X50897999Y-74398000D01*
X50169500Y-22108859D02*
X50010459Y-22267900D01*
X54997999Y-67298000D02*
X54297999Y-71798000D01*
X55248000Y-53248000D02*
X55098000Y-53498000D01*
X55397999Y-62598000D02*
X55597999Y-66698000D01*
X50160138Y-21874580D02*
X50169500Y-21883941D01*
X55598000Y-80148000D02*
X56548000Y-91598000D01*
X50010459Y-22267900D02*
X49948000Y-22267900D01*
X50048000Y-32548000D02*
X51998000Y-35298000D01*
X51497999Y-73098000D02*
X50997999Y-73598000D01*
X49647999Y-27348000D02*
X50048000Y-32548000D01*
X55098000Y-53648000D02*
X55248000Y-62298000D01*
X55198000Y-50548000D02*
X55248000Y-50898000D01*
X52448000Y-36998000D02*
X54198000Y-44248000D01*
X55248000Y-50898000D02*
X55248000Y-53248000D01*
X55597999Y-66698000D02*
X54997999Y-67298000D01*
X49948000Y-24748000D02*
X49647999Y-27348000D01*
X50243687Y-21791031D02*
X50160138Y-21874580D01*
X55797999Y-80698000D02*
X55598000Y-80148000D01*
X49948000Y-22267900D02*
X49948000Y-24748000D01*
X51597999Y-72398000D02*
X51497999Y-73098000D01*
X55248000Y-62298000D02*
X55397999Y-62598000D01*
X55897999Y-21648000D02*
X53998000Y-22048000D01*
X51998000Y-35298000D02*
X52448000Y-36998000D01*
X55098000Y-53598000D02*
X55098000Y-53648000D01*
X54198000Y-44248000D02*
X54598000Y-44648000D01*
X53998000Y-22048000D02*
X53647999Y-21948000D01*
%TO.N,/IWRL6432BD/GPIO_7*%
X61279600Y-77213400D02*
X61279600Y-78413400D01*
X59279600Y-72813400D02*
X61279600Y-77213400D01*
X61279600Y-78413400D02*
X61679600Y-78813400D01*
X58279600Y-71813400D02*
X59279600Y-72813400D01*
%TO.N,/IWRL6432BD/RDIF_D2*%
X52440000Y-69780000D02*
X51930480Y-70289520D01*
X51250000Y-73661295D02*
X51250000Y-75120000D01*
X51930480Y-72980815D02*
X51250000Y-73661295D01*
X51930480Y-70289520D02*
X51930480Y-72980815D01*
%TO.N,/RP2350/+1V1*%
X62270000Y-81020000D02*
X64270000Y-84320000D01*
X60768000Y-90268000D02*
X63568000Y-86467999D01*
X52408000Y-81023900D02*
X52208000Y-81273900D01*
X54870100Y-79553900D02*
X54608000Y-79573900D01*
X52338000Y-82518000D02*
X51938000Y-79618000D01*
X63568000Y-86467999D02*
X64168000Y-86268000D01*
X64270000Y-84320000D02*
X65670000Y-85720000D01*
X54608000Y-79573900D02*
X54158000Y-80373899D01*
X62478000Y-79849900D02*
X62878000Y-79149900D01*
X60568000Y-91167999D02*
X60768000Y-90268000D01*
X54870100Y-79553900D02*
X54170100Y-79453900D01*
X50188600Y-89828100D02*
X50488600Y-87628100D01*
X52288600Y-84028100D02*
X52559900Y-83036100D01*
X52559900Y-83036100D02*
X54759900Y-85836100D01*
X50488600Y-87628100D02*
X50688600Y-85728100D01*
X53658000Y-80873899D02*
X52408000Y-81023900D01*
X52208000Y-81273900D02*
X52338000Y-82518000D01*
X50688600Y-85728100D02*
X52288600Y-84028100D01*
X62170100Y-80753900D02*
X54870100Y-79553900D01*
%TO.N,/RP2350/VREG_AVDD*%
X49191100Y-79572000D02*
X49141100Y-79172000D01*
X53441100Y-78122000D02*
X59241100Y-77672000D01*
X49141100Y-79172000D02*
X49491100Y-78122000D01*
X62741100Y-75722000D02*
X67741100Y-78772000D01*
X59241100Y-77672000D02*
X59691100Y-77222000D01*
D38*
%TO.N,/RP2350/USB_VBUS*%
X58709800Y-95166200D02*
X59609800Y-96066200D01*
X53109800Y-92866199D02*
X56009800Y-94266200D01*
X56009800Y-94266200D02*
X58709800Y-95166200D01*
D37*
%TO.N,/RP2350/USB_D_P_CONN*%
X59410000Y-95400000D02*
X61710000Y-96100000D01*
X59110000Y-95000000D02*
X59410000Y-95400000D01*
X48310000Y-89100000D02*
X48010000Y-91800000D01*
X48810000Y-87000000D02*
X48310000Y-89100000D01*
%TO.N,/RP2350/USB_D_N_CONN*%
X60510000Y-97700000D02*
X62210000Y-96100000D01*
X47810000Y-87600000D02*
X47610000Y-90100000D01*
X48810000Y-85400000D02*
X47810000Y-87600000D01*
D41*
%TO.N,/RP2350/SWCLK*%
X60942900Y-81472400D02*
X60992900Y-81522400D01*
X60792900Y-81322400D02*
X60892900Y-81422400D01*
X60992900Y-81672400D02*
X60992900Y-81872400D01*
X60992900Y-81622400D02*
X60992900Y-81672400D01*
X60992900Y-81522400D02*
X60992900Y-81622400D01*
X60892900Y-81422400D02*
X60942900Y-81472400D01*
X60042900Y-81322400D02*
X60792900Y-81322400D01*
X60992900Y-81872400D02*
X59892900Y-89522400D01*
%TO.N,/RP2350/VREG_LX*%
X49667999Y-90850000D02*
X50253600Y-90850000D01*
X54287600Y-81116000D02*
X53387600Y-79916000D01*
X50253600Y-90850000D02*
X55087600Y-86016000D01*
X53987600Y-79116000D02*
X62687600Y-80216000D01*
X53487600Y-79516000D02*
X53987600Y-79116000D01*
X53387600Y-79916000D02*
X53487600Y-79516000D01*
X55087600Y-86016000D02*
X54287600Y-81116000D01*
X62687600Y-80216000D02*
X62887600Y-80016000D01*
D37*
%TO.N,/RP2350/USB_DP_IC*%
X60690000Y-81650000D02*
X57290000Y-90850000D01*
X56890000Y-91350000D02*
X56890000Y-91750000D01*
X56590000Y-91950000D02*
X49790000Y-91850000D01*
X56890000Y-91750000D02*
X56590000Y-91950000D01*
X57290000Y-90850000D02*
X56890000Y-91350000D01*
%TO.N,/RP2350/USB_DM_IC*%
X60090000Y-90350000D02*
X59690000Y-91650000D01*
X56890000Y-92050000D02*
X56590000Y-92250000D01*
X53890000Y-92650000D02*
X53190000Y-92550000D01*
X59690000Y-91650000D02*
X59490000Y-91850000D01*
X59490000Y-91850000D02*
X56890000Y-92050000D01*
X53190000Y-92550000D02*
X50490000Y-92550000D01*
X56590000Y-92250000D02*
X53890000Y-92650000D01*
X61590000Y-81350000D02*
X60090000Y-90350000D01*
%TO.N,RP_QSPI_SD3*%
X59562500Y-76335000D02*
X58662500Y-75635000D01*
X60362500Y-78935000D02*
X60362500Y-77135000D01*
X60362500Y-77135000D02*
X59562500Y-76335000D01*
%TO.N,RP_QSPI_SCLK*%
X59862500Y-79365000D02*
X60562500Y-79265000D01*
X60562500Y-76265000D02*
X58662500Y-74365000D01*
X60762500Y-78865000D02*
X60562500Y-76265000D01*
X60562500Y-79265000D02*
X60762500Y-78865000D01*
%TO.N,RP_QSPI_SD0*%
X58062500Y-73695000D02*
X58662500Y-73095000D01*
X58062500Y-76495000D02*
X58062500Y-73695000D01*
%TO.N,RP_QSPI_SD2*%
X59937500Y-77065000D02*
X59837500Y-76965000D01*
X54237500Y-77165000D02*
X54137500Y-77065000D01*
X53937500Y-74965000D02*
X53337500Y-74365000D01*
X54137500Y-77065000D02*
X53937500Y-74965000D01*
X59537500Y-76965000D02*
X59437500Y-77065000D01*
X60037500Y-77165000D02*
X59937500Y-77065000D01*
X57137500Y-77265000D02*
X54237500Y-77165000D01*
X59437500Y-77065000D02*
X59137500Y-77365000D01*
X59137500Y-77365000D02*
X57137500Y-77265000D01*
X60037500Y-78665000D02*
X60037500Y-77165000D01*
X59637500Y-76865000D02*
X59537500Y-76965000D01*
X59837500Y-76965000D02*
X59637500Y-76865000D01*
%TO.N,RP_QSPI_SD1*%
X52687500Y-76135000D02*
X53337500Y-75635000D01*
%TO.N,RP_QSPI_SS*%
X53137500Y-77105000D02*
X53337500Y-76905000D01*
X53137500Y-80005000D02*
X53137500Y-77105000D01*
X53437500Y-80505000D02*
X53137500Y-80005000D01*
%TD*%
M02*
