M48
; DRILL file {KiCad 9.0.7} date 2026-08-24T00:05:18+0530
; FORMAT={-:-/ absolute / metric / decimal}
; #@! TF.CreationDate,2026-08-24T00:05:18+05:30
; #@! TF.GenerationSoftware,Kicad,Pcbnew,9.0.7
; #@! TF.FileFunction,Plated,1,2,Blind
FMAT,2
METRIC
; #@! TA.AperFunction,Plated,Buried,ViaDrill
T1C0.100
; #@! TA.AperFunction,Plated,Buried,ViaDrill
T2C0.150
%
G90
G05
T1
X19.2Y-21.45
X20.7Y-22.2
X20.7Y-52.5
X21.9Y-22.2
X22.65Y-47.1
X23.7Y-52.5
X25.2Y-41.7
X25.2Y-73.65
X26.1Y-54.9
X27.6Y-76.05
X27.9Y-30.9
X27.9Y-64.2
X29.7Y-66.75
X30.15Y-66.75
X30.5Y-74.0
X32.4Y-77.3
X33.3Y-70.35
X34.05Y-80.7
X35.25Y-71.7
X36.3Y-48.0
X36.3Y-50.1
X37.05Y-66.6
X37.35Y-23.25
X38.4Y-77.55
X38.55Y-63.9
X39.15Y-38.1
X39.15Y-39.3
X39.6Y-70.2
X40.0Y-41.6
X40.2Y-82.8
X40.65Y-74.1
X40.8Y-40.4
X41.2Y-63.8
X41.55Y-46.8
X41.7Y-64.2
X42.0Y-62.25
X42.3Y-42.45
X42.45Y-65.55
X42.9Y-82.8
X43.1Y-38.8
X43.3Y-71.9
X43.5Y-65.1
X44.25Y-83.25
X44.6Y-85.6
X44.8Y-71.9
X46.1Y-35.1
X46.6Y-83.6
X46.65Y-62.7
X47.1Y-78.75
X47.113Y-33.0
X47.17Y-34.94
X47.25Y-57.6
X47.6Y-69.8
X48.0Y-56.85
X48.0Y-68.8
X48.15Y-79.35
X48.6Y-89.1
X48.7Y-69.5
X48.8Y-33.1
X48.9Y-56.55
X49.3Y-82.6
X49.5Y-28.95
X49.5Y-97.65
X49.8Y-69.6
X49.9Y-82.1
X50.25Y-96.15
X50.55Y-10.05
X50.85Y-53.4
X51.3Y-56.7
X51.45Y-51.3
X51.45Y-58.5
X51.9Y-69.0
X52.2Y-43.4
X52.4Y-79.6
X52.95Y-57.9
X53.25Y-33.3
X53.25Y-88.95
X54.0Y-16.35
X54.0Y-88.05
X54.15Y-24.45
X54.2Y-41.5
X54.3Y-30.6
X54.3Y-54.0
X54.45Y-16.2
X54.9Y-20.5
X55.05Y-90.3
X55.09Y-21.25
X55.2Y-40.35
X55.5Y-61.1
X55.6Y-20.5
X55.753Y-24.257
X55.8Y-22.2
X55.8Y-62.6
X55.9Y-88.3
X56.3Y-63.3
X56.5Y-64.5
X57.15Y-29.4
X57.2Y-64.6
X57.3Y-26.25
X57.3Y-77.55
X58.2Y-92.25
X58.5Y-59.7
X58.547Y-34.29
X58.7Y-56.1
X58.8Y-58.7
X58.9Y-58.8
X59.0Y-50.8
X59.1Y-56.6
X59.25Y-61.2
X59.3Y-56.4
X59.4Y-82.2
X59.6Y-69.2
X59.6Y-70.8
X59.69Y-29.6
X59.7Y-67.8
X59.8Y-90.2
X60.0Y-82.35
X60.5Y-57.0
X61.3Y-26.5
X61.5Y-25.3
X61.6Y-56.3
X61.6Y-78.3
X61.65Y-27.9
X62.2Y-70.7
X62.3Y-52.5
X62.3Y-54.8
X62.3Y-77.6
X62.55Y-76.35
X62.675Y-62.26
X62.7Y-31.5
X62.7Y-35.55
X62.85Y-77.55
X63.1Y-73.0
X63.4Y-52.1
X63.4Y-60.8
X63.4Y-73.0
X63.5Y-62.1
X63.8Y-63.55
X63.8Y-64.25
X63.9Y-31.2
X63.9Y-34.35
X63.9Y-55.6
X63.9Y-61.3
X64.1Y-57.8
X64.2Y-62.25
X64.3Y-56.7
X65.0Y-58.7
X65.0Y-58.725
X65.45Y-66.35
X65.45Y-67.05
X66.0Y-59.3
X66.1Y-54.7
X66.7Y-60.8
X66.7Y-69.1
X66.8Y-53.7
X66.9Y-54.7
X67.0Y-87.0
X67.15Y-61.1
X67.2Y-51.4
X67.2Y-54.3
X67.3Y-54.8
X68.1Y-68.2
X68.1Y-86.6
X68.3Y-71.7
X68.4Y-53.4
X68.5Y-55.4
X68.9Y-37.5
X69.3Y-61.5
X69.78Y-24.12
X70.8Y-26.25
X70.8Y-54.7
X71.2Y-68.7
X71.2Y-72.3
X71.3Y-54.1
X72.0Y-53.4
X72.1Y-65.0
X72.1Y-65.1
X72.6Y-72.6
X73.05Y-46.05
X73.05Y-66.75
X73.8Y-45.0
X74.55Y-27.9
X74.55Y-32.4
X77.4Y-71.85
X78.45Y-42.6
X79.2Y-42.0
X79.2Y-77.4
X80.55Y-40.5
X81.75Y-33.45
X82.5Y-38.55
X83.6Y-59.6
X84.7Y-58.2
X86.1Y-30.75
X86.1Y-84.3
X88.65Y-61.2
X88.65Y-61.65
X97.6Y-43.6
T2
X66.9Y-59.4
X67.5Y-58.5
X68.0Y-60.7
X68.1Y-67.3
X70.5Y-67.0
X70.92Y-63.289
X71.0Y-59.0
X71.0Y-62.0
X71.5Y-66.2
X74.0Y-67.0
X77.0Y-64.0
M30
